<?xml version="1.0" encoding="UTF-8"?>
<!DOCTYPE svg PUBLIC "-//W3C//DTD SVG 1.1//EN" "http://www.w3.org/Graphics/SVG/1.1/DTD/svg11.dtd">
<!-- Creator: CorelDRAW 2017 -->
<svg xmlns="http://www.w3.org/2000/svg" xml:space="preserve" width="437.25mm" height="317.764mm" version="1.1" style="shape-rendering:geometricPrecision; text-rendering:geometricPrecision; image-rendering:optimizeQuality; fill-rule:evenodd; clip-rule:evenodd"
viewBox="0 0 1558.5 1132.61"
 xmlns:xlink="http://www.w3.org/1999/xlink">
 <defs>
  <style type="text/css">
   <![CDATA[
    .str0 {stroke:#CFCFCF;stroke-width:1.57;stroke-linecap:round;stroke-linejoin:round;stroke-miterlimit:10}
    .str1 {stroke:#263138;stroke-width:1.26;stroke-linecap:round;stroke-linejoin:round;stroke-miterlimit:10}
    .fil4 {fill:none;fill-rule:nonzero}
    .fil11 {fill:#02CCC0;fill-rule:nonzero}
    .fil34 {fill:#02CCC0;fill-rule:nonzero}
    .fil19 {fill:#05B2A8;fill-rule:nonzero}
    .fil12 {fill:#06BFAD;fill-rule:nonzero}
    .fil33 {fill:#06BFAD;fill-rule:nonzero}
    .fil22 {fill:#07085B;fill-rule:nonzero}
    .fil10 {fill:#2089E0;fill-rule:nonzero}
    .fil2 {fill:#2095F2;fill-rule:nonzero}
    .fil6 {fill:#263138;fill-rule:nonzero}
    .fil21 {fill:#2E3F7D;fill-rule:nonzero}
    .fil15 {fill:#323096;fill-rule:nonzero}
    .fil26 {fill:#333333;fill-rule:nonzero}
    .fil17 {fill:#462D3B;fill-rule:nonzero}
    .fil16 {fill:#496E9A;fill-rule:nonzero}
    .fil18 {fill:#543646;fill-rule:nonzero}
    .fil8 {fill:#55769F;fill-rule:nonzero}
    .fil27 {fill:#5580D8;fill-rule:nonzero}
    .fil28 {fill:#A5C2FF;fill-rule:nonzero}
    .fil20 {fill:#AABACF;fill-rule:nonzero}
    .fil7 {fill:#ADCFD8;fill-rule:nonzero}
    .fil14 {fill:#BADEEF;fill-rule:nonzero}
    .fil35 {fill:#C4DFE8;fill-rule:nonzero}
    .fil23 {fill:#D19B3E;fill-rule:nonzero}
    .fil13 {fill:#DA557A;fill-rule:nonzero}
    .fil9 {fill:#DAEEF7;fill-rule:nonzero}
    .fil0 {fill:#DDF0FF;fill-rule:nonzero}
    .fil25 {fill:#F99893;fill-rule:nonzero}
    .fil29 {fill:#FD7982;fill-rule:nonzero}
    .fil30 {fill:#FDA19A;fill-rule:nonzero}
    .fil31 {fill:#FDA8A3;fill-rule:nonzero}
    .fil32 {fill:#FF5B7E;fill-rule:nonzero}
    .fil24 {fill:#FFC0BB;fill-rule:nonzero}
    .fil36 {fill:white;fill-rule:nonzero}
    .fil5 {fill:#E8E8E8;fill-rule:nonzero;fill-opacity:0.650980}
    .fil3 {fill:white;fill-rule:nonzero;fill-opacity:0.650980}
    .fil1 {fill:#DDF0FF;fill-rule:nonzero;fill-opacity:0.800000}
   ]]>
  </style>
 </defs>
 <g id="Layer_x0020_1">
  <metadata id="CorelCorpID_0Corel-Layer"/>
  <g id="_2259562214576">
   <path class="fil0" d="M1425.53 219.52c0,0 -97.86,-187.96 -313.98,-215.81 -216.11,-27.85 -366.99,107.9 -526.02,177.52 -83.28,36.46 -178.4,22.3 -266.82,39.94 -282.7,56.42 -389.19,409.92 -271.43,610.95 101.94,174.04 281.36,264.53 554.56,285.42 273.2,20.89 464.85,45.25 709.51,-125.31 244.66,-170.55 228.35,-525.59 114.17,-772.72z"/>
   <path class="fil1" d="M1425.53 219.52c0,0 -97.86,-187.96 -313.98,-215.81 -216.11,-27.85 -366.99,107.9 -526.02,177.52 -83.28,36.46 -178.4,22.3 -266.82,39.94 -282.7,56.42 -389.19,409.92 -271.43,610.95 101.94,174.04 281.36,264.53 554.56,285.42 273.2,20.89 464.85,45.25 709.51,-125.31 244.66,-170.55 228.35,-525.59 114.17,-772.72z"/>
  </g>
  <g id="_2259562216432">
   <path class="fil2" d="M1347.38 526.26c-13.81,9.88 -12.56,-4.31 23.62,-59.47 16.95,-25.85 52.6,-78.04 74.04,-48 20.6,28.86 -65.95,84.59 -65.95,84.59l-31.71 22.89zm34.66 33.03l0 0c0,0 99.96,-24.59 89.85,-58.58 -10.52,-35.38 -61.18,2.41 -85.62,21.35 -52.13,40.42 -57.92,53.44 -41.65,48.58l37.42 -11.35zm-22.98 64.35l0 0c0,0 79.98,-4.32 77.18,-31.77 -2.92,-28.57 -47.13,-7.02 -68.55,3.92 -45.71,23.35 -52.03,32.46 -38.89,31.1l30.26 -3.25zm-20.65 65.59l0 0c0,0 79.99,-4.32 77.18,-31.77 -2.92,-28.57 -47.13,-7.03 -68.55,3.92 -45.71,23.35 -52.03,32.46 -38.89,31.1l30.26 -3.26zm-24.75 -173.86l0 0c0,0 -51.69,-89.02 -81.47,-69.76 -30.99,20.04 19.51,58.04 44.56,76.17 53.44,38.67 67.56,40.57 58.33,26.32l-21.41 -32.73zm-17.14 51.08l0 0c0,0 -68.36,-76.96 -93.71,-52.18 -26.39,25.8 30.66,53.01 58.81,65.79 60.07,27.27 74.28,26.33 62.39,14.2l-27.49 -27.82zm-11.4 60.3l0 0c0,0 -59.59,-63.5 -80.46,-41.95 -21.72,22.43 27.15,44.12 51.25,54.27 51.43,21.68 63.42,20.55 53.09,10.57l-23.89 -22.89zm-14.05 46.84l0 0c0,0 -52.51,-69.47 -75.55,-50.26 -23.98,20 22.31,46.75 45.2,59.41 48.83,27.01 60.88,27.16 51.67,16.14l-21.33 -25.29zm81.56 -230.72l0 0c0,0 30.47,-117.64 -16.47,-122.5 -48.85,-5.06 -33.85,66.2 -25.75,100.9 17.29,74.04 29.46,86.18 33.39,66.64l8.83 -45.03z"/>
   <path class="fil3" d="M1347.38 526.26c-13.81,9.88 -12.56,-4.31 23.62,-59.47 16.95,-25.85 52.6,-78.04 74.04,-48 20.6,28.86 -65.95,84.59 -65.95,84.59l-31.71 22.89zm34.66 33.03l0 0c0,0 99.96,-24.59 89.85,-58.58 -10.52,-35.38 -61.18,2.41 -85.62,21.35 -52.13,40.42 -57.92,53.44 -41.65,48.58l37.42 -11.35zm-22.98 64.35l0 0c0,0 79.98,-4.32 77.18,-31.77 -2.92,-28.57 -47.13,-7.02 -68.55,3.92 -45.71,23.35 -52.03,32.46 -38.89,31.1l30.26 -3.25zm-20.65 65.59l0 0c0,0 79.99,-4.32 77.18,-31.77 -2.92,-28.57 -47.13,-7.03 -68.55,3.92 -45.71,23.35 -52.03,32.46 -38.89,31.1l30.26 -3.26zm-24.75 -173.86l0 0c0,0 -51.69,-89.02 -81.47,-69.76 -30.99,20.04 19.51,58.04 44.56,76.17 53.44,38.67 67.56,40.57 58.33,26.32l-21.41 -32.73zm-17.14 51.08l0 0c0,0 -68.36,-76.96 -93.71,-52.18 -26.39,25.8 30.66,53.01 58.81,65.79 60.07,27.27 74.28,26.33 62.39,14.2l-27.49 -27.82zm-11.4 60.3l0 0c0,0 -59.59,-63.5 -80.46,-41.95 -21.72,22.43 27.15,44.12 51.25,54.27 51.43,21.68 63.42,20.55 53.09,10.57l-23.89 -22.89zm-14.05 46.84l0 0c0,0 -52.51,-69.47 -75.55,-50.26 -23.98,20 22.31,46.75 45.2,59.41 48.83,27.01 60.88,27.16 51.67,16.14l-21.33 -25.29zm81.56 -230.72l0 0c0,0 30.47,-117.64 -16.47,-122.5 -48.85,-5.06 -33.85,66.2 -25.75,100.9 17.29,74.04 29.46,86.18 33.39,66.64l8.83 -45.03z"/>
   <path class="fil4 str0" d="M1329.03 364.64c0,0 17.92,146.38 6.26,206.58 -13.4,69.17 -38.17,140.97 -68,194.52"/>
   <line class="fil4 str0" x1="1339.51" y1="529.8" x2="1408.7" y2= "444.88" />
   <line class="fil4 str0" x1="1335.29" y1="571.23" x2="1423.95" y2= "519.17" />
   <line class="fil4 str0" x1="1336.74" y1="556.11" x2="1264.28" y2= "486.44" />
   <line class="fil4 str0" x1="1323.16" y1="624.95" x2="1407.39" y2= "600.21" />
   <line class="fil4 str0" x1="1327.96" y1="602.26" x2="1265.49" y2= "561.92" />
   <line class="fil4 str0" x1="1311.15" y1="655.52" x2="1261.78" y2= "626.91" />
   <line class="fil4 str0" x1="1302.61" y1="690.89" x2="1350.19" y2= "672.85" />
   <line class="fil4 str0" x1="1296.4" y1="704.87" x2="1241.83" y2= "666.37" />
   <path class="fil2" d="M1451.04 698.59c-12.04,-2.49 -3.88,-8.8 43.25,-16.67 22.09,-3.69 67.37,-10.38 61.93,15.79 -5.23,25.15 -77.41,6.49 -77.41,6.49l-27.76 -5.62zm-0.53 34.67l0 0c0,0 62.21,41.08 75.32,19 13.65,-22.99 -31.36,-31.36 -53.44,-35.05 -47.13,-7.86 -56.89,-4.54 -46.31,1.72l24.43 14.33zm-45.52 19.41l0 0c0,0 41.61,40.42 54.84,25.44 13.76,-15.6 -19.43,-28.52 -35.78,-34.54 -34.89,-12.84 -42.84,-11.72 -35.66,-5.4l16.6 14.5zm-45.04 21.26l0 0c0,0 41.61,40.42 54.84,25.44 13.76,-15.6 -19.43,-28.52 -35.78,-34.54 -34.89,-12.84 -42.84,-11.72 -35.66,-5.4l16.6 14.49zm80.32 -98.62l0 0c0,0 21.94,-71.25 -2.94,-77.63 -25.89,-6.64 -21.29,38.91 -18.61,61.14 5.7,47.44 11.63,55.88 14.67,43.96l6.88 -27.47zm-35.59 15.99l0 0c0,0 7.34,-74.19 -18.31,-75.49 -26.7,-1.36 -13.13,42.36 -6.09,63.62 15.02,45.36 22.5,52.45 23.11,40.17l1.28 -28.29zm-37.68 23.58l0 0c0,0 4.49,-62.91 -17.23,-63.42 -22.61,-0.53 -10.12,36.13 -3.68,53.94 13.75,38.01 20.24,43.84 20.48,33.44l0.43 -23.96zm-31.82 15.55l0 0c0,0 11.14,-62.08 -10.4,-64.89 -22.42,-2.93 -13.9,34.85 -9.38,53.24 9.64,39.25 15.48,45.74 16.81,35.42l2.97 -23.78zm162.82 -70.02l0 0c0,0 77.55,-41.62 57.07,-68.97 -21.32,-28.48 -51.85,14.53 -66.33,35.9 -30.88,45.59 -31.36,58.03 -19.04,50.51l28.29 -17.44z"/>
   <path class="fil5" d="M1451.04 698.59c-12.04,-2.49 -3.88,-8.8 43.25,-16.67 22.09,-3.69 67.37,-10.38 61.93,15.79 -5.23,25.15 -77.41,6.49 -77.41,6.49l-27.76 -5.62zm-0.53 34.67l0 0c0,0 62.21,41.08 75.32,19 13.65,-22.99 -31.36,-31.36 -53.44,-35.05 -47.13,-7.86 -56.89,-4.54 -46.31,1.72l24.43 14.33zm-45.52 19.41l0 0c0,0 41.61,40.42 54.84,25.44 13.76,-15.6 -19.43,-28.52 -35.78,-34.54 -34.89,-12.84 -42.84,-11.72 -35.66,-5.4l16.6 14.5zm-45.04 21.26l0 0c0,0 41.61,40.42 54.84,25.44 13.76,-15.6 -19.43,-28.52 -35.78,-34.54 -34.89,-12.84 -42.84,-11.72 -35.66,-5.4l16.6 14.49zm80.32 -98.62l0 0c0,0 21.94,-71.25 -2.94,-77.63 -25.89,-6.64 -21.29,38.91 -18.61,61.14 5.7,47.44 11.63,55.88 14.67,43.96l6.88 -27.47zm-35.59 15.99l0 0c0,0 7.34,-74.19 -18.31,-75.49 -26.7,-1.36 -13.13,42.36 -6.09,63.62 15.02,45.36 22.5,52.45 23.11,40.17l1.28 -28.29zm-37.68 23.58l0 0c0,0 4.49,-62.91 -17.23,-63.42 -22.61,-0.53 -10.12,36.13 -3.68,53.94 13.75,38.01 20.24,43.84 20.48,33.44l0.43 -23.96zm-31.82 15.55l0 0c0,0 11.14,-62.08 -10.4,-64.89 -22.42,-2.93 -13.9,34.85 -9.38,53.24 9.64,39.25 15.48,45.74 16.81,35.42l2.97 -23.78zm162.82 -70.02l0 0c0,0 77.55,-41.62 57.07,-68.97 -21.32,-28.48 -51.85,14.53 -66.33,35.9 -30.88,45.59 -31.36,58.03 -19.04,50.51l28.29 -17.44z"/>
   <path class="fil4 str0" d="M1528 609.4c0,0 -69.05,81.48 -106.81,104.87 -43.38,26.87 -97.91,50.17 -141.06,60.62"/>
   <line class="fil4 str0" x1="1445.29" y1="696.15" x2="1524.48" y2= "691.21" />
   <line class="fil4 str0" x1="1421.18" y1="714.27" x2="1492.45" y2= "735.84" />
   <line class="fil4 str0" x1="1429.94" y1="707.61" x2="1431.38" y2= "634.82" />
   <line class="fil4 str0" x1="1386.65" y1="734.22" x2="1441.21" y2= "766.86" />
   <line class="fil4 str0" x1="1401.07" y1="725.62" x2="1391.83" y2= "672.56" />
   <line class="fil4 str0" x1="1364.48" y1="742.86" x2="1355.43" y2= "702.53" />
   <line class="fil4 str0" x1="1341.47" y1="755.7" x2="1374.45" y2= "772.15" />
   <line class="fil4 str0" x1="1330.98" y1="759.27" x2="1324.64" y2= "711.32" />
   <path class="fil6" d="M1357.53 400.52l-2.24 -1.14c0.75,0.37 1.49,0.74 2.24,1.14z"/>
   <path class="fil4 str1" d="M1355.29 399.39c0.75,0.37 1.49,0.74 2.24,1.14"/>
  </g>
  <path class="fil2" d="M749.38 834.22l-194.59 78.15 -240.88 -599.79 164.49 -66.06c16.63,-6.68 35.52,1.39 42.2,18.01l228.78 569.68z"/>
  <polygon class="fil7" points="772.28,811.91 399.69,877.96 306.82,354.09 679.41,288.04 "/>
  <polygon class="fil8" points="585.96,362.09 419.58,391.58 418.92,387.85 585.3,358.35 "/>
  <polygon class="fil8" points="619.23,346.42 382.95,388.31 382.28,384.57 618.57,342.68 "/>
  <polygon class="fil8" points="653.06,390.65 366.39,441.47 365.72,437.73 652.4,386.91 "/>
  <polygon class="fil8" points="656.24,408.61 369.57,459.43 368.91,455.7 655.58,404.88 "/>
  <polygon class="fil8" points="662.62,444.55 375.94,495.36 375.28,491.63 661.96,440.81 "/>
  <polygon class="fil8" points="665.8,462.51 379.12,513.33 378.46,509.6 665.14,458.78 "/>
  <polygon class="fil8" points="668.99,480.48 382.31,531.3 381.65,527.56 668.33,476.74 "/>
  <polygon class="fil8" points="683,559.5 396.32,610.32 395.66,606.58 682.33,555.76 "/>
  <polygon class="fil8" points="686.3,578.13 399.62,628.95 398.96,625.21 685.63,574.39 "/>
  <polygon class="fil8" points="689.6,596.76 402.92,647.58 402.26,643.85 688.94,593.02 "/>
  <polygon class="fil8" points="692.9,615.39 406.23,666.21 405.56,662.48 692.24,611.65 "/>
  <polygon class="fil8" points="696.21,634.02 409.53,684.84 408.87,681.11 695.54,630.28 "/>
  <polygon class="fil8" points="699.51,652.64 412.83,703.47 412.17,699.73 698.84,648.91 "/>
  <polygon class="fil8" points="702.81,671.27 416.13,722.1 415.47,718.36 702.15,667.54 "/>
  <polygon class="fil9" points="761.12,789.48 395.18,885.78 259.77,371.27 625.71,274.96 "/>
  <polygon class="fil8" points="538.63,356.4 375.22,399.41 374.25,395.74 537.67,352.73 "/>
  <polygon class="fil8" points="570.52,338.06 338.44,399.14 337.48,395.47 569.55,334.39 "/>
  <polygon class="fil8" points="607.85,379.38 326.29,453.48 325.32,449.81 606.88,375.71 "/>
  <polygon class="fil8" points="612.49,397.02 330.93,471.12 329.96,467.45 611.52,393.35 "/>
  <polygon class="fil8" points="621.77,432.31 340.22,506.41 339.25,502.74 620.81,428.64 "/>
  <polygon class="fil8" points="626.42,449.96 344.86,524.05 343.89,520.39 625.46,446.29 "/>
  <polygon class="fil8" points="631.07,467.6 349.5,541.7 348.54,538.03 630.1,463.94 "/>
  <polygon class="fil8" points="651.49,545.21 369.93,619.31 368.96,615.64 650.52,541.54 "/>
  <polygon class="fil8" points="656.3,563.51 374.74,637.61 373.78,633.94 655.34,559.84 "/>
  <polygon class="fil8" points="661.12,581.81 379.56,655.91 378.59,652.24 660.15,578.14 "/>
  <polygon class="fil8" points="665.93,600.1 384.38,674.2 383.41,670.54 664.97,596.44 "/>
  <polygon class="fil8" points="670.75,618.4 389.19,692.5 388.23,688.83 669.79,614.73 "/>
  <polygon class="fil8" points="675.57,636.7 394.01,710.8 393.04,707.13 674.6,633.03 "/>
  <polygon class="fil8" points="680.38,655 398.82,729.1 397.86,725.43 679.41,651.33 "/>
  <path class="fil10" d="M675.55 863.88l-391.76 157.33 -228.49 -568.94 329.2 -203.08c18.5,-11.41 42.82,-3.41 50.92,16.77l240.13 597.92z"/>
  <path class="fil11" d="M810.31 274.08l45.05 -33.09c-4.46,-39.91 -10.48,-73.1 -10.48,-73.1 -59.94,24.55 -99.99,60.18 -126.38,99.73l14.32 62.63 -30.68 -34.33c-55.56,111.96 -20.04,240.72 -20.04,240.72 0,0 146.78,-129.11 169.38,-168.55 8.72,-15.23 9.72,-48.54 7.67,-83.71 -20.35,-2.98 -48.83,-10.3 -48.83,-10.3z"/>
  <path class="fil12" d="M844.88 167.89c0,0 -143.17,229.82 -162.78,368.75 0,0 146.78,-129.11 169.38,-168.55 8.72,-15.23 9.72,-48.54 7.67,-83.71 -20.35,-2.98 -48.83,-10.3 -48.83,-10.3l45.05 -33.09c-4.46,-39.91 -10.48,-73.1 -10.48,-73.1z"/>
  <path class="fil11" d="M935.27 309.56c-39.25,2.69 -73.26,13.31 -102.57,28.68 -0.95,15.31 -2.48,33.61 -2.48,33.61l-17.19 -22.17c-106.1,67.98 -142.6,197.06 -142.6,197.06 86.06,-4.56 144.16,-30.11 183.4,-62.87 -3.2,-9.75 -8.15,-24.16 -8.15,-24.16l20.35 13.19c17.74,-17.21 30.94,-35.87 40.76,-54.22 -10.63,-6.79 -22.44,-14.79 -22.44,-14.79l31.05 -3.08c21.08,-48.94 19.87,-91.26 19.87,-91.26z"/>
  <path class="fil12" d="M853.83 483.87c-3.2,-9.75 -8.15,-24.16 -8.15,-24.16l20.35 13.19c17.74,-17.21 30.94,-35.87 40.76,-54.22 -10.63,-6.79 -22.44,-14.79 -22.44,-14.79l31.05 -3.08c21.08,-48.94 19.87,-91.26 19.87,-91.26 -129.55,70.82 -264.84,237.19 -264.84,237.19 86.06,-4.56 144.16,-30.11 183.4,-62.87z"/>
  <path class="fil10" d="M1295.4 473.27l26.8 0c-4.39,-3 -9.86,-4.79 -15.83,-4.79l-671.14 0c-35.11,0 -63.58,25.23 -63.58,56.36l0 35.8c0,31.13 28.47,56.36 63.58,56.36l663.63 -0.2 -3.46 -143.52z"/>
  <path class="fil0" d="M627.95 560.64l0 -35.8c0,-31.13 28.47,-56.36 63.58,-56.36l-14.41 0c-35.12,0 -63.58,25.23 -63.58,56.36l0 35.8c0,31.12 28.46,56.36 63.58,56.36l14.22 0c-35.02,-0.1 -63.38,-25.29 -63.38,-56.36z"/>
  <path class="fil0" d="M785.13 560.64l0 -35.8c0,-31.13 28.47,-56.36 63.58,-56.36l-14.42 0c-35.11,0 -63.58,25.23 -63.58,56.36l0 35.8c0,31.12 28.47,56.36 63.58,56.36l14.22 0c-35.03,-0.1 -63.39,-25.29 -63.39,-56.36z"/>
  <path class="fil2" d="M914.39 468.62c-33.58,0 -60.8,24.13 -60.8,53.9l0 40.45c0,29.77 27.22,53.9 60.8,53.9l417.8 0 0 -9.06 -1.72 0 -106.22 -8.91 -21.46 -74.66c0,0 41.44,-41.25 44.14,-42.32 2.69,-1.06 83.54,-4.29 83.54,-4.29l1.72 -0.02 0 -9 -417.8 0z"/>
  <path class="fil9" d="M1305.1 542.47c0,-43.65 25.44,-64.81 25.44,-64.81l-407.6 0c-30.85,0 -55.85,22.16 -55.85,49.51l0 31.14c0,27.34 25,49.5 55.85,49.5l407.6 0c0,0 -25.44,-10.38 -25.44,-65.34z"/>
  <path class="fil13" d="M867.1 558.51c0,-0.01 0,-0.01 0,-0.01 0,0 0,0.01 0,0.01zm0 -0.09c0,-0.01 0,-0.01 0,-0.02 0,0.01 0,0.01 0,0.02z"/>
  <path class="fil14" d="M868.73 570.18c-1.04,-3.74 -1.61,-7.65 -1.63,-11.67 0,-0.01 0,-0.01 0,-0.01 0,-0.03 0,-0.05 0,-0.08 0,-0.01 0,-0.01 0,-0.02 0,-0.03 0,-0.06 0,-0.09l0 -31.14c0,-27.34 25,-49.51 55.85,-49.51l407.6 0 0 0c0,0 -254.47,3.19 -371.57,24.75 -50.16,9.23 -76.5,37.95 -90.25,67.76z"/>
  <path class="fil15" d="M1284.36 770.12l30.32 0c-4.97,-3.75 -11.17,-6 -17.91,-6l-759.61 0c-39.74,0 -71.96,31.58 -71.96,70.54l0 44.81c0,38.96 32.22,70.55 71.96,70.55l751.1 -0.25 -3.9 -179.65z"/>
  <path class="fil2" d="M853.12 764.29c-38,0 -68.82,30.2 -68.82,67.46l0 50.63c0,37.26 30.81,67.46 68.82,67.46l472.87 0 0 -11.33 -1.95 0 -120.22 -11.16 -24.3 -93.45c0,0 46.89,-51.64 49.96,-52.97 3.06,-1.33 94.56,-5.37 94.56,-5.37l1.95 -0.02 0 -11.26 -472.87 0z"/>
  <path class="fil9" d="M1295.31 856.74c0,-54.64 28.8,-81.12 28.8,-81.12l-461.31 0c-34.91,0 -63.21,27.74 -63.21,61.97l0 38.98c0,34.22 28.3,61.97 63.21,61.97l461.31 0c0,0 -28.8,-13 -28.8,-81.79z"/>
  <path class="fil16" d="M799.6 876.92l0 0 0 0zm0 -0.11c0,-0.01 0,-0.01 0,-0.02 0,0.01 0,0.01 0,0.02zm0 -0.11c0,-0.01 0,-0.02 0,-0.03 0,0.01 0,0.01 0,0.03z"/>
  <path class="fil14" d="M801.44 891.42c-1.17,-4.65 -1.81,-9.5 -1.84,-14.5l0 0c0,-0.04 0,-0.07 0,-0.11 0,-0.01 0,-0.01 0,-0.02 0,-0.03 0,-0.06 0,-0.09 0,-0.01 0,-0.02 0,-0.03 0,-0.04 0,-0.08 0,-0.12l0 -38.98c0,-34.23 28.3,-61.97 63.21,-61.97l461.31 0 0 0c0,0 -288,4 -420.54,30.98 -56.76,11.56 -86.59,47.51 -102.14,84.82z"/>
  <path class="fil17" d="M440.17 621.38l-30.33 0c4.96,-2.98 11.17,-4.76 17.93,-4.76l759.9 0c39.76,0 71.98,25.06 71.98,55.98l0 35.55c0,30.92 -32.23,55.98 -71.98,55.98l-751.4 -0.2 3.91 -142.55z"/>
  <path class="fil18" d="M871.58 616.75c38.02,0 68.84,23.96 68.84,53.53l0 40.18c0,29.56 -30.82,53.53 -68.84,53.53l-473.06 0 0 -8.98 1.95 0 120.26 -8.86 24.3 -74.15c0,0 -46.91,-40.97 -49.97,-42.03 -3.06,-1.06 -94.59,-4.26 -94.59,-4.26l-1.95 -0.01 0 -8.94 473.06 0z"/>
  <path class="fil9" d="M429.21 690.11c0,-43.36 -28.81,-64.37 -28.81,-64.37l461.5 0c34.92,0 63.23,22.02 63.23,49.17l0 30.93c0,27.15 -28.31,49.17 -63.23,49.17l-461.5 0c0,0 28.81,-10.31 28.81,-64.9z"/>
  <path class="fil19" d="M925.12 706.04c0,-0.01 0,-0.01 0,-0.02 0,0.01 0,0.01 0,0.02zm0 -0.09c0,-0.01 0,-0.01 0,-0.03 0,0.01 0,0.02 0,0.03z"/>
  <path class="fil14" d="M923.28 717.63c-15.57,-29.61 -45.4,-58.13 -102.18,-67.3 -132.59,-21.41 -420.7,-24.59 -420.7,-24.59l461.5 0c34.92,0 63.23,22.02 63.23,49.17l0 30.93c0,0.03 0,0.06 0,0.08 0,0.01 0,0.02 0,0.03 0,0.02 0,0.05 0,0.07 0,0.01 0,0.01 0,0.02 -0.02,4 -0.67,7.88 -1.84,11.59z"/>
  <path class="fil20" d="M1121.12 764.13l-5.48 0 -66.24 -0.02c0.36,-0.01 0.72,-0.01 1.09,-0.02l71.99 0.02c-0.46,0.01 -0.9,0.01 -1.36,0.02z"/>
  <path class="fil21" d="M1120.61 764.13l-4.97 0 5.48 0c-0.17,0 -0.34,0 -0.51,0z"/>
  <path class="fil18" d="M1122.48 764.11l-71.99 -0.02c38.81,-0.84 69.95,-25.56 69.95,-55.94l0 -35.55c0,-30.92 -32.23,-55.98 -71.99,-55.98l72.16 0c39.76,0 71.98,25.06 71.98,55.98l0 35.55c0,30.43 -31.22,55.19 -70.11,55.96z"/>
  <path class="fil17" d="M382.8 955.72l-32.7 0c5.35,-3.33 12.04,-5.32 19.32,-5.32l819.19 0c42.86,0 77.61,28 77.61,62.54l0 39.73c0,34.54 -34.75,62.54 -77.61,62.54l-810.02 -0.22 4.21 -159.27z"/>
  <path class="fil18" d="M847.87 950.55c40.99,0 74.21,26.77 74.21,59.81l0 44.9c0,33.03 -33.23,59.81 -74.21,59.81l-509.97 0 0 -10.04 2.11 0 129.64 -9.89 26.2 -82.84c0,0 -50.57,-45.78 -53.87,-46.96 -3.3,-1.18 -101.97,-4.77 -101.97,-4.77l-2.11 -0.02 0 -9.98 509.97 0z"/>
  <path class="fil9" d="M370.98 1032.51c0,-48.44 -31.06,-71.92 -31.06,-71.92l497.5 0c37.64,0 68.16,24.59 68.16,54.93l0 34.56c0,30.34 -30.52,54.93 -68.16,54.93l-497.5 0c0,0 31.06,-11.52 31.06,-72.5z"/>
  <path class="fil22" d="M399.26 1068.37l6.96 15.53c0.58,1.29 0,2.79 -1.28,3.37l-36.37 16.3c-2.63,1.18 -5.18,-1.81 -3.59,-4.21l14.07 -21.93c0,0 11.12,2.03 20.2,-9.05z"/>
  <path class="fil22" d="M445.46 1068.37l6.96 15.53c0.58,1.29 0,2.79 -1.28,3.37l-36.37 16.3c-2.63,1.18 -5.17,-1.81 -3.59,-4.21l14.07 -21.93c0,0 11.13,2.03 20.2,-9.05z"/>
  <path class="fil22" d="M1225.49 602.65l-6.95 15.53c-0.58,1.28 -0.01,2.79 1.28,3.37l36.36 16.3c2.64,1.18 5.17,-1.81 3.59,-4.22l-14.07 -21.92c0,0 -11.12,2.04 -20.21,-9.06z"/>
  <path class="fil22" d="M1178.37 600.8l-6.96 15.53c-0.58,1.28 0,2.79 1.28,3.36l36.36 16.3c2.64,1.18 5.19,-1.8 3.6,-4.21l-14.07 -21.93c0,0 -11.13,2.04 -20.21,-9.06z"/>
  <path class="fil23" d="M905.59 1050.31c0,-0.01 0,-0.01 0,-0.02 0,0.01 0,0.01 0,0.02zm0 -0.1c0,-0.01 0,-0.01 0,-0.02 0,0.01 0,0.01 0,0.02z"/>
  <path class="fil14" d="M903.6 1063.25c-16.78,-33.08 -48.94,-64.95 -110.15,-75.2 -142.93,-23.92 -453.53,-27.47 -453.53,-27.47l497.5 0c37.64,0 68.16,24.59 68.16,54.93l0 34.56c0,0.03 0,0.06 0,0.1 0,0.01 0,0.01 0,0.02 0,0.03 0,0.06 0,0.08 0,0.01 0,0.01 0,0.02 -0.02,4.46 -0.72,8.8 -1.99,12.95z"/>
  <path class="fil22" d="M524.01 640.19l3.87 24.25 8.17 -32.33c0,0 -11.45,-5.56 -11.95,-3.53 -0.51,2.02 -0.08,11.61 -0.08,11.61z"/>
  <polygon class="fil24" points="589,692.39 592.54,734.32 555.54,732.55 559.81,695.42 "/>
  <path class="fil25" d="M557.78 713.08l2.03 -17.66 29.2 -3.03 1.22 14.52c-5.8,5.78 -16.24,11.78 -32.45,6.17z"/>
  <path class="fil25" d="M535.09 664.14c2.23,4.6 1.05,9.77 -2.64,11.55 -3.68,1.78 -8.46,-0.51 -10.69,-5.1 -2.22,-4.6 -1.04,-9.77 2.64,-11.56 3.68,-1.78 8.47,0.51 10.69,5.11z"/>
  <path class="fil24" d="M529.72 667.51c-0.19,-1.2 -0.46,-2.39 -0.74,-3.57 -1.15,-4.77 -1.46,-9.89 -0.65,-15.22 2.57,-17.15 16.37,-30.83 33.56,-33.21 23.15,-3.2 43.54,13.94 44.98,36.64 2.39,-1.53 5.14,-2.02 7.64,-1.08 4.82,1.79 6.9,8.12 4.66,14.15 -2.24,6.02 -7.96,9.44 -12.78,7.65 -0.67,-0.25 -1.28,-0.6 -1.83,-1.01 -0.74,19.44 -15.63,35.35 -34.63,36.25 -9.29,0.44 -17.94,-2.8 -24.65,-8.48 -9.12,-6.71 -13.74,-20.95 -15.54,-32.12z"/>
  <path class="fil25" d="M558.54 654.84c-0.08,2.26 -0.1,4.47 -0.21,6.64 -0.14,2.12 -0.37,4.38 -1.22,5.87 -0.87,1.21 -1.55,1.98 -1.57,3.46 -0.05,1.5 0.74,2.84 1.73,3.66 2.02,1.7 4.64,1.86 6.8,1.33 -2.21,-0.39 -4.33,-1.15 -5.56,-2.6 -0.57,-0.72 -0.95,-1.52 -0.82,-2.27 0.1,-0.83 0.35,-1 1.35,-2.39 0.71,-1.21 0.94,-2.44 1.07,-3.62 0.11,-1.19 0.1,-2.34 -0.01,-3.49 -0.22,-2.28 -0.71,-4.5 -1.56,-6.61z"/>
  <path class="fil26" d="M571.66 657.83c0.09,1.9 1.71,3.38 3.61,3.29 1.91,-0.09 3.37,-1.71 3.28,-3.61 -0.09,-1.91 -1.71,-3.37 -3.61,-3.28 -1.9,0.09 -3.37,1.7 -3.28,3.6z"/>
  <path class="fil26" d="M542.15 661.15c0.09,1.9 1.71,3.37 3.61,3.29 1.9,-0.09 3.37,-1.71 3.28,-3.61 -0.09,-1.9 -1.71,-3.37 -3.61,-3.29 -1.9,0.09 -3.37,1.71 -3.28,3.61z"/>
  <path class="fil25" d="M577.45 681.19c-0.91,0.79 -1.85,1.52 -2.85,2.16 -0.99,0.67 -2.01,1.27 -3.07,1.78 -2.12,1.03 -4.38,1.78 -6.7,2.06 -2.31,0.29 -4.68,0.09 -6.95,-0.51 -2.26,-0.63 -4.42,-1.68 -6.46,-2.94 2.22,1.86 4.05,2.79 6.27,3.6 2.32,0.78 4.65,1.04 7.27,0.74 2.44,-0.32 4.8,-1.13 6.91,-2.34 2.11,-1.21 4.05,-2.72 5.6,-4.56z"/>
  <path class="fil22" d="M567.32 650.04c1.76,-0.54 3.41,-0.96 5.05,-1.21 1.64,-0.25 3.23,-0.29 4.8,-0.1 1.55,0.21 3.11,0.54 4.61,1.22 1.15,0.36 3.93,2 4.66,2.32 -0.85,-1.57 -2.09,-3.25 -3.62,-4.17 -1.51,-1.15 -3.43,-1.82 -5.35,-2.06 -1.94,-0.23 -3.91,0.05 -5.67,0.76 -1.74,0.71 -3.35,1.78 -4.48,3.26z"/>
  <path class="fil22" d="M552.12 651.75c-1.39,-1.23 -3.17,-1.97 -5.02,-2.33 -1.86,-0.35 -3.85,-0.24 -5.71,0.36 -1.84,0.61 -3.59,1.63 -4.85,3.05 -1.32,1.21 -2.21,3.1 -2.74,4.81 0.66,-0.46 3.07,-2.61 4.12,-3.18 1.34,-0.96 2.8,-1.59 4.28,-2.1 1.49,-0.49 3.07,-0.75 4.72,-0.82 1.65,-0.07 3.36,0.01 5.19,0.2z"/>
  <path class="fil22" d="M523.27 617.25c0,0 -11.61,0.37 0.58,-9.44 12.18,-9.82 44.88,-21.33 65.85,-10.25 0,0 4.19,-8.91 10.25,-6.78 6.06,2.13 -3.94,8.26 -3.94,8.26 0,0 7.74,-0.25 10.1,3.55 1.74,2.8 -2.99,2.92 -5.58,2.8 4.4,0.75 21.29,11.41 12.81,45.47 -3.01,-0.66 -20.18,-25.56 -20.18,-25.56 0,0 -39.26,21.81 -35.37,4.46 0,0 -40.68,25.39 -34.91,4.42 0,0 -15.73,1.15 0.39,-16.92z"/>
  <path class="fil22" d="M613.37 651.05c0,0 -3.25,-1.14 -6.75,1.63 -3.5,2.78 -3.11,12.52 -3.11,12.52 0,0 -16.69,10.76 -14.93,-34.78 1.87,-48.44 13.92,3.89 13.92,3.89l10.86 16.74z"/>
  <polygon class="fil9" points="1137.25,1083.95 1482.38,1083.95 1482.38,1064.81 1137.25,1064.81 "/>
  <path class="fil9" d="M1472.75 916.72l5.24 24.07c2,9.23 -3.88,18.33 -13.13,20.28l-308.22 65.05c-9.46,1.99 -18.69,-4.26 -20.31,-13.79l-2.71 -15.81c-1.22,-7.18 2.25,-14.36 8.66,-17.84l92.3 -50.21c1.97,-1.06 4.09,-1.73 6.31,-1.97l211.44 -22.85 1.52 -0.2c8.8,-1.17 17.01,4.6 18.9,13.26z"/>
  <path class="fil2" d="M1161.01 988.26c0,0 -44.01,32.06 -11.95,84.93l-1.91 13.63 -56.46 3.83 -51.67 -10.52 -9.57 -86.13 123.92 -36.84 7.66 31.1z"/>
  <path class="fil27" d="M1031.91 1115.2l479.26 0c4.54,0 8.21,-3.67 8.21,-8.21l0 -25.6c0,-4.53 -3.68,-8.21 -8.21,-8.21l-479.26 0c-4.53,0 -8.21,3.68 -8.21,8.21l0 25.6c0,4.53 3.67,8.21 8.21,8.21z"/>
  <path class="fil27" d="M1508.31 911.19l-352.27 83.07c-2.83,0.67 -5.76,0.58 -8.54,-0.22 -13.86,-3.98 -60.86,-13.91 -100.4,19.84 -9.34,7.97 -23.76,3.73 -27.11,-8.07l-6.3 -22.16c-2.05,-7.18 0.9,-14.84 7.23,-18.8 51.14,-32.01 275.06,-166.05 422.46,-155.84 13.89,0.96 26.43,8.71 33.51,20.71l38.41 65.08c3.79,6.43 0.27,14.68 -6.99,16.39z"/>
  <path class="fil10" d="M1072.18 1039.51c0,11.63 9.43,21.05 21.05,21.05 11.63,0 21.05,-9.43 21.05,-21.05 0,-11.63 -9.43,-21.05 -21.05,-21.05 -11.63,0 -21.05,9.43 -21.05,21.05z"/>
  <path class="fil28" d="M1135.87 97.89c0,0 39.63,-6.68 52.93,37.6l-16.42 24.57c0,0 -34.43,-13.22 -34.56,-14.52 -0.14,-1.29 -1.96,-47.64 -1.96,-47.64z"/>
  <path class="fil28" d="M1072.08 117.83c0,0 -11.56,17.39 -17.46,24.28 -14.83,17.34 -16.74,11.9 -25.97,26.82 -9.95,16.1 0.12,26.18 5.84,30.82 5.72,4.64 -3.85,21.8 6.81,31.42 7.87,7.1 15.4,6.42 22.2,5.74 5.26,-0.53 10.08,-1.05 14.27,2.03 9.6,7.05 11.7,17.51 34.46,15.54 22.76,-1.98 22.54,-76.39 22.54,-76.39 0,0 -18.64,-39.45 -19.37,-39.78 -0.74,-0.32 -43.33,-20.47 -43.33,-20.47z"/>
  <path class="fil28" d="M1188.8 135.48c0,0 1.36,13.66 5.87,21.52 11.36,19.79 17.48,13.31 23.77,29.67 6.81,17.66 -4.97,25.7 -11.45,29.2 -6.48,3.5 -0.25,22.14 -12.51,29.61 -8.9,5.42 -16.07,3.52 -22.54,1.63 -5.21,-1.53 -9.95,-3.05 -14.74,-0.75 -10.74,5.15 -14.76,15.04 -36.75,8.88 -22,-6.16 -7.98,-79.25 -7.98,-79.25 0,0 25.63,-35.32 26.41,-35.5 0.79,-0.18 49.92,-5.02 49.92,-5.02z"/>
  <path class="fil24" d="M1131.29 223.61c0,0 -37.99,-6.99 -55.46,-6.4 -17.46,0.59 10.59,46.01 10.59,46.01l28.53 0.63c0,0 17.49,-19.53 16.34,-21.81 -1.15,-2.27 0.05,-17.17 0.05,-17.17l-0.05 -1.26z"/>
  <path class="fil24" d="M1097.42 187.36l-10.02 30.41c0,0 8.72,18.04 35.44,10.26 0,0 -3.05,-6.3 1.04,-19.27 4.17,-13.25 -26.46,-21.4 -26.46,-21.4z"/>
  <path class="fil29" d="M1121.76 221.22c-0.01,0 -0.01,0 -0.01,0 0,-2.24 0.26,-5.05 1.03,-8.42l0 0c-0.78,3.37 -1.03,6.17 -1.02,8.42z"/>
  <path class="fil29" d="M1092.73 201.6c0,-0.01 -0.01,-0.02 -0.01,-0.04l1.23 -3.7c0.01,0 0.01,0.01 0.01,0.01l-1.23 3.73z"/>
  <path class="fil30" d="M1121.75 221.22c-17.12,-2.2 -26.2,-9.25 -29.02,-19.61l1.23 -3.73c6.82,8.82 17.15,14.58 28.82,14.92 -0.78,3.37 -1.03,6.17 -1.03,8.42z"/>
  <path class="fil25" d="M1158.54 165.1c-2.17,4.94 -0.72,10.35 3.23,12.08 3.94,1.73 8.9,-0.86 11.07,-5.8 2.18,-4.94 0.72,-10.35 -3.22,-12.08 -3.96,-1.73 -8.91,0.86 -11.08,5.8z"/>
  <path class="fil24" d="M1159.64 187.52c2.57,-6.36 3.96,-13.15 4.69,-19.08 0.15,-1.27 0.39,-2.53 0.65,-3.79 1.03,-5.08 1.15,-10.48 0.1,-16.08 -3.37,-17.99 -18.46,-31.88 -36.68,-33.72 -24.54,-2.48 -45.38,16.39 -46.02,40.39 -2.57,-1.52 -5.5,-1.93 -8.11,-0.85 -5.01,2.08 -6.96,8.84 -4.36,15.1 2.6,6.26 8.77,9.65 13.78,7.57 0.69,-0.29 1.32,-0.68 1.9,-1.13 1.54,20.47 17.85,36.68 37.93,36.88 15.07,0.15 29.9,-8.99 36.13,-25.29z"/>
  <path class="fil25" d="M1133.45 156.19c-0.79,2.26 -1.21,4.62 -1.34,7.03 -0.06,1.21 -0.03,2.42 0.13,3.67 0.19,1.24 0.48,2.51 1.26,3.75 0.92,1.17 1.39,1.56 1.53,2.5 0.17,0.81 -0.21,1.68 -0.79,2.47 -1.27,1.58 -3.49,2.45 -5.8,2.92 2.31,0.45 5.05,0.17 7.09,-1.69 1,-0.9 1.77,-2.33 1.65,-3.89 -0.11,-1.62 -0.84,-2.34 -1.78,-3.56 -0.5,-0.74 -0.8,-1.79 -1.04,-2.85 -0.26,-1.07 -0.33,-2.2 -0.47,-3.34 -0.2,-2.28 -0.29,-4.61 -0.43,-7z"/>
  <path class="fil26" d="M1119.73 159.86c-0.02,2.01 -1.67,3.62 -3.68,3.6 -2.01,-0.02 -3.62,-1.67 -3.6,-3.68 0.03,-2.01 1.67,-3.63 3.68,-3.6 2.01,0.02 3.62,1.67 3.6,3.68z"/>
  <path class="fil26" d="M1150.98 162.22c-0.03,2.01 -1.67,3.62 -3.68,3.61 -2.02,-0.02 -3.63,-1.67 -3.6,-3.68 0.01,-2.01 1.66,-3.62 3.68,-3.6 2,0.02 3.63,1.67 3.6,3.68z"/>
  <path class="fil31" d="M1128.86 196.13c-0.27,0 -0.54,-0.01 -0.83,-0.03 -8.71,-0.53 -8.95,-8.55 -8.95,-8.55 0,0 1.51,-0.54 3.66,-0.54 1.85,0 4.18,0.4 6.45,1.89 0,0 2.42,-1.52 5.29,-1.52 1.37,0 2.83,0.35 4.18,1.37 0,0 -1.81,7.38 -9.81,7.38z"/>
  <path class="fil25" d="M1114.53 184.72c0.99,0.8 2.01,1.53 3.09,2.17 1.06,0.66 2.17,1.26 3.31,1.76 2.28,1 4.69,1.7 7.15,1.91 2.46,0.22 4.94,-0.09 7.31,-0.81 2.37,-0.76 4.61,-1.94 6.71,-3.35 -0.94,0.85 -1.95,1.63 -3.03,2.32 -1.08,0.69 -2.24,1.23 -3.44,1.72 -1.21,0.45 -2.47,0.78 -3.75,0.96 -1.28,0.17 -2.59,0.2 -3.89,0.1 -2.58,-0.24 -5.1,-1.01 -7.38,-2.2 -2.27,-1.19 -4.37,-2.71 -6.08,-4.59z"/>
  <path class="fil32" d="M1124 151.47c-1.87,-0.5 -3.63,-0.88 -5.37,-1.08 -1.73,-0.2 -3.42,-0.19 -5.06,0.08 -1.62,0.28 -3.26,0.69 -4.81,1.47 -1.2,0.42 -4.08,2.26 -4.83,2.62 0.83,-1.68 2.08,-3.51 3.65,-4.55 1.55,-1.28 3.54,-2.05 5.56,-2.38 2.03,-0.32 4.13,-0.1 6.01,0.58 1.87,0.69 3.6,1.75 4.84,3.27z"/>
  <path class="fil32" d="M1140.1 152.68c1.43,-1.35 3.27,-2.2 5.21,-2.65 1.94,-0.44 4.06,-0.41 6.03,0.16 1.97,0.57 3.84,1.58 5.22,3.04 1.45,1.23 2.46,3.18 3.08,4.96 -0.71,-0.46 -3.33,-2.63 -4.48,-3.19 -1.45,-0.96 -3.02,-1.57 -4.6,-2.04 -1.6,-0.46 -3.27,-0.68 -5.01,-0.69 -1.75,-0.01 -3.54,0.15 -5.46,0.42z"/>
  <path class="fil33" d="M1065.22 409.42c0,0 -11.2,52.72 39.63,65.23 50.83,12.52 114.97,13.79 114.97,13.79l1.19 122.8 26.75 3.06c0,0 79.84,-165.47 -14.15,-198.06l-86 -5.01 -35.24 -4.76c0,0 -35.26,-11.11 -35.79,-9.45 -0.53,1.66 -10.57,13.3 -11.36,12.4z"/>
  <path class="fil34" d="M1017.95 406.72c0,0 -11.2,52.72 39.62,65.24 50.83,12.52 114.98,13.79 114.98,13.79l1.18 122.8 26.76 3.07c0,0 79.84,-165.48 -14.16,-198.06l-86 -5.01 -35.24 -4.76c0,0 -35.26,-11.11 -35.79,-9.45 -0.53,1.66 -10.57,13.3 -11.36,12.4z"/>
  <path class="fil9" d="M1187.93 489.26c-1.46,-0.27 -2.93,-0.51 -4.37,-0.85 -1.45,-0.33 -2.88,-0.73 -4.29,-1.15 -0.71,-0.22 -1.43,-0.46 -2.13,-0.72 0.74,-0.15 1.46,-0.36 2.15,-0.62 1.39,-0.49 2.7,-1.2 3.93,-2.01 1.18,-0.87 2.31,-1.81 3.28,-2.89 0.99,-1.07 1.83,-2.25 2.57,-3.48l-1.46 1.58c-0.52,0.49 -1,1.01 -1.55,1.46 -1.04,0.96 -2.19,1.78 -3.38,2.51 -1.19,0.72 -2.46,1.31 -3.76,1.77 -1.31,0.44 -2.71,0.76 -3.99,0.81l-2.38 0.09 2.1 0.98c1.43,0.66 2.87,1.1 4.32,1.51 1.46,0.41 2.94,0.7 4.42,0.95 1.48,0.24 2.97,0.45 4.48,0.56 1.48,0.11 2.99,0.18 4.49,0.18 -1.48,-0.22 -2.97,-0.4 -4.44,-0.66z"/>
  <path class="fil24" d="M1174.46 297.62c0,0 3.46,86.14 13.15,99.63l-53.27 -12.11 0 -93.74 40.13 6.23z"/>
  <path class="fil2" d="M1151.77 309.38c0,0 -7.42,21.68 -8.76,33.2 -3.36,28.6 0.28,48.77 6.2,65.05 8.3,22.83 -59.5,14.53 -60.88,13.84 -1.38,-0.69 -59.5,-23.18 -59.5,-23.18l-11.07 -32.17 0 -56.73 3.11 -25.94 130.9 25.94z"/>
  <path class="fil24" d="M989.39 283.43l42.66 14.53c0,0 -7.38,68.26 -5.07,77.95 1.98,8.28 32.91,24.74 52.52,33.96 3.16,1.48 6.63,2.12 10.11,1.83 11.17,-0.92 30.97,-2.65 34.07,-2.86 4.88,-0.34 18.3,0.01 18.73,1.72 0.39,1.59 -10.49,-0.16 -17.54,1.3 -0.99,0.2 -0.46,1.53 -0.23,1.54 3.75,0.14 13.37,0.55 16.55,1.61 3.88,1.3 -9.86,0.27 -17.29,1.64 -0.52,0.1 -0.94,1.57 -0.56,1.94 0.89,0.88 4.12,1.64 12.99,2.54 14.8,1.51 0.32,3.35 0.32,3.35 0,0 -1.33,-0.38 -14.06,-2.12 -0.46,-0.06 -0.99,1.26 -0.28,1.88 1.22,1.08 4.07,3.2 7.9,4.33 4.76,1.41 1.3,2.65 1.3,2.65 0,0 -9.02,-2.69 -14.08,-3.07 -3.79,-0.29 -21.63,1.17 -28.95,1.59l-0.56 -1.25c-9.92,-0.29 -89.08,-2.34 -96.69,-51.4 -7.84,-50.5 -1.85,-93.63 -1.85,-93.63z"/>
  <path class="fil22" d="M1299.51 332.32l-135.96 0 -38.55 94.09 -65.49 0c-1.83,0 -3.32,1.48 -3.32,3.31 0,1.83 1.49,3.32 3.32,3.32l194.82 0 45.18 -100.72z"/>
  <path class="fil9" d="M1232.09 386.01c-0.8,4.01 -4.3,6.69 -7.81,5.99 -3.51,-0.7 -5.7,-4.52 -4.91,-8.53 0.81,-4.01 4.3,-6.69 7.81,-5.99 3.51,0.7 5.7,4.52 4.91,8.53z"/>
  <path class="fil2" d="M1131.29 223.61c0,0 -25.82,30.14 -55.46,-6.4 0,0 -32.37,-2.64 -56.24,14.31 -23.87,16.95 -38.16,55.02 -38.16,55.02 0,0 43.24,21.79 53.96,22.83l120.03 0c0,0 18.34,-1.38 35.98,-10.38 0,0 -3.04,-60.52 -60.12,-75.39z"/>
  <path class="fil22" d="M1051.19 275.03c-1.12,3.74 -2.12,7.5 -3.11,11.28 -1.87,7.41 -3.57,14.46 -4.83,22.04 -2.34,0.11 -4.98,-0.23 -7.29,-0.57 -12.47,-2.22 -20.65,-5.71 -31.76,-10.25 -16.63,-7.57 -14.38,-6.84 -22.76,-10.98 9.73,6.16 14.98,8.93 22.07,12.48 9.73,4.51 19.02,8.68 32.1,10.98 5.71,0.78 7.36,0.61 9.54,0.37 0.84,-5.56 1.81,-11.25 4.46,-23.7l2.47 -11.41 2.55 -11.41c-1.24,3.7 -2.33,7.44 -3.44,11.18z"/>
  <path class="fil22" d="M1145.89 255.1c1.69,4.43 3.23,8.87 4.6,13.35 1.34,4.49 2.54,9.01 3.33,13.59 0.76,3.89 1.28,9.03 1.09,13.83 -0.17,4.62 -7.01,26.36 -9.03,30.67 2.84,-3.82 10.29,-25.74 10.8,-30.52 0.58,-4.8 0.18,-9.65 -0.63,-14.37 -0.9,-4.75 -2.09,-9.18 -3.89,-13.77 -1.71,-4.44 -3.74,-8.77 -6.28,-12.78z"/>
  <path class="fil28" d="M1082.38 155.24c0,0 44.35,-10.7 65.53,-40.83 0,0 0.37,-27.44 -40.34,-21.22 -39.56,6.05 -48.82,44.54 -25.19,62.05z"/>
  <path class="fil35" d="M1522.16 1132.26l-1381.59 0c-4.08,0 -7.39,-3.31 -7.39,-7.39l0 -3.4c0,-4.09 3.31,-7.39 7.39,-7.39l1381.59 0c4.07,0 7.38,3.31 7.38,7.39l0 3.4c0,4.08 -3.31,7.39 -7.38,7.39z"/>
  <polygon class="fil2" points="124.71,515.08 391.43,362.53 427.48,433.94 154.56,578.32 "/>
  <g id="_2259813438544">
   <path class="fil2" d="M258.67 860.93c13.09,10.81 12.83,-3.43 -19.43,-60.97 -15.12,-26.97 -47.05,-81.51 -70.53,-53.03 -22.55,27.36 59.92,88.96 59.92,88.96l30.04 25.04zm-36.87 30.54l0 0c0,0 -98.01,-31.47 -85.56,-64.68 12.95,-34.56 60.87,6.65 83.93,27.25 49.2,43.95 54.07,57.33 38.18,51.35l-36.55 -13.92zm18.46 65.79l0 0c0,0 -79.49,-9.86 -74.79,-37.05 4.9,-28.3 47.5,-3.73 68.11,8.67 43.98,26.47 49.65,36 36.63,33.73l-29.96 -5.35zm16.04 66.87l0 0c0,0 -79.49,-9.86 -74.79,-37.05 4.89,-28.3 47.5,-3.74 68.11,8.67 43.98,26.47 49.65,36 36.63,33.73l-29.96 -5.35zm36.76 -171.72l0 0c0,0 57.75,-85.21 86.12,-63.94 29.53,22.14 -23.49,56.55 -49.74,72.89 -56,34.86 -70.21,35.78 -60.01,22.21l23.63 -31.16zm13.55 52.14l0 0c0,0 73.54,-72.03 97.11,-45.54 24.54,27.57 -34.26,50.75 -63.23,61.54 -61.82,23.04 -75.93,21.11 -63.23,9.84l29.35 -25.84zm7.18 60.95l0 0c0,0 63.85,-59.21 83.18,-36.26 20.11,23.88 -30.15,42.12 -54.9,50.58 -52.81,18.05 -64.7,16.09 -53.7,6.85l25.42 -21.17zm10.77 47.7l0 0c0,0 57.21,-65.65 78.86,-44.89 22.53,21.61 -25.51,45.09 -49.22,56.12 -50.59,23.55 -62.62,22.87 -52.67,12.52l23.03 -23.75zm-65.34 -235.83l0 0c0,0 -22.23,-119.47 24.94,-121.07 49.09,-1.66 29.17,68.39 18.68,102.44 -22.39,72.66 -35.37,83.92 -37.93,64.16l-5.68 -45.53z"/>
   <path class="fil3" d="M258.67 860.93c13.09,10.81 12.83,-3.43 -19.43,-60.97 -15.12,-26.97 -47.05,-81.51 -70.53,-53.03 -22.55,27.36 59.92,88.96 59.92,88.96l30.04 25.04zm-36.87 30.54l0 0c0,0 -98.01,-31.47 -85.56,-64.68 12.95,-34.56 60.87,6.65 83.93,27.25 49.2,43.95 54.07,57.33 38.18,51.35l-36.55 -13.92zm18.46 65.79l0 0c0,0 -79.49,-9.86 -74.79,-37.05 4.9,-28.3 47.5,-3.73 68.11,8.67 43.98,26.47 49.65,36 36.63,33.73l-29.96 -5.35zm16.04 66.87l0 0c0,0 -79.49,-9.86 -74.79,-37.05 4.89,-28.3 47.5,-3.74 68.11,8.67 43.98,26.47 49.65,36 36.63,33.73l-29.96 -5.35zm36.76 -171.72l0 0c0,0 57.75,-85.21 86.12,-63.94 29.53,22.14 -23.49,56.55 -49.74,72.89 -56,34.86 -70.21,35.78 -60.01,22.21l23.63 -31.16zm13.55 52.14l0 0c0,0 73.54,-72.03 97.11,-45.54 24.54,27.57 -34.26,50.75 -63.23,61.54 -61.82,23.04 -75.93,21.11 -63.23,9.84l29.35 -25.84zm7.18 60.95l0 0c0,0 63.85,-59.21 83.18,-36.26 20.11,23.88 -30.15,42.12 -54.9,50.58 -52.81,18.05 -64.7,16.09 -53.7,6.85l25.42 -21.17zm10.77 47.7l0 0c0,0 57.21,-65.65 78.86,-44.89 22.53,21.61 -25.51,45.09 -49.22,56.12 -50.59,23.55 -62.62,22.87 -52.67,12.52l23.03 -23.75zm-65.34 -235.83l0 0c0,0 -22.23,-119.47 24.94,-121.07 49.09,-1.66 29.17,68.39 18.68,102.44 -22.39,72.66 -35.37,83.92 -37.93,64.16l-5.68 -45.53z"/>
   <path class="fil4 str0" d="M288.2 700.98c0,0 -28.05,144.78 -20.59,205.65 8.57,69.93 28.29,143.28 54.32,198.78"/>
   <line class="fil4 str0" x1="266.28" y1="865.01" x2="203.14" y2= "775.49" />
   <line class="fil4 str0" x1="267.61" y1="906.63" x2="182.78" y2= "848.54" />
   <line class="fil4 str0" x1="267.21" y1="891.44" x2="344.33" y2= "826.98" />
   <line class="fil4 str0" x1="275.98" y1="961.06" x2="193.67" y2= "930.53" />
   <line class="fil4 str0" x1="272.77" y1="938.09" x2="337.88" y2= "902.19" />
   <line class="fil4 str0" x1="285.83" y1="992.39" x2="337.07" y2= "967.28" />
   <line class="fil4 str0" x1="291.89" y1="1028.27" x2="245.68" y2= "1006.97" />
   <line class="fil4 str0" x1="297.12" y1="1042.65" x2="354.23" y2= "1008.03" />
   <path class="fil2" d="M143.29 1025.65c12.18,-1.65 4.48,-8.51 -41.98,-19.63 -21.78,-5.21 -66.49,-15.04 -62.87,11.45 3.47,25.45 76.77,11.86 76.77,11.86l28.08 -3.67zm-1.88 34.63l0 0c0,0 -64.92,36.66 -76.46,13.72 -12.02,-23.88 33.46,-29.11 55.75,-31.25 47.56,-4.57 57.07,-0.58 46.08,4.93l-25.37 12.6zm44.07 22.52l0 0c0,0 -44.32,37.44 -56.47,21.57 -12.65,-16.51 21.36,-27.1 38.09,-31.97 35.7,-10.38 43.55,-8.72 35.95,-2.91l-17.57 13.31zm43.45 24.33l0 0c0,0 -44.32,37.44 -56.47,21.57 -12.65,-16.52 21.36,-27.1 38.09,-31.97 35.7,-10.38 43.55,-8.72 35.95,-2.91l-17.57 13.31zm-73.27 -103.96l0 0c0,0 -16.94,-72.6 8.32,-77.24 26.29,-4.82 18.53,40.29 14.32,62.28 -8.98,46.93 -15.48,54.94 -17.69,42.84l-4.96 -27.89zm34.4 18.42l0 0c0,0 -2.17,-74.52 23.51,-74.04 26.73,0.5 10.15,43.17 1.66,63.89 -18.13,44.2 -26.09,50.76 -25.85,38.47l0.68 -28.32zm35.95 26.14l0 0c0,0 -0.11,-63.07 21.59,-62.07 22.59,1.04 7.59,36.74 -0.08,54.06 -16.35,36.96 -23.24,42.32 -22.75,31.93l1.23 -23.93zm30.67 17.72l0 0c0,0 -6.8,-62.7 14.88,-64.01 22.57,-1.36 11.44,35.73 5.66,53.77 -12.34,38.49 -18.62,44.55 -19.23,34.17l-1.31 -23.93zm-157.56 -81.16l0 0c0,0 -74.48,-46.9 -52.14,-72.77 23.25,-26.93 50.72,18.1 63.67,40.42 27.64,47.62 27.25,60.06 15.48,51.71l-27.01 -19.36z"/>
   <path class="fil5" d="M143.29 1025.65c12.18,-1.65 4.48,-8.51 -41.98,-19.63 -21.78,-5.21 -66.49,-15.04 -62.87,11.45 3.47,25.45 76.77,11.86 76.77,11.86l28.08 -3.67zm-1.88 34.63l0 0c0,0 -64.92,36.66 -76.46,13.72 -12.02,-23.88 33.46,-29.11 55.75,-31.25 47.56,-4.57 57.07,-0.58 46.08,4.93l-25.37 12.6zm44.07 22.52l0 0c0,0 -44.32,37.44 -56.47,21.57 -12.65,-16.51 21.36,-27.1 38.09,-31.97 35.7,-10.38 43.55,-8.72 35.95,-2.91l-17.57 13.31zm43.45 24.33l0 0c0,0 -44.32,37.44 -56.47,21.57 -12.65,-16.52 21.36,-27.1 38.09,-31.97 35.7,-10.38 43.55,-8.72 35.95,-2.91l-17.57 13.31zm-73.27 -103.96l0 0c0,0 -16.94,-72.6 8.32,-77.24 26.29,-4.82 18.53,40.29 14.32,62.28 -8.98,46.93 -15.48,54.94 -17.69,42.84l-4.96 -27.89zm34.4 18.42l0 0c0,0 -2.17,-74.52 23.51,-74.04 26.73,0.5 10.15,43.17 1.66,63.89 -18.13,44.2 -26.09,50.76 -25.85,38.47l0.68 -28.32zm35.95 26.14l0 0c0,0 -0.11,-63.07 21.59,-62.07 22.59,1.04 7.59,36.74 -0.08,54.06 -16.35,36.96 -23.24,42.32 -22.75,31.93l1.23 -23.93zm30.67 17.72l0 0c0,0 -6.8,-62.7 14.88,-64.01 22.57,-1.36 11.44,35.73 5.66,53.77 -12.34,38.49 -18.62,44.55 -19.23,34.17l-1.31 -23.93zm-157.56 -81.16l0 0c0,0 -74.48,-46.9 -52.14,-72.77 23.25,-26.93 50.72,18.1 63.67,40.42 27.64,47.62 27.25,60.06 15.48,51.71l-27.01 -19.36z"/>
   <path class="fil4 str0" d="M72.71 931.32c0,0 63.23,86.08 99.27,112.04 41.41,29.82 94.19,56.85 136.51,70.28"/>
   <line class="fil4 str0" x1="149.19" y1="1023.6" x2="70.54" y2= "1013.18" />
   <line class="fil4 str0" x1="171.98" y1="1043.35" x2="99.39" y2= "1059.92" />
   <line class="fil4 str0" x1="163.71" y1="1036.1" x2="167.33" y2= "963.39" />
   <line class="fil4 str0" x1="205.05" y1="1065.66" x2="148.36" y2= "1094.43" />
   <line class="fil4 str0" x1="191.26" y1="1056.07" x2="204.17" y2= "1003.79" />
   <line class="fil4 str0" x1="226.56" y1="1075.82" x2="238.39" y2= "1036.21" />
   <line class="fil4 str0" x1="248.63" y1="1090.23" x2="214.58" y2= "1104.34" />
   <line class="fil4 str0" x1="258.85" y1="1094.51" x2="268.5" y2= "1047.12" />
   <path class="fil6" d="M257.27 734.79l2.31 -0.98c-0.77,0.31 -1.54,0.64 -2.31,0.98z"/>
   <path class="fil4 str1" d="M259.59 733.81c-0.77,0.31 -1.54,0.64 -2.31,0.98"/>
  </g>
  <g id="_2259813420624">
   <path class="fil12" d="M568.63 889.07c0,0 7.71,52.34 -42.86,61.46 -50.57,9.12 -113.49,6.39 -113.49,6.39l-8.76 120.23 -26.4 1.35c0,0 -67.98,-167.05 26.11,-193.16l84.56 0.42 34.82 -2.49c0,0 35.23,-8.7 35.65,-7.05 0.42,1.66 9.54,13.68 10.36,12.85z"/>
   <path class="fil11" d="M615.1 889.34c0,0 7.71,52.34 -42.86,61.46 -50.57,9.12 -113.49,6.39 -113.49,6.39l-8.76 120.23 -26.4 1.35c0,0 -67.98,-167.04 26.11,-193.16l84.56 0.42 34.82 -2.49c0,0 35.23,-8.7 35.65,-7.05 0.42,1.66 9.54,13.68 10.36,12.85z"/>
  </g>
  <g id="_2259813422896">
   <path class="fil2" d="M551.41 717.6c0,0 -34.81,4.42 -43.66,11.61 -8.84,7.18 -51.4,112.74 -51.4,112.74l35.37 41.45 75.17 0.55c0,0 56.37,30.4 91.74,1.65 35.37,-28.74 17.14,-128.77 -3.32,-150.32 -20.45,-21.55 -56.93,-21 -56.93,-21 0,0 -33.16,23.21 -46.98,3.31z"/>
   <path class="fil36" d="M618.84 770.1c-1.25,5.75 -2.01,11.59 -2.55,17.46 -0.3,2.92 -0.43,5.87 -0.6,8.8 -0.09,2.94 -0.16,5.89 -0.12,8.84 0.12,5.89 0.44,11.81 1.45,17.64 0.99,5.81 2.42,11.64 5.13,16.89 -1.82,-5.6 -2.72,-11.36 -3.37,-17.13 -0.64,-5.78 -0.86,-11.61 -0.94,-17.43 -0.12,-5.83 0.02,-11.67 0.2,-17.51 0.21,-5.84 0.48,-11.69 0.79,-17.57z"/>
   <path class="fil36" d="M514.65 766.24c-1.59,8.56 -3.27,17.09 -4.99,25.61 -1.75,8.51 -3.56,17 -5.62,25.43 -2.04,8.43 -4.3,16.8 -7.04,25.01 -1.37,4.1 -2.9,8.15 -4.7,12.07 -1.77,3.94 -3.87,7.75 -6.68,11.09 3.2,-2.99 5.55,-6.77 7.68,-10.59 2.06,-3.87 3.84,-7.88 5.37,-11.98 1.56,-4.08 2.91,-8.25 4.18,-12.43 1.23,-4.19 2.35,-8.41 3.4,-12.65 1,-4.25 1.95,-8.5 2.81,-12.77 0.83,-4.28 1.65,-8.56 2.33,-12.86 1.42,-8.6 2.53,-17.24 3.25,-25.93z"/>
   <path class="fil24" d="M497.16 859.51c0.22,-1.75 13.5,-3.7 18.39,-3.96 3.7,-0.19 28.22,-1.01 36.57,-1.39l-0.62 2.15 0.13 9.47 1.37 6.27c-7.32,0.47 -25.2,1.17 -28.93,1.9 -4.98,0.98 -13.61,4.73 -13.61,4.73 0,0 -3.59,-0.82 0.97,-2.78 3.66,-1.58 6.23,-4.03 7.32,-5.25 0.63,-0.7 -0.05,-1.95 -0.51,-1.83 -12.42,3.26 -13.7,3.8 -13.7,3.8 0,0 -14.6,-0.08 -0.08,-3.37 8.7,-1.96 11.82,-3.11 12.59,-4.09 0.33,-0.42 -0.26,-1.83 -0.79,-1.86 -7.54,-0.47 -21.07,2.21 -17.36,0.45 3.02,-1.42 12.54,-2.99 16.24,-3.58 0.22,-0.03 0.6,-1.41 -0.42,-1.5 -7.18,-0.6 -17.77,2.45 -17.57,0.82z"/>
   <path class="fil36" d="M627.33 838.29c-3.06,0.74 -6.07,1.6 -9.14,2.24 -3.05,0.72 -6.14,1.26 -9.2,1.9 -6.16,1.12 -12.35,2.1 -18.55,2.97 -6.2,0.82 -12.41,1.57 -18.65,2.17 -6.21,0.62 -12.52,1.14 -18.66,1.49l-0.83 0.04 -0.18 0.72c-0.53,2.08 -0.87,4.11 -1.14,6.19 -0.26,2.08 -0.37,4.17 -0.37,6.26 0.01,2.1 0.19,4.19 0.54,6.27 0.39,2.07 0.99,4.1 1.82,6.04l0.07 0.17 0.14 0.09 6.82 4.59c2.28,1.53 4.56,3.04 6.87,4.53 -2.14,-1.72 -4.3,-3.4 -6.48,-5.07l-6.5 -5.02 0.21 0.26c-0.69,-1.88 -1.17,-3.82 -1.43,-5.81 -0.24,-1.99 -0.35,-4 -0.3,-6.02 0.07,-2.01 0.27,-4.02 0.55,-6.02 0.29,-1.99 0.68,-4 1.21,-5.89l-1.01 0.76c3.25,-0.09 6.32,-0.3 9.48,-0.53 3.14,-0.23 6.28,-0.48 9.41,-0.81 6.26,-0.64 12.5,-1.42 18.73,-2.42 6.21,-1 12.4,-2.22 18.52,-3.66 3.05,-0.78 6.11,-1.53 9.11,-2.48 3.03,-0.85 5.99,-1.91 8.95,-2.96z"/>
  </g>
  <g id="_2259813422096">
   <path class="fil22" d="M339.92 789.17l135.96 0 38.55 94.1 65.49 0c1.83,0 3.32,1.49 3.32,3.32 0,1.83 -1.49,3.31 -3.32,3.31l-194.82 0 -45.18 -100.73z"/>
   <path class="fil9" d="M407.34 842.86c0.8,4.01 4.3,6.69 7.81,5.99 3.51,-0.7 5.7,-4.52 4.9,-8.53 -0.8,-4.01 -4.3,-6.69 -7.81,-5.99 -3.51,0.7 -5.7,4.52 -4.9,8.53z"/>
  </g>
 </g>
</svg>
