<?xml version="1.0" encoding="UTF-8"?>
<!DOCTYPE svg PUBLIC "-//W3C//DTD SVG 1.1//EN" "http://www.w3.org/Graphics/SVG/1.1/DTD/svg11.dtd">
<!-- Creator: CorelDRAW 2017 -->
<svg xmlns="http://www.w3.org/2000/svg" xml:space="preserve" width="457.289mm" height="319.492mm" version="1.1" style="shape-rendering:geometricPrecision; text-rendering:geometricPrecision; image-rendering:optimizeQuality; fill-rule:evenodd; clip-rule:evenodd"
viewBox="0 0 1704.63 1190.96"
 xmlns:xlink="http://www.w3.org/1999/xlink">
 <defs>
  <style type="text/css">
   <![CDATA[
    .str0 {stroke:#CFCFCF;stroke-width:1.65;stroke-linecap:round;stroke-linejoin:round;stroke-miterlimit:10}
    .str1 {stroke:#263138;stroke-width:1.32;stroke-linecap:round;stroke-linejoin:round;stroke-miterlimit:10}
    .fil8 {fill:none;fill-rule:nonzero}
    .fil11 {fill:#02CCC0;fill-rule:nonzero}
    .fil19 {fill:#05B2A8;fill-rule:nonzero}
    .fil12 {fill:#06BFAD;fill-rule:nonzero}
    .fil6 {fill:#2089E0;fill-rule:nonzero}
    .fil2 {fill:#2095F2;fill-rule:nonzero}
    .fil10 {fill:#263138;fill-rule:nonzero}
    .fil21 {fill:#2E3F7D;fill-rule:nonzero}
    .fil15 {fill:#323096;fill-rule:nonzero}
    .fil17 {fill:#462D3B;fill-rule:nonzero}
    .fil16 {fill:#496E9A;fill-rule:nonzero}
    .fil18 {fill:#543646;fill-rule:nonzero}
    .fil5 {fill:#55769F;fill-rule:nonzero}
    .fil20 {fill:#AABACF;fill-rule:nonzero}
    .fil3 {fill:#ADCFD8;fill-rule:nonzero}
    .fil14 {fill:#BADEEF;fill-rule:nonzero}
    .fil23 {fill:#C4DFE8;fill-rule:nonzero}
    .fil22 {fill:#D19B3E;fill-rule:nonzero}
    .fil13 {fill:#DA557A;fill-rule:nonzero}
    .fil4 {fill:#DAEEF7;fill-rule:nonzero}
    .fil0 {fill:#DDF0FF;fill-rule:nonzero}
    .fil9 {fill:#E8E8E8;fill-rule:nonzero;fill-opacity:0.650980}
    .fil7 {fill:white;fill-rule:nonzero;fill-opacity:0.650980}
    .fil1 {fill:#DDF0FF;fill-rule:nonzero;fill-opacity:0.800000}
   ]]>
  </style>
 </defs>
 <g id="Layer_x0020_1">
  <metadata id="CorelCorpID_0Corel-Layer"/>
  <g id="_2259819654064">
   <path class="fil0" d="M1490.86 229.58c0,0 -102.35,-196.57 -328.37,-225.7 -226.02,-29.12 -383.81,112.85 -550.12,185.65 -87.1,38.13 -186.58,23.32 -279.04,41.77 -295.65,59.01 -407.03,428.71 -283.87,638.95 106.61,182.01 294.25,276.66 579.98,298.5 285.72,21.84 486.16,47.32 742.03,-131.05 255.87,-178.37 238.81,-549.68 119.41,-808.13z"/>
   <path class="fil1" d="M1490.86 229.58c0,0 -102.35,-196.57 -328.37,-225.7 -226.02,-29.12 -383.81,112.85 -550.12,185.65 -87.1,38.13 -186.58,23.32 -279.04,41.77 -295.65,59.01 -407.03,428.71 -283.87,638.95 106.61,182.01 294.25,276.66 579.98,298.5 285.72,21.84 486.16,47.32 742.03,-131.05 255.87,-178.37 238.81,-549.68 119.41,-808.13z"/>
  </g>
  <g id="_2259819657264">
   <path class="fil2" d="M1036.43 670.6l150.32 60.37 186.07 -463.32 -127.06 -51.03c-12.84,-5.16 -27.44,1.07 -32.6,13.92l-176.73 440.06z"/>
   <polygon class="fil3" points="1018.75,653.36 1306.56,704.38 1378.3,299.71 1090.48,248.68 "/>
   <polygon class="fil4" points="1027.36,636.03 1310.04,710.42 1414.64,312.97 1131.96,238.58 "/>
   <polygon class="fil5" points="1199.23,301.49 1325.46,334.71 1326.21,331.88 1199.97,298.66 "/>
   <polygon class="fil5" points="1174.6,287.33 1353.87,334.5 1354.62,331.67 1175.35,284.49 "/>
   <polygon class="fil5" points="1145.76,319.24 1363.26,376.48 1364.01,373.64 1146.51,316.41 "/>
   <polygon class="fil5" points="1142.18,332.87 1359.67,390.11 1360.42,387.27 1142.93,330.04 "/>
   <polygon class="fil5" points="1135.01,360.13 1352.5,417.37 1353.25,414.54 1135.75,357.3 "/>
   <polygon class="fil5" points="1131.42,373.76 1348.91,431 1349.66,428.16 1132.16,370.93 "/>
   <polygon class="fil5" points="1112.05,447.34 1329.55,504.58 1330.29,501.75 1112.8,444.51 "/>
   <polygon class="fil5" points="1108.33,461.48 1325.83,518.71 1326.57,515.88 1109.08,458.65 "/>
   <polygon class="fil5" points="1104.61,475.61 1322.11,532.85 1322.85,530.02 1105.36,472.78 "/>
   <path class="fil6" d="M1093.47 693.5l302.62 121.54 176.5 -439.49 -254.3 -156.87c-14.29,-8.82 -33.08,-2.63 -39.34,12.95l-185.49 461.88z"/>
   <polygon class="fil2" points="1518.98,424.07 1312.94,306.22 1285.09,361.39 1495.91,472.92 "/>
  </g>
  <g id="_2259819658128">
   <path class="fil2" d="M1436.41 839.77c-17.54,12.55 -15.95,-5.47 30.01,-75.55 21.54,-32.84 66.82,-99.15 94.06,-60.98 26.17,36.67 -83.79,107.46 -83.79,107.46l-40.28 29.08zm44.03 41.96l0 0c0,0 126.99,-31.24 114.14,-74.42 -13.37,-44.94 -77.73,3.06 -108.77,27.13 -66.23,51.36 -73.58,67.89 -52.92,61.71l47.54 -14.42zm-29.19 81.75l0 0c0,0 101.61,-5.48 98.05,-40.36 -3.71,-36.3 -59.87,-8.92 -87.09,4.98 -58.08,29.67 -66.1,41.24 -49.4,39.51l38.44 -4.13zm-26.23 83.33l0 0c0,0 101.62,-5.48 98.05,-40.36 -3.71,-36.3 -59.87,-8.92 -87.09,4.98 -58.08,29.67 -66.1,41.24 -49.4,39.52l38.44 -4.14zm-31.44 -220.87l0 0c0,0 -65.67,-113.09 -103.5,-88.63 -39.38,25.46 24.78,73.74 56.6,96.76 67.9,49.13 85.83,51.54 74.1,33.44l-27.2 -41.58zm-21.77 64.89l0 0c0,0 -86.84,-97.78 -119.05,-66.28 -33.53,32.78 38.95,67.34 74.71,83.58 76.31,34.65 94.36,33.45 79.27,18.04l-34.92 -35.34zm-14.48 76.61l0 0c0,0 -75.7,-80.68 -102.21,-53.3 -27.6,28.49 34.49,56.04 65.11,68.95 65.33,27.54 80.57,26.1 67.45,13.43l-30.35 -29.08zm-17.85 59.51l0 0c0,0 -66.71,-88.26 -95.98,-63.85 -30.46,25.41 28.35,59.39 57.43,75.47 62.04,34.31 77.35,34.51 65.64,20.51l-27.09 -32.13zm103.62 -293.12l0 0c0,0 38.71,-149.45 -20.92,-155.63 -62.06,-6.43 -43.01,84.1 -32.71,128.18 21.97,94.06 37.42,109.48 42.41,84.66l11.22 -57.21z"/>
   <path class="fil7" d="M1436.41 839.77c-17.54,12.55 -15.95,-5.47 30.01,-75.55 21.54,-32.84 66.82,-99.15 94.06,-60.98 26.17,36.67 -83.79,107.46 -83.79,107.46l-40.28 29.08zm44.03 41.96l0 0c0,0 126.99,-31.24 114.14,-74.42 -13.37,-44.94 -77.73,3.06 -108.77,27.13 -66.23,51.36 -73.58,67.89 -52.92,61.71l47.54 -14.42zm-29.19 81.75l0 0c0,0 101.61,-5.48 98.05,-40.36 -3.71,-36.3 -59.87,-8.92 -87.09,4.98 -58.08,29.67 -66.1,41.24 -49.4,39.51l38.44 -4.13zm-26.23 83.33l0 0c0,0 101.62,-5.48 98.05,-40.36 -3.71,-36.3 -59.87,-8.92 -87.09,4.98 -58.08,29.67 -66.1,41.24 -49.4,39.52l38.44 -4.14zm-31.44 -220.87l0 0c0,0 -65.67,-113.09 -103.5,-88.63 -39.38,25.46 24.78,73.74 56.6,96.76 67.9,49.13 85.83,51.54 74.1,33.44l-27.2 -41.58zm-21.77 64.89l0 0c0,0 -86.84,-97.78 -119.05,-66.28 -33.53,32.78 38.95,67.34 74.71,83.58 76.31,34.65 94.36,33.45 79.27,18.04l-34.92 -35.34zm-14.48 76.61l0 0c0,0 -75.7,-80.68 -102.21,-53.3 -27.6,28.49 34.49,56.04 65.11,68.95 65.33,27.54 80.57,26.1 67.45,13.43l-30.35 -29.08zm-17.85 59.51l0 0c0,0 -66.71,-88.26 -95.98,-63.85 -30.46,25.41 28.35,59.39 57.43,75.47 62.04,34.31 77.35,34.51 65.64,20.51l-27.09 -32.13zm103.62 -293.12l0 0c0,0 38.71,-149.45 -20.92,-155.63 -62.06,-6.43 -43.01,84.1 -32.71,128.18 21.97,94.06 37.42,109.48 42.41,84.66l11.22 -57.21z"/>
   <path class="fil8 str0" d="M1413.11 634.45c0,0 22.77,185.97 7.95,262.45 -17.03,87.87 -48.49,179.09 -86.39,247.13"/>
   <line class="fil8 str0" x1="1426.41" y1="844.27" x2="1514.32" y2= "736.38" />
   <line class="fil8 str0" x1="1421.06" y1="896.9" x2="1533.69" y2= "830.76" />
   <line class="fil8 str0" x1="1422.9" y1="877.68" x2="1330.84" y2= "789.18" />
   <line class="fil8 str0" x1="1405.64" y1="965.14" x2="1512.65" y2= "933.72" />
   <line class="fil8 str0" x1="1411.74" y1="936.32" x2="1332.38" y2= "885.07" />
   <line class="fil8 str0" x1="1390.39" y1="1003.98" x2="1327.66" y2= "967.63" />
   <line class="fil8 str0" x1="1379.54" y1="1048.92" x2="1439.99" y2= "1026" />
   <line class="fil8 str0" x1="1371.64" y1="1066.68" x2="1302.33" y2= "1017.77" />
   <path class="fil2" d="M1568.11 1058.7c-15.3,-3.16 -4.93,-11.18 54.94,-21.17 28.06,-4.69 85.59,-13.19 78.67,20.06 -6.64,31.95 -98.34,8.25 -98.34,8.25l-35.27 -7.14zm-0.68 44.05l0 0c0,0 79.04,52.19 95.69,24.14 17.34,-29.2 -39.83,-39.84 -67.89,-44.52 -59.87,-9.99 -72.28,-5.77 -58.84,2.19l31.04 18.2zm-57.84 24.65l0 0c0,0 52.86,51.36 69.66,32.32 17.49,-19.81 -24.68,-36.23 -45.46,-43.88 -44.33,-16.31 -54.43,-14.89 -45.3,-6.86l21.09 18.41zm-57.22 27.01l0 0c0,0 52.86,51.36 69.67,32.32 17.49,-19.81 -24.68,-36.24 -45.46,-43.88 -44.33,-16.31 -54.42,-14.89 -45.3,-6.85l21.09 18.41zm102.04 -125.29l0 0c0,0 27.88,-90.52 -3.73,-98.62 -32.9,-8.43 -27.04,49.43 -23.65,77.67 7.24,60.26 14.77,70.99 18.63,55.85l8.75 -34.9zm-45.22 20.31l0 0c0,0 9.33,-94.25 -23.26,-95.91 -33.92,-1.72 -16.68,53.82 -7.74,80.82 19.08,57.62 28.59,66.64 29.36,51.03l1.63 -35.95zm-47.87 29.95l0 0c0,0 5.71,-79.92 -21.89,-80.57 -28.72,-0.67 -12.86,45.9 -4.67,68.53 17.47,48.29 25.72,55.69 26.01,42.48l0.55 -30.44zm-40.43 19.75l0 0c0,0 14.16,-78.87 -13.21,-82.44 -28.49,-3.72 -17.66,44.27 -11.92,67.64 12.24,49.87 19.66,58.1 21.36,45l3.78 -30.21zm206.85 -88.96l0 0c0,0 98.53,-52.87 72.5,-87.63 -27.09,-36.18 -65.88,18.46 -84.26,45.6 -39.23,57.92 -39.84,73.72 -24.18,64.17l35.94 -22.15z"/>
   <path class="fil9" d="M1568.11 1058.7c-15.3,-3.16 -4.93,-11.18 54.94,-21.17 28.06,-4.69 85.59,-13.19 78.67,20.06 -6.64,31.95 -98.34,8.25 -98.34,8.25l-35.27 -7.14zm-0.68 44.05l0 0c0,0 79.04,52.19 95.69,24.14 17.34,-29.2 -39.83,-39.84 -67.89,-44.52 -59.87,-9.99 -72.28,-5.77 -58.84,2.19l31.04 18.2zm-57.84 24.65l0 0c0,0 52.86,51.36 69.66,32.32 17.49,-19.81 -24.68,-36.23 -45.46,-43.88 -44.33,-16.31 -54.43,-14.89 -45.3,-6.86l21.09 18.41zm-57.22 27.01l0 0c0,0 52.86,51.36 69.67,32.32 17.49,-19.81 -24.68,-36.24 -45.46,-43.88 -44.33,-16.31 -54.42,-14.89 -45.3,-6.85l21.09 18.41zm102.04 -125.29l0 0c0,0 27.88,-90.52 -3.73,-98.62 -32.9,-8.43 -27.04,49.43 -23.65,77.67 7.24,60.26 14.77,70.99 18.63,55.85l8.75 -34.9zm-45.22 20.31l0 0c0,0 9.33,-94.25 -23.26,-95.91 -33.92,-1.72 -16.68,53.82 -7.74,80.82 19.08,57.62 28.59,66.64 29.36,51.03l1.63 -35.95zm-47.87 29.95l0 0c0,0 5.71,-79.92 -21.89,-80.57 -28.72,-0.67 -12.86,45.9 -4.67,68.53 17.47,48.29 25.72,55.69 26.01,42.48l0.55 -30.44zm-40.43 19.75l0 0c0,0 14.16,-78.87 -13.21,-82.44 -28.49,-3.72 -17.66,44.27 -11.92,67.64 12.24,49.87 19.66,58.1 21.36,45l3.78 -30.21zm206.85 -88.96l0 0c0,0 98.53,-52.87 72.5,-87.63 -27.09,-36.18 -65.88,18.46 -84.26,45.6 -39.23,57.92 -39.84,73.72 -24.18,64.17l35.94 -22.15z"/>
   <path class="fil8 str0" d="M1665.87 945.38c0,0 -87.73,103.52 -135.7,133.23 -55.11,34.13 -124.38,63.73 -179.2,77.02"/>
   <line class="fil8 str0" x1="1560.8" y1="1055.59" x2="1661.4" y2= "1049.33" />
   <line class="fil8 str0" x1="1530.18" y1="1078.61" x2="1620.72" y2= "1106.02" />
   <line class="fil8 str0" x1="1541.3" y1="1070.15" x2="1543.13" y2= "977.68" />
   <line class="fil8 str0" x1="1486.3" y1="1103.96" x2="1555.61" y2= "1145.44" />
   <line class="fil8 str0" x1="1504.63" y1="1093.04" x2="1492.88" y2= "1025.63" />
   <line class="fil8 str0" x1="1458.14" y1="1114.94" x2="1446.65" y2= "1063.71" />
   <line class="fil8 str0" x1="1428.9" y1="1131.26" x2="1470.81" y2= "1152.15" />
   <line class="fil8 str0" x1="1415.58" y1="1135.78" x2="1407.52" y2= "1074.87" />
   <path class="fil10" d="M1449.31 680.03l-2.85 -1.44c0.95,0.46 1.9,0.95 2.85,1.44z"/>
   <path class="fil8 str1" d="M1446.47 678.58c0.95,0.46 1.9,0.95 2.85,1.44"/>
  </g>
  <path class="fil2" d="M783.73 872.46l-203.51 81.74 -251.92 -627.28 172.02 -69.09c17.39,-6.98 37.15,1.45 44.13,18.84l239.27 595.79z"/>
  <polygon class="fil3" points="807.67,849.12 418.01,918.2 320.88,370.32 710.55,301.24 "/>
  <polygon class="fil5" points="612.82,378.68 438.81,409.53 438.11,405.62 612.12,374.77 "/>
  <polygon class="fil5" points="647.61,362.3 400.5,406.1 399.8,402.2 646.92,358.39 "/>
  <polygon class="fil5" points="682.99,408.55 383.18,461.7 382.48,457.79 682.3,404.64 "/>
  <polygon class="fil5" points="686.32,427.34 386.51,480.49 385.81,476.58 685.63,423.43 "/>
  <polygon class="fil5" points="692.99,464.92 393.17,518.07 392.48,514.16 692.3,461.01 "/>
  <polygon class="fil5" points="696.31,483.71 396.5,536.86 395.81,532.96 695.62,479.8 "/>
  <polygon class="fil5" points="699.65,502.5 399.83,555.65 399.14,551.74 698.95,498.59 "/>
  <polygon class="fil5" points="714.3,585.14 414.48,638.29 413.79,634.38 713.6,581.23 "/>
  <polygon class="fil5" points="717.75,604.62 417.94,657.77 417.24,653.87 717.06,600.71 "/>
  <polygon class="fil5" points="721.21,624.11 421.39,677.26 420.7,673.35 720.51,620.2 "/>
  <polygon class="fil5" points="724.65,643.59 424.84,696.74 424.15,692.84 723.96,639.69 "/>
  <polygon class="fil5" points="728.12,663.07 428.3,716.22 427.61,712.32 727.42,659.17 "/>
  <polygon class="fil5" points="731.57,682.56 431.75,735.71 431.06,731.8 730.87,678.65 "/>
  <polygon class="fil5" points="735.02,702.04 435.21,755.19 434.51,751.29 734.33,698.13 "/>
  <polygon class="fil4" points="796,825.66 413.29,926.37 271.68,388.28 654.39,287.56 "/>
  <polygon class="fil5" points="563.32,372.73 392.42,417.71 391.41,413.88 562.31,368.9 "/>
  <polygon class="fil5" points="596.66,353.56 353.95,417.43 352.94,413.6 595.65,349.72 "/>
  <polygon class="fil5" points="635.7,396.76 341.24,474.26 340.23,470.42 634.69,392.93 "/>
  <polygon class="fil5" points="640.56,415.22 346.1,492.71 345.09,488.88 639.55,411.38 "/>
  <polygon class="fil5" points="650.27,452.13 355.81,529.62 354.8,525.79 649.26,448.29 "/>
  <polygon class="fil5" points="655.13,470.58 360.67,548.07 359.66,544.24 654.12,466.74 "/>
  <polygon class="fil5" points="659.99,489.03 365.52,566.53 364.51,562.69 658.97,485.2 "/>
  <polygon class="fil5" points="681.35,570.2 386.88,647.69 385.87,643.86 680.34,566.36 "/>
  <polygon class="fil5" points="686.38,589.34 391.92,666.83 390.91,662.99 685.37,585.5 "/>
  <polygon class="fil5" points="691.42,608.47 396.96,685.97 395.95,682.13 690.41,604.64 "/>
  <polygon class="fil5" points="696.45,627.61 401.99,705.1 400.98,701.27 695.45,623.77 "/>
  <polygon class="fil5" points="701.49,646.74 407.03,724.24 406.02,720.4 700.48,642.91 "/>
  <polygon class="fil5" points="706.53,665.88 412.06,743.37 411.05,739.54 705.51,662.05 "/>
  <polygon class="fil5" points="711.56,685.02 417.1,762.51 416.09,758.67 710.55,681.18 "/>
  <path class="fil6" d="M706.51 903.47l-409.71 164.54 -238.96 -595.02 344.29 -212.38c19.35,-11.94 44.79,-3.56 53.26,17.54l251.13 625.32z"/>
  <path class="fil11" d="M847.45 286.64l47.12 -34.6c-4.66,-41.74 -10.96,-76.45 -10.96,-76.45 -62.69,25.68 -104.57,62.94 -132.18,104.3l14.98 65.5 -32.09 -35.91c-58.11,117.09 -20.96,251.75 -20.96,251.75 0,0 153.51,-135.03 177.14,-176.27 9.12,-15.93 10.17,-50.77 8.02,-87.54 -21.29,-3.12 -51.07,-10.78 -51.07,-10.78z"/>
  <path class="fil12" d="M883.61 175.58c0,0 -149.74,240.35 -170.24,385.65 0,0 153.51,-135.03 177.14,-176.27 9.12,-15.93 10.17,-50.77 8.02,-87.54 -21.29,-3.12 -51.07,-10.78 -51.07,-10.78l47.12 -34.6c-4.66,-41.74 -10.96,-76.45 -10.96,-76.45z"/>
  <path class="fil11" d="M978.14 323.74c-41.05,2.81 -76.62,13.92 -107.27,30 -0.99,16.02 -2.59,35.15 -2.59,35.15l-17.98 -23.19c-110.96,71.1 -149.13,206.09 -149.13,206.09 90.01,-4.77 150.77,-31.49 191.8,-65.75 -3.35,-10.2 -8.52,-25.27 -8.52,-25.27l21.28 13.8c18.55,-18 32.35,-37.52 42.63,-56.7 -11.12,-7.1 -23.47,-15.47 -23.47,-15.47l32.47 -3.22c22.04,-51.18 20.78,-95.44 20.78,-95.44z"/>
  <path class="fil12" d="M892.96 506.05c-3.35,-10.2 -8.52,-25.27 -8.52,-25.27l21.28 13.8c18.55,-18 32.35,-37.52 42.63,-56.7 -11.12,-7.1 -23.47,-15.47 -23.47,-15.47l32.47 -3.22c22.04,-51.18 20.78,-95.44 20.78,-95.44 -135.49,74.07 -276.98,248.06 -276.98,248.06 90.01,-4.77 150.77,-31.49 191.8,-65.75z"/>
  <path class="fil6" d="M1354.77 494.96l28.03 0c-4.59,-3.13 -10.31,-5.01 -16.56,-5.01l-701.9 0c-36.72,0 -66.49,26.39 -66.49,58.94l0 37.44c0,32.56 29.77,58.94 66.49,58.94l694.05 -0.21 -3.62 -150.1z"/>
  <path class="fil0" d="M656.73 586.33l0 -37.44c0,-32.55 29.77,-58.94 66.49,-58.94l-15.07 0c-36.73,0 -66.49,26.39 -66.49,58.94l0 37.44c0,32.55 29.76,58.94 66.49,58.94l14.87 0c-36.63,-0.1 -66.29,-26.44 -66.29,-58.94z"/>
  <path class="fil0" d="M821.11 586.33l0 -37.44c0,-32.55 29.77,-58.94 66.5,-58.94l-15.08 0c-36.72,0 -66.49,26.39 -66.49,58.94l0 37.44c0,32.55 29.77,58.94 66.49,58.94l14.88 0c-36.63,-0.1 -66.3,-26.44 -66.3,-58.94z"/>
  <path class="fil2" d="M956.3 490.09c-35.12,0 -63.59,25.24 -63.59,56.37l0 42.31c0,31.13 28.46,56.37 63.59,56.37l436.95 0 0 -9.47 -1.8 0 -111.09 -9.32 -22.45 -78.08c0,0 43.34,-43.14 46.16,-44.26 2.81,-1.11 87.37,-4.49 87.37,-4.49l1.8 -0.02 0 -9.41 -436.95 0z"/>
  <path class="fil4" d="M1364.91 567.33c0,-45.65 26.61,-67.78 26.61,-67.78l-426.28 0c-32.26,0 -58.41,23.18 -58.41,51.77l0 32.57c0,28.59 26.15,51.77 58.41,51.77l426.28 0c0,0 -26.61,-10.85 -26.61,-68.34z"/>
  <path class="fil13" d="M906.84 584.11c0,-0.01 0,-0.01 0,-0.01 0,0 0,0.01 0,0.01zm0 -0.09c0,-0.01 0,-0.01 0,-0.02 0,0.01 0,0.01 0,0.02z"/>
  <path class="fil14" d="M908.54 596.31c-1.09,-3.91 -1.68,-8 -1.7,-12.21 0,-0.01 0,-0.01 0,-0.01 0,-0.03 0,-0.05 0,-0.08 0,-0.01 0,-0.01 0,-0.02 0,-0.03 0,-0.07 0,-0.09l0 -32.57c0,-28.6 26.15,-51.77 58.41,-51.77l426.28 0 0 0c0,0 -266.13,3.34 -388.6,25.89 -52.45,9.66 -80.01,39.69 -94.38,70.87z"/>
  <path class="fil15" d="M1343.22 805.42l31.71 0c-5.2,-3.92 -11.68,-6.27 -18.73,-6.27l-794.42 0c-41.56,0 -75.26,33.03 -75.26,73.77l0 46.86c0,40.75 33.69,73.78 75.26,73.78l785.53 -0.26 -4.08 -187.88z"/>
  <path class="fil2" d="M892.22 799.32c-39.74,0 -71.97,31.59 -71.97,70.56l0 52.96c0,38.97 32.23,70.56 71.97,70.56l494.55 0 0 -11.84 -2.04 0 -125.73 -11.68 -25.42 -97.73c0,0 49.04,-54 52.25,-55.4 3.2,-1.39 98.89,-5.62 98.89,-5.62l2.04 -0.02 0 -11.78 -494.55 0z"/>
  <path class="fil4" d="M1354.68 896.01c0,-57.14 30.12,-84.84 30.12,-84.84l-482.46 0c-36.5,0 -66.1,29.01 -66.1,64.81l0 40.76c0,35.79 29.6,64.81 66.1,64.81l482.46 0c0,0 -30.12,-13.59 -30.12,-85.54z"/>
  <path class="fil16" d="M836.24 917.11l0 0 0 0zm0 -0.11c0,-0.01 0,-0.01 0,-0.02 0,0.01 0,0.01 0,0.02zm0 -0.11c0,-0.01 0,-0.02 0,-0.03 0,0.01 0,0.01 0,0.03z"/>
  <path class="fil14" d="M838.17 932.27c-1.22,-4.86 -1.89,-9.94 -1.92,-15.16l0 0c0,-0.04 0,-0.07 0,-0.11 0,-0.01 0,-0.01 0,-0.02 0,-0.03 0,-0.07 0,-0.09 0,-0.01 0,-0.02 0,-0.03 0,-0.04 0,-0.08 0,-0.12l0 -40.76c0,-35.79 29.6,-64.81 66.1,-64.81l482.46 0 0 0c0,0 -301.2,4.18 -439.81,32.4 -59.36,12.09 -90.55,49.68 -106.82,88.71z"/>
  <path class="fil17" d="M460.34 649.85l-31.72 0c5.19,-3.11 11.68,-4.98 18.75,-4.98l794.72 0c41.58,0 75.28,26.21 75.28,58.54l0 37.18c0,32.33 -33.7,58.54 -75.28,58.54l-785.83 -0.21 4.09 -149.08z"/>
  <path class="fil18" d="M911.53 645.02c39.76,0 72,25.06 72,55.98l0 42.02c0,30.92 -32.23,55.98 -72,55.98l-494.74 0 0 -9.4 2.04 0 125.77 -9.26 25.42 -77.55c0,0 -49.06,-42.85 -52.26,-43.96 -3.2,-1.11 -98.93,-4.46 -98.93,-4.46l-2.04 -0.01 0 -9.35 494.74 0z"/>
  <path class="fil4" d="M448.88 721.74c0,-45.35 -30.13,-67.32 -30.13,-67.32l482.65 0c36.52,0 66.13,23.02 66.13,51.43l0 32.35c0,28.4 -29.6,51.42 -66.13,51.42l-482.65 0c0,0 30.13,-10.78 30.13,-67.87z"/>
  <path class="fil19" d="M967.52 738.4c0,-0.01 0,-0.01 0,-0.02 0,0.01 0,0.01 0,0.02zm0 -0.09c0,-0.01 0,-0.01 0,-0.03 0,0.01 0,0.02 0,0.03z"/>
  <path class="fil14" d="M965.6 750.51c-16.28,-30.96 -47.48,-60.8 -106.87,-70.39 -138.66,-22.39 -439.98,-25.71 -439.98,-25.71l482.65 0c36.52,0 66.13,23.02 66.13,51.43l0 32.35c0,0.03 0,0.06 0,0.09 0,0.01 0,0.02 0,0.03 0,0.02 0,0.05 0,0.07 0,0.01 0,0.01 0,0.02 -0.02,4.18 -0.7,8.24 -1.92,12.12z"/>
  <path class="fil20" d="M1172.5 799.15l-5.73 0 -69.27 -0.02c0.38,-0.01 0.76,-0.01 1.14,-0.02l75.28 0.02c-0.48,0.01 -0.95,0.01 -1.42,0.02z"/>
  <path class="fil21" d="M1171.97 799.15l-5.2 0 5.73 0c-0.17,0 -0.36,0 -0.53,0z"/>
  <path class="fil18" d="M1173.92 799.13l-75.28 -0.02c40.59,-0.88 73.15,-26.73 73.15,-58.5l0 -37.18c0,-32.33 -33.71,-58.54 -75.29,-58.54l75.47 0c41.58,0 75.28,26.21 75.28,58.54l0 37.18c0,31.82 -32.65,57.72 -73.33,58.52z"/>
  <path class="fil22" d="M947.09 1098.44c0,-0.01 0,-0.01 0,-0.02 0,0.01 0,0.01 0,0.02zm0 -0.11c0,-0.01 0,-0.01 0,-0.02 0,0.01 0,0.01 0,0.02z"/>
  <path class="fil4" d="M1242.37 511.69c-1.52,-0.28 -3.06,-0.54 -4.57,-0.89 -1.51,-0.35 -3.01,-0.76 -4.48,-1.2 -0.74,-0.23 -1.5,-0.48 -2.23,-0.75 0.77,-0.16 1.52,-0.38 2.25,-0.65 1.46,-0.52 2.82,-1.26 4.11,-2.1 1.23,-0.91 2.41,-1.9 3.43,-3.02 1.03,-1.12 1.91,-2.36 2.69,-3.64l-1.52 1.65c-0.54,0.51 -1.05,1.05 -1.62,1.53 -1.09,1.01 -2.29,1.86 -3.54,2.62 -1.25,0.76 -2.57,1.37 -3.94,1.85 -1.37,0.46 -2.84,0.8 -4.18,0.84l-2.49 0.09 2.2 1.02c1.5,0.69 3,1.15 4.52,1.58 1.52,0.43 3.08,0.73 4.63,0.99 1.55,0.25 3.1,0.47 4.68,0.58 1.55,0.12 3.13,0.19 4.69,0.19 -1.55,-0.23 -3.1,-0.42 -4.64,-0.69z"/>
  <path class="fil23" d="M1591.92 1184.15l-1444.91 0c-4.27,0 -7.73,-3.46 -7.73,-7.73l0 -3.55c0,-4.27 3.46,-7.73 7.73,-7.73l1444.91 0c4.26,0 7.72,3.46 7.72,7.73l0 3.55c0,4.27 -3.46,7.73 -7.72,7.73z"/>
  <polygon class="fil2" points="130.42,538.69 409.37,379.14 447.07,453.82 161.64,604.82 "/>
  <g id="_2259819613040">
   <path class="fil2" d="M270.52 900.39c13.69,11.31 13.41,-3.58 -20.32,-63.76 -15.81,-28.2 -49.21,-85.25 -73.76,-55.46 -23.59,28.62 62.66,93.04 62.66,93.04l31.42 26.18zm-38.56 31.94l0 0c0,0 -102.5,-32.92 -89.48,-67.64 13.55,-36.15 63.66,6.96 87.77,28.5 51.45,45.96 56.55,59.96 39.93,53.71l-38.22 -14.56zm19.3 68.8l0 0c0,0 -83.13,-10.31 -78.22,-38.75 5.12,-29.6 49.68,-3.91 71.24,9.07 46,27.68 51.92,37.65 38.31,35.28l-31.33 -5.59zm16.78 69.93l0 0c0,0 -83.14,-10.31 -78.22,-38.75 5.12,-29.6 49.68,-3.91 71.24,9.07 46,27.68 51.92,37.65 38.31,35.28l-31.33 -5.59zm38.45 -179.59l0 0c0,0 60.4,-89.12 90.07,-66.87 30.88,23.16 -24.57,59.14 -52.02,76.23 -58.57,36.46 -73.43,37.42 -62.76,23.23l24.71 -32.59zm14.17 54.53l0 0c0,0 76.91,-75.33 101.56,-47.63 25.66,28.84 -35.83,53.07 -66.13,64.36 -64.65,24.09 -79.41,22.07 -66.13,10.29l30.7 -27.02zm7.51 63.74l0 0c0,0 66.78,-61.93 86.99,-37.93 21.03,24.98 -31.53,44.05 -57.41,52.9 -55.23,18.88 -67.66,16.83 -56.16,7.17l26.59 -22.14zm11.26 49.89l0 0c0,0 59.83,-68.66 82.47,-46.95 23.57,22.61 -26.68,47.15 -51.48,58.7 -52.91,24.63 -65.49,23.92 -55.08,13.09l24.09 -24.84zm-68.34 -246.64l0 0c0,0 -23.24,-124.95 26.08,-126.61 51.34,-1.73 30.51,71.52 19.53,107.14 -23.42,75.99 -36.99,87.77 -39.67,67.1l-5.94 -47.62z"/>
   <path class="fil7" d="M270.52 900.39c13.69,11.31 13.41,-3.58 -20.32,-63.76 -15.81,-28.2 -49.21,-85.25 -73.76,-55.46 -23.59,28.62 62.66,93.04 62.66,93.04l31.42 26.18zm-38.56 31.94l0 0c0,0 -102.5,-32.92 -89.48,-67.64 13.55,-36.15 63.66,6.96 87.77,28.5 51.45,45.96 56.55,59.96 39.93,53.71l-38.22 -14.56zm19.3 68.8l0 0c0,0 -83.13,-10.31 -78.22,-38.75 5.12,-29.6 49.68,-3.91 71.24,9.07 46,27.68 51.92,37.65 38.31,35.28l-31.33 -5.59zm16.78 69.93l0 0c0,0 -83.14,-10.31 -78.22,-38.75 5.12,-29.6 49.68,-3.91 71.24,9.07 46,27.68 51.92,37.65 38.31,35.28l-31.33 -5.59zm38.45 -179.59l0 0c0,0 60.4,-89.12 90.07,-66.87 30.88,23.16 -24.57,59.14 -52.02,76.23 -58.57,36.46 -73.43,37.42 -62.76,23.23l24.71 -32.59zm14.17 54.53l0 0c0,0 76.91,-75.33 101.56,-47.63 25.66,28.84 -35.83,53.07 -66.13,64.36 -64.65,24.09 -79.41,22.07 -66.13,10.29l30.7 -27.02zm7.51 63.74l0 0c0,0 66.78,-61.93 86.99,-37.93 21.03,24.98 -31.53,44.05 -57.41,52.9 -55.23,18.88 -67.66,16.83 -56.16,7.17l26.59 -22.14zm11.26 49.89l0 0c0,0 59.83,-68.66 82.47,-46.95 23.57,22.61 -26.68,47.15 -51.48,58.7 -52.91,24.63 -65.49,23.92 -55.08,13.09l24.09 -24.84zm-68.34 -246.64l0 0c0,0 -23.24,-124.95 26.08,-126.61 51.34,-1.73 30.51,71.52 19.53,107.14 -23.42,75.99 -36.99,87.77 -39.67,67.1l-5.94 -47.62z"/>
   <path class="fil8 str0" d="M301.4 733.1c0,0 -29.33,151.42 -21.53,215.08 8.96,73.14 29.58,149.85 56.81,207.89"/>
   <line class="fil8 str0" x1="278.48" y1="904.65" x2="212.45" y2= "811.03" />
   <line class="fil8 str0" x1="279.87" y1="948.18" x2="191.15" y2= "887.43" />
   <line class="fil8 str0" x1="279.45" y1="932.29" x2="360.11" y2= "864.88" />
   <line class="fil8 str0" x1="288.62" y1="1005.11" x2="202.54" y2= "973.18" />
   <line class="fil8 str0" x1="285.27" y1="981.09" x2="353.37" y2= "943.54" />
   <line class="fil8 str0" x1="298.93" y1="1037.87" x2="352.52" y2= "1011.61" />
   <line class="fil8 str0" x1="305.27" y1="1075.4" x2="256.94" y2= "1053.12" />
   <line class="fil8 str0" x1="310.74" y1="1090.43" x2="370.46" y2= "1054.23" />
   <path class="fil2" d="M149.85 1072.65c12.74,-1.72 4.69,-8.9 -43.91,-20.53 -22.77,-5.45 -69.53,-15.73 -65.76,11.97 3.63,26.61 80.29,12.4 80.29,12.4l29.37 -3.84zm-1.96 36.21l0 0c0,0 -67.89,38.34 -79.97,14.35 -12.57,-24.97 34.99,-30.44 58.3,-32.68 49.74,-4.78 59.69,-0.61 48.19,5.16l-26.53 13.17zm46.09 23.55l0 0c0,0 -46.35,39.15 -59.06,22.56 -13.23,-17.27 22.34,-28.34 39.84,-33.44 37.34,-10.86 45.55,-9.11 37.6,-3.04l-18.38 13.92zm45.45 25.45l0 0c0,0 -46.35,39.15 -59.06,22.56 -13.23,-17.27 22.34,-28.35 39.84,-33.44 37.34,-10.86 45.55,-9.11 37.6,-3.04l-18.38 13.92zm-76.63 -108.73l0 0c0,0 -17.72,-75.93 8.7,-80.78 27.5,-5.04 19.38,42.14 14.98,65.14 -9.39,49.08 -16.19,57.45 -18.5,44.8l-5.19 -29.16zm35.97 19.27l0 0c0,0 -2.27,-77.94 24.59,-77.43 27.95,0.52 10.62,45.15 1.73,66.81 -18.96,46.23 -27.29,53.09 -27.03,40.23l0.71 -29.61zm37.6 27.34l0 0c0,0 -0.12,-65.96 22.58,-64.91 23.63,1.09 7.93,38.43 -0.08,56.54 -17.1,38.66 -24.3,44.26 -23.79,33.4l1.29 -25.03zm32.07 18.53l0 0c0,0 -7.12,-65.58 15.56,-66.94 23.61,-1.42 11.97,37.37 5.92,56.23 -12.91,40.25 -19.47,46.59 -20.11,35.73l-1.37 -25.02zm-164.78 -84.88l0 0c0,0 -77.89,-49.05 -54.53,-76.11 24.31,-28.16 53.04,18.93 66.59,42.27 28.91,49.81 28.5,62.82 16.19,54.08l-28.25 -20.25z"/>
   <path class="fil9" d="M149.85 1072.65c12.74,-1.72 4.69,-8.9 -43.91,-20.53 -22.77,-5.45 -69.53,-15.73 -65.76,11.97 3.63,26.61 80.29,12.4 80.29,12.4l29.37 -3.84zm-1.96 36.21l0 0c0,0 -67.89,38.34 -79.97,14.35 -12.57,-24.97 34.99,-30.44 58.3,-32.68 49.74,-4.78 59.69,-0.61 48.19,5.16l-26.53 13.17zm46.09 23.55l0 0c0,0 -46.35,39.15 -59.06,22.56 -13.23,-17.27 22.34,-28.34 39.84,-33.44 37.34,-10.86 45.55,-9.11 37.6,-3.04l-18.38 13.92zm45.45 25.45l0 0c0,0 -46.35,39.15 -59.06,22.56 -13.23,-17.27 22.34,-28.35 39.84,-33.44 37.34,-10.86 45.55,-9.11 37.6,-3.04l-18.38 13.92zm-76.63 -108.73l0 0c0,0 -17.72,-75.93 8.7,-80.78 27.5,-5.04 19.38,42.14 14.98,65.14 -9.39,49.08 -16.19,57.45 -18.5,44.8l-5.19 -29.16zm35.97 19.27l0 0c0,0 -2.27,-77.94 24.59,-77.43 27.95,0.52 10.62,45.15 1.73,66.81 -18.96,46.23 -27.29,53.09 -27.03,40.23l0.71 -29.61zm37.6 27.34l0 0c0,0 -0.12,-65.96 22.58,-64.91 23.63,1.09 7.93,38.43 -0.08,56.54 -17.1,38.66 -24.3,44.26 -23.79,33.4l1.29 -25.03zm32.07 18.53l0 0c0,0 -7.12,-65.58 15.56,-66.94 23.61,-1.42 11.97,37.37 5.92,56.23 -12.91,40.25 -19.47,46.59 -20.11,35.73l-1.37 -25.02zm-164.78 -84.88l0 0c0,0 -77.89,-49.05 -54.53,-76.11 24.31,-28.16 53.04,18.93 66.59,42.27 28.91,49.81 28.5,62.82 16.19,54.08l-28.25 -20.25z"/>
   <path class="fil8 str0" d="M76.05 974c0,0 66.13,90.03 103.82,117.17 43.31,31.18 98.5,59.45 142.76,73.5"/>
   <line class="fil8 str0" x1="156.03" y1="1070.52" x2="73.78" y2= "1059.62" />
   <line class="fil8 str0" x1="179.87" y1="1091.17" x2="103.95" y2= "1108.5" />
   <line class="fil8 str0" x1="171.21" y1="1083.59" x2="175" y2= "1007.54" />
   <line class="fil8 str0" x1="214.45" y1="1114.5" x2="155.16" y2= "1144.59" />
   <line class="fil8 str0" x1="200.03" y1="1104.47" x2="213.52" y2= "1049.79" />
   <line class="fil8 str0" x1="236.95" y1="1125.12" x2="249.32" y2= "1083.7" />
   <line class="fil8 str0" x1="260.02" y1="1140.19" x2="224.42" y2= "1154.95" />
   <line class="fil8 str0" x1="270.71" y1="1144.67" x2="280.81" y2= "1095.11" />
   <path class="fil10" d="M269.06 768.46l2.42 -1.02c-0.81,0.33 -1.61,0.67 -2.42,1.02z"/>
   <path class="fil8 str1" d="M271.48 767.44c-0.81,0.33 -1.61,0.67 -2.42,1.02"/>
  </g>
  <path class="fil17" d="M400.34 999.52l-34.2 0c5.6,-3.48 12.6,-5.56 20.21,-5.56l856.73 0c44.83,0 81.17,29.28 81.17,65.4l0 41.55c0,36.12 -36.34,65.4 -81.17,65.4l-847.15 -0.23 4.41 -166.57z"/>
  <path class="fil18" d="M886.73 994.11c42.86,0 77.61,28 77.61,62.55l0 46.95c0,34.55 -34.75,62.55 -77.61,62.55l-533.34 0 0 -10.5 2.2 0 135.59 -10.35 27.4 -86.64c0,0 -52.89,-47.88 -56.34,-49.11 -3.45,-1.23 -106.65,-4.98 -106.65,-4.98l-2.2 -0.02 0 -10.44 533.34 0z"/>
  <path class="fil4" d="M387.98 1079.83c0,-50.66 -32.48,-75.22 -32.48,-75.22l520.31 0c39.37,0 71.29,25.72 71.29,57.45l0 36.14c0,31.73 -31.92,57.45 -71.29,57.45l-520.31 0c0,0 32.48,-12.05 32.48,-75.83z"/>
  <path class="fil14" d="M945.01 1111.98c-17.55,-34.6 -51.18,-67.93 -115.2,-78.64 -149.48,-25.02 -474.31,-28.73 -474.31,-28.73l520.31 0c39.37,0 71.29,25.72 71.29,57.45l0 36.14c0,0.03 0,0.07 0,0.11 0,0.01 0,0.01 0,0.02 0,0.03 0,0.06 0,0.09 0,0.01 0,0.01 0,0.02 -0.02,4.67 -0.75,9.2 -2.08,13.54z"/>
 </g>
</svg>
