<?xml version="1.0" encoding="UTF-8"?>
<!DOCTYPE svg PUBLIC "-//W3C//DTD SVG 1.1//EN" "http://www.w3.org/Graphics/SVG/1.1/DTD/svg11.dtd">
<!-- Creator: CorelDRAW 2017 -->
<svg xmlns="http://www.w3.org/2000/svg" xml:space="preserve" width="429.02mm" height="321.754mm" version="1.1" style="shape-rendering:geometricPrecision; text-rendering:geometricPrecision; image-rendering:optimizeQuality; fill-rule:evenodd; clip-rule:evenodd"
viewBox="0 0 1350 1012.47"
 xmlns:xlink="http://www.w3.org/1999/xlink">
 <defs>
  <style type="text/css">
   <![CDATA[
    .str0 {stroke:#CFCFCF;stroke-width:1.39;stroke-linecap:round;stroke-linejoin:round;stroke-miterlimit:10}
    .str1 {stroke:#263138;stroke-width:1.11;stroke-linecap:round;stroke-linejoin:round;stroke-miterlimit:10}
    .fil4 {fill:none;fill-rule:nonzero}
    .fil17 {fill:#00497B;fill-rule:nonzero}
    .fil20 {fill:#02CCC0;fill-rule:nonzero}
    .fil19 {fill:#06BFAD;fill-rule:nonzero}
    .fil11 {fill:#2089E0;fill-rule:nonzero}
    .fil2 {fill:#2095F2;fill-rule:nonzero}
    .fil6 {fill:#263138;fill-rule:nonzero}
    .fil10 {fill:#2B2A3F;fill-rule:nonzero}
    .fil14 {fill:#323096;fill-rule:nonzero}
    .fil21 {fill:#462D3B;fill-rule:nonzero}
    .fil13 {fill:#5B5B6B;fill-rule:nonzero}
    .fil18 {fill:#A5C2FF;fill-rule:nonzero}
    .fil16 {fill:#A5C623;fill-rule:nonzero}
    .fil0 {fill:#DDF0FF;fill-rule:nonzero}
    .fil9 {fill:#F29567;fill-rule:nonzero}
    .fil8 {fill:#F9B587;fill-rule:nonzero}
    .fil15 {fill:white;fill-rule:nonzero}
    .fil7 {fill:#2095F2;fill-rule:nonzero;fill-opacity:0.101961}
    .fil12 {fill:#2B2A3F;fill-rule:nonzero;fill-opacity:0.200000}
    .fil5 {fill:#E8E8E8;fill-rule:nonzero;fill-opacity:0.650980}
    .fil3 {fill:white;fill-rule:nonzero;fill-opacity:0.650980}
    .fil1 {fill:#DDF0FF;fill-rule:nonzero;fill-opacity:0.800000}
   ]]>
  </style>
 </defs>
 <g id="Layer_x0020_1">
  <metadata id="CorelCorpID_0Corel-Layer"/>
  <g id="_2259737293920">
   <path class="fil0" d="M1258.51 199.52c0,0 -86.4,-165.94 -277.19,-190.52 -190.79,-24.58 -323.99,95.26 -464.39,156.72 -73.52,32.19 -157.5,19.68 -235.55,35.26 -249.57,49.81 -343.59,361.89 -239.63,539.37 90,153.65 248.39,233.54 489.59,251.98 241.19,18.44 410.39,39.95 626.38,-110.63 215.99,-150.57 201.59,-464.01 100.8,-682.19z"/>
   <path class="fil1" d="M1258.51 199.52c0,0 -86.4,-165.94 -277.19,-190.52 -190.79,-24.58 -323.99,95.26 -464.39,156.72 -73.52,32.19 -157.5,19.68 -235.55,35.26 -249.57,49.81 -343.59,361.89 -239.63,539.37 90,153.65 248.39,233.54 489.59,251.98 241.19,18.44 410.39,39.95 626.38,-110.63 215.99,-150.57 201.59,-464.01 100.8,-682.19z"/>
  </g>
  <g id="_2259737293632">
   <path class="fil2" d="M1155.38 704.93c-11.55,9.55 -11.32,-3.02 17.16,-53.83 13.35,-23.81 41.54,-71.96 62.26,-46.82 19.91,24.16 -52.9,78.54 -52.9,78.54l-26.52 22.1zm32.55 26.97l0 0c0,0 86.52,-27.79 75.54,-57.1 -11.44,-30.51 -53.74,5.87 -74.09,24.06 -43.43,38.8 -47.74,50.61 -33.71,45.34l32.26 -12.29zm-16.29 58.08l0 0c0,0 70.18,-8.71 66.03,-32.71 -4.32,-24.98 -41.94,-3.3 -60.13,7.66 -38.83,23.37 -43.83,31.78 -32.34,29.78l26.45 -4.72zm-14.16 59.03l0 0c0,0 70.18,-8.71 66.03,-32.71 -4.32,-24.99 -41.94,-3.3 -60.13,7.66 -38.83,23.37 -43.83,31.78 -32.34,29.78l26.45 -4.72zm-32.46 -151.6l0 0c0,0 -50.98,-75.23 -76.03,-56.44 -26.07,19.55 20.74,49.92 43.91,64.35 49.44,30.78 61.99,31.59 52.98,19.61l-20.86 -27.51zm-11.96 46.03l0 0c0,0 -64.92,-63.59 -85.73,-40.2 -21.66,24.34 30.25,44.8 55.82,54.33 54.57,20.34 67.03,18.63 55.82,8.68l-25.91 -22.81zm-6.34 53.81l0 0c0,0 -56.37,-52.27 -73.43,-32.02 -17.76,21.09 26.62,37.19 48.47,44.66 46.62,15.94 57.12,14.21 47.41,6.05l-22.44 -18.69zm-9.51 42.11l0 0c0,0 -50.5,-57.96 -69.62,-39.63 -19.89,19.08 22.52,39.8 43.45,49.55 44.67,20.79 55.29,20.19 46.5,11.05l-20.33 -20.97zm57.69 -208.2l0 0c0,0 19.62,-105.47 -22.02,-106.88 -43.34,-1.46 -25.75,60.38 -16.49,90.44 19.77,64.14 31.23,74.09 33.49,56.64l5.02 -40.2z"/>
   <path class="fil3" d="M1155.38 704.93c-11.55,9.55 -11.32,-3.02 17.16,-53.83 13.35,-23.81 41.54,-71.96 62.26,-46.82 19.91,24.16 -52.9,78.54 -52.9,78.54l-26.52 22.1zm32.55 26.97l0 0c0,0 86.52,-27.79 75.54,-57.1 -11.44,-30.51 -53.74,5.87 -74.09,24.06 -43.43,38.8 -47.74,50.61 -33.71,45.34l32.26 -12.29zm-16.29 58.08l0 0c0,0 70.18,-8.71 66.03,-32.71 -4.32,-24.98 -41.94,-3.3 -60.13,7.66 -38.83,23.37 -43.83,31.78 -32.34,29.78l26.45 -4.72zm-14.16 59.03l0 0c0,0 70.18,-8.71 66.03,-32.71 -4.32,-24.99 -41.94,-3.3 -60.13,7.66 -38.83,23.37 -43.83,31.78 -32.34,29.78l26.45 -4.72zm-32.46 -151.6l0 0c0,0 -50.98,-75.23 -76.03,-56.44 -26.07,19.55 20.74,49.92 43.91,64.35 49.44,30.78 61.99,31.59 52.98,19.61l-20.86 -27.51zm-11.96 46.03l0 0c0,0 -64.92,-63.59 -85.73,-40.2 -21.66,24.34 30.25,44.8 55.82,54.33 54.57,20.34 67.03,18.63 55.82,8.68l-25.91 -22.81zm-6.34 53.81l0 0c0,0 -56.37,-52.27 -73.43,-32.02 -17.76,21.09 26.62,37.19 48.47,44.66 46.62,15.94 57.12,14.21 47.41,6.05l-22.44 -18.69zm-9.51 42.11l0 0c0,0 -50.5,-57.96 -69.62,-39.63 -19.89,19.08 22.52,39.8 43.45,49.55 44.67,20.79 55.29,20.19 46.5,11.05l-20.33 -20.97zm57.69 -208.2l0 0c0,0 19.62,-105.47 -22.02,-106.88 -43.34,-1.46 -25.75,60.38 -16.49,90.44 19.77,64.14 31.23,74.09 33.49,56.64l5.02 -40.2z"/>
   <path class="fil4 str0" d="M1129.32 563.72c0,0 24.76,127.82 18.18,181.56 -7.56,61.74 -24.97,126.49 -47.96,175.49"/>
   <line class="fil4 str0" x1="1148.67" y1="708.53" x2="1204.4" y2= "629.5" />
   <line class="fil4 str0" x1="1147.5" y1="745.27" x2="1222.38" y2= "693.99" />
   <line class="fil4 str0" x1="1147.85" y1="731.87" x2="1079.76" y2= "674.96" />
   <line class="fil4 str0" x1="1140.1" y1="793.33" x2="1212.77" y2= "766.38" />
   <line class="fil4 str0" x1="1142.94" y1="773.05" x2="1085.45" y2= "741.36" />
   <line class="fil4 str0" x1="1131.41" y1="820.99" x2="1086.17" y2= "798.82" />
   <line class="fil4 str0" x1="1126.05" y1="852.67" x2="1166.85" y2= "833.86" />
   <line class="fil4 str0" x1="1121.44" y1="865.36" x2="1071.02" y2= "834.8" />
   <path class="fil2" d="M1257.25 850.35c-10.76,-1.45 -3.96,-7.51 37.06,-17.33 19.22,-4.6 58.7,-13.27 55.51,10.11 -3.06,22.47 -67.78,10.47 -67.78,10.47l-24.79 -3.24zm1.66 30.57l0 0c0,0 57.31,32.37 67.5,12.11 10.61,-21.08 -29.54,-25.7 -49.22,-27.59 -41.99,-4.03 -50.39,-0.51 -40.68,4.36l22.4 11.12zm-38.9 19.88l0 0c0,0 39.13,33.05 49.85,19.04 11.17,-14.58 -18.86,-23.93 -33.63,-28.22 -31.52,-9.17 -38.45,-7.69 -31.74,-2.57l15.51 11.75zm-38.36 21.48l0 0c0,0 39.13,33.05 49.85,19.04 11.17,-14.58 -18.86,-23.93 -33.63,-28.22 -31.52,-9.17 -38.45,-7.69 -31.74,-2.57l15.51 11.75zm64.69 -91.78l0 0c0,0 14.96,-64.1 -7.35,-68.19 -23.21,-4.26 -16.36,35.57 -12.64,54.99 7.93,41.43 13.67,48.5 15.61,37.82l4.38 -24.62zm-30.37 16.26l0 0c0,0 1.92,-65.79 -20.75,-65.37 -23.6,0.44 -8.96,38.11 -1.46,56.4 16.01,39.03 23.04,44.81 22.82,33.96l-0.6 -25zm-31.74 23.08l0 0c0,0 0.1,-55.68 -19.06,-54.8 -19.94,0.92 -6.7,32.44 0.07,47.73 14.44,32.63 20.52,37.36 20.08,28.19l-1.09 -21.13zm-27.07 15.64l0 0c0,0 6.01,-55.36 -13.14,-56.51 -19.93,-1.2 -10.1,31.54 -5,47.47 10.89,33.98 16.43,39.33 16.98,30.16l1.16 -21.12zm139.1 -71.65l0 0c0,0 65.75,-41.41 46.03,-64.25 -20.52,-23.77 -44.78,15.98 -56.21,35.68 -24.4,42.04 -24.06,53.03 -13.67,45.65l23.85 -17.09z"/>
   <path class="fil5" d="M1257.25 850.35c-10.76,-1.45 -3.96,-7.51 37.06,-17.33 19.22,-4.6 58.7,-13.27 55.51,10.11 -3.06,22.47 -67.78,10.47 -67.78,10.47l-24.79 -3.24zm1.66 30.57l0 0c0,0 57.31,32.37 67.5,12.11 10.61,-21.08 -29.54,-25.7 -49.22,-27.59 -41.99,-4.03 -50.39,-0.51 -40.68,4.36l22.4 11.12zm-38.9 19.88l0 0c0,0 39.13,33.05 49.85,19.04 11.17,-14.58 -18.86,-23.93 -33.63,-28.22 -31.52,-9.17 -38.45,-7.69 -31.74,-2.57l15.51 11.75zm-38.36 21.48l0 0c0,0 39.13,33.05 49.85,19.04 11.17,-14.58 -18.86,-23.93 -33.63,-28.22 -31.52,-9.17 -38.45,-7.69 -31.74,-2.57l15.51 11.75zm64.69 -91.78l0 0c0,0 14.96,-64.1 -7.35,-68.19 -23.21,-4.26 -16.36,35.57 -12.64,54.99 7.93,41.43 13.67,48.5 15.61,37.82l4.38 -24.62zm-30.37 16.26l0 0c0,0 1.92,-65.79 -20.75,-65.37 -23.6,0.44 -8.96,38.11 -1.46,56.4 16.01,39.03 23.04,44.81 22.82,33.96l-0.6 -25zm-31.74 23.08l0 0c0,0 0.1,-55.68 -19.06,-54.8 -19.94,0.92 -6.7,32.44 0.07,47.73 14.44,32.63 20.52,37.36 20.08,28.19l-1.09 -21.13zm-27.07 15.64l0 0c0,0 6.01,-55.36 -13.14,-56.51 -19.93,-1.2 -10.1,31.54 -5,47.47 10.89,33.98 16.43,39.33 16.98,30.16l1.16 -21.12zm139.1 -71.65l0 0c0,0 65.75,-41.41 46.03,-64.25 -20.52,-23.77 -44.78,15.98 -56.21,35.68 -24.4,42.04 -24.06,53.03 -13.67,45.65l23.85 -17.09z"/>
   <path class="fil4 str0" d="M1319.55 767.07c0,0 -55.82,76 -87.64,98.91 -36.56,26.32 -83.15,50.19 -120.51,62.04"/>
   <line class="fil4 str0" x1="1252.03" y1="848.55" x2="1321.47" y2= "839.35" />
   <line class="fil4 str0" x1="1231.91" y1="865.98" x2="1296" y2= "880.61" />
   <line class="fil4 str0" x1="1239.22" y1="859.58" x2="1236.02" y2= "795.39" />
   <line class="fil4 str0" x1="1202.72" y1="885.67" x2="1252.77" y2= "911.08" />
   <line class="fil4 str0" x1="1214.9" y1="877.21" x2="1203.5" y2= "831.05" />
   <line class="fil4 str0" x1="1183.73" y1="894.64" x2="1173.29" y2= "859.68" />
   <line class="fil4 str0" x1="1164.25" y1="907.36" x2="1194.3" y2= "919.82" />
   <line class="fil4 str0" x1="1155.23" y1="911.15" x2="1146.7" y2= "869.31" />
   <path class="fil6" d="M1156.62 593.57l-2.04 -0.86c0.68,0.28 1.36,0.56 2.04,0.86z"/>
   <path class="fil4 str1" d="M1154.57 592.71c0.68,0.28 1.36,0.56 2.04,0.86"/>
  </g>
  <path class="fil7" d="M1165.29 404.22c0,0 5.42,-34.84 20.7,-33.48 4.23,0.38 7.1,4.66 8.99,9.26 1.16,2.83 5.22,2.64 6.06,-0.31 4.04,-14.16 12.31,-35.76 25.12,-35.76 13.25,0 13.69,24.72 12.72,39.77 -0.14,2.27 2.8,3.27 4.07,1.4 3.49,-5.14 8.59,-10.08 14.8,-8.65 12.08,2.79 8.83,27.77 8.83,27.77l-101.28 0z"/>
  <g id="_2259737243616">
   <g>
    <path class="fil8" d="M822.34 404.11c0,0 -14.68,12.74 -35.8,20.78 0,0 -12.12,7.58 -27.64,16.42 0,0 -0.01,0 -0.01,0.01 -18.28,10.41 -32.39,17.31 -45.87,20.97 -11.34,3.07 -21.42,6.94 -29.03,10.24 -0.92,0.4 -1.81,0.79 -2.66,1.17l-0.01 0c-7.53,3.38 -12.04,5.91 -12.04,5.91l-9.44 -22.24c0,0 17.16,-17.05 27.3,-25.45 12.56,-10.41 35.33,-32.77 62.01,-42.42 0,0 0,0 0,-0.01 2.13,-0.77 4.17,-1.37 6.1,-1.77 0,0 21.45,-15.02 37.15,-23.22 5.2,-2.71 9.77,-4.68 12.71,-5.1 0,0 25.13,23.1 17.21,44.72z"/>
    <path class="fil9" d="M763.3 400.38c0,0 -8.94,-9.91 -14.13,-10.89 0,0 0,0 0,-0.01 2.13,-0.77 4.17,-1.37 6.1,-1.77 0,0 7.24,7.29 8.03,12.68z"/>
    <path class="fil9" d="M822.34 404.11c0,0 -14.68,12.74 -35.8,20.78 0,0 -12.12,7.58 -27.64,16.42 10.8,-7.66 27.85,-24.03 40.95,-35.23 8.94,-7.65 4,-17.41 0.37,-26.55 -1.51,-3.8 -5.44,-10.42 -7.29,-14.74 -0.08,-0.19 -0.35,-0.2 -0.51,-0.3 5.2,-2.71 9.77,-4.68 12.71,-5.1 0,0 25.13,23.1 17.21,44.72z"/>
   </g>
   <path class="fil8" d="M680.43 465.25l2.86 26.77c0.3,2.83 -0.76,5.64 -2.87,7.57l-15.63 14.27c-1.86,1.7 -4.75,1.57 -6.45,-0.3 -1.42,-1.56 -1.58,-3.89 -0.39,-5.64l11.6 -16.99 -2.01 -5.14 -6.77 10.31 -5.45 10.15 -2.76 15.8c-0.4,2.3 -2.64,3.79 -4.92,3.28 -1.99,-0.45 -3.34,-2.29 -3.17,-4.32l1.55 -18.96 2.28 -13.79 -5.6 14.21 -6.13 23.29c-0.41,1.54 -1.71,2.68 -3.29,2.89 -2.43,0.31 -4.55,-1.66 -4.41,-4.11l1.21 -20.44 4.19 -14.71 -12.22 20.46 -6.64 14.43c-0.73,1.59 -2.53,2.41 -4.21,1.9 -1.87,-0.56 -2.93,-2.53 -2.36,-4.39l5.14 -16.98 8.66 -16.63 -8.42 13.23 -2.27 5.19c-0.47,1.08 -1.73,1.57 -2.82,1.1 -0.94,-0.41 -1.45,-1.43 -1.23,-2.43l1.33 -5.92 5.85 -12.22 44.99 -29.84c0,0 7.53,-2.54 20.35,7.96z"/>
   <path class="fil9" d="M683.49 472.73c-0.93,0.4 -1.31,0.57 -2.15,0.95l-0.01 0c0,0 -0.69,-3.54 -6.18,-8.08 0.27,0.09 4.38,1.37 8.34,7.13z"/>
  </g>
  <path class="fil10" d="M1097.43 419.5c-0.93,1.83 -2.93,3.04 -5.1,3.85 1.78,27.28 1.14,50.69 -2.96,61.26 -12.64,32.53 -120.21,48.43 -146.08,24.81 -25.86,-23.62 -39.94,-179.56 -5.08,-204.16 26.02,-18.37 80.63,-21.36 106.63,-21.7 10.88,-0.14 20.79,6.35 24.87,16.44 6.53,16.16 12.36,41.78 16.59,69.07 1.55,0.04 3.2,0.28 4.79,0.85 5.39,1.94 8.87,44.61 6.34,49.57z"/>
  <path class="fil11" d="M899.99 741.36c0.93,3.81 2.68,7.63 5.48,11.35 0,0 -11.39,4.6 -21.96,8.92 -8.05,3.28 -21.23,5.24 -29.77,8.5 -2.13,0.81 -3.96,1.71 -5.37,2.73 -0.36,0.26 -0.69,0.53 -0.99,0.81 -4.72,4.4 -29.46,14.75 -37.27,16.62 -0.79,0.19 -1.4,0.29 -1.81,0.29 -2.33,0 -5.61,-1.01 -7.6,-4.2l0 -0.01c-1.78,-2.87 -2.53,-7.49 -0.63,-14.72 1.84,-7 7.76,-15.46 13.62,-22.56 7.15,-8.65 15.79,-15.94 25.49,-21.59 9.1,-5.3 20.55,-12.21 22.79,-14.67 7.14,-7.85 13.52,-16.9 23.66,-20.92 2.52,-0.99 5.82,-1.29 9.36,-1.17 10.75,0.36 23.72,4.51 23.72,4.51 0,0 -24.41,22.88 -18.71,46.11z"/>
  <path class="fil10" d="M894.98 690.74c-4.91,3.56 -12.71,9.77 -15.92,15.43 -4.85,8.56 -23.86,17.43 -32.1,22.82 -8.24,5.39 -39.98,30.21 -43.1,43.84 -2.71,11.83 2.73,16.34 6.24,17.46 -0.79,0.18 -1.4,0.29 -1.81,0.29 -4.44,0 -12.25,-3.64 -8.24,-18.93 1.84,-7 7.76,-15.46 13.63,-22.56 7.15,-8.65 15.79,-15.94 25.48,-21.59 9.09,-5.3 20.55,-12.22 22.79,-14.67 7.14,-7.85 13.52,-16.9 23.66,-20.91 2.52,-1 5.82,-1.29 9.36,-1.17z"/>
  <path class="fil12" d="M905.47 752.71c0,0 -11.39,4.6 -21.96,8.92 -8.05,3.28 -21.23,5.24 -29.77,8.5 -2.13,0.81 -3.96,1.71 -5.37,2.73 -0.36,0.26 -0.69,0.53 -0.99,0.81 -4.72,4.4 -29.46,14.75 -37.27,16.62 -0.79,0.19 -1.4,0.29 -1.81,0.29 -2.33,0 -5.61,-1.01 -7.6,-4.2l0 -0.01c0,0 16.16,-3.58 24.57,-8.96 5.42,-3.48 12.81,-9.1 19.93,-12.89 -1.6,-3.1 -3.98,-7.05 -7.52,-11.79 0.24,0.17 5.87,4.26 10.92,10.12 2.72,-1.2 5.33,-2.03 7.71,-2.25 8.29,-0.76 34.41,-9.43 43.7,-19.23 0.93,3.81 2.68,7.63 5.48,11.35z"/>
  <g id="_2259737252928">
   <path class="fil11" d="M844.55 667.38c-0.22,12.69 2.45,23.11 1.98,27.49 -0.84,8.03 -14.36,24.08 -14.36,24.08 -1.02,9.17 -8.32,22.15 -18.05,29.03l0 0.01c-0.04,0.03 -0.09,0.06 -0.14,0.09 -0.09,0.07 -0.2,0.14 -0.32,0.21 -5.67,3.88 -12.12,5.67 -18.63,3.45 -0.72,-0.25 -1.44,-0.54 -2.17,-0.89 -12.45,-5.99 -16.31,-48.94 0,-66.12 15.74,-16.58 22.39,-50.7 38.03,-54.5 15.63,-3.8 23.66,2.95 23.66,2.95 -0.41,0.61 -0.81,1.24 -1.18,1.86 -6.71,10.95 -8.66,22.35 -8.84,32.34z"/>
  </g>
  <path class="fil10" d="M854.56 633.18c-0.41,0.61 -0.8,1.24 -1.18,1.86 -1.48,-0.55 -16.31,-5.77 -25.44,0.04 -9.61,6.12 -15,29.37 -20.07,35.71 -5.07,6.34 -20.91,29.57 -21.33,38.66 -0.42,9.08 -2.53,31.47 6.12,38.03 8.18,6.18 18.08,2.66 21.02,0.82 -6.3,4.31 -13.57,6.03 -20.8,2.55 -12.45,-5.99 -16.31,-48.93 0,-66.12 15.74,-16.59 22.39,-50.7 38.03,-54.5 15.63,-3.8 23.66,2.95 23.66,2.95z"/>
  <path class="fil12" d="M846.53 694.87c-0.78,7.4 -12.32,21.63 -14.13,23.8l-0.15 0.18c-0.05,0.07 -0.08,0.1 -0.08,0.1 -1.02,9.17 -8.32,22.15 -18.05,29.03l0 0.01c-0.04,0.03 -0.09,0.06 -0.14,0.09 -0.09,0.07 -0.2,0.14 -0.32,0.21 -5.67,3.88 -12.12,5.67 -18.63,3.45 1.02,-0.51 2.3,-0.95 3.91,-1.28 11.08,-2.27 20.61,-17.62 22.71,-26.02 0.63,-2.5 2.59,-5.65 5.06,-8.98 -3.78,-2.18 -8.82,-4.58 -12.72,-4.64 0,0 5.09,-1.84 14.46,2.37 5.7,-7.23 12.91,-14.83 13.73,-18.32 1.29,-5.48 2.37,-27.49 2.37,-27.49 -0.22,12.69 2.45,23.11 1.98,27.49z"/>
  <g id="_2259737254816">
   <path class="fil8" d="M1168.91 227.04l-31.69 17.66 -32.01 17.83c0,0 -12.88,-29.15 -1.38,-47.22 0,0 2.69,-1.57 6.62,-3.64 2.88,-1.51 6.43,-3.29 10.07,-4.91 2.08,-0.92 4.2,-1.8 6.24,-2.54 0,0 3.17,-10.53 8.56,-22.38 2.86,-6.28 3.22,-10.57 2.93,-13.21 -0.26,-2.34 -1.03,-3.39 -1.03,-3.39 0,0 16.48,-8.31 25.98,-16.36 0,0 20.28,46.46 5.7,78.15z"/>
   <g>
    <path class="fil9" d="M1142.93 217.01c0,0 -13.59,3.4 -22.4,-10.24 2.08,-0.92 4.2,-1.8 6.24,-2.54 0,0 6.23,11.09 16.16,12.78z"/>
   </g>
   <path class="fil9" d="M1137.22 244.7l-32.01 17.83c0,0 -12.88,-29.15 -1.38,-47.22 0,0 2.69,-1.57 6.62,-3.64 0,0 0.35,24.78 3.74,30.9 3.38,6.12 14.79,4.04 23.03,2.12z"/>
   <g>
    <path class="fil8" d="M1163.21 148.89c-3.8,4.24 -20.48,16.17 -22.93,17.33 -0.86,0.41 -2.03,-0.11 -3.2,-0.96 -1.13,0.06 -8.59,0.36 -12.69,-1.49 -2.25,-1.02 -2.22,-4.2 -1.64,-7.57 -5.41,-1.31 -15.94,-9.56 -15.79,-17.41 0.16,-8.56 9.35,-9.19 9.35,-9.19 0.16,-9.82 9.51,-8.24 9.51,-8.24 0.47,-4.28 8.24,-6.18 8.24,-6.18 0.79,-3.64 5.86,-4.28 8.87,-2.85 3.01,1.43 20.91,22.18 21.71,25.98 0.79,3.8 -1.43,10.58 -1.43,10.58z"/>
    <path class="fil9" d="M1136.62 151.47c1.3,4.91 -2.83,5.55 -2.83,5.55 0.84,-0.64 0.77,-2.74 0.54,-4.54 0,0 -0.03,-1.23 -0.49,-2.7 -0.01,-0.01 -0.01,-0.01 -0.01,-0.01 -0.5,-1.6 -1.52,-3.49 -3.58,-4.42 -3.71,-1.65 -5.39,-0.53 -5.39,-0.53l-7.36 -9.98c3.8,2.29 8.87,7.76 8.87,7.76 6.55,-0.27 8.99,4.56 9.84,7.2 1.29,-0.1 2.71,-0.66 3.23,-2.45 1.03,-3.57 -1.34,-7.01 -1.34,-7.01l-10.22 -13.59c0,0 13.94,12.99 14.26,18.06 0.42,6.73 -5.51,6.65 -5.51,6.65z"/>
    <path class="fil9" d="M1138.09 122.47c0,0 9.12,10.89 10.33,13.86 1.32,3.25 -0.74,6.5 -3.12,7.13 -2.38,0.63 -3.73,-0.58 -3.73,-0.58l0.01 3.43c0,0 9.22,1.43 9.12,-7.32 -0.05,-4.37 -12.61,-16.53 -12.61,-16.53z"/>
    <path class="fil9" d="M1150.12 136.98c0,0 2.23,2.13 4.93,1.26 2.69,-0.87 3.25,-2.69 2.61,-4.36 0,0 1.64,1.61 0.24,3.96 -1.82,3.06 -6.35,2.51 -7.78,2.14l0 -3z"/>
   </g>
   <path class="fil9" d="M1148.42 163.77c0,0 -2.81,5.41 -10.17,4.87 -0.26,-2.34 -1.03,-3.39 -1.03,-3.39 0,0 6.02,0.42 11.2,-1.48z"/>
  </g>
  <path class="fil11" d="M1042.99 577.53c0,0 -9.31,-20.42 -7.61,-32 1.7,-11.58 17.39,6.64 19.45,11.55 2.06,4.91 -0.87,18.41 -11.84,20.45z"/>
  <path class="fil10" d="M924.78 696.73c-9.23,3.99 -18.95,6.33 -26.95,6.63 8.45,-6.19 18.41,-8.48 18.41,-8.48 2.67,0.32 5.58,0.99 8.54,1.85z"/>
  <g id="_2259737257120">
   <g>
    <path class="fil4" d="M961.03 633.01c-1.81,7.85 0.37,17.73 -5.5,35.67 -4.01,12.25 -16.81,22.03 -30.76,28.05 12.5,3.64 25.88,6.63 25.88,6.63 21.82,-0.76 62.98,8.21 62.98,8.21 -38.66,-36.12 -52.6,-78.56 -52.6,-78.56z"/>
   </g>
   <path class="fil10" d="M1106.38 742.62c-1.69,-36.76 -62.2,-130.35 -71.62,-201.33l-37.92 -13.68c-5.03,-1.45 -2.83,-0.61 -8.77,-2.38 0,0 -89.58,-46.27 -129.71,14.58 0,0 -5.07,21.55 7.18,44.36 5.1,9.49 8.87,38.87 5.07,44.79 0,0 -5.07,0.42 -16.05,4.22 -6.73,2.33 -17.12,6.57 -24.15,9.5 -8.86,3.69 -15.65,11.23 -18,20.53 -1.21,4.8 -1.37,10.38 0.74,16.45 6.76,19.43 23.66,21.55 34.64,19.86 0,0 23.67,0 42.25,3.38 2.31,0.42 4.94,0.56 7.78,0.46 -5.14,3.77 -9.72,8.99 -11.16,16.02 -3.8,18.59 14.19,32.11 14.19,32.11 0,0 1.86,3.8 16.23,2.96 14.36,-0.85 14.32,-4.69 26.19,0.12 11.87,4.81 95.07,39.17 122.53,40.44 27.47,1.27 42.25,-15.64 40.56,-52.39zm-155.72 -39.26l0 0c0,0 -13.38,-2.99 -25.88,-6.63 13.94,-6.02 26.74,-15.8 30.76,-28.05 5.87,-17.94 3.69,-27.82 5.5,-35.67 0,0 13.94,42.43 52.6,78.56 0,0 -41.16,-8.97 -62.98,-8.21z"/>
   <g>
    <g>
     <path class="fil13" d="M857.79 641.92c-1.29,0.27 -2.6,0.54 -3.92,0.82l0.4 1.9c1.32,-0.28 2.62,-0.55 3.91,-0.82 1.32,-0.28 2.62,-0.55 3.89,-0.82l-0.4 -1.9c-1.27,0.27 -2.57,0.54 -3.88,0.81z"/>
     <path class="fil13" d="M818.16 655.48l0.95 1.69c2.29,-1.28 4.64,-2.55 6.98,-3.77l-0.9 -1.72c-2.36,1.23 -4.72,2.51 -7.03,3.8z"/>
     <path class="fil13" d="M841.53 645.6l0.49 1.88c2.27,-0.6 4.79,-1.21 7.71,-1.86l-0.42 -1.89c-2.94,0.66 -5.49,1.27 -7.78,1.88z"/>
     <path class="fil13" d="M882.96 614.21l1.94 -0.11c-0.15,-2.65 -0.41,-5.34 -0.76,-8l-1.92 0.25c0.35,2.61 0.6,5.26 0.74,7.86z"/>
     <path class="fil13" d="M867.02 534.01l-1.94 -0.13c-0.18,2.7 -0.29,5.39 -0.33,8l1.94 0.03c0.04,-2.58 0.15,-5.24 0.32,-7.9z"/>
     <path class="fil13" d="M881.51 601.8l1.91 -0.34c-0.49,-2.73 -1.08,-5.37 -1.75,-7.86l-1.87 0.51c0.66,2.43 1.24,5.01 1.71,7.69z"/>
     <path class="fil13" d="M829.43 649.62l0.77 1.78c2.14,-0.93 4.56,-1.8 7.39,-2.66l-0.57 -1.86c-2.9,0.89 -5.39,1.78 -7.6,2.74z"/>
     <path class="fil13" d="M880.73 634.59c-0.47,0.65 -1.38,1.3 -2.69,1.93l0.85 1.74c1.62,-0.79 2.73,-1.62 3.4,-2.53 0.67,-0.92 1.24,-2.32 1.67,-4.18l-1.89 -0.45c-0.47,1.99 -0.99,2.99 -1.35,3.48z"/>
     <path class="fil13" d="M880.29 589.1c-0.95,-2.75 -2.02,-5.26 -3.19,-7.46l-1.71 0.91c1.12,2.1 2.15,4.52 3.06,7.18l1.83 -0.63z"/>
     <path class="fil13" d="M866.71 546.52l-1.94 0.04c0.05,2.79 0.2,5.49 0.43,8.02l1.93 -0.18c-0.23,-2.48 -0.37,-5.13 -0.42,-7.88z"/>
     <path class="fil13" d="M885.05 618.79l-1.94 0.02c0,0.29 0,0.58 0,0.86 0,2.53 -0.11,4.88 -0.33,6.98l1.93 0.2c0.22,-2.16 0.34,-4.58 0.34,-7.17 0,-0.29 -0,-0.59 -0,-0.89z"/>
     <path class="fil13" d="M869.26 566.64c-0.65,-2.32 -1.19,-4.9 -1.59,-7.67l-1.92 0.28c0.42,2.86 0.97,5.52 1.65,7.91l1.87 -0.53z"/>
     <path class="fil13" d="M870.72 570.93l-1.8 0.73c1.02,2.51 2.25,4.68 3.63,6.47 0.15,0.2 0.31,0.4 0.46,0.6l1.56 -1.15c-0.16,-0.22 -0.32,-0.44 -0.49,-0.65 -1.28,-1.64 -2.41,-3.67 -3.37,-6.01z"/>
     <path class="fil13" d="M866.2 640.11l0.43 1.89c3.26,-0.74 5.73,-1.39 7.79,-2.03l-0.58 -1.85c-2.01,0.63 -4.43,1.26 -7.64,1.99z"/>
    </g>
   </g>
   <g>
    <g>
     <path class="fil13" d="M966.44 629.02c-1.36,-2.07 -2.12,-3.25 -2.12,-3.25l1.63 -1.06c0,0 0.76,1.17 2.12,3.24l-1.62 1.06z"/>
    </g>
    <g>
     <path class="fil13" d="M929.6 705.62c2.05,0.49 4.5,1.12 7.47,1.91l0.5 -1.87c-2.99,-0.8 -5.45,-1.42 -7.52,-1.92l-0.45 1.89z"/>
     <path class="fil13" d="M917.87 701.9l-0.25 1.92c1.96,0.25 3.71,0.42 5.22,0.5 0.54,0.03 1.35,0.14 2.4,0.34l0.36 -1.91c-1.15,-0.22 -2.02,-0.34 -2.66,-0.37 -1.46,-0.08 -3.16,-0.24 -5.08,-0.49z"/>
     <path class="fil13" d="M941.42 708.7c2.35,0.64 4.85,1.33 7.44,2.06l0.52 -1.87c-2.6,-0.72 -5.1,-1.42 -7.46,-2.06l-0.51 1.87z"/>
     <polygon class="fil13" points="953.21,711.97 960.65,714.06 961.17,712.19 953.73,710.1 "/>
     <path class="fil13" d="M964.99 715.27c2.48,0.69 4.97,1.39 7.45,2.07l0.52 -1.87c-2.48,-0.69 -4.97,-1.38 -7.44,-2.07l-0.52 1.87z"/>
     <path class="fil13" d="M995.55 668.37c-1.49,-2.11 -2.98,-4.22 -4.44,-6.31l-1.59 1.11c1.46,2.1 2.95,4.21 4.44,6.33l1.58 -1.12z"/>
     <path class="fil13" d="M1033.02 716.83c-0.53,-2.07 -1.87,-4.35 -4.08,-6.97l-1.48 1.25c1.99,2.37 3.23,4.45 3.69,6.21l1.88 -0.48z"/>
     <path class="fil13" d="M1002.68 678.29c-1.5,-2.05 -3.01,-4.14 -4.52,-6.25l-1.58 1.13c1.51,2.11 3.03,4.21 4.53,6.27l1.57 -1.14z"/>
     <path class="fil13" d="M905.65 701.11l-0.13 0.67c2.71,0.54 5.27,1.01 7.63,1.39l0.31 -1.91c-1.13,-0.18 -2.32,-0.39 -3.54,-0.61 -1.42,0.18 -2.84,0.34 -4.26,0.47z"/>
     <path class="fil13" d="M968.92 632.78c1.23,1.86 2.67,4.03 4.28,6.44l1.61 -1.08c-1.61,-2.41 -3.05,-4.58 -4.28,-6.43l-1.62 1.07z"/>
     <path class="fil13" d="M1015.53 725.14c-0.69,0.02 -1.58,-0.03 -2.65,-0.14l-0.21 1.93c0.97,0.11 1.82,0.16 2.51,0.16 0.14,0 0.28,-0 0.41,-0.01 1.8,-0.06 3.48,-0.18 4.99,-0.34l-0.21 -1.93c-1.46,0.16 -3.09,0.27 -4.84,0.33z"/>
     <path class="fil13" d="M1024.85 705.58c-1.26,-1.2 -2.73,-2.74 -4.36,-4.58l-1.45 1.29c1.67,1.88 3.18,3.46 4.48,4.7 0.32,0.3 0.63,0.6 0.93,0.9l1.36 -1.38c-0.31,-0.3 -0.63,-0.61 -0.96,-0.92z"/>
     <path class="fil13" d="M1017.57 697.61c-1.49,-1.79 -3.12,-3.8 -4.83,-5.98l-1.53 1.2c1.73,2.2 3.37,4.23 4.87,6.03l1.49 -1.24z"/>
     <path class="fil13" d="M1003.79 683.07c1.61,2.17 3.18,4.25 4.65,6.18l1.54 -1.18c-1.47,-1.92 -3.03,-3.99 -4.64,-6.16l-1.56 1.16z"/>
     <path class="fil13" d="M1024.69 724.09l0.45 1.89c3.6,-0.86 5.95,-2.19 7.18,-4.05l-1.62 -1.07c-0.94,1.41 -2.96,2.5 -6.02,3.23z"/>
     <path class="fil13" d="M976.79 718.54c2.53,0.69 5.02,1.37 7.47,2.02l0.5 -1.87c-2.44,-0.65 -4.93,-1.32 -7.45,-2.01l-0.51 1.87z"/>
     <path class="fil13" d="M1000.53 724.65c2.9,0.67 5.47,1.2 7.61,1.59l0.35 -1.91c-2.12,-0.39 -4.65,-0.91 -7.52,-1.58l-0.43 1.89z"/>
     <path class="fil13" d="M982.57 653.1c1.42,2.07 2.88,4.2 4.38,6.37l1.6 -1.1c-1.49,-2.16 -2.96,-4.29 -4.37,-6.36l-1.6 1.1z"/>
     <path class="fil13" d="M981.64 648.28c-1.51,-2.23 -2.96,-4.37 -4.32,-6.39l-1.61 1.08c1.36,2.03 2.81,4.17 4.33,6.4l1.61 -1.09z"/>
     <path class="fil13" d="M988.62 721.71c2.7,0.7 5.22,1.34 7.51,1.9l0.46 -1.88c-2.28,-0.56 -4.79,-1.19 -7.48,-1.89l-0.49 1.88z"/>
    </g>
   </g>
  </g>
  <path class="fil10" d="M924.78 696.73c-9.23,3.99 -18.95,6.33 -26.95,6.63 8.45,-6.19 18.41,-8.48 18.41,-8.48 2.67,0.32 5.58,0.99 8.54,1.85z"/>
  <g id="_2259737273888">
   <path class="fil14" d="M1108.42 267.29c-0.13,12.23 -0.78,21.12 -0.78,21.12 -2.27,0.83 -4.69,1.89 -7.21,3.18 -16.72,8.47 -37.49,26.15 -42.54,44.15 -2.01,7.16 -2.94,21.95 -3.3,38.68 -0.3,13.52 -0.22,28.3 -0.03,41.33 0.01,0.7 0.02,1.41 0.03,2.1 0.26,16.51 0.67,29.86 0.67,33.66 0,10.56 -2.12,41.83 -2.54,55.35 -0.42,13.52 3.38,27.89 5.07,50.7 1.69,22.82 -14.81,19.98 -14.81,19.98 16.06,-6.76 7.74,-25.98 -2.52,-30.12 -1.53,-0.61 -3.3,-1.28 -5.28,-1.98 -0.01,-0.01 -0.01,-0.01 -0.01,-0.01 -24.53,-8.68 -81.41,-23.34 -110.4,-27.59 -43.18,-6.34 -66.42,21.97 -66.42,21.97 0,0 8.45,-46.9 15.64,-56.2 7.18,-9.29 11.41,-39.71 14.36,-52.39 0.4,-1.69 0.61,-3.84 0.7,-6.29 0.41,-11.35 -2.07,-29.18 -3.52,-38.41 -0.58,-3.68 -0.99,-6 -0.99,-6 -4.37,7.18 -32.73,21.97 -47.24,29.2 -5.13,2.56 -8.53,4.17 -8.53,4.17l-12.03 -18.27 -23.87 -36.24c0,0 1.58,-1.44 6.53,-5.34 3.52,-2.77 8.73,-6.78 16.29,-12.41 18.16,-13.52 39.71,-38.03 47.74,-41.83 8.03,-3.8 9.3,-3.38 19.86,-13.52 7.41,-7.11 34.29,-15.72 49.69,-20.24 6.56,-1.92 11.03,-3.1 11.03,-3.1 20.58,6.24 35.8,-2.44 35.8,-2.44 0,0 5.63,-3.69 13.25,-8.3 12.35,-7.49 29.95,-17.4 37.26,-17.97 9.27,-0.72 49.12,-11.93 65.96,-16.76 4.66,-1.33 7.56,-2.18 7.56,-2.18 4.04,14.98 4.74,36.23 4.58,51.97z"/>
  </g>
  <g id="_2259737273248">
   <path class="fil10" d="M960.69 282.29c-18.22,0.91 -25.96,-12.59 -27.71,-16.23 6.56,-1.92 11.03,-3.1 11.03,-3.1 20.58,6.24 35.8,-2.44 35.8,-2.44 0,0 5.63,-3.69 13.25,-8.3 2.21,18.59 -11.84,29.03 -32.37,30.07z"/>
   <path class="fil10" d="M837.32 409.73c-5.13,2.56 -8.53,4.17 -8.53,4.17l-35.91 -54.5c0,0 1.58,-1.44 6.53,-5.34l37.91 55.67z"/>
   <path class="fil10" d="M1107.64 288.41c-2.27,0.83 -4.69,1.89 -7.21,3.18 3.15,-30.66 -1.74,-61.56 -4.15,-74.09 4.66,-1.33 7.56,-2.18 7.56,-2.18 7.19,26.62 3.8,73.09 3.8,73.09z"/>
  </g>
  <g id="_2259737272608">
   <path class="fil11" d="M1054.56 415.75c-29.61,-12.96 -101.78,-36.2 -165.5,9.18 0.41,-11.35 -2.07,-29.18 -3.52,-38.41 9.67,-6.11 56.04,-33.82 100.42,-32.46 30.55,0.94 54.59,11.96 68.63,20.36 -0.3,13.52 -0.22,28.3 -0.03,41.33z"/>
  </g>
  <g id="_2259737276128">
   <path class="fil10" d="M911.69 161.28c0,0 -11.72,-2.64 -13.17,10.97 -1.24,11.67 13.57,16.04 13.57,16.04 0,0 4.75,-19.8 -0.4,-27.01z"/>
   <path class="fil10" d="M917.47 181.05c0,0 -11.72,-2.64 -13.17,10.97 -1.24,11.67 13.57,16.04 13.57,16.04 0,0 4.75,-19.8 -0.4,-27.01z"/>
   <path class="fil10" d="M909.74 164.03c0,0 -18.65,-7.17 -12.27,-27.74 6.38,-20.57 30.68,-12.38 30.68,-12.38 0,0 0.9,-14.33 16.94,-15.07 16.04,-0.74 21.86,12.07 21.86,12.07 0,0 10.85,-10.78 24.05,-7.55 13.2,3.23 17.68,19.25 13.58,26.83 0,0 8.39,-1.49 14.77,8.28 6.38,9.77 8.01,24.26 0.09,29.65 0,0 9.41,10.3 4.28,24.29 -5.13,13.99 -18.92,13.65 -18.92,13.65 0,0 2.65,18.22 -15.04,22.66 -17.69,4.44 -16.04,-11.29 -16.04,-11.29 0,0 -31.02,-71.53 -63.98,-63.4z"/>
   <g>
    <g>
     <path class="fil8" d="M983.56 245.97l2.56 12.54c0.65,3.19 -0.6,6.48 -3.24,8.39 -22.71,16.5 -40.01,5.15 -43.65,-0.44 2.74,-2.57 51.49,-48.71 52.28,-74.64 0,0 5.6,32.26 -7.95,54.15z"/>
    </g>
    <g>
     <path class="fil8" d="M911.03 198.83c-0.95,3.72 -1.27,7.54 -0.95,11.32 0.26,3.27 0.99,6.5 2.19,9.6l7.95 20.58c2.96,7.65 10.46,12.57 18.66,12.22 9.39,-0.41 21.94,-2.55 32.82,-9.8 20.53,-13.67 20.61,-45.06 20.61,-45.06 0,0 -1.69,-31.85 -28.13,-43.91 -26.43,-12.06 -53.32,2.06 -53.32,2.06l-3.08 22.28c-0.17,1.24 -0.28,2.49 -0.31,3.74 -0.12,4.19 0.53,8.37 1.92,12.35l1.63 4.63z"/>
    </g>
    <g>
     <path class="fil10" d="M932.55 175.31c0,0 14.87,-14.5 25.1,-1.43l-1.85 3.34c0,0 -10.34,-9 -22.29,2.25l-0.96 -4.16z"/>
    </g>
    <g>
     <path class="fil9" d="M911.03 198.83c-0.95,3.72 -1.27,7.54 -0.95,11.32 3.19,-2.26 9.6,-4.15 22.51,-2.4 0,0 -6.93,-5.63 -13.84,-5.75 -1.86,-0.03 -3.15,-1.85 -2.58,-3.62l3.86 -11.82c0,0 -1.39,-2.36 -4.33,-3.25 -1.79,-0.54 -5.35,-1.19 -8.22,-1.47 -0.12,4.19 0.53,8.37 1.92,12.35l1.63 4.63z"/>
    </g>
    <g>
     <path class="fil10" d="M908.14 178.29c5.01,0.33 9.04,1.76 9.04,1.76l0.46 3.85c-3.57,-1.21 -6.72,-1.62 -9.47,-1.52 -1.36,0.05 -2.48,-0.97 -2.41,-2.18 0,-0.01 0,-0.03 0,-0.04 0.06,-1.11 1.13,-1.95 2.38,-1.87z"/>
    </g>
    <path class="fil15" d="M916.94 217.26l35.31 -3.34c0,0 -4.05,19.06 -22.83,18.57 -14.73,-0.38 -12.48,-15.23 -12.48,-15.23z"/>
    <g>
     <path class="fil9" d="M940.98 251.91c0,0 21.89,-2.72 33.67,-33.21 0,0 5.45,11.24 -0.95,27.38 -6.4,16.15 -34.45,20.37 -34.45,20.37l1.74 -14.55z"/>
    </g>
    <g>
     <path class="fil8" d="M983.23 192.52c0,0 6.65,-12.68 16.36,-6.98 9.71,5.7 4.29,34.64 -9.79,29.22 -14.08,-5.42 -6.57,-22.24 -6.57,-22.24z"/>
    </g>
   </g>
   <path class="fil10" d="M936.94 186.49c0,0 2.07,-6.3 7.71,-6.33 8.22,-0.04 9.8,6.92 9.8,6.92 0,0 -7.99,-10.99 -17.51,-0.59z"/>
   <path class="fil10" d="M918.42 190.89c0,0 -5.67,-6.75 -9.03,1.44 0,0 3.8,-5.24 9.03,-1.44z"/>
   <path class="fil10" d="M909.74 164.03c0,0 9.59,2.41 17.67,-3.17 8.08,-5.58 6.12,-10.54 6.12,-10.54 0,0 3.3,8.21 14.24,7.37 10.94,-0.84 12.45,-3.88 12.45,-3.88 0,0 -0.46,12.25 8.49,14.11 8.95,1.87 14.36,-5.39 14.36,-5.39 0,0 -39.76,-35.01 -53.42,-25.67 -13.67,9.34 -25.43,14.26 -19.9,27.16z"/>
   <path class="fil10" d="M978.36 164.23c0,0 -5.41,10.49 3.77,16.56 0,0 -0.3,9.02 -3.27,16.44l6.99 -0.1c0,0 5.13,-8.96 4.63,-16.64 -0.5,-7.68 -0.55,-19.35 -12.11,-16.26z"/>
  </g>
  <path class="fil9" d="M1163.21 148.89c0,0 -1.58,4.1 -3.91,5.69 0,0 3.9,-0.17 5.23,-2.41l-1.32 -3.28z"/>
  <path class="fil16" d="M813.99 748.09c0.04,-0.03 0.09,-0.06 0.13,-0.09l0 0.01c-0.04,0.03 -0.09,0.06 -0.13,0.09z"/>
  <path class="fil12" d="M1035.18 545.43c-24.53,-8.68 -81.41,-23.34 -110.4,-27.59 -43.18,-6.34 -66.42,21.97 -66.42,21.97 0,0 8.45,-46.9 15.64,-56.2 7.18,-9.29 11.41,-39.71 14.36,-52.39 0.4,-1.69 0.61,-3.84 0.7,-6.29 0.41,-11.35 -2.07,-29.18 -3.52,-38.41 -0.58,-3.68 -0.99,-6 -0.99,-6 -4.37,7.18 -32.73,21.97 -47.24,29.2 -5.13,2.56 -8.53,4.17 -8.53,4.17l-12.03 -18.27 -1.65 -7.93c0,0 31.54,-17.11 74.96,-40.56 0,0 19.65,24.72 19.34,53.24 -0.55,50.74 -7.83,85.35 23.6,97.18 30.45,11.46 98,45.74 102.2,47.88z"/>
  <path class="fil12" d="M1108.42 267.29c-0.13,12.23 -0.78,21.12 -0.78,21.12 -2.27,0.83 -4.69,1.89 -7.21,3.18 -16.72,8.47 -37.49,26.15 -42.54,44.15 -2.01,7.16 -2.94,21.95 -3.3,38.68 -0.3,13.52 -0.22,28.3 -0.03,41.33 0.01,0.7 0.02,1.41 0.03,2.1 0,0 -11.17,-76.2 -4.83,-98.59 6.27,-22.14 57.52,-51.32 58.66,-51.97z"/>
  <path class="fil10" d="M898.44 285.46c-9.24,54.93 -7.55,119.99 -7.55,119.99 3.38,17.32 -3.77,31.61 -3.77,31.61 -35.25,-38.1 -11.02,-151.6 2.08,-174.53 16.09,-28.16 39.66,4.75 39.66,4.75l-12.05 3.81c0,0 -4.18,-5.9 -9.35,-4.64 -5.17,1.25 -9.03,19 -9.03,19z"/>
  <path class="fil10" d="M998.04 249.25c0,0 3.61,-27.77 23.88,-28.48 32.11,-1.12 40.2,83.27 42.73,128.91 2.53,45.63 -10.06,54.82 -10.06,54.82l-0.39 -25.98c0,0 -16.61,-112.29 -24.84,-132.04 -9.02,-21.66 -16.75,-10.96 -24.85,-0.1l-7.24 3.34 0.78 -0.46z"/>
  <path class="fil7" d="M1236.61 575.5c0,0 1.79,-11.53 6.85,-11.08 1.4,0.12 2.35,1.54 2.97,3.06 0.38,0.94 1.73,0.87 2,-0.1 1.34,-4.68 4.07,-11.83 8.31,-11.83 4.38,0 4.53,8.18 4.21,13.16 -0.05,0.75 0.92,1.08 1.35,0.46 1.16,-1.7 2.84,-3.33 4.9,-2.86 4,0.92 2.92,9.19 2.92,9.19l-33.51 0z"/>
  <path class="fil7" d="M691.6 90.65c0,0 5.42,-34.84 20.7,-33.48 4.23,0.38 7.1,4.66 8.99,9.26 1.16,2.83 5.22,2.64 6.06,-0.31 4.04,-14.16 12.31,-35.76 25.12,-35.76 13.25,0 13.69,24.72 12.72,39.77 -0.14,2.27 2.8,3.27 4.07,1.4 3.49,-5.14 8.59,-10.08 14.8,-8.65 12.08,2.79 8.83,27.77 8.83,27.77l-101.28 0z"/>
  <path class="fil7" d="M633.7 613.3c0,0 5.42,-34.84 20.7,-33.48 4.23,0.38 7.1,4.66 8.99,9.26 1.16,2.83 5.22,2.64 6.06,-0.31 4.04,-14.16 12.31,-35.76 25.12,-35.76 13.25,0 13.69,24.72 12.72,39.77 -0.14,2.27 2.79,3.27 4.07,1.4 3.49,-5.14 8.59,-10.08 14.8,-8.65 12.08,2.79 8.83,27.77 8.83,27.77l-101.28 0z"/>
  <path class="fil7" d="M62.08 548.8c0,0 3.35,-21.5 12.77,-20.66 2.61,0.23 4.38,2.88 5.55,5.71 0.72,1.75 3.22,1.63 3.74,-0.19 2.49,-8.74 7.59,-22.07 15.5,-22.07 8.18,0 8.45,15.25 7.85,24.54 -0.09,1.4 1.72,2.02 2.51,0.86 2.16,-3.17 5.3,-6.22 9.13,-5.34 7.45,1.72 5.45,17.14 5.45,17.14l-62.5 0z"/>
  <path class="fil11" d="M449.58 883.27c-0.39,11.3 -8.42,21.69 -26.16,18.66 -19.98,-3.4 -25.57,-20.01 -30.25,-30.23 -4.68,-10.22 -15.75,-45.55 -20.44,-59.6 -2.53,-7.61 -1.79,-15.99 -0.57,-22.06 1.03,-5.13 2.39,-8.63 2.39,-8.63l7.2 1.09 40.79 6.18c0,0 7.66,16.18 9.37,34.49 1.46,15.67 11.95,36 16.02,49.54 0,0.01 0,0.01 0,0.01 0.69,2.29 1.19,4.37 1.44,6.21 0.19,1.44 0.27,2.89 0.21,4.33z"/>
  <path class="fil12" d="M449.58 883.27c-0.39,11.3 -8.42,21.69 -26.16,18.66 -19.98,-3.4 -25.57,-20.01 -30.25,-30.23 -4.68,-10.22 -15.75,-45.55 -20.44,-59.6 -2.53,-7.61 -1.79,-15.99 -0.57,-22.06 1.03,-5.13 2.39,-8.63 2.39,-8.63l7.2 1.09c-0.68,7.08 2.37,27.13 8.01,37.9 7.02,13.41 12.26,42.89 24.48,55.99 12.23,13.09 34.15,15.53 33.69,-3.66 0.69,2.29 1.19,4.37 1.44,6.21 0.19,1.44 0.27,2.89 0.21,4.33z"/>
  <path class="fil10" d="M449.58 883.27c-0.39,11.3 -8.42,21.69 -26.16,18.66 -19.98,-3.4 -25.57,-20.01 -30.25,-30.23 -4.68,-10.22 -15.75,-45.55 -20.44,-59.6 -2.53,-7.61 -1.79,-15.99 -0.57,-22.06 1.03,6.25 6.38,26.42 12.67,42.47 10.21,26.08 18.37,48.99 25.48,56.65 7.11,7.65 35.18,12.76 39.26,-5.89z"/>
  <g id="_2259715403424">
   <path class="fil8" d="M254.19 237.25c-51.28,-13.29 -91.36,-61.65 -101.99,-73.3 -0.93,-1.02 -1.97,-2.74 -3.07,-5.03 -0.01,-0.01 -0.01,-0.01 -0.01,-0.01 -10.17,-21.09 -26.6,-90.42 -30.26,-106.14 -0.25,-1.07 -0.43,-1.88 -0.56,-2.43 -0.12,-0.5 -0.18,-0.76 -0.18,-0.76l29.17 -12.75c0,0 2.38,27.97 16.43,50.53 14.05,22.56 27,58.33 27,58.33 27.46,13.51 56.84,38.62 56.84,38.62 15.33,32.13 6.63,52.94 6.63,52.94z"/>
   <path class="fil9" d="M254.19 237.25c-51.28,-13.29 -91.36,-61.65 -101.99,-73.3 -0.93,-1.02 -1.97,-2.74 -3.07,-5.03 0.59,0.51 38.52,33.04 52.77,41.27 14.37,8.3 30.63,15.68 38.62,10.08 8,-5.61 10.23,-16.29 7.04,-25.95 15.33,32.13 6.63,52.94 6.63,52.94z"/>
   <g>
    <path class="fil8" d="M119.93 51.06c5.62,-0.19 25.24,-5.24 27.67,-6.35 0.85,-0.39 1.21,-1.61 1.3,-3.03 0.76,-0.82 5.73,-6.27 6.93,-10.55 0.66,-2.35 -1.77,-4.35 -4.69,-6.05 2.44,-4.92 2.88,-18.13 -3.15,-23 -6.58,-5.31 -12.89,1.24 -12.89,1.24 -7.53,-6.12 -12.27,1.96 -12.27,1.96 -3.54,-2.36 -9.91,2.31 -9.91,2.31 -3.26,-1.71 -6.96,1.72 -7.79,4.91 -0.83,3.18 3.51,29.91 5.89,32.92 2.38,3.01 8.91,5.64 8.91,5.64z"/>
    <path class="fil9" d="M138.75 32.57c2.89,4.1 5.99,1.38 5.99,1.38 -1.01,0.23 -2.56,-1.15 -3.78,-2.48 0,0 -0.91,-0.8 -1.73,-2.08 -0,-0.01 -0,-0.01 -0.01,-0.01 -0.9,-1.4 -1.68,-3.37 -1.07,-5.51 1.1,-3.86 3.02,-4.41 3.02,-4.41l-2.88 -11.91c-0.68,4.33 0.24,11.64 0.24,11.64 -4.36,4.79 -2.26,9.7 -0.8,12.02 -0.89,0.91 -2.22,1.64 -3.9,0.89 -3.35,-1.49 -4.45,-5.47 -4.45,-5.47l-3.79 -16.36c0,0 0.98,18.8 4.62,22.26 4.83,4.59 8.54,0.05 8.54,0.05z"/>
    <path class="fil9" d="M115.87 15.28c0,0 2.45,13.81 3.94,16.62 1.62,3.06 5.39,3.56 7.38,2.17 1.99,-1.4 1.93,-3.19 1.93,-3.19l2.59 2.18c0,0 -4.77,7.88 -11.33,2.26 -3.28,-2.81 -4.5,-20.03 -4.5,-20.03z"/>
    <path class="fil9" d="M119.21 33.59c0,0 0.2,3.04 -2.17,4.53 -2.37,1.49 -4.1,0.75 -4.96,-0.79 0,0 0.18,2.26 2.85,2.69 3.47,0.57 5.93,-3.21 6.56,-4.53l-2.27 -1.91z"/>
   </g>
   <path class="fil9" d="M125.16 51.06c0,0 -2.62,2.08 -6.29,1.71 -0.25,-1.07 -0.43,-1.88 -0.56,-2.43 0,0 3.01,0.91 6.85,0.72z"/>
   <path class="fil9" d="M148.29 44.07c0,0 -3.06,2.93 -5.77,3.72 0,0 3.65,0.26 6.16,-1.53l-0.39 -2.19z"/>
   <path class="fil9" d="M190.73 145.69c0,0 -9.79,8.2 -15.33,9.05 0,0 11.19,3.73 20.6,-6.33l-5.28 -2.72z"/>
  </g>
  <path class="fil10" d="M222.01 393.68c1.14,1.67 3.26,2.61 5.48,3.13 1.7,26.95 5.27,49.81 10.62,59.64 16.48,30.28 123.87,32.29 146.23,5.89 22.35,-26.4 16.49,-180.94 -20.76,-200.65 -27.81,-14.72 -81.68,-10.76 -107.2,-7.81 -10.68,1.24 -19.57,8.84 -22.29,19.24 -4.36,16.66 -6.84,42.49 -7.54,69.76 -1.51,0.24 -3.1,0.68 -4.59,1.44 -5.03,2.58 -3.07,44.82 0.04,49.37z"/>
  <path class="fil8" d="M624.83 243.61c0,0 -8.2,30.41 -21.18,64.15 -1.96,5.1 -4.03,10.28 -6.2,15.44 -8.83,21.02 -19.29,41.75 -30.56,55.86 -6.02,7.52 -12.25,13.16 -18.61,15.97 0,0 -18.2,2.55 -30.97,-5.11 -12.77,-7.66 -62.59,-32.35 -68.65,-43 0,0 19.16,-27.16 37.36,-29.6 0,0 6.76,3.49 16.34,9.06 10.31,5.98 23.88,14.36 35.83,23.36 1.15,0.86 2.28,1.73 3.39,2.61 0,0 0.94,-1.83 2.63,-5.01 4.31,-8.09 13.52,-24.92 24.68,-42.71 2.38,-3.81 4.86,-7.66 7.4,-11.48 0.56,-0.85 1.13,-1.7 1.7,-2.54 19.8,-29.38 22.35,-50.85 22.35,-50.85 0,0 19.08,-1.6 24.5,3.85z"/>
  <path class="fil9" d="M603.65 307.76c-1.96,5.1 -4.03,10.28 -6.2,15.44l-28.57 -18.57c2.38,-3.81 4.86,-7.66 7.4,-11.48l27.37 14.61z"/>
  <g id="_2259715406016">
   <path class="fil9" d="M566.89 379.06c-6.02,7.52 -12.25,13.16 -18.61,15.97 0,0 -18.2,2.55 -30.97,-5.11 -12.77,-7.66 -62.59,-32.35 -68.65,-43 0,0 19.16,-27.16 37.36,-29.6 0,0 6.76,3.49 16.34,9.06 -1.11,3.82 -5.52,17.54 -13.45,24.18 -9.26,7.75 12.13,25.63 30.65,33.62 18.52,7.98 31.43,7.64 47.33,-5.12z"/>
  </g>
  <path class="fil9" d="M540.85 373.01c2.13,-8.73 -2.66,-23.27 -2.66,-23.27 1.15,0.86 2.28,1.73 3.39,2.61 0,0 0.94,-1.83 2.63,-5.01 1.87,18.61 -3.36,25.67 -3.36,25.67z"/>
  <path class="fil11" d="M455.76 825.3c-17.03,-9.79 -22.99,-19.58 -33.21,-36.61 -6.07,-10.12 -11.69,-18.58 -15.25,-23.78 -2.47,-3.6 -2.75,-8.26 -0.74,-12.14 0.15,-0.3 0.31,-0.6 0.48,-0.91 4,-7.57 10.65,-18.24 16.39,-18.51l6.49 3.53 22.44 12.22c0,0 9.79,22.5 9.36,32.32 -0.36,8.58 16.2,28.44 21.21,39.62 0.42,0.95 0.76,1.83 1,2.64 0.17,0.58 0.29,1.12 0.36,1.63 1.2,9.44 -11.5,9.8 -28.53,0z"/>
  <path class="fil10" d="M455.76 825.3c-17.03,-9.79 -22.99,-19.58 -33.21,-36.61 -6.07,-10.12 -11.69,-18.58 -15.25,-23.78 -2.47,-3.6 -2.75,-8.26 -0.74,-12.14 0.15,-0.3 0.31,-0.6 0.48,-0.91 0.97,3.95 3.67,12.85 9.45,19.59 7.66,8.94 18.92,29.06 21.59,32.89 2.68,3.83 21.69,20.26 33.65,22.67 9.7,1.96 11.47,-0.1 12.2,-3.33 0.17,0.58 0.29,1.12 0.36,1.63 1.2,9.44 -11.5,9.8 -28.53,0z"/>
  <path class="fil12" d="M455.76 825.3c-17.03,-9.79 -22.99,-19.58 -33.21,-36.61 -6.07,-10.12 -11.69,-18.58 -15.25,-23.78 -2.47,-3.6 -2.75,-8.26 -0.74,-12.14 0.15,-0.3 0.31,-0.6 0.48,-0.91 4,-7.57 10.65,-18.24 16.39,-18.51l6.49 3.53c0,0 -12.68,11.37 -8.64,23.93 4.04,12.56 17.6,31.51 24.66,39.81 6.85,8.05 22,22.09 37,20.42 0.42,0.95 0.76,1.83 1,2.64 0.17,0.58 0.29,1.12 0.36,1.63 1.2,9.44 -11.5,9.8 -28.53,0z"/>
  <path class="fil17" d="M240.65 232.87l16 5.04c0,0 -2.71,11.3 -7.33,11.3 -4.62,-0.01 -10.05,-2.47 -8.67,-16.34z"/>
  <g id="_2259715406848">
   <g>
    <path class="fil4" d="M455.76 638.39c3.1,7.75 0.21,15.84 -3.22,28.78 13.64,-19.86 36.43,-51.34 36.43,-51.34l-66.42 -20.49c0,0 29.8,34.54 33.21,43.06z"/>
   </g>
   <path class="fil10" d="M570.26 589.2c-0.81,-3.06 -2.38,-5.86 -4.45,-8.24 -6.87,-7.92 -27.18,-28.88 -67.9,-53.25 -51.94,-31.08 -61.74,-28.52 -87.7,-47.68 0,0 -88.81,-9.99 -125.28,25.26 -0.38,0.36 -0.75,0.73 -1.11,1.1 -3.31,3.38 -6.14,7.17 -8.39,11.39 0,0 0,46.07 18.2,62.88 18.2,16.81 75.28,76.29 80.82,75.74 0,0 0.42,9.24 7.24,9.67 0,0 -9.37,37.89 -5.54,54.07 0,0 -5.96,13.62 -2.98,23.41 2.98,9.8 -0.86,19.59 -0.86,25.55 0,5.96 5.11,32.36 21.71,37.9 16.6,5.53 34.91,-0.43 36.19,-14.91 1.28,-14.47 -2.13,-23.84 -0.85,-31.93 0.35,-2.19 1.85,-8.63 3.94,-17.13 6.13,3.83 15.79,6.72 19.05,6.07 4.25,-0.85 13.19,-25.97 18.73,-27.67 5.54,-1.7 25.12,-25.97 39.17,-39.6 13.47,-13.06 69.95,-55.02 60.01,-92.63zm-147.71 6.14l0 0 66.42 20.49c0,0 -22.79,31.49 -36.43,51.35 3.44,-12.93 6.32,-21.04 3.22,-28.78 -3.4,-8.52 -33.21,-43.06 -33.21,-43.06z"/>
   <g>
    <g>
     <path class="fil13" d="M286.85 509.16l-2.52 0.42c-0.24,-1.41 -0.42,-2.5 -0.52,-3.2 0.36,-0.37 0.73,-0.74 1.11,-1.1l1.26 -0.19c0,0.01 0.24,1.51 0.66,4.07z"/>
    </g>
    <g>
     <path class="fil13" d="M287.85 514.83l-2.51 0.46c0.5,2.77 1.03,5.53 1.57,8.22l2.5 -0.5c-0.54,-2.68 -1.06,-5.43 -1.57,-8.18zm2.74 13.82l0 0 -2.5 0.54c0.61,2.84 1.24,5.59 1.86,8.17l2.48 -0.6c-0.62,-2.56 -1.24,-5.29 -1.85,-8.1zm3.25 13.68l0 0 -2.47 0.66c0.77,2.89 1.55,5.61 2.31,8.07l2.44 -0.76c-0.76,-2.43 -1.53,-5.1 -2.28,-7.97zm4.1 13.39l0 0 -2.4 0.87c1.12,3.08 2.25,5.71 3.37,7.82l2.25 -1.19c-1.05,-2.01 -2.14,-4.53 -3.22,-7.5zm6.27 11.97l0 0 -1.85 1.76c1.24,1.31 3.24,3.32 5.92,5.98l1.79 -1.81c-2.66,-2.64 -4.64,-4.63 -5.87,-5.93zm10 9.98l0 0 -1.79 1.83c1.85,1.8 3.86,3.76 6,5.83l1.78 -1.84c-2.15,-2.07 -4.15,-4.02 -5.99,-5.82zm10.15 9.84l0 0 -1.78 1.84c1.95,1.87 3.97,3.81 6.04,5.79l1.76 -1.85c-2.07,-1.98 -4.09,-3.91 -6.03,-5.78zm10.22 9.76l0 0 -1.76 1.85c2,1.9 4.03,3.82 6.07,5.75l1.75 -1.86c-2.04,-1.93 -4.07,-3.85 -6.06,-5.75zm10.27 9.71l0 0 -1.75 1.86c2.04,1.92 4.08,3.83 6.11,5.72l1.74 -1.87c-2.02,-1.88 -4.06,-3.79 -6.1,-5.71zm10.33 9.65l0 0 -1.74 1.87c2.09,1.94 4.15,3.84 6.15,5.67l1.73 -1.88c-2,-1.83 -4.05,-3.72 -6.14,-5.66zm10.41 9.56l0 0 -1.72 1.89c2.18,1.98 4.26,3.86 6.22,5.6l1.7 -1.91c-1.95,-1.74 -4.03,-3.61 -6.2,-5.58zm10.53 9.4l0 0 -1.67 1.93c2.55,2.22 4.72,4.05 6.43,5.43l1.6 -1.99c-1.69,-1.35 -3.83,-3.16 -6.36,-5.36zm10.84 8.46l0 0 -1.03 2.34c1.87,0.82 2.96,2.55 3.65,5.78l2.5 -0.53c-0.59,-2.75 -1.71,-6.08 -5.12,-7.59zm5.97 13.42l0 0 -2.54 0.29c0.29,2.48 0.65,5.57 1.49,8.42l2.45 -0.72c-0.78,-2.64 -1.12,-5.61 -1.41,-7.99zm-0.75 13.99l0 0c-0.16,2.11 -0.53,4.77 -1.14,8.13l2.52 0.45c0.62,-3.45 1,-6.19 1.17,-8.39l-2.55 -0.19zm-2.23 13.78l0 0c-0.43,2.11 -0.89,4.28 -1.35,6.48l-0.35 1.68 2.5 0.52 0.36 -1.67c0.47,-2.21 0.93,-4.39 1.35,-6.5l-2.5 -0.51zm-2.88 13.83l0 0c-0.65,3.22 -1.14,5.84 -1.55,8.24l2.52 0.43c0.4,-2.38 0.89,-4.97 1.54,-8.16l-2.5 -0.5zm0.12 14.32l0 0 -2.54 -0.31c-0.35,2.86 -0.52,5.26 -0.52,7.36 0,0.4 0.01,0.78 0.02,1.16l2.55 -0.09c-0.01,-0.35 -0.02,-0.7 -0.02,-1.07 0,-2 0.17,-4.3 0.5,-7.05zm-0.13 13.87l0 0 -2.55 0.1c0.05,1.41 0.08,2.88 0.08,4.37 0,1.25 -0.02,2.52 -0.06,3.88l2.55 0.07c0.04,-1.38 0.06,-2.67 0.06,-3.95 0,-1.53 -0.03,-3.03 -0.09,-4.48zm-2.77 14.09l0 0c-0.08,1.5 -0.18,2.99 -0.27,4.46 -0.08,1.3 -0.17,2.59 -0.24,3.86l2.55 0.14c0.07,-1.27 0.15,-2.55 0.24,-3.84 0.09,-1.48 0.18,-2.97 0.27,-4.48l-2.55 -0.14zm1.86 21.1l0 0c-0.07,-1.3 -0.1,-2.65 -0.1,-4.12 0,-0.93 0.01,-1.85 0.04,-2.79l-2.55 -0.06c-0.03,0.96 -0.04,1.91 -0.04,2.85 0,1.51 0.03,2.91 0.1,4.26 0.03,0.4 0.03,0.82 0.04,1.26l2.55 -0.01c-0.01,-0.48 -0.02,-0.94 -0.04,-1.39zm-2.85 7.02l0 0c-0.26,2.4 -0.67,5.14 -1.23,8.16l2.52 0.46c0.56,-3.08 0.98,-5.88 1.24,-8.34l-2.53 -0.27zm-2.35 13.78l0 0c-0.56,2.57 -1.19,5.29 -1.88,8.09l2.48 0.62c0.7,-2.82 1.35,-5.58 1.9,-8.17l-2.5 -0.54z"/>
    </g>
   </g>
   <g>
    <path class="fil13" d="M412.51 577.87c0,0 3,1 7.92,2.66l0.82 -2.42c-4.92,-1.65 -7.93,-2.66 -7.93,-2.66l-0.81 2.43z"/>
    <path class="fil13" d="M434.59 582.61c-2.82,-0.96 -5.48,-1.85 -7.89,-2.67l-0.81 2.42c2.4,0.81 5.05,1.71 7.88,2.67l0.82 -2.42z"/>
    <polygon class="fil13" points="450.6,684.45 452.69,685.93 457.48,679.13 455.39,677.65 "/>
    <polygon class="fil13" points="442.49,695.96 444.58,697.43 449.37,690.64 447.28,689.16 "/>
    <path class="fil13" d="M438.07 702.23c0.08,1.42 0.12,2.83 0.14,4.25l3.05 -4.33 -2.09 -1.48 -1.1 1.56z"/>
    <path class="fil13" d="M447.93 587.15c-2.7,-0.92 -5.34,-1.81 -7.88,-2.68l-0.82 2.42c2.54,0.86 5.19,1.76 7.87,2.68l0.83 -2.42z"/>
    <path class="fil13" d="M487.84 601.07c-2.45,-0.88 -5.08,-1.83 -7.84,-2.8l-0.85 2.41c2.76,0.98 5.38,1.92 7.82,2.8l0.87 -2.4z"/>
    <path class="fil13" d="M461.26 591.73c-2.62,-0.91 -5.26,-1.81 -7.87,-2.71l-0.82 2.41c2.61,0.89 5.24,1.8 7.86,2.71l0.84 -2.41z"/>
    <path class="fil13" d="M484.71 639.55l1.89 1.72c1.69,-1.86 3.67,-4.03 5.57,-6.19l-1.91 -1.69c-1.9,2.15 -3.86,4.3 -5.55,6.16z"/>
    <path class="fil13" d="M494 629.05l1.96 1.65c2.08,-2.48 3.78,-4.64 5.19,-6.62l-2.08 -1.49c-1.37,1.92 -3.03,4.03 -5.08,6.46z"/>
    <path class="fil13" d="M501.09 606.06c-1.87,-0.76 -4.5,-1.78 -7.82,-3.01l-0.89 2.4c3.3,1.22 5.9,2.22 7.74,2.98l0.96 -2.37z"/>
    <path class="fil13" d="M506.21 610.19l-2.41 0.85c0.12,0.35 0.19,0.76 0.19,1.2 0,1.44 -0.64,3.33 -1.89,5.64l2.24 1.22c1.48,-2.71 2.2,-4.96 2.2,-6.86 0,-0.73 -0.11,-1.42 -0.33,-2.05z"/>
    <polygon class="fil13" points="458.71,672.95 460.8,674.42 465.59,667.62 463.5,666.14 "/>
    <path class="fil13" d="M475.31 650.07l1.94 1.65c1.44,-1.69 3.13,-3.61 5.48,-6.21l-1.9 -1.71c-2.37,2.62 -4.07,4.55 -5.52,6.26z"/>
    <path class="fil13" d="M470.89 655.67l-4.07 5.77 2.09 1.47 4.07 -5.77c0.23,-0.33 0.47,-0.66 0.72,-1l-2.05 -1.53c-0.27,0.36 -0.52,0.7 -0.76,1.05z"/>
    <path class="fil13" d="M465.86 596.02c2.67,0.93 5.3,1.84 7.86,2.74l0.84 -2.41c-2.55,-0.89 -5.19,-1.81 -7.85,-2.74l-0.84 2.41z"/>
   </g>
  </g>
  <path class="fil11" d="M497.91 323.65c-2.98,13.32 -15.63,25.47 -25.68,33.29 0,0 0,0 -0.01,0 -7.2,5.6 -13.06,8.98 -13.06,8.98l-5.97 -5.14 -18.51 -15.93c0,0 0,0 -8.9,18.35 -8.89,18.35 -6.43,65.31 -7.46,78.67 -0.9,11.66 17.08,38.98 20.69,48.31 0.53,1.37 0.75,2.34 0.56,2.84 -1.49,3.83 -45.93,9.58 -74.83,0 -28.89,-9.58 -87.42,25.42 -89.33,24.78 -1.92,-0.64 -3.59,-86.09 -12.53,-124.08 -8.94,-37.99 5.96,-137.63 5.96,-137.63l-12.03 -3.82 -5.42 -1.72c-15.75,0.86 -10.74,-17.66 -10.74,-17.66 0,0 0.52,18.73 10.1,13.85 4.29,-2.18 4.1,-14.91 2.58,-28.3 -1.86,-16.41 -5.71,-33.84 -5.77,-34.1 0.18,0.05 3.07,0.82 7.61,2.11 15.15,4.27 48.68,14.2 61.35,21.75 3.81,2.27 13,8.86 20.12,14.06 5.25,3.82 9.36,6.88 9.36,6.88 25.07,13.81 33.11,12.9 53.54,18.97 0.89,0.27 1.8,0.54 2.71,0.8 24.83,7.38 53.24,16.14 63.78,33.89 8.15,13.73 21.87,29.72 28.31,36.95 2.2,2.47 3.55,3.92 3.55,3.92z"/>
  <path class="fil10" d="M256.82 252.25l-5.42 -1.72c-15.75,0.86 -10.74,-17.66 -10.74,-17.66 0,0 0.52,18.73 10.1,13.85 4.29,-2.18 4.1,-14.91 2.58,-28.3 -1.86,-16.41 -5.71,-33.84 -5.77,-34.1 0.18,0.05 3.07,0.82 7.61,2.11 3.79,15.3 10.58,49.15 1.64,65.82z"/>
  <path class="fil10" d="M497.91 323.65c-2.98,13.32 -15.63,25.47 -25.68,33.29 0,0 0,0 -0.01,0 -7.2,5.6 -13.06,8.98 -13.06,8.98l-5.97 -5.14c20.26,-13.7 34.6,-30.94 40.17,-42.16 2.2,2.47 4.54,5.04 4.54,5.04z"/>
  <path class="fil10" d="M397.44 247.52c-4,10.65 -10.07,20.25 -41.31,12.7 -35.17,-8.51 -15.94,-35.4 -15.94,-35.4 5.25,3.82 5.82,4.3 5.82,4.3 25.07,13.81 25.74,10.85 46.18,16.92 0.89,0.27 4.34,1.22 5.25,1.49z"/>
  <path class="fil12" d="M472.22 356.94c-7.2,5.6 -13.06,8.98 -13.06,8.98l-24.48 -21.08c0,0 0,0 -8.9,18.35 -8.89,18.35 -6.43,65.31 -7.46,78.67 -17.54,-41.72 13.16,-118.16 13.16,-118.16 8.86,17.22 40.2,32.85 40.73,33.24z"/>
  <path class="fil12" d="M439.58 493c-1.49,3.83 -45.93,9.58 -74.83,0 -28.89,-9.58 -87.42,25.42 -89.33,24.78 -1.92,-0.64 -3.59,-86.09 -12.53,-124.08 -8.94,-37.99 5.96,-137.63 5.96,-137.63l-17.45 -5.54c-15.75,0.86 -10.74,-17.66 -10.74,-17.66 0,0 0.52,18.73 10.1,13.85 4.29,-2.18 4.1,-14.91 2.58,-28.3 0,0 30.42,21.9 47.87,27.01 0,0 -4.9,31.3 -9.58,72.06 -4.69,40.76 -1.7,68.79 7.66,97.31 9.37,28.53 30.28,55.85 59.31,58.83 29.03,2.98 57.29,23.28 80.42,16.53 0.53,1.37 0.75,2.34 0.56,2.84z"/>
  <g id="_2259715414816">
   <path class="fil10" d="M447.59 151.77c0,0 0,0 -0.01,-0 -0.72,0.72 -1.2,1.09 -1.2,1.09l-95.57 33.45c0,0 -14.28,-6.57 -13.44,-31.54 0.6,-18.01 12.22,-26.26 18.65,-29.46 -0.78,-0.79 -1.5,-1.63 -2.08,-2.39 -0.87,-1.12 -0.08,-2.75 1.33,-2.78 1.19,-0.03 2.24,0.03 3.16,0.16 -0.28,-1.19 -0.44,-2.4 -0.52,-3.45 -0.12,-1.42 1.43,-2.35 2.64,-1.61 1.94,1.19 3.28,2.39 4.18,3.51 0.04,-0.04 0.08,-0.08 0.13,-0.13 9.27,-9.35 21.68,-14.89 34.82,-15.64 7.19,-0.41 15.94,-1.05 24.65,-2.01 16.73,-1.85 29.75,1.16 34.63,-3.86 0,0 20.61,34.31 -11.36,54.68z"/>
   <path class="fil10" d="M445.73 145.69c0,0 9.78,22.88 -6.42,36.51 0,0 -2.39,-27.4 6.42,-36.51z"/>
   <g>
    <path class="fil8" d="M388.92 251.67c-0.16,0.13 -0.33,0.27 -0.49,0.4 -1.97,1.55 -4.93,3.27 -9.32,4.67 -8.3,2.63 -26.62,-5.47 -34.59,-9.32 -2.13,-1.03 -3.13,-3.52 -2.29,-5.74 4.45,-11.82 6.58,-24.4 6.56,-37.08 -0.02,-19.38 7.81,-37.18 7.81,-37.18 -1.97,9.15 1.48,22.35 6.8,35.63 8.76,21.89 22.59,44.01 25.53,48.62z"/>
   </g>
   <g>
    <path class="fil8" d="M433 193.56c0.03,3.84 -0.58,7.62 -1.79,11.21 -1.04,3.11 -2.53,6.07 -4.43,8.79l-12.66 18.06c-4.71,6.72 -13.17,9.69 -21.04,7.37 -9.02,-2.65 -20.68,-7.75 -29.5,-17.39 -16.64,-18.2 -9.18,-48.68 -9.18,-48.68 0,0 9.29,-30.5 37.84,-35.85 28.55,-5.36 51.25,14.81 51.25,14.81l-2.37 22.36c-0.13,1.25 -0.33,2.48 -0.6,3.7 -0.89,4.09 -2.52,8 -4.83,11.53l-2.69 4.1z"/>
   </g>
   <g>
    <path class="fil10" d="M417.76 165.57c0,0 -10.94,-17.64 -24.01,-7.42l0.99 3.69c0,0 12.2,-6.25 21.09,7.53l1.93 -3.8z"/>
   </g>
   <g>
    <path class="fil9" d="M433 193.56c0.03,3.84 -0.58,7.62 -1.79,11.21 -2.55,-2.96 -8.32,-6.33 -21.27,-7.73 0,0 8.07,-3.79 14.81,-2.26 1.81,0.41 3.5,-1.04 3.37,-2.89l-0.91 -12.4c0,0 1.91,-1.96 4.98,-2.11 1.87,-0.09 5.47,0.13 8.33,0.55 -0.89,4.09 -2.52,8 -4.83,11.53l-2.69 4.1z"/>
   </g>
   <g>
    <path class="fil10" d="M440.74 174.32c-4.94,-0.88 -9.2,-0.46 -9.2,-0.46l-1.37 3.63c3.76,-0.31 6.91,0.05 9.56,0.8 1.31,0.37 2.64,-0.35 2.86,-1.54 0,-0.01 0.01,-0.03 0.01,-0.04 0.21,-1.09 -0.62,-2.16 -1.86,-2.38z"/>
   </g>
   <path class="fil15" d="M422.84 210.02l-33.46 -11.72c0,0 -0.64,19.46 17.69,23.5 14.38,3.17 15.76,-11.78 15.76,-11.78z"/>
   <g>
    <path class="fil9" d="M391.2 237.87l-1.54 13.14c-0.23,0.21 -0.47,0.44 -0.74,0.67 -0.16,0.13 -0.33,0.27 -0.49,0.4 -4.92,-2.26 -25.52,-12.57 -27.57,-27.71 -1.3,-9.58 0.59,-16.8 2.54,-21.32 1.54,-3.6 3.11,-5.48 3.11,-5.48 4.1,32.41 24.69,40.31 24.69,40.31z"/>
   </g>
   <g>
    <path class="fil8" d="M364.46 170.09c0,0 -3.41,-13.9 -14.2,-10.7 -10.79,3.2 -12.49,32.58 2.48,30.7 14.97,-1.88 11.71,-20 11.71,-20z"/>
   </g>
   <path class="fil10" d="M396.71 136.43c0,0 -6.3,0.65 -7.07,8.63 -0.76,7.98 -2.12,21.55 -12.39,21.26 -10.26,-0.29 -11.27,12.18 -11.27,12.18l-7.35 -1.77c0,0 -0.72,-22.17 4.16,-29.72 4.89,-7.55 25.49,-18.45 33.9,-10.58z"/>
   <path class="fil10" d="M395.54 171.47c0,0 3.52,-4.49 10.55,-2.43 7.04,2.06 6.65,9.56 6.65,9.56 0,0 -3.94,-9.83 -17.2,-7.13z"/>
   <path class="fil10" d="M428.68 183.85c0,0 2.5,-1.53 5.41,-0.41 2.9,1.13 1.85,4.92 1.85,4.92 0,0 -0.67,-4.88 -7.25,-4.51z"/>
  </g>
  <polygon class="fil10" points="624.97,331.18 507.64,257.03 556.73,179.34 674.06,253.48 "/>
  <polygon class="fil14" points="674.06,253.48 624.97,331.18 507.64,257.03 512.71,256.68 671.97,245.43 673.38,250.85 673.38,250.86 "/>
  <path class="fil15" d="M673.38 250.85l-46.95 74.52c-1.61,-1.02 -0.9,-0.57 -3.55,-2.25l-32.15 -74.27 81.24 -3.42 1.41 5.42z"/>
  <polygon class="fil14" points="622.88,323.13 510.67,252.22 559.77,174.53 671.97,245.43 "/>
  <path class="fil8" d="M635.49 214.48c-0.01,-0.02 -0.02,-0.02 -0.02,-0.02 -1.1,-2.03 -3.53,-3.77 -5.21,-4.01 -0.01,-1.75 -1.71,-3.39 -3.82,-4.31 -1.23,-0.53 -2.6,-0.56 -3.89,-0.21 -0.6,-2.14 -2.88,-3.82 -4.42,-3.34 0,0 -0.37,0.07 -0.99,0.22 -0.17,-1.54 -1.09,-2.51 -1.09,-2.51l-0.01 0c-1,-2.29 -4.83,-4.2 -6.55,-3.66 0,0 -14.61,2.62 -18.07,12.74 -3.46,10.12 -7.89,21.81 -2.72,21.09 1.48,-0.21 3.2,-1.64 4.89,-3.73 -1.83,6.13 -2.5,10.85 0.85,10.39 1.86,-0.26 4.09,-2.46 6.18,-5.45 -1.41,5.23 -1.65,9.01 1.36,8.59 2.72,-0.38 6.23,-4.89 8.9,-9.96 -1.73,5.92 -2.29,10.41 0.98,9.96 4,-0.56 6.82,-8.7 10.84,-14.91 4.71,-7.28 4.55,-2.99 9.64,-4.95l3.71 2.35c1.81,-4.45 -0.38,-7.96 -0.58,-8.27z"/>
  <path class="fil10" d="M340.19 224.82c0,0 4.05,-33.71 -9.92,-36.46 -27.14,-5.33 -57.28,34.86 -73.61,76.65 -24.59,62.91 3.82,110.14 3.82,110.14l0.5 -24.09c0,0 -2.23,-52.38 22.04,-93.8 24.27,-41.42 41.19,-52.59 44.7,-49.72 3.51,2.87 3.69,10.89 3.69,10.89l8.79 6.4z"/>
  <path class="fil10" d="M402.27 248.89c0,0 8.12,-20.99 34.14,-11.64 22.76,8.18 20.41,32.44 16.9,64.38 -3.51,31.93 -34.44,110.9 -34.44,110.9 0,0 -1.32,-27.82 2.2,-44.42 0,0 21.29,-70.21 13.62,-97.99 -7.66,-27.78 -24.75,-18.93 -24.75,-18.93l-7.67 -2.3z"/>
  <path class="fil7" d="M33.34 355c0,0 5.42,-34.84 20.7,-33.48 4.23,0.38 7.1,4.66 8.99,9.26 1.16,2.83 5.22,2.64 6.06,-0.31 4.04,-14.16 12.31,-35.76 25.12,-35.76 13.25,0 13.69,24.72 12.72,39.77 -0.14,2.27 2.8,3.27 4.07,1.4 3.49,-5.14 8.59,-10.08 14.8,-8.65 12.08,2.79 8.83,27.77 8.83,27.77l-101.28 0z"/>
  <g id="_2259715388480">
   <path class="fil2" d="M203.07 737.73c11.55,9.55 11.32,-3.02 -17.16,-53.83 -13.35,-23.81 -41.54,-71.96 -62.26,-46.82 -19.91,24.16 52.9,78.54 52.9,78.54l26.52 22.1zm-32.55 26.97l0 0c0,0 -86.52,-27.79 -75.54,-57.1 11.44,-30.51 53.74,5.87 74.09,24.06 43.43,38.8 47.74,50.61 33.71,45.34l-32.26 -12.29zm16.29 58.08l0 0c0,0 -70.18,-8.71 -66.03,-32.71 4.32,-24.98 41.94,-3.3 60.13,7.66 38.83,23.37 43.83,31.78 32.34,29.78l-26.45 -4.72zm14.16 59.03l0 0c0,0 -70.18,-8.71 -66.03,-32.71 4.32,-24.99 41.94,-3.3 60.13,7.66 38.83,23.37 43.83,31.78 32.34,29.78l-26.45 -4.72zm32.46 -151.6l0 0c0,0 50.98,-75.23 76.03,-56.44 26.07,19.55 -20.74,49.92 -43.91,64.35 -49.44,30.78 -61.99,31.59 -52.98,19.61l20.86 -27.51zm11.96 46.03l0 0c0,0 64.92,-63.59 85.73,-40.2 21.66,24.34 -30.25,44.8 -55.82,54.33 -54.57,20.34 -67.03,18.63 -55.82,8.68l25.91 -22.81zm6.34 53.81l0 0c0,0 56.37,-52.27 73.43,-32.02 17.76,21.09 -26.62,37.19 -48.47,44.66 -46.62,15.94 -57.12,14.21 -47.41,6.05l22.44 -18.69zm9.51 42.11l0 0c0,0 50.5,-57.96 69.62,-39.63 19.89,19.08 -22.52,39.8 -43.45,49.55 -44.67,20.79 -55.29,20.19 -46.5,11.05l20.33 -20.97zm-57.69 -208.2l0 0c0,0 -19.62,-105.47 22.02,-106.88 43.34,-1.46 25.75,60.38 16.49,90.44 -19.77,64.14 -31.23,74.09 -33.49,56.64l-5.02 -40.2z"/>
   <path class="fil3" d="M203.07 737.73c11.55,9.55 11.32,-3.02 -17.16,-53.83 -13.35,-23.81 -41.54,-71.96 -62.26,-46.82 -19.91,24.16 52.9,78.54 52.9,78.54l26.52 22.1zm-32.55 26.97l0 0c0,0 -86.52,-27.79 -75.54,-57.1 11.44,-30.51 53.74,5.87 74.09,24.06 43.43,38.8 47.74,50.61 33.71,45.34l-32.26 -12.29zm16.29 58.08l0 0c0,0 -70.18,-8.71 -66.03,-32.71 4.32,-24.98 41.94,-3.3 60.13,7.66 38.83,23.37 43.83,31.78 32.34,29.78l-26.45 -4.72zm14.16 59.03l0 0c0,0 -70.18,-8.71 -66.03,-32.71 4.32,-24.99 41.94,-3.3 60.13,7.66 38.83,23.37 43.83,31.78 32.34,29.78l-26.45 -4.72zm32.46 -151.6l0 0c0,0 50.98,-75.23 76.03,-56.44 26.07,19.55 -20.74,49.92 -43.91,64.35 -49.44,30.78 -61.99,31.59 -52.98,19.61l20.86 -27.51zm11.96 46.03l0 0c0,0 64.92,-63.59 85.73,-40.2 21.66,24.34 -30.25,44.8 -55.82,54.33 -54.57,20.34 -67.03,18.63 -55.82,8.68l25.91 -22.81zm6.34 53.81l0 0c0,0 56.37,-52.27 73.43,-32.02 17.76,21.09 -26.62,37.19 -48.47,44.66 -46.62,15.94 -57.12,14.21 -47.41,6.05l22.44 -18.69zm9.51 42.11l0 0c0,0 50.5,-57.96 69.62,-39.63 19.89,19.08 -22.52,39.8 -43.45,49.55 -44.67,20.79 -55.29,20.19 -46.5,11.05l20.33 -20.97zm-57.69 -208.2l0 0c0,0 -19.62,-105.47 22.02,-106.88 43.34,-1.46 25.75,60.38 16.49,90.44 -19.77,64.14 -31.23,74.09 -33.49,56.64l-5.02 -40.2z"/>
   <path class="fil4 str0" d="M229.14 596.51c0,0 -24.76,127.82 -18.18,181.56 7.56,61.74 24.97,126.49 47.96,175.49"/>
   <line class="fil4 str0" x1="209.79" y1="741.33" x2="154.05" y2= "662.3" />
   <line class="fil4 str0" x1="210.96" y1="778.07" x2="136.07" y2= "726.79" />
   <line class="fil4 str0" x1="210.61" y1="764.66" x2="278.7" y2= "707.76" />
   <line class="fil4 str0" x1="218.35" y1="826.13" x2="145.69" y2= "799.18" />
   <line class="fil4 str0" x1="215.52" y1="805.85" x2="273.01" y2= "774.15" />
   <line class="fil4 str0" x1="227.05" y1="853.79" x2="272.29" y2= "831.62" />
   <line class="fil4 str0" x1="232.41" y1="885.46" x2="191.61" y2= "866.66" />
   <line class="fil4 str0" x1="237.02" y1="898.16" x2="287.44" y2= "867.6" />
   <path class="fil2" d="M101.21 883.14c10.76,-1.45 3.96,-7.51 -37.06,-17.33 -19.22,-4.6 -58.7,-13.27 -55.51,10.11 3.06,22.47 67.78,10.47 67.78,10.47l24.79 -3.24zm-1.66 30.57l0 0c0,0 -57.31,32.37 -67.5,12.11 -10.61,-21.08 29.54,-25.7 49.22,-27.59 41.99,-4.03 50.39,-0.51 40.68,4.36l-22.4 11.12zm38.9 19.88l0 0c0,0 -39.13,33.05 -49.85,19.04 -11.17,-14.58 18.86,-23.93 33.63,-28.22 31.52,-9.17 38.45,-7.69 31.74,-2.57l-15.51 11.75zm38.36 21.48l0 0c0,0 -39.13,33.05 -49.85,19.04 -11.17,-14.58 18.86,-23.93 33.63,-28.22 31.52,-9.17 38.45,-7.69 31.74,-2.57l-15.51 11.75zm-64.69 -91.78l0 0c0,0 -14.96,-64.1 7.35,-68.19 23.21,-4.26 16.36,35.57 12.64,54.99 -7.93,41.43 -13.67,48.5 -15.61,37.82l-4.38 -24.62zm30.37 16.26l0 0c0,0 -1.92,-65.79 20.75,-65.37 23.6,0.44 8.96,38.11 1.46,56.4 -16.01,39.03 -23.04,44.81 -22.82,33.96l0.6 -25zm31.74 23.08l0 0c0,0 -0.1,-55.68 19.06,-54.8 19.94,0.92 6.7,32.44 -0.07,47.73 -14.44,32.63 -20.52,37.36 -20.08,28.19l1.09 -21.13zm27.07 15.64l0 0c0,0 -6.01,-55.36 13.14,-56.51 19.93,-1.2 10.1,31.54 5,47.47 -10.89,33.98 -16.43,39.33 -16.98,30.16l-1.16 -21.12zm-139.1 -71.65l0 0c0,0 -65.75,-41.41 -46.03,-64.25 20.52,-23.77 44.78,15.98 56.21,35.68 24.4,42.04 24.06,53.03 13.67,45.65l-23.85 -17.09z"/>
   <path class="fil5" d="M101.21 883.14c10.76,-1.45 3.96,-7.51 -37.06,-17.33 -19.22,-4.6 -58.7,-13.27 -55.51,10.11 3.06,22.47 67.78,10.47 67.78,10.47l24.79 -3.24zm-1.66 30.57l0 0c0,0 -57.31,32.37 -67.5,12.11 -10.61,-21.08 29.54,-25.7 49.22,-27.59 41.99,-4.03 50.39,-0.51 40.68,4.36l-22.4 11.12zm38.9 19.88l0 0c0,0 -39.13,33.05 -49.85,19.04 -11.17,-14.58 18.86,-23.93 33.63,-28.22 31.52,-9.17 38.45,-7.69 31.74,-2.57l-15.51 11.75zm38.36 21.48l0 0c0,0 -39.13,33.05 -49.85,19.04 -11.17,-14.58 18.86,-23.93 33.63,-28.22 31.52,-9.17 38.45,-7.69 31.74,-2.57l-15.51 11.75zm-64.69 -91.78l0 0c0,0 -14.96,-64.1 7.35,-68.19 23.21,-4.26 16.36,35.57 12.64,54.99 -7.93,41.43 -13.67,48.5 -15.61,37.82l-4.38 -24.62zm30.37 16.26l0 0c0,0 -1.92,-65.79 20.75,-65.37 23.6,0.44 8.96,38.11 1.46,56.4 -16.01,39.03 -23.04,44.81 -22.82,33.96l0.6 -25zm31.74 23.08l0 0c0,0 -0.1,-55.68 19.06,-54.8 19.94,0.92 6.7,32.44 -0.07,47.73 -14.44,32.63 -20.52,37.36 -20.08,28.19l1.09 -21.13zm27.07 15.64l0 0c0,0 -6.01,-55.36 13.14,-56.51 19.93,-1.2 10.1,31.54 5,47.47 -10.89,33.98 -16.43,39.33 -16.98,30.16l-1.16 -21.12zm-139.1 -71.65l0 0c0,0 -65.75,-41.41 -46.03,-64.25 20.52,-23.77 44.78,15.98 56.21,35.68 24.4,42.04 24.06,53.03 13.67,45.65l-23.85 -17.09z"/>
   <path class="fil4 str0" d="M38.91 799.87c0,0 55.82,76 87.64,98.91 36.56,26.32 83.15,50.19 120.51,62.04"/>
   <line class="fil4 str0" x1="106.43" y1="881.34" x2="36.99" y2= "872.14" />
   <line class="fil4 str0" x1="126.55" y1="898.78" x2="62.46" y2= "913.41" />
   <line class="fil4 str0" x1="119.24" y1="892.38" x2="122.44" y2= "828.18" />
   <line class="fil4 str0" x1="155.74" y1="918.47" x2="105.69" y2= "943.87" />
   <line class="fil4 str0" x1="143.56" y1="910.01" x2="154.96" y2= "863.85" />
   <line class="fil4 str0" x1="174.73" y1="927.44" x2="185.17" y2= "892.48" />
   <line class="fil4 str0" x1="194.21" y1="940.16" x2="164.15" y2= "952.62" />
   <line class="fil4 str0" x1="203.23" y1="943.94" x2="211.76" y2= "902.1" />
   <path class="fil6" d="M201.84 626.37l2.04 -0.86c-0.68,0.28 -1.36,0.56 -2.04,0.86z"/>
   <path class="fil4 str1" d="M203.88 625.5c-0.68,0.28 -1.36,0.56 -2.04,0.86"/>
  </g>
  <path class="fil14" d="M1191.16 962.66l-476.62 0c-6.92,0 -12.53,5.62 -12.53,12.53 -10.67,1.24 -23.01,1.72 -36.17,1.72 -13.17,0 -25.51,-0.49 -36.17,-1.72 0,-6.92 -5.61,-12.53 -12.53,-12.53l-476.62 0c-9.54,0 -17.27,7.74 -17.27,17.27l0 12.96 474.46 0c10.53,11.44 37.06,19.57 68.14,19.57 31.09,0 57.62,-8.12 68.14,-19.57l474.45 0 0 -12.96c0,-9.54 -7.73,-17.27 -17.27,-17.27z"/>
  <path class="fil18" d="M665.83 962.66l525.33 0 -75.87 -85.24 -290.75 -11.42c-45.73,-1.86 -120.93,-0.35 -137.54,42.29l-21.17 54.36z"/>
  <path class="fil18" d="M665.83 962.66l-525.33 0 75.87 -85.24 290.75 -11.42c45.73,-1.86 120.93,-0.35 137.53,42.29l21.17 54.36z"/>
  <polygon class="fil11" points="665.83,962.66 649.75,921.36 177.27,921.36 140.5,962.66 "/>
  <polygon class="fil11" points="665.83,962.66 681.91,921.36 1154.39,921.36 1191.16,962.66 "/>
  <polygon class="fil19" points="472.98,921.36 584.46,921.36 584.46,912.95 472.98,912.95 "/>
  <polygon class="fil19" points="566.87,1005.04 528.72,979.45 490.57,1005.04 490.57,917.15 566.87,917.15 "/>
  <polygon class="fil20" points="528.72,917.15 528.72,979.45 566.87,1005.04 566.87,917.15 "/>
  <path class="fil21" d="M1079.55 854.5c-177.67,-10.51 -280.31,5.66 -339.62,27.97 13.39,-6.71 27.47,-12.23 40.84,-16.69 66.82,-22.28 159.39,-34.05 267.71,-34.05 4.38,0 7.94,-2.98 7.94,-6.65 0,-3.67 -3.55,-6.65 -7.94,-6.65 -162.42,0 -283.35,25.35 -344.93,69.37 49.71,-60.16 156.38,-101.85 279.67,-101.85 4.38,0 7.94,-2.98 7.94,-6.66 0,-3.68 -3.55,-6.66 -7.94,-6.66 -154.83,0 -284.73,63.94 -317.41,149.27 -32.67,-85.34 -162.58,-149.27 -317.41,-149.27 -4.39,0 -7.94,2.98 -7.94,6.66 0,3.67 3.55,6.66 7.94,6.66 123.29,0 229.96,41.69 279.67,101.85 -61.57,-44.02 -182.51,-69.37 -344.92,-69.37 -4.38,0 -7.94,2.98 -7.94,6.65 0,3.67 3.55,6.65 7.94,6.65 108.32,0 200.89,11.78 267.71,34.05 13.37,4.46 27.44,9.97 40.82,16.68 -59.29,-22.31 -161.93,-38.48 -339.6,-27.96 -4.37,0.26 -7.67,3.44 -7.36,7.11 0.31,3.67 4.06,6.38 8.48,6.17 252.7,-14.97 345.63,25.92 378.53,51.62 17.1,13.36 26.14,28.77 26.14,44.56 0,3.68 3.55,6.66 7.94,6.66 4.38,0 7.94,-2.98 7.94,-6.66 0,-15.79 9.04,-31.2 26.14,-44.56 32.89,-25.7 125.81,-66.58 378.53,-51.62 4.34,0.24 8.16,-2.5 8.48,-6.17 0.3,-3.66 -2.99,-6.84 -7.36,-7.11z"/>
  <path class="fil20" d="M694.86 970.69l-57.89 0c-1.16,0 -2.11,-0.95 -2.11,-2.11l0 -3.8c0,-1.16 0.94,-2.11 2.11,-2.11l57.89 0c1.17,0 2.11,0.95 2.11,2.11l0 3.8c0,1.17 -0.95,2.11 -2.11,2.11z"/>
 </g>
</svg>
