<?xml version="1.0" encoding="UTF-8"?>
<!DOCTYPE svg PUBLIC "-//W3C//DTD SVG 1.1//EN" "http://www.w3.org/Graphics/SVG/1.1/DTD/svg11.dtd">
<!-- Creator: CorelDRAW 2017 -->
<svg xmlns="http://www.w3.org/2000/svg" xml:space="preserve" width="110.231mm" height="110.231mm" version="1.1" style="shape-rendering:geometricPrecision; text-rendering:geometricPrecision; image-rendering:optimizeQuality; fill-rule:evenodd; clip-rule:evenodd"
viewBox="0 0 70 70"
 xmlns:xlink="http://www.w3.org/1999/xlink">
 <defs>
  <style type="text/css">
   <![CDATA[
    .fil0 {fill:#6EB1E1;fill-rule:nonzero}
   ]]>
  </style>
 </defs>
 <g id="Layer_x0020_1">
  <metadata id="CorelCorpID_0Corel-Layer"/>
  <path class="fil0" d="M38 32c6,6 6,16 0,23 -6,6 -16,6 -23,0 -6,-6 -6,-16 0,-23 6,-6 16,-6 23,0zm-30 30c10,10 27,10 38,0 9,-9 10,-23 3,-34l13 -13 0 12 8 -8 0 -19 -19 0 -8 8 12 0 -13 13c-10,-7 -24,-6 -34,3 -10,10 -10,27 0,38z"/>
 </g>
</svg>
