<?xml version="1.0" encoding="UTF-8"?>
<!DOCTYPE svg PUBLIC "-//W3C//DTD SVG 1.1//EN" "http://www.w3.org/Graphics/SVG/1.1/DTD/svg11.dtd">
<!-- Creator: CorelDRAW 2017 -->
<svg xmlns="http://www.w3.org/2000/svg" xml:space="preserve" width="79.3332mm" height="134.969mm" version="1.1" style="shape-rendering:geometricPrecision; text-rendering:geometricPrecision; image-rendering:optimizeQuality; fill-rule:evenodd; clip-rule:evenodd"
viewBox="0 0 33 55"
 xmlns:xlink="http://www.w3.org/1999/xlink">
 <defs>
  <style type="text/css">
   <![CDATA[
    .fil0 {fill:#EA6793;fill-rule:nonzero}
   ]]>
  </style>
 </defs>
 <g id="Layer_x0020_1">
  <metadata id="CorelCorpID_0Corel-Layer"/>
  <path class="fil0" d="M16 26c-5,0 -10,-4 -10,-10 0,-5 4,-10 10,-10 5,0 10,4 10,10 0,5 -4,10 -10,10zm16 -10c0,-9 -7,-16 -16,-16 -1,0 -2,0 -2,0 -8,1 -14,8 -14,16 0,8 6,14 13,16l0 10 -7 0 0 6 7 0 0 6 6 0 0 -6 7 0 0 -6 -7 0 0 -10c7,-1 13,-8 13,-16z"/>
 </g>
</svg>
