<?xml version="1.0" encoding="UTF-8"?>
<!DOCTYPE svg PUBLIC "-//W3C//DTD SVG 1.1//EN" "http://www.w3.org/Graphics/SVG/1.1/DTD/svg11.dtd">
<!-- Creator: CorelDRAW 2017 -->
<svg xmlns="http://www.w3.org/2000/svg" xml:space="preserve" width="112.406mm" height="103.013mm" version="1.1" style="shape-rendering:geometricPrecision; text-rendering:geometricPrecision; image-rendering:optimizeQuality; fill-rule:evenodd; clip-rule:evenodd"
viewBox="0 0 105 96"
 xmlns:xlink="http://www.w3.org/1999/xlink">
 <defs>
  <style type="text/css">
   <![CDATA[
    .str2 {stroke:#263138;stroke-width:0.329029;stroke-linejoin:round}
    .str1 {stroke:#CFCFCF;stroke-width:0.411939;stroke-linecap:round;stroke-linejoin:round}
    .str0 {stroke:#263138;stroke-width:0.329029;stroke-linecap:round;stroke-linejoin:round}
    .str3 {stroke:white;stroke-width:0.329029;stroke-linecap:round;stroke-linejoin:round}
    .fil3 {fill:none;fill-rule:nonzero}
    .fil5 {fill:#2095F2;fill-rule:nonzero}
    .fil4 {fill:#263138;fill-rule:nonzero}
    .fil1 {fill:#DDF0FF;fill-rule:nonzero}
    .fil0 {fill:white;fill-rule:nonzero}
    .fil8 {fill:black;fill-rule:nonzero;fill-opacity:0.239216}
    .fil7 {fill:#E8E8E8;fill-rule:nonzero;fill-opacity:0.650980}
    .fil6 {fill:white;fill-rule:nonzero;fill-opacity:0.650980}
    .fil2 {fill:#DDF0FF;fill-rule:nonzero;fill-opacity:0.800000}
   ]]>
  </style>
 </defs>
 <g id="Layer_x0020_1">
  <metadata id="CorelCorpID_0Corel-Layer"/>
  <g id="_3135719817600">
   <path class="fil0" d="M25 24c0,-2 2,-4 4,-4l24 0c2,0 4,2 4,4l0 1c0,0 0,1 0,1 1,1 2,2 2,3l0 36c0,2 -2,3 -4,3l-26 0c-2,0 -4,-2 -4,-4l0 -40zm-2 0l0 40c0,3 3,6 6,6l26 0c3,0 6,-2 6,-5l0 -36c0,-2 -1,-3 -2,-4l0 0c0,-3 -3,-6 -6,-6l-24 0c-3,0 -6,3 -6,6z"/>
   <path class="fil0" d="M30 24l23 0c1,0 1,0 1,1 0,0 0,1 0,1l-9 0c-1,0 -1,0 -1,1l0 15 -3 -3c0,0 0,0 -1,0 0,0 0,0 -1,0l-3 3 0 -15c0,-1 0,-1 -1,-1l-5 0c-1,-1 -1,-1 -1,-1 0,0 0,0 1,0zm-1 3c0,0 0,0 1,0l5 0 0 16c0,0 0,1 1,1 0,0 0,0 0,0 0,0 0,0 1,0l4 -4 4 4c0,0 1,0 1,0 0,0 1,0 1,-1l0 -16 9 0c0,0 1,0 1,-1 0,0 1,-2 0,-3 0,-1 -1,-1 -3,-2 0,0 0,0 0,0l-23 0c0,0 0,0 0,0 0,0 -2,0 -2,2 0,2 1,3 2,3z"/>
   <path class="fil0" d="M39 33c0,0 0,0 0,0l0 -1 0 1c0,0 0,0 0,0l1 0 0 0c0,0 0,0 0,0l0 1 -1 0c0,0 0,0 0,0 0,0 0,0 0,0l-1 0 0 -1c0,0 0,0 0,0l0 0 1 0zm-1 1l0 1c0,0 0,0 0,0 0,0 0,0 0,0 0,0 0,0 0,0l1 -1 1 1c0,0 0,0 0,0 0,0 0,0 0,0l0 -1 1 -1c0,0 0,0 0,0 0,0 0,0 0,0l-1 0 -1 -1c0,0 0,0 0,0 0,0 0,0 0,0l-1 1 -1 0c0,0 0,0 0,0 0,0 0,0 0,0l1 1z"/>
   <path class="fil0" d="M25 24c0,-2 2,-4 4,-4l24 0c2,0 4,2 4,4l0 1c0,0 0,1 0,1 1,1 2,2 2,3l0 36c0,2 -2,3 -4,3l-26 0c-2,0 -4,-2 -4,-4l0 -40zm-2 0l0 40c0,3 3,6 6,6l26 0c3,0 6,-2 6,-5l0 -36c0,-2 -1,-3 -2,-4l0 0c0,-3 -3,-6 -6,-6l-24 0c-3,0 -6,3 -6,6z"/>
   <path class="fil0" d="M30 24l23 0c1,0 1,0 1,1 0,0 0,1 0,1l-9 0c-1,0 -1,0 -1,1l0 15 -3 -3c0,0 0,0 -1,0 0,0 0,0 -1,0l-3 3 0 -15c0,-1 0,-1 -1,-1l-5 0c-1,-1 -1,-1 -1,-1 0,0 0,0 1,0zm-1 3c0,0 0,0 1,0l5 0 0 16c0,0 0,1 1,1 0,0 0,0 0,0 0,0 0,0 1,0l4 -4 4 4c0,0 1,0 1,0 0,0 1,0 1,-1l0 -16 9 0c0,0 1,0 1,-1 0,0 1,-2 0,-3 0,-1 -1,-1 -3,-2 0,0 0,0 0,0l-23 0c0,0 0,0 0,0 0,0 -2,0 -2,2 0,2 1,3 2,3z"/>
   <path class="fil0" d="M39 33c0,0 0,0 0,0l0 -1 0 1c0,0 0,0 0,0l1 0 0 0c0,0 0,0 0,0l0 1 -1 0c0,0 0,0 0,0 0,0 0,0 0,0l-1 0 0 -1c0,0 0,0 0,0l0 0 1 0zm-1 1l0 1c0,0 0,0 0,0 0,0 0,0 0,0 0,0 0,0 0,0l1 -1 1 1c0,0 0,0 0,0 0,0 0,0 0,0l0 -1 1 -1c0,0 0,0 0,0 0,0 0,0 0,0l-1 0 -1 -1c0,0 0,0 0,0 0,0 0,0 0,0l-1 1 -1 0c0,0 0,0 0,0 0,0 0,0 0,0l1 1z"/>
   <g>
    <path class="fil1" d="M93 14c0,0 -6,-12 -20,-14 -14,-2 -24,7 -34,12 -5,2 -12,1 -17,3 -18,4 -25,27 -18,40 7,11 18,17 36,19 18,1 30,3 46,-8 16,-11 15,-35 7,-51z"/>
    <path class="fil2" d="M93 14c0,0 -6,-12 -20,-14 -14,-2 -24,7 -34,12 -5,2 -12,1 -17,3 -18,4 -25,27 -18,40 7,11 18,17 36,19 18,1 30,3 46,-8 16,-11 15,-35 7,-51z"/>
   </g>
   <g>
    <g>
     <line class="fil3 str0" x1="78" y1="25" x2="76" y2= "36" />
     <path class="fil3 str0" d="M76 36c0,0 1,1 1,2 0,0 1,0 2,0 0,0 11,0 11,0"/>
     <line class="fil3 str0" x1="89" y1="39" x2="91" y2= "25" />
     <line class="fil3 str0" x1="81" y1="23" x2="80" y2= "23" />
     <polyline class="fil3 str0" points="76,37 88,37 90,23 82,23 "/>
     <polyline class="fil3 str0" points="77,37 78,38 89,38 91,26 90,25 "/>
     <path class="fil4" d="M79 37l2 0c0,0 0,1 0,2 0,1 0,3 0,3l-1 -2 -1 1 1 -5z"/>
    </g>
    <g>
     <line class="fil3 str0" x1="11" y1="40" x2="18" y2= "37" />
     <path class="fil3 str0" d="M18 37c0,0 0,-1 0,-1 0,0 0,-1 0,-1 0,0 -4,-6 -4,-6"/>
     <line class="fil3 str0" x1="14" y1="29" x2="6" y2= "33" />
     <line class="fil3 str0" x1="9" y1="39" x2="10" y2= "40" />
     <polyline class="fil3 str0" points="18,37 14,31 6,34 9,39 "/>
     <polyline class="fil3 str0" points="18,36 18,35 14,30 7,33 7,34 "/>
     <path class="fil4" d="M17 35l-1 -1c0,0 1,0 1,-1 1,0 1,-1 1,-1l-1 1 1 0 -3 1z"/>
    </g>
    <g>
     <polyline class="fil3 str0" points="11,50 11,51 15,60 23,51 33,48 28,41 28,41 "/>
     <line class="fil3 str0" x1="18" y1="43" x2="23" y2= "50" />
     <path class="fil3 str0" d="M23 50c0,0 -2,0 -2,1 0,2 -2,4 -3,5 -1,1 -2,2 -2,2"/>
     <line class="fil3 str0" x1="15" y1="59" x2="11" y2= "50" />
     <path class="fil3 str0" d="M11 50c0,0 2,-2 3,-4 1,-2 3,-3 4,-3"/>
     <path class="fil3 str0" d="M23 50c0,0 1,-2 2,-2 1,0 4,0 6,0 2,-1 2,-1 2,-1"/>
     <line class="fil3 str0" x1="32" y1="48" x2="27" y2= "40" />
     <path class="fil3 str0" d="M27 40c0,0 -1,1 -4,1 -3,0 -5,1 -5,2"/>
     <line class="fil3 str0" x1="18" y1="43" x2="23" y2= "50" />
     <path class="fil3 str0" d="M23 51c0,0 -1,0 -1,1 -1,1 -1,2 -3,3"/>
     <path class="fil3 str0" d="M24 51c0,0 1,-1 2,-1 1,0 3,0 6,-1"/>
     <path class="fil3 str0" d="M12 51c0,0 1,-1 2,-3 1,-2 2,-3 4,-3"/>
     <path class="fil3 str0" d="M13 52c0,0 1,-1 2,-3 1,-2 2,-3 4,-3"/>
     <path class="fil3 str0" d="M14 54c0,0 1,-1 2,-3 1,-2 2,-3 4,-3"/>
     <path class="fil3 str0" d="M15 55c0,0 1,-1 2,-3 1,-2 2,-3 4,-3"/>
     <path class="fil3 str0" d="M20 44c0,0 0,-1 2,-1 2,0 5,0 5,-1"/>
     <path class="fil3 str0" d="M21 46c0,0 1,-1 3,-1 2,0 4,0 5,-2"/>
     <path class="fil3 str0" d="M22 47c0,0 1,-1 2,-1 2,0 4,0 5,-1"/>
     <path class="fil3 str0" d="M22 49c0,0 0,-1 2,-1 2,0 4,-1 6,-1"/>
    </g>
    <g>
     <polyline class="fil3 str0" points="68,4 67,3 62,8 69,12 73,18 77,13 77,13 "/>
     <line class="fil3 str0" x1="74" y1="7" x2="70" y2= "11" />
     <path class="fil3 str0" d="M70 11c0,0 0,-1 -1,-1 -1,0 -3,-1 -4,-1 -1,0 -1,-1 -1,-1"/>
     <line class="fil3 str0" x1="63" y1="8" x2="68" y2= "4" />
     <path class="fil3 str0" d="M68 4c0,0 2,1 3,1 2,0 3,1 3,2"/>
     <path class="fil3 str0" d="M70 11c0,0 1,0 1,1 0,1 0,2 1,4 1,1 1,1 1,1"/>
     <line class="fil3 str0" x1="73" y1="17" x2="78" y2= "13" />
     <path class="fil3 str0" d="M78 13c0,0 -1,-1 -1,-3 -1,-2 -1,-3 -2,-3"/>
     <line class="fil3 str0" x1="74" y1="7" x2="70" y2= "11" />
     <path class="fil3 str0" d="M69 12c0,0 0,0 -1,-1 -1,0 -1,-1 -3,-1"/>
     <path class="fil3 str0" d="M70 12c0,0 1,0 1,1 0,1 1,2 2,4"/>
     <path class="fil3 str0" d="M68 5c0,0 1,0 3,1 2,1 2,1 3,2"/>
     <path class="fil3 str0" d="M67 6c0,0 1,0 3,1 2,1 2,1 3,2"/>
     <path class="fil3 str0" d="M66 6c0,0 1,0 3,1 2,1 2,1 3,2"/>
     <path class="fil3 str0" d="M65 7c0,0 1,0 3,1 2,1 2,1 3,2"/>
     <path class="fil3 str0" d="M73 9c0,0 1,0 1,1 0,1 1,3 2,3"/>
     <path class="fil3 str0" d="M72 10c0,0 1,0 1,2 0,1 1,2 2,3"/>
     <path class="fil3 str0" d="M72 10c0,0 1,0 1,1 0,1 1,3 2,3"/>
     <path class="fil3 str0" d="M71 11c0,0 1,0 1,1 0,1 1,3 2,4"/>
    </g>
    <g>
     <polyline class="fil3 str0" points="30,14 25,21 26,21 31,15 38,19 39,18 31,14 "/>
     <polyline class="fil3 str0" points="31,15 33,26 38,29 37,19 "/>
     <polyline class="fil3 str0" points="38,29 39,28 39,18 "/>
     <polyline class="fil3 str0" points="33,26 29,31 27,22 "/>
     <polyline class="fil3 str0" points="25,21 28,31 29,31 "/>
     <line class="fil3 str0" x1="31" y1="19" x2="28" y2= "23" />
     <line class="fil3 str0" x1="31" y1="21" x2="28" y2= "25" />
     <line class="fil3 str0" x1="31" y1="23" x2="28" y2= "27" />
     <line class="fil3 str0" x1="32" y1="25" x2="29" y2= "29" />
     <line class="fil3 str0" x1="32" y1="19" x2="36" y2= "21" />
     <line class="fil3 str0" x1="32" y1="21" x2="36" y2= "23" />
     <line class="fil3 str0" x1="33" y1="23" x2="37" y2= "25" />
     <line class="fil3 str0" x1="33" y1="25" x2="37" y2= "27" />
    </g>
    <g>
     <polyline class="fil3 str0" points="89,64 93,57 92,56 88,63 81,60 80,61 88,64 "/>
     <polyline class="fil3 str0" points="88,63 85,52 79,50 81,59 "/>
     <polyline class="fil3 str0" points="79,50 79,51 80,61 "/>
     <polyline class="fil3 str0" points="85,52 89,47 92,56 "/>
     <polyline class="fil3 str0" points="93,57 90,47 89,47 "/>
     <line class="fil3 str0" x1="88" y1="59" x2="90" y2= "55" />
     <line class="fil3 str0" x1="87" y1="57" x2="90" y2= "53" />
     <line class="fil3 str0" x1="87" y1="56" x2="90" y2= "51" />
     <line class="fil3 str0" x1="87" y1="54" x2="89" y2= "49" />
     <line class="fil3 str0" x1="87" y1="59" x2="82" y2= "58" />
     <line class="fil3 str0" x1="86" y1="58" x2="82" y2= "56" />
     <line class="fil3 str0" x1="86" y1="56" x2="81" y2= "54" />
     <line class="fil3 str0" x1="85" y1="54" x2="81" y2= "52" />
    </g>
   </g>
   <path class="fil5" d="M74 68c-1,2 -1,0 -1,-7 0,-4 0,-11 4,-9 4,2 -1,12 -1,12l-2 4zm5 1l0 0c0,0 8,-9 5,-11 -3,-3 -6,4 -7,7 -3,7 -2,9 -1,7l3 -3zm2 8l0 0c0,0 8,-5 6,-8 -2,-3 -5,2 -6,5 -3,5 -3,6 -2,5l3 -2zm2 8l0 0c0,0 8,-5 6,-8 -2,-3 -5,2 -6,5 -3,5 -3,6 -2,5l3 -2zm-13 -15l0 0c0,0 -10,-5 -12,-2 -2,4 5,4 9,5 8,0 9,0 7,-1l-4 -2zm1 6l0 0c0,0 -11,-3 -12,1 -1,4 6,3 10,3 8,-1 9,-2 7,-2l-4 -1zm3 7l0 0c0,0 -10,-3 -10,1 -1,4 5,3 8,2 6,-1 7,-2 6,-2l-4 -1zm2 5l0 0c0,0 -9,-4 -10,0 -1,3 5,3 8,3 6,0 8,-1 6,-2l-4 -1zm-6 -27l0 0c0,0 -4,-13 -9,-11 -5,3 1,9 4,11 6,6 8,7 7,4l-2 -5z"/>
   <path class="fil6" d="M74 68c-1,2 -1,0 -1,-7 0,-4 0,-11 4,-9 4,2 -1,12 -1,12l-2 4zm5 1l0 0c0,0 8,-9 5,-11 -3,-3 -6,4 -7,7 -3,7 -2,9 -1,7l3 -3zm2 8l0 0c0,0 8,-5 6,-8 -2,-3 -5,2 -6,5 -3,5 -3,6 -2,5l3 -2zm2 8l0 0c0,0 8,-5 6,-8 -2,-3 -5,2 -6,5 -3,5 -3,6 -2,5l3 -2zm-13 -15l0 0c0,0 -10,-5 -12,-2 -2,4 5,4 9,5 8,0 9,0 7,-1l-4 -2zm1 6l0 0c0,0 -11,-3 -12,1 -1,4 6,3 10,3 8,-1 9,-2 7,-2l-4 -1zm3 7l0 0c0,0 -10,-3 -10,1 -1,4 5,3 8,2 6,-1 7,-2 6,-2l-4 -1zm2 5l0 0c0,0 -9,-4 -10,0 -1,3 5,3 8,3 6,0 8,-1 6,-2l-4 -1zm-6 -27l0 0c0,0 -4,-13 -9,-11 -5,3 1,9 4,11 6,6 8,7 7,4l-2 -5z"/>
   <path class="fil3 str1" d="M62 53c0,0 11,13 13,20 3,8 5,16 5,23"/>
   <line class="fil3 str1" x1="73" y1="68" x2="75" y2= "56" />
   <line class="fil3 str1" x1="75" y1="73" x2="81" y2= "62" />
   <line class="fil3 str1" x1="74" y1="71" x2="63" y2= "69" />
   <line class="fil3 str1" x1="77" y1="79" x2="84" y2= "71" />
   <line class="fil3 str1" x1="76" y1="76" x2="68" y2= "76" />
   <line class="fil3 str1" x1="78" y1="82" x2="71" y2= "83" />
   <line class="fil3 str1" x1="79" y1="86" x2="83" y2= "82" />
   <line class="fil3 str1" x1="80" y1="88" x2="72" y2= "88" />
   <path class="fil5" d="M94 78c-1,0 -1,-1 3,-4 2,-2 6,-5 7,-2 1,3 -7,5 -7,5l-3 1zm2 3l0 0c0,0 9,0 8,-3 0,-3 -5,-1 -7,0 -5,2 -6,3 -4,3l3 0zm-3 5l0 0c0,0 7,1 7,-1 0,-2 -4,-2 -6,-1 -4,1 -5,1 -4,2l3 0zm-3 5l0 0c0,0 7,1 7,-1 0,-2 -4,-2 -6,-1 -4,1 -5,1 -4,2l3 0zm2 -15l0 0c0,0 -2,-8 -5,-7 -3,1 0,5 2,7 3,4 5,5 4,3l-1 -3zm-2 4l0 0c0,0 -4,-8 -6,-6 -3,2 1,5 3,7 4,3 5,4 5,2l-2 -3zm-2 5l0 0c0,0 -3,-6 -6,-5 -2,1 1,4 3,5 4,3 5,3 4,2l-1 -2zm-2 3l0 0c0,0 -3,-7 -5,-6 -2,1 1,4 2,6 3,3 4,3 4,2l-1 -2zm12 -17l0 0c0,0 5,-9 1,-10 -4,-1 -4,5 -4,8 0,6 1,8 1,6l2 -3z"/>
   <path class="fil7" d="M94 78c-1,0 -1,-1 3,-4 2,-2 6,-5 7,-2 1,3 -7,5 -7,5l-3 1zm2 3l0 0c0,0 9,0 8,-3 0,-3 -5,-1 -7,0 -5,2 -6,3 -4,3l3 0zm-3 5l0 0c0,0 7,1 7,-1 0,-2 -4,-2 -6,-1 -4,1 -5,1 -4,2l3 0zm-3 5l0 0c0,0 7,1 7,-1 0,-2 -4,-2 -6,-1 -4,1 -5,1 -4,2l3 0zm2 -15l0 0c0,0 -2,-8 -5,-7 -3,1 0,5 2,7 3,4 5,5 4,3l-1 -3zm-2 4l0 0c0,0 -4,-8 -6,-6 -3,2 1,5 3,7 4,3 5,4 5,2l-2 -3zm-2 5l0 0c0,0 -3,-6 -6,-5 -2,1 1,4 3,5 4,3 5,3 4,2l-1 -2zm-2 3l0 0c0,0 -3,-7 -5,-6 -2,1 1,4 2,6 3,3 4,3 4,2l-1 -2zm12 -17l0 0c0,0 5,-9 1,-10 -4,-1 -4,5 -4,8 0,6 1,8 1,6l2 -3z"/>
   <path class="fil3 str1" d="M96 65c0,0 -2,12 -4,17 -3,5 -6,11 -10,15"/>
   <line class="fil3 str1" x1="94" y1="78" x2="101" y2= "73" />
   <line class="fil3 str1" x1="92" y1="81" x2="101" y2= "79" />
   <line class="fil3 str1" x1="93" y1="80" x2="88" y2= "73" />
   <line class="fil3 str1" x1="90" y1="85" x2="98" y2= "85" />
   <line class="fil3 str1" x1="91" y1="84" x2="87" y2= "79" />
   <line class="fil3 str1" x1="89" y1="88" x2="85" y2= "84" />
   <line class="fil3 str1" x1="87" y1="90" x2="91" y2= "90" />
   <line class="fil3 str1" x1="86" y1="91" x2="83" y2= "87" />
   <path class="fil5" d="M31 68c1,2 1,0 1,-7 0,-4 0,-11 -4,-9 -4,2 1,12 1,12l2 4zm-5 1l0 0c0,0 -8,-9 -5,-11 3,-3 6,4 7,7 3,7 2,9 1,7l-3 -3zm-2 8l0 0c0,0 -8,-5 -6,-8 2,-3 5,2 6,5 3,5 3,6 2,5l-3 -2zm-2 8l0 0c0,0 -8,-5 -6,-8 2,-3 5,2 6,5 3,5 3,6 2,5l-3 -2zm13 -15l0 0c0,0 10,-5 12,-2 2,4 -5,4 -9,5 -8,0 -9,0 -7,-1l4 -2zm-1 6l0 0c0,0 11,-3 12,1 1,4 -6,3 -10,3 -8,-1 -9,-2 -7,-2l4 -1zm-3 7l0 0c0,0 10,-3 10,1 1,4 -5,3 -8,2 -6,-1 -7,-2 -6,-2l4 -1zm-2 5l0 0c0,0 9,-4 10,0 1,3 -5,3 -8,3 -6,0 -8,-1 -6,-2l4 -1zm6 -27l0 0c0,0 4,-13 9,-11 5,3 -1,9 -4,11 -6,6 -8,7 -7,4l2 -5z"/>
   <path class="fil6" d="M31 68c1,2 1,0 1,-7 0,-4 0,-11 -4,-9 -4,2 1,12 1,12l2 4zm-5 1l0 0c0,0 -8,-9 -5,-11 3,-3 6,4 7,7 3,7 2,9 1,7l-3 -3zm-2 8l0 0c0,0 -8,-5 -6,-8 2,-3 5,2 6,5 3,5 3,6 2,5l-3 -2zm-2 8l0 0c0,0 -8,-5 -6,-8 2,-3 5,2 6,5 3,5 3,6 2,5l-3 -2zm13 -15l0 0c0,0 10,-5 12,-2 2,4 -5,4 -9,5 -8,0 -9,0 -7,-1l4 -2zm-1 6l0 0c0,0 11,-3 12,1 1,4 -6,3 -10,3 -8,-1 -9,-2 -7,-2l4 -1zm-3 7l0 0c0,0 10,-3 10,1 1,4 -5,3 -8,2 -6,-1 -7,-2 -6,-2l4 -1zm-2 5l0 0c0,0 9,-4 10,0 1,3 -5,3 -8,3 -6,0 -8,-1 -6,-2l4 -1zm6 -27l0 0c0,0 4,-13 9,-11 5,3 -1,9 -4,11 -6,6 -8,7 -7,4l2 -5z"/>
   <path class="fil3 str1" d="M43 53c0,0 -11,13 -13,20 -3,8 -5,16 -5,23"/>
   <line class="fil3 str1" x1="32" y1="68" x2="30" y2= "56" />
   <line class="fil3 str1" x1="30" y1="73" x2="24" y2= "62" />
   <line class="fil3 str1" x1="30" y1="71" x2="42" y2= "69" />
   <line class="fil3 str1" x1="28" y1="79" x2="21" y2= "71" />
   <line class="fil3 str1" x1="28" y1="76" x2="37" y2= "76" />
   <line class="fil3 str1" x1="27" y1="82" x2="33" y2= "83" />
   <line class="fil3 str1" x1="25" y1="86" x2="22" y2= "82" />
   <line class="fil3 str1" x1="25" y1="88" x2="33" y2= "88" />
   <path class="fil5" d="M11 78c1,0 1,-1 -3,-4 -2,-2 -6,-5 -7,-2 -1,3 7,5 7,5l3 1zm-2 3l0 0c0,0 -9,0 -8,-3 0,-3 5,-1 7,0 5,2 6,3 4,3l-3 0zm3 5l0 0c0,0 -7,1 -7,-1 0,-2 4,-2 6,-1 4,1 5,1 4,2l-3 0zm3 5l0 0c0,0 -7,1 -7,-1 0,-2 4,-2 6,-1 4,1 5,1 4,2l-3 0zm-2 -15l0 0c0,0 2,-8 5,-7 3,1 0,5 -2,7 -3,4 -5,5 -4,3l1 -3zm2 4l0 0c0,0 4,-8 6,-6 3,2 -1,5 -3,7 -4,3 -5,4 -5,2l2 -3zm2 5l0 0c0,0 3,-6 6,-5 2,1 -1,4 -3,5 -4,3 -5,3 -4,2l1 -2zm2 3l0 0c0,0 3,-7 5,-6 2,1 -1,4 -2,6 -3,3 -4,3 -4,2l1 -2zm-12 -17l0 0c0,0 -5,-9 -1,-10 4,-1 4,5 4,8 0,6 -1,8 -1,6l-2 -3z"/>
   <path class="fil7" d="M11 78c1,0 1,-1 -3,-4 -2,-2 -6,-5 -7,-2 -1,3 7,5 7,5l3 1zm-2 3l0 0c0,0 -9,0 -8,-3 0,-3 5,-1 7,0 5,2 6,3 4,3l-3 0zm3 5l0 0c0,0 -7,1 -7,-1 0,-2 4,-2 6,-1 4,1 5,1 4,2l-3 0zm3 5l0 0c0,0 -7,1 -7,-1 0,-2 4,-2 6,-1 4,1 5,1 4,2l-3 0zm-2 -15l0 0c0,0 2,-8 5,-7 3,1 0,5 -2,7 -3,4 -5,5 -4,3l1 -3zm2 4l0 0c0,0 4,-8 6,-6 3,2 -1,5 -3,7 -4,3 -5,4 -5,2l2 -3zm2 5l0 0c0,0 3,-6 6,-5 2,1 -1,4 -3,5 -4,3 -5,3 -4,2l1 -2zm2 3l0 0c0,0 3,-7 5,-6 2,1 -1,4 -2,6 -3,3 -4,3 -4,2l1 -2zm-12 -17l0 0c0,0 -5,-9 -1,-10 4,-1 4,5 4,8 0,6 -1,8 -1,6l-2 -3z"/>
   <path class="fil3 str1" d="M9 65c0,0 2,12 4,17 3,5 6,11 10,15"/>
   <line class="fil3 str1" x1="11" y1="78" x2="4" y2= "73" />
   <line class="fil3 str1" x1="12" y1="81" x2="4" y2= "79" />
   <line class="fil3 str1" x1="12" y1="80" x2="16" y2= "73" />
   <line class="fil3 str1" x1="15" y1="85" x2="7" y2= "85" />
   <line class="fil3 str1" x1="14" y1="84" x2="18" y2= "79" />
   <line class="fil3 str1" x1="16" y1="88" x2="20" y2= "84" />
   <line class="fil3 str1" x1="18" y1="90" x2="13" y2= "90" />
   <line class="fil3 str1" x1="18" y1="91" x2="22" y2= "87" />
   <g>
    <g>
     <polygon class="fil0 str2" points="63,72 35,72 35,67 63,67 "/>
     <g>
      <line class="fil3 str0" x1="35" y1="68" x2="40" y2= "68" />
      <line class="fil3 str0" x1="42" y1="70" x2="42" y2= "70" />
      <line class="fil3 str0" x1="35" y1="70" x2="41" y2= "70" />
      <line class="fil3 str0" x1="35" y1="71" x2="37" y2= "71" />
     </g>
    </g>
    <g>
     <path class="fil0 str2" d="M57 67c0,0 -1,2 0,5l11 0c0,0 -1,-3 0,-5l-11 0z"/>
     <path class="fil3 str2" d="M57 67c0,0 -1,2 0,5l11 0c0,0 -1,-3 0,-5l-11 0z"/>
    </g>
    <path class="fil8" d="M57 67c0,0 -1,2 0,5l11 0c0,0 -1,-3 0,-5l-11 0z"/>
    <path class="fil3 str2" d="M57 67c0,0 -1,2 0,5l11 0c0,0 -1,-3 0,-5l-11 0z"/>
    <path class="fil4 str2" d="M35 71l0 -4c0,0 0,0 0,0l33 0c0,0 0,0 0,0 0,0 0,0 0,0l-34 0c0,0 0,0 0,0l0 5c0,0 0,1 1,1l33 0c0,0 0,0 0,0 0,0 0,0 0,0l-33 0c0,0 -1,0 -1,-1z"/>
   </g>
   <g>
    <g>
     <polygon class="fil0 str2" points="63,84 35,84 35,78 63,78 "/>
     <g>
      <line class="fil3 str0" x1="35" y1="79" x2="40" y2= "79" />
      <line class="fil3 str0" x1="42" y1="81" x2="43" y2= "81" />
      <line class="fil3 str0" x1="35" y1="81" x2="41" y2= "81" />
      <line class="fil3 str0" x1="35" y1="83" x2="38" y2= "83" />
     </g>
    </g>
    <g>
     <path class="fil0 str2" d="M57 79c0,0 -1,2 0,5l11 0c0,0 -1,-3 0,-5l-11 0z"/>
     <path class="fil3 str2" d="M57 79c0,0 -1,2 0,5l11 0c0,0 -1,-3 0,-5l-11 0z"/>
    </g>
    <path class="fil8" d="M57 79c0,0 -1,2 0,5l11 0c0,0 -1,-3 0,-5l-11 0z"/>
    <path class="fil3 str2" d="M57 79c0,0 -1,2 0,5l11 0c0,0 -1,-3 0,-5l-11 0z"/>
    <path class="fil4 str2" d="M35 83l0 -4c0,0 0,0 0,0l33 0c0,0 0,0 0,0 0,0 0,0 0,0l-34 0c0,0 0,0 0,0l0 5c0,0 0,1 1,1l33 0c0,0 0,0 0,0 0,0 0,0 0,0l-33 0c0,0 -1,0 -1,-1z"/>
   </g>
   <g>
    <g>
     <path class="fil0 str2" d="M35 89c0,-1 1,-3 0,-5l32 0 0 5 -32 0z"/>
     <g>
      <line class="fil3 str0" x1="54" y1="85" x2="49" y2= "85" />
      <line class="fil3 str0" x1="48" y1="87" x2="47" y2= "87" />
      <line class="fil3 str0" x1="54" y1="87" x2="49" y2= "87" />
      <line class="fil3 str0" x1="54" y1="89" x2="52" y2= "89" />
     </g>
    </g>
    <path class="fil4 str2" d="M54 89l0 -4c0,0 0,0 0,0l-19 0c0,0 0,0 0,0 0,0 0,0 0,0l34 0c0,0 0,0 0,0l0 5c0,0 0,1 -1,1l-33 0c0,0 0,0 0,0 0,0 0,0 0,0l19 0c0,0 1,0 1,-1z"/>
   </g>
   <path class="fil0 str2" d="M35 95c0,-1 1,-3 0,-5l32 0 0 5 -32 0z"/>
   <line class="fil3 str0" x1="54" y1="91" x2="49" y2= "91" />
   <line class="fil3 str0" x1="48" y1="93" x2="47" y2= "93" />
   <line class="fil3 str0" x1="54" y1="93" x2="49" y2= "93" />
   <line class="fil3 str0" x1="54" y1="95" x2="52" y2= "95" />
   <path class="fil5 str2" d="M54 95l0 -4c0,0 0,0 0,0l-19 0c0,0 0,0 0,0 0,0 0,0 0,0l34 0c0,0 0,0 0,0l0 5c0,0 0,1 -1,1l-33 0c0,0 0,0 0,0 0,0 0,0 0,0l19 0c0,0 1,0 1,-1z"/>
   <g>
    <path class="fil0 str2" d="M35 78c0,-1 1,-3 0,-5l32 0 0 5 -32 0z"/>
    <g>
     <line class="fil3 str0" x1="54" y1="74" x2="49" y2= "74" />
     <line class="fil3 str0" x1="48" y1="75" x2="47" y2= "75" />
     <line class="fil3 str0" x1="54" y1="75" x2="49" y2= "75" />
     <line class="fil3 str0" x1="54" y1="77" x2="52" y2= "77" />
    </g>
   </g>
   <path class="fil5 str2" d="M54 77l0 -4c0,0 0,0 0,0l-19 0c0,0 0,0 0,0 0,0 0,0 0,0l34 0c0,0 0,0 0,0l0 5c0,0 0,1 -1,1l-33 0c0,0 0,0 0,0 0,0 0,0 0,0l19 0c0,0 1,0 1,-1z"/>
   <path class="fil4 str2" d="M47 54c0,0 -3,0 -7,-1 -4,-1 -7,0 -8,3 -1,4 9,8 16,9 7,1 14,2 17,1 3,-1 3,-7 2,-9 -1,-2 -6,-3 -8,-2 -2,0 -13,0 -13,0z"/>
   <path class="fil4 str2" d="M65 38c0,-3 -1,-5 -1,-8 0,-2 0,-5 -1,-7 -1,-3 -2,-5 -5,-6 -4,-1 -7,3 -7,5 0,2 1,6 -1,12 -1,2 2,2 5,1l11 3z"/>
   <path class="fil5 str2" d="M55 32c0,0 -4,1 -6,1 -2,1 -3,1 -3,3 -1,1 -2,7 -3,9 -1,2 -3,3 -3,5 0,2 2,3 3,3 1,0 3,0 3,0 0,0 2,5 7,6 4,0 8,-3 9,-4 2,-1 2,-4 2,-7 0,-3 2,-10 1,-11 0,-2 -1,-2 -4,-4 -1,-1 -4,-1 -5,-1z"/>
   <path class="fil0 str2" d="M42 46c-1,1 -2,2 -2,4 0,0 0,1 0,1 0,0 1,1 3,1 2,-1 2,-3 1,-5 0,0 -1,-1 -1,-1z"/>
   <path class="fil0 str2" d="M55 41c2,-1 3,-2 4,-5 0,-1 1,-2 1,-3 -1,0 -3,-1 -4,-1 0,0 -2,0 -4,1 0,1 -1,4 0,6 1,3 2,3 3,3z"/>
   <path class="fil3 str0" d="M46 51c0,0 1,-3 1,-4 0,-1 -1,-2 -1,-3 0,-1 1,-3 1,-3 0,0 1,-6 1,-7"/>
   <path class="fil0 str2" d="M40 44l1 -1c0,0 1,0 2,1 3,1 4,1 4,3 0,0 2,-1 4,-1 2,0 3,1 4,1 1,0 1,0 1,0l0 1 -1 5 -8 -1 -5 -5 -1 -4z"/>
   <polygon class="fil4 str2" points="40,44 46,49 46,48 55,48 55,54 46,54 46,54 41,51 "/>
   <g>
    <path class="fil0 str2" d="M61 42l0 7c0,0 -4,2 -6,3 -2,1 -3,1 -4,1 0,0 -1,-1 -2,-2 0,0 -1,0 -2,-1 -1,-1 -2,-1 -2,0 0,0 0,1 1,1 1,0 1,1 1,1l0 0c0,0 -1,0 -2,0 -1,0 -2,-1 -2,-1 0,0 -1,0 0,1 0,1 1,1 1,1 0,0 0,1 1,1 1,0 1,1 1,1 0,0 -1,0 -1,0 0,0 1,0 2,1 1,0 3,1 4,1 1,0 4,0 7,0 3,0 7,-2 7,-3 1,-1 0,-7 0,-9 0,-2 -1,-4 -1,-6 0,-1 -1,-3 -2,-4 -1,0 -2,1 -2,7z"/>
    <g>
     <path class="fil0" d="M48 53l-3 -1c0,0 2,1 3,1z"/>
     <path class="fil3 str0" d="M45 52c0,0 2,1 3,1"/>
     <path class="fil0" d="M48 54l-2 0c0,0 1,0 2,0z"/>
     <path class="fil3 str0" d="M47 54c0,0 1,0 2,0"/>
     <path class="fil0" d="M48 54l-3 -1c0,0 1,1 3,1z"/>
     <path class="fil3 str0" d="M45 53c0,0 1,1 3,1"/>
    </g>
   </g>
   <path class="fil5 str2" d="M59 55c3,0 6,-2 6,-2 1,-1 0,-7 0,-9 0,-2 -1,-4 -1,-6 0,-1 -1,-3 -2,-4 -1,0 -2,1 -2,7l0 7c0,0 -1,1 -3,2 1,1 2,2 2,4z"/>
   <g>
    <path class="fil0 str2" d="M53 32c0,0 -1,3 -1,5 0,2 2,4 4,2 2,-3 2,-7 2,-7 0,0 -2,1 -5,0z"/>
    <path class="fil3 str0" d="M53 33c0,0 0,2 0,3"/>
   </g>
   <g>
    <path class="fil0 str2" d="M40 49c0,0 0,0 0,1 0,0 2,1 2,1 0,0 -1,-1 -1,-1 0,0 0,-1 0,-1 0,0 0,-1 -1,0z"/>
    <path class="fil0 str2" d="M39 47c0,0 0,1 0,1 0,0 2,2 2,1 0,0 -1,-1 -1,-2 0,0 -1,-1 -1,-1z"/>
    <path class="fil0 str2" d="M39 46c0,0 0,1 0,1 0,0 2,2 2,2 0,0 -1,-1 -1,-2 0,0 -1,-1 -1,-1z"/>
    <path class="fil0 str2" d="M40 45c0,0 -1,-1 -1,0 0,1 1,1 1,2 1,1 1,0 1,0 0,-1 -1,-2 -1,-2z"/>
   </g>
   <path class="fil0 str2" d="M40 66c0,0 -1,1 -4,1 -2,0 -4,-1 -3,-2 1,-1 3,-2 4,-1 2,0 4,1 4,1l-1 2z"/>
   <path class="fil0 str2" d="M40 64c0,0 0,0 0,0 -1,0 -2,-1 -3,-1 -2,0 -3,0 -4,1 -1,1 0,1 0,2 0,0 0,-1 1,-2 1,-1 5,-1 6,-1z"/>
   <g>
    <path class="fil4" d="M40 66l27 -7c0,0 -3,4 -5,5 -3,2 -15,2 -17,2 -2,0 -5,0 -5,0z"/>
    <path class="fil3 str0" d="M67 58c0,0 -3,4 -5,5 -3,2 -15,2 -17,2 -2,0 -5,0 -5,0"/>
    <line class="fil3 str0" x1="40" y1="66" x2="40" y2= "64" />
    <path class="fil4" d="M69 59l-29 5c0,0 8,-1 12,-4 4,-3 7,-5 10,-6 3,-1 7,1 6,5z"/>
    <path class="fil3 str0" d="M40 64c0,0 8,-1 12,-4 4,-3 7,-5 10,-6 3,-1 7,1 6,5"/>
    <g>
     <path class="fil3 str3" d="M65 61c-1,1 -4,3 -8,4"/>
     <path class="fil3 str3" d="M67 59c0,0 0,0 -1,1"/>
     <path class="fil3 str3" d="M54 60c0,0 -2,1 -4,2"/>
    </g>
   </g>
   <path class="fil4" d="M38 55l0 0c0,0 0,0 0,0z"/>
   <path class="fil3 str0" d="M38 55c0,0 0,0 0,0"/>
   <path class="fil0 str2" d="M63 66c0,0 2,-1 4,-1 2,0 3,0 4,1 1,1 0,3 -2,3 -2,0 -5,0 -5,0 0,0 -1,0 -1,0l0 -2z"/>
   <path class="fil0 str2" d="M69 65c1,0 2,1 1,2 0,2 -2,2 -4,2 0,0 0,0 0,0 1,0 2,0 3,0 2,0 2,-2 2,-3 0,-1 -1,-1 -2,-1z"/>
   <g>
    <path class="fil4" d="M63 68l-25 -16c0,0 -3,-1 -5,1 -2,1 -2,3 0,5 2,2 7,6 17,8 10,2 13,1 13,1z"/>
    <path class="fil3 str0" d="M37 53c0,0 -3,-1 -5,1 -2,1 -2,3 0,5 2,2 7,6 17,8 10,2 13,1 13,1"/>
    <line class="fil3 str0" x1="63" y1="68" x2="63" y2= "66" />
    <path class="fil4" d="M38 55l25 11c0,0 -6,0 -12,-4 -6,-4 -8,-7 -12,-7z"/>
    <path class="fil3 str0" d="M63 66c0,0 -6,0 -12,-4 -6,-4 -8,-7 -12,-7"/>
    <path class="fil3 str3" d="M37 55c0,0 -1,0 -1,0"/>
    <path class="fil3 str3" d="M62 66c0,0 -6,0 -13,-5 -5,-4 -8,-5 -10,-6"/>
   </g>
   <g>
    <path class="fil0 str2" d="M61 28c-2,1 -2,-1 -2,-2 0,0 0,0 0,0 0,0 0,-3 -1,-4 -1,-1 -3,-2 -4,-2 -1,0 -2,1 -3,2 -1,1 -1,2 -1,3 0,1 0,2 0,4 0,2 2,5 3,5 2,0 4,-2 5,-4 0,0 0,0 1,0 0,0 1,-1 1,-2z"/>
    <path class="fil3 str0" d="M54 27c0,0 -1,2 -1,2 0,0 1,0 1,0"/>
    <path class="fil3 str0" d="M54 30c0,0 1,1 2,0"/>
    <path class="fil3 str0" d="M56 28c0,0 1,1 2,0"/>
    <path class="fil3 str0" d="M51 27c0,0 0,1 2,1"/>
    <path class="fil3 str0" d="M54 26c0,0 -1,-2 -3,-1"/>
    <path class="fil3 str0" d="M59 28c0,-1 -1,-2 -2,-2 -1,0 -2,1 -2,2 0,1 1,2 2,2 1,0 2,-1 2,-2z"/>
    <path class="fil3 str0" d="M54 27c0,-1 -1,-2 -2,-2 -1,0 -2,1 -2,2 0,1 1,2 2,2 1,0 2,-1 2,-2z"/>
    <line class="fil3 str0" x1="59" y1="28" x2="61" y2= "28" />
    <line class="fil3 str0" x1="50" y1="27" x2="51" y2= "26" />
    <g>
     <path class="fil4 str2" d="M52 22c0,0 2,-1 2,0 1,1 4,8 7,6 3,-2 0,-7 -3,-8 -3,-2 -6,0 -6,2z"/>
     <path class="fil3 str3" d="M54 21c0,0 -1,-1 -2,0 -1,0 -1,1 -1,1"/>
     <path class="fil3 str3" d="M62 26c0,0 0,0 1,0"/>
     <path class="fil3 str3" d="M54 19c0,0 2,-2 4,1 1,2 2,4 3,5"/>
    </g>
    <path class="fil3 str3" d="M57 25c0,0 1,-1 3,0"/>
   </g>
   <path class="fil3 str0" d="M54 45c0,0 2,2 5,2"/>
  </g>
 </g>
</svg>
