<?xml version="1.0" encoding="UTF-8"?>
<!DOCTYPE svg PUBLIC "-//W3C//DTD SVG 1.1//EN" "http://www.w3.org/Graphics/SVG/1.1/DTD/svg11.dtd">
<!-- Creator: CorelDRAW 2017 -->
<svg xmlns="http://www.w3.org/2000/svg" xml:space="preserve" width="36.7mm" height="36.7mm" version="1.1" style="shape-rendering:geometricPrecision; text-rendering:geometricPrecision; image-rendering:optimizeQuality; fill-rule:evenodd; clip-rule:evenodd"
viewBox="0 0 8.19 8.19"
 xmlns:xlink="http://www.w3.org/1999/xlink">
 <defs>
  <style type="text/css">
   <![CDATA[
    .fil1 {fill:#F8F9FB}
    .fil0 {fill:#A9BCBC}
   ]]>
  </style>
 </defs>
 <g id="Layer_x0020_1">
  <metadata id="CorelCorpID_0Corel-Layer"/>
  <path class="fil0" d="M4.1 0c2.26,0 4.1,1.83 4.1,4.1 0,2.26 -1.83,4.1 -4.1,4.1 -2.26,0 -4.1,-1.83 -4.1,-4.1 0,-2.26 1.83,-4.1 4.1,-4.1z"/>
  <path class="fil1" d="M2.26 2.78l0.52 -0.52c0.08,-0.08 0.2,-0.08 0.28,0l1.03 1.03 1.03 -1.03c0.08,-0.08 0.2,-0.08 0.28,-0l0.52 0.52c0.08,0.08 0.08,0.2 0,0.28l-1.03 1.03 1.03 1.03c0.08,0.08 0.08,0.2 0,0.28l-0.52 0.52c-0.08,0.08 -0.2,0.08 -0.28,-0l-1.03 -1.03 -1.03 1.03c-0.08,0.08 -0.2,0.08 -0.28,0l-0.52 -0.52c-0.08,-0.08 -0.08,-0.2 0,-0.28l1.03 -1.03 -1.03 -1.03c-0.08,-0.08 -0.08,-0.2 -0,-0.28z"/>
 </g>
</svg>
