<?xml version="1.0" encoding="UTF-8"?>
<!DOCTYPE svg PUBLIC "-//W3C//DTD SVG 1.1//EN" "http://www.w3.org/Graphics/SVG/1.1/DTD/svg11.dtd">
<!-- Creator: CorelDRAW 2017 -->
<svg xmlns="http://www.w3.org/2000/svg" xml:space="preserve" width="563.362mm" height="318.707mm" version="1.1" style="shape-rendering:geometricPrecision; text-rendering:geometricPrecision; image-rendering:optimizeQuality; fill-rule:evenodd; clip-rule:evenodd"
viewBox="0 0 2867.02 1621.94"
 xmlns:xlink="http://www.w3.org/1999/xlink">
 <defs>
  <style type="text/css">
   <![CDATA[
    .str0 {stroke:#CFCFCF;stroke-width:2.25;stroke-linecap:round;stroke-linejoin:round;stroke-miterlimit:10}
    .str2 {stroke:white;stroke-width:0.47;stroke-linecap:round;stroke-linejoin:round;stroke-miterlimit:10}
    .str1 {stroke:#263138;stroke-width:1.8;stroke-linecap:round;stroke-linejoin:round;stroke-miterlimit:10}
    .fil8 {fill:none}
    .fil4 {fill:none;fill-rule:nonzero}
    .fil13 {fill:#2089E0}
    .fil15 {fill:#2089E0}
    .fil11 {fill:#2095F2}
    .fil12 {fill:#462D3B}
    .fil14 {fill:#543646}
    .fil10 {fill:#D6D6D6}
    .fil9 {fill:white}
    .fil2 {fill:#2095F2;fill-rule:nonzero}
    .fil6 {fill:#263138;fill-rule:nonzero}
    .fil0 {fill:#DDF0FF;fill-rule:nonzero}
    .fil7 {fill:white;fill-rule:nonzero}
    .fil5 {fill:#E8E8E8;fill-rule:nonzero;fill-opacity:0.650980}
    .fil3 {fill:white;fill-rule:nonzero;fill-opacity:0.650980}
    .fil1 {fill:#DDF0FF;fill-rule:nonzero;fill-opacity:0.800000}
   ]]>
  </style>
 </defs>
 <g id="Layer_x0020_1">
  <metadata id="CorelCorpID_0Corel-Layer"/>
  <g id="_2259713076512">
   <g>
    <path class="fil0" d="M2388.84 305.5c0,0 -134.58,-261.58 -431.79,-300.34 -297.2,-38.75 -504.68,150.17 -723.38,247.05 -114.53,50.74 -245.34,31.03 -366.93,55.59 -388.76,78.52 -535.22,570.49 -373.28,850.26 140.19,242.21 386.92,368.15 762.63,397.22 375.71,29.07 639.27,62.97 975.72,-174.39 336.46,-237.36 314.03,-731.46 157.01,-1075.39z"/>
    <path class="fil1" d="M2388.84 305.5c0,0 -134.58,-261.58 -431.79,-300.34 -297.2,-38.75 -504.68,150.17 -723.38,247.05 -114.53,50.74 -245.34,31.03 -366.93,55.59 -388.76,78.52 -535.22,570.49 -373.28,850.26 140.19,242.21 386.92,368.15 762.63,397.22 375.71,29.07 639.27,62.97 975.72,-174.39 336.46,-237.36 314.03,-731.46 157.01,-1075.39z"/>
   </g>
   <g>
    <path class="fil2" d="M652.18 1030.31c15.31,37.77 31,7.4 28.51,-150.93 -1.16,-74.2 -6.39,-225.81 -88.45,-192.44 -78.85,32.06 25.06,256.22 25.06,256.22l34.89 87.14zm-112.7 22.45l0 0c0,0 -171.07,-178.27 -106.91,-234.2 66.78,-58.21 120.96,83.49 146.16,153.29 53.77,148.93 48.79,182.75 22.05,152.01l-61.3 -71.09zm-36.07 159.99l0 0c0,0 -156.63,-111.51 -115.68,-163.56 42.62,-54.18 104.58,46.3 133.96,96.01 62.69,106.07 63.79,132.65 38.89,113.02l-57.17 -45.47zm-42.4 159.52l0 0c0,0 -156.63,-111.51 -115.68,-163.56 42.62,-54.18 104.58,46.3 133.96,96.01 62.69,106.08 63.79,132.65 38.89,113.02l-57.16 -45.47zm273.53 -320.71l0 0c0,0 219.16,-114.08 254.81,-36.78 37.1,80.45 -114.12,92.62 -188.18,97.19 -158.04,9.74 -189.1,-4.54 -152.07,-21.56l85.45 -38.85zm-30.86 125.58l0 0c0,0 237.47,-68.23 257.03,14.6 20.37,86.22 -130.25,68.09 -203.75,57.84 -156.82,-21.87 -184.42,-42.04 -144.76,-51.36l91.47 -21.08zm-54.36 136.91l0 0c0,0 202.39,-52.21 217.03,18.3 15.23,73.38 -111.72,54.57 -173.64,44.2 -132.11,-22.12 -154.99,-39.81 -121.23,-46.78l77.84 -15.71zm-31.68 113.03l0 0c0,0 195.71,-73.4 217.74,-4.84 22.93,71.35 -105.3,66.12 -167.97,62.38 -133.71,-7.97 -158.34,-23.14 -125.51,-33.65l75.73 -23.89zm131.03 -572.58l0 0c0,0 89.35,-277.66 190.77,-227.23 105.56,52.49 -16.41,177.71 -77.41,237.65 -130.17,127.9 -170.43,136.88 -153.3,92.22l39.94 -102.64z"/>
    <path class="fil3" d="M652.18 1030.31c15.31,37.77 31,7.4 28.51,-150.93 -1.16,-74.2 -6.39,-225.81 -88.45,-192.44 -78.85,32.06 25.06,256.22 25.06,256.22l34.89 87.14zm-112.7 22.45l0 0c0,0 -171.07,-178.27 -106.91,-234.2 66.78,-58.21 120.96,83.49 146.16,153.29 53.77,148.93 48.79,182.75 22.05,152.01l-61.3 -71.09zm-36.07 159.99l0 0c0,0 -156.63,-111.51 -115.68,-163.56 42.62,-54.18 104.58,46.3 133.96,96.01 62.69,106.07 63.79,132.65 38.89,113.02l-57.17 -45.47zm-42.4 159.52l0 0c0,0 -156.63,-111.51 -115.68,-163.56 42.62,-54.18 104.58,46.3 133.96,96.01 62.69,106.08 63.79,132.65 38.89,113.02l-57.16 -45.47zm273.53 -320.71l0 0c0,0 219.16,-114.08 254.81,-36.78 37.1,80.45 -114.12,92.62 -188.18,97.19 -158.04,9.74 -189.1,-4.54 -152.07,-21.56l85.45 -38.85zm-30.86 125.58l0 0c0,0 237.47,-68.23 257.03,14.6 20.37,86.22 -130.25,68.09 -203.75,57.84 -156.82,-21.87 -184.42,-42.04 -144.76,-51.36l91.47 -21.08zm-54.36 136.91l0 0c0,0 202.39,-52.21 217.03,18.3 15.23,73.38 -111.72,54.57 -173.64,44.2 -132.11,-22.12 -154.99,-39.81 -121.23,-46.78l77.84 -15.71zm-31.68 113.03l0 0c0,0 195.71,-73.4 217.74,-4.84 22.93,71.35 -105.3,66.12 -167.97,62.38 -133.71,-7.97 -158.34,-23.14 -125.51,-33.65l75.73 -23.89zm131.03 -572.58l0 0c0,0 89.35,-277.66 190.77,-227.23 105.56,52.49 -16.41,177.71 -77.41,237.65 -130.17,127.9 -170.43,136.88 -153.3,92.22l39.94 -102.64z"/>
    <path class="fil4 str0" d="M897 726.19c0,0 -224.39,273.77 -278.08,410.82 -61.68,157.46 -103.7,334.85 -112.03,481.76"/>
    <line class="fil4 str0" x1="663.59" y1="1047.61" x2="632.38" y2= "786.53" />
    <line class="fil4 str0" x1="618.92" y1="1137.01" x2="506.04" y2= "917.57" />
    <line class="fil4 str0" x1="635.4" y1="1104.49" x2="871.81" y2= "1056.33" />
    <line class="fil4 str0" x1="574.5" y1="1261.52" x2="435.5" y2= "1103.16" />
    <line class="fil4 str0" x1="593.93" y1="1209.36" x2="772.4" y2= "1207.81" />
    <line class="fil4 str0" x1="559.57" y1="1338.93" x2="696.44" y2= "1344.35" />
    <line class="fil4 str0" x1="531.45" y1="1421.62" x2="458.15" y2= "1323.92" />
    <line class="fil4 str0" x1="526.09" y1="1457.95" x2="686.18" y2= "1449.99" />
    <path class="fil2" d="M220.6 1246.55c27.61,10.42 19.17,-12.85 -66.27,-89.35 -40.04,-35.85 -123.26,-107.6 -145.84,-47.54 -21.7,57.7 148.61,112.62 148.61,112.62l63.5 24.28zm-43.46 70.99l0 0c0,0 -178.91,3.37 -177.13,-58.25 1.86,-64.14 103.86,-23.31 153.38,-2.4 105.65,44.61 121.19,63.88 91.69,62.99l-67.94 -2.34zm67.37 97.83l0 0c0,0 -136.3,28.5 -143.86,-18.87 -7.87,-49.3 76.03,-32.87 116.92,-24.06 87.24,18.79 101.92,31.27 79.23,34.87l-52.29 8.06zm64.01 100.96l0 0c0,0 -136.3,28.5 -143.87,-18.86 -7.87,-49.31 76.03,-32.87 116.92,-24.06 87.24,18.79 101.91,31.27 79.23,34.87l-52.29 8.06zm-36.15 -303.14l0 0c0,0 47.05,-172.65 105.68,-153.62 61.03,19.81 -6.82,106.23 -40.8,147.87 -72.5,88.86 -95.36,98.36 -86.22,70.3l21.34 -64.55zm51.63 78.14l0 0c0,0 80.43,-159.85 134.11,-129.55 55.87,31.55 -27.8,102.75 -69.38,136.81 -88.72,72.67 -113.01,77.44 -98.47,51.76l33.74 -59.02zm46.11 96.21l0 0c0,0 71.71,-133.32 116.41,-106.45 46.52,27.97 -25.89,86.25 -61.84,114.09 -76.7,59.4 -97.36,62.87 -84.47,41.49l29.9 -49.13zm44.55 72.41l0 0c0,0 57.16,-140.18 104.45,-118.21 49.23,22.87 -16.59,88.51 -49.38,120.01 -69.97,67.21 -90.14,72.85 -79.59,50.22l24.52 -52.02zm-240.17 -351.14l0 0c0,0 -103.78,-184.01 -27.1,-213.17 79.81,-30.35 86.47,96.08 88.37,157.99 4.05,132.11 -10.96,157.94 -26.3,126.87l-34.97 -71.7z"/>
    <path class="fil5" d="M220.6 1246.55c27.61,10.42 19.17,-12.85 -66.27,-89.35 -40.04,-35.85 -123.26,-107.6 -145.84,-47.54 -21.7,57.7 148.61,112.62 148.61,112.62l63.5 24.28zm-43.46 70.99l0 0c0,0 -178.91,3.37 -177.13,-58.25 1.86,-64.14 103.86,-23.31 153.38,-2.4 105.65,44.61 121.19,63.88 91.69,62.99l-67.94 -2.34zm67.37 97.83l0 0c0,0 -136.3,28.5 -143.86,-18.87 -7.87,-49.3 76.03,-32.87 116.92,-24.06 87.24,18.79 101.92,31.27 79.23,34.87l-52.29 8.06zm64.01 100.96l0 0c0,0 -136.3,28.5 -143.87,-18.86 -7.87,-49.31 76.03,-32.87 116.92,-24.06 87.24,18.79 101.91,31.27 79.23,34.87l-52.29 8.06zm-36.15 -303.14l0 0c0,0 47.05,-172.65 105.68,-153.62 61.03,19.81 -6.82,106.23 -40.8,147.87 -72.5,88.86 -95.36,98.36 -86.22,70.3l21.34 -64.55zm51.63 78.14l0 0c0,0 80.43,-159.85 134.11,-129.55 55.87,31.55 -27.8,102.75 -69.38,136.81 -88.72,72.67 -113.01,77.44 -98.47,51.76l33.74 -59.02zm46.11 96.21l0 0c0,0 71.71,-133.32 116.41,-106.45 46.52,27.97 -25.89,86.25 -61.84,114.09 -76.7,59.4 -97.36,62.87 -84.47,41.49l29.9 -49.13zm44.55 72.41l0 0c0,0 57.16,-140.18 104.45,-118.21 49.23,22.87 -16.59,88.51 -49.38,120.01 -69.97,67.21 -90.14,72.85 -79.59,50.22l24.52 -52.02zm-240.17 -351.14l0 0c0,0 -103.78,-184.01 -27.1,-213.17 79.81,-30.35 86.47,96.08 88.37,157.99 4.05,132.11 -10.96,157.94 -26.3,126.87l-34.97 -71.7z"/>
    <path class="fil4 str0" d="M179.17 966.84c0,0 35.33,253.93 81.84,349.85 53.44,110.2 134.07,227.49 208.12,304.13"/>
    <line class="fil4 str0" x1="235.41" y1="1248.98" x2="81.2" y2= "1137.25" />
    <line class="fil4 str0" x1="261.01" y1="1316.69" x2="88.8" y2= "1268.87" />
    <line class="fil4 str0" x1="251.81" y1="1291.93" x2="342.4" y2= "1142.51" />
    <line class="fil4 str0" x1="305.41" y1="1401.51" x2="152.85" y2= "1397.61" />
    <line class="fil4 str0" x1="287.21" y1="1365.54" x2="374.11" y2= "1269.84" />
    <line class="fil4 str0" x1="339.24" y1="1447.5" x2="409.4" y2= "1377.36" />
    <line class="fil4 str0" x1="369.4" y1="1503.11" x2="281.41" y2= "1494.07" />
    <line class="fil4 str0" x1="386.1" y1="1523.81" x2="460.55" y2= "1434.75" />
    <path class="fil6" d="M793.12 762.33l6 0.57c-1.98,-0.22 -3.98,-0.41 -6,-0.57z"/>
    <path class="fil4 str1" d="M799.12 762.9c-1.98,-0.22 -3.98,-0.41 -6,-0.57"/>
   </g>
   <g>
    <path class="fil2" d="M2269.17 948.9c-25.01,32.17 -31.84,-1.33 13.68,-152.98 21.33,-71.08 67.65,-215.54 137.52,-161.08 67.13,52.32 -93.9,239.71 -93.9,239.71l-57.3 74.35zm102.33 52.3l0 0c0,0 213.16,-124.93 166.66,-196.23 -48.4,-74.2 -139.13,47.38 -182.38,107.68 -92.3,128.66 -96.72,162.55 -62.62,140.25l78.34 -51.71zm-8.87 163.77l0 0c0,0 181.08,-64.63 155.85,-125.87 -26.25,-63.74 -113.23,16.07 -155.04,55.9 -89.21,84.99 -97.5,110.27 -68.2,98.16l67.39 -28.18zm-2.65 165.03l0 0c0,0 181.08,-64.63 155.86,-125.87 -26.25,-63.74 -113.24,16.06 -155.05,55.9 -89.21,84.99 -97.5,110.27 -68.2,98.16l67.39 -28.18zm-175.84 -383.09l0 0c0,0 -179.81,-169.46 -235.15,-104.79 -57.61,67.3 84.57,120.2 154.6,144.77 149.41,52.42 183.19,47.14 152.2,20.68l-71.64 -60.65zm-4.51 129.24l0 0c0,0 -209.9,-130.33 -251.29,-55.96 -43.08,77.41 106.78,100.99 180.29,111.15 156.85,21.67 188.9,9.78 153.27,-9.99l-82.27 -45.2zm15.01 146.54l0 0c0,0 -180.52,-105.36 -213.8,-41.51 -34.64,66.46 92.64,82.93 155.04,89.82 133.14,14.7 159.97,3.91 129.38,-11.99l-70.62 -36.32zm-0.3 117.38l0 0c0,0 -168.32,-123.93 -208.19,-63.97 -41.5,62.41 83.31,92.3 144.62,105.77 130.83,28.75 158.66,20.86 129.93,1.81l-66.36 -43.61zm29.88 -586.62l0 0c0,0 -10.35,-291.5 -121.67,-270.6 -115.87,21.76 -32.62,175.46 9.76,249.75 90.41,158.52 126.71,178.13 122.39,130.49l-10.48 -109.64z"/>
    <path class="fil3" d="M2269.17 948.9c-25.01,32.17 -31.84,-1.33 13.68,-152.98 21.33,-71.08 67.65,-215.54 137.52,-161.08 67.13,52.32 -93.9,239.71 -93.9,239.71l-57.3 74.35zm102.33 52.3l0 0c0,0 213.16,-124.93 166.66,-196.23 -48.4,-74.2 -139.13,47.38 -182.38,107.68 -92.3,128.66 -96.72,162.55 -62.62,140.25l78.34 -51.71zm-8.87 163.77l0 0c0,0 181.08,-64.63 155.85,-125.87 -26.25,-63.74 -113.23,16.07 -155.04,55.9 -89.21,84.99 -97.5,110.27 -68.2,98.16l67.39 -28.18zm-2.65 165.03l0 0c0,0 181.08,-64.63 155.86,-125.87 -26.25,-63.74 -113.24,16.06 -155.05,55.9 -89.21,84.99 -97.5,110.27 -68.2,98.16l67.39 -28.18zm-175.84 -383.09l0 0c0,0 -179.81,-169.46 -235.15,-104.79 -57.61,67.3 84.57,120.2 154.6,144.77 149.41,52.42 183.19,47.14 152.2,20.68l-71.64 -60.65zm-4.51 129.24l0 0c0,0 -209.9,-130.33 -251.29,-55.96 -43.08,77.41 106.78,100.99 180.29,111.15 156.85,21.67 188.9,9.78 153.27,-9.99l-82.27 -45.2zm15.01 146.54l0 0c0,0 -180.52,-105.36 -213.8,-41.51 -34.64,66.46 92.64,82.93 155.04,89.82 133.14,14.7 159.97,3.91 129.38,-11.99l-70.62 -36.32zm-0.3 117.38l0 0c0,0 -168.32,-123.93 -208.19,-63.97 -41.5,62.41 83.31,92.3 144.62,105.77 130.83,28.75 158.66,20.86 129.93,1.81l-66.36 -43.61zm29.88 -586.62l0 0c0,0 -10.35,-291.5 -121.67,-270.6 -115.87,21.76 -32.62,175.46 9.76,249.75 90.41,158.52 126.71,178.13 122.39,130.49l-10.48 -109.64z"/>
    <path class="fil4 str0" d="M2116.44 589.6c0,0 141.34,324.54 155.67,471.03 16.46,168.3 8.58,350.44 -23.42,494.06"/>
    <line class="fil4 str0" x1="2253.48" y1="962.43" x2="2354.62" y2= "719.72" />
    <line class="fil4 str0" x1="2272.11" y1="1060.63" x2="2440.49" y2= "880.23" />
    <line class="fil4 str0" x1="2265.11" y1="1024.84" x2="2050.75" y2= "914.12" />
    <line class="fil4 str0" x1="2280.94" y1="1192.52" x2="2457.81" y2= "1078.01" />
    <line class="fil4 str0" x1="2276.45" y1="1137.04" x2="2105.15" y2= "1086.94" />
    <line class="fil4 str0" x1="2274.22" y1="1271.07" x2="2141.05" y2= "1239" />
    <line class="fil4 str0" x1="2278.76" y1="1358.3" x2="2375.9" y2= "1284.25" />
    <line class="fil4 str0" x1="2274.01" y1="1394.71" x2="2122.15" y2= "1343.45" />
    <path class="fil2" d="M2625.54 1274.51c-29.41,2.51 -14.94,-17.59 88.1,-67.92 48.29,-23.59 147.9,-69.96 153.28,-6.02 5.17,61.43 -173.66,67.88 -173.66,67.88l-67.71 6.06zm22.48 80.14l0 0c0,0 171.23,51.98 186.3,-7.8 15.68,-62.22 -93.59,-50.72 -146.93,-44.09 -113.8,14.14 -134.01,28.45 -105.38,35.63l66.01 16.26zm-91.47 75.78l0 0c0,0 123.38,64.55 143.56,21.03 21,-45.3 -64.21,-52.33 -105.94,-55 -89.06,-5.68 -106.58,2.33 -85.73,11.97l48.11 21.99zm-89.09 79.71l0 0c0,0 123.38,64.55 143.56,21.03 21,-45.3 -64.2,-52.34 -105.94,-55 -89.06,-5.68 -106.58,2.33 -85.73,11.97l48.11 21.99zm117.35 -281.83l0 0c0,0 1.76,-178.94 -59.84,-176.6 -64.12,2.44 -22.37,104.07 -1.02,153.39 45.56,105.24 64.97,120.61 63.81,91.12l-2.95 -67.92zm-70.96 61.13l0 0c0,0 -33.85,-175.72 -93.75,-161.18 -62.35,15.14 -1.23,106.44 29.5,150.53 65.57,94.09 87.65,105.29 80.65,76.62l-16.39 -65.98zm-70.57 80.02l0 0c0,0 -32.69,-147.81 -83.01,-134.13 -52.38,14.24 1.42,90.04 28.43,126.62 57.62,78.05 76.55,87.01 69.98,62.93l-15.39 -55.41zm-62.59 57.53l0 0c0,0 -16.81,-150.45 -68.3,-142.18 -53.59,8.6 -8.15,89.68 14.83,128.92 49.01,83.72 66.89,94.65 62.9,70l-9.42 -56.74zm326.73 -272.45l0 0c0,0 149.97,-148.79 84.14,-197.72 -68.52,-50.94 -109.36,68.89 -128.05,127.95 -39.88,126.01 -32.47,154.95 -9.25,129.24l53.17 -59.47z"/>
    <path class="fil5" d="M2625.54 1274.51c-29.41,2.51 -14.94,-17.59 88.1,-67.92 48.29,-23.59 147.9,-69.96 153.28,-6.02 5.17,61.43 -173.66,67.88 -173.66,67.88l-67.71 6.06zm22.48 80.14l0 0c0,0 171.23,51.98 186.3,-7.8 15.68,-62.22 -93.59,-50.72 -146.93,-44.09 -113.8,14.14 -134.01,28.45 -105.38,35.63l66.01 16.26zm-91.47 75.78l0 0c0,0 123.38,64.55 143.56,21.03 21,-45.3 -64.21,-52.33 -105.94,-55 -89.06,-5.68 -106.58,2.33 -85.73,11.97l48.11 21.99zm-89.09 79.71l0 0c0,0 123.38,64.55 143.56,21.03 21,-45.3 -64.2,-52.34 -105.94,-55 -89.06,-5.68 -106.58,2.33 -85.73,11.97l48.11 21.99zm117.35 -281.83l0 0c0,0 1.76,-178.94 -59.84,-176.6 -64.12,2.44 -22.37,104.07 -1.02,153.39 45.56,105.24 64.97,120.61 63.81,91.12l-2.95 -67.92zm-70.96 61.13l0 0c0,0 -33.85,-175.72 -93.75,-161.18 -62.35,15.14 -1.23,106.44 29.5,150.53 65.57,94.09 87.65,105.29 80.65,76.62l-16.39 -65.98zm-70.57 80.02l0 0c0,0 -32.69,-147.81 -83.01,-134.13 -52.38,14.24 1.42,90.04 28.43,126.62 57.62,78.05 76.55,87.01 69.98,62.93l-15.39 -55.41zm-62.59 57.53l0 0c0,0 -16.81,-150.45 -68.3,-142.18 -53.59,8.6 -8.15,89.68 14.83,128.92 49.01,83.72 66.89,94.65 62.9,70l-9.42 -56.74zm326.73 -272.45l0 0c0,0 149.97,-148.79 84.14,-197.72 -68.52,-50.94 -109.36,68.89 -128.05,127.95 -39.88,126.01 -32.47,154.95 -9.25,129.24l53.17 -59.47z"/>
    <path class="fil4 str0" d="M2741.59 1016.66c0,0 -103.16,234.7 -174.04,314.33 -81.43,91.48 -190.96,182.38 -283.09,235.95"/>
    <line class="fil4 str0" x1="2610.63" y1="1272.81" x2="2789.44" y2= "1207.31" />
    <line class="fil4 str0" x1="2567.55" y1="1330.99" x2="2746.28" y2= "1331.88" />
    <line class="fil4 str0" x1="2583.15" y1="1309.67" x2="2536.68" y2= "1141.23" />
    <line class="fil4 str0" x1="2501.73" y1="1400.51" x2="2649.58" y2= "1438.31" />
    <line class="fil4 str0" x1="2529.04" y1="1370.86" x2="2471.49" y2= "1255.11" />
    <line class="fil4 str0" x1="2456.64" y1="1435.55" x2="2408.25" y2= "1348.95" />
    <line class="fil4 str0" x1="2412.48" y1="1480.84" x2="2499.61" y2= "1496.11" />
    <line class="fil4 str0" x1="2390.78" y1="1496.22" x2="2343.4" y2= "1390.24" />
   </g>
   <g>
    <path class="fil7" d="M2508.59 1034.71c-98.26,68.33 -190.39,145.4 -275.24,229.78 -84.54,84.7 -161.68,176.75 -230.12,274.92 -0.21,0.3 -0.62,0.37 -0.92,0.16 -0.3,-0.21 -0.37,-0.61 -0.16,-0.91 68.56,-98.17 145.83,-190.21 230.48,-274.89 84.96,-84.35 177.19,-161.38 275.55,-229.65 0.16,-0.11 0.38,-0.08 0.49,0.09 0.11,0.16 0.07,0.38 -0.09,0.5z"/>
   </g>
   <path class="fil8 str2" d="M2117.87 1283.78c0.89,9.6 2.65,27.95 4.63,46.36 1.94,18.41 4.04,36.81 5.32,47.27"/>
   <path class="fil9" d="M1406.98 696.87l-732.38 0c29.05,105.35 28.51,201.5 0,288.93l732.38 0c67.52,-0.51 68.94,-287.71 0,-288.93z"/>
   <polygon class="fil10" points="729.21,745.44 1368.21,745.44 1368.21,739.57 729.21,739.57 "/>
   <polygon class="fil10" points="757.59,811.98 1353.53,811.98 1353.53,806.11 757.59,806.11 "/>
   <polygon class="fil10" points="810.43,892.22 1403.44,892.22 1403.44,886.35 810.43,886.35 "/>
   <polygon class="fil10" points="757.59,946.05 1315.37,946.05 1315.37,940.17 757.59,940.17 "/>
   <path class="fil9" d="M1406.98 1022.39l-732.38 0c29.05,80.25 28.51,153.49 0,220.09l732.38 0c67.52,-0.39 68.94,-219.15 0,-220.09z"/>
   <path class="fil9" d="M1473.33 1278.74l732.37 0c-29.05,103.68 -28.51,198.3 0,284.34l-732.37 0c-67.52,-0.5 -68.94,-283.14 0,-284.34z"/>
   <path class="fil11" d="M659.26 696.87l0 -20.77 1498.72 0c69.82,0.08 67.42,330.75 0,330.47l-1498.72 0 0 -20.77 744.73 0c71.46,-0.51 72.96,-287.71 0,-288.93l-744.73 0z"/>
   <path class="fil12" d="M659.26 1022.39l0 -15.82 1498.72 0c69.82,0.06 67.42,251.94 0,251.73l-1498.72 0 0 -15.82 744.73 0c71.46,-0.39 72.96,-219.15 0,-220.09l-744.73 0z"/>
   <path class="fil11" d="M2221.05 1278.74l0 -20.44 -1498.72 0c-69.82,0.08 -67.43,325.49 0,325.22l1498.72 0 0 -20.44 -744.74 0c-71.46,-0.5 -72.96,-283.14 0,-284.34l744.74 0z"/>
   <path class="fil13" d="M1377.31 1278.74l-651.97 0c-30.98,95.4 -31.65,188.26 0,278.44l651.97 0c-28.44,-87.54 -27.92,-180.45 0,-278.44z"/>
   <path class="fil14" d="M2152.23 1106.16l-607.93 0c6.54,24.54 6.82,49.09 0,73.64l607.93 0c9.74,-23.16 8.96,-47.81 0,-73.64z"/>
   <polygon class="fil10" points="733.8,1078.2 1372.79,1078.2 1372.79,1074.24 733.8,1074.24 "/>
   <polygon class="fil10" points="762.17,1123.12 1358.12,1123.12 1358.12,1119.16 762.17,1119.16 "/>
   <polygon class="fil10" points="815.02,1177.29 1408.02,1177.29 1408.02,1173.32 815.02,1173.32 "/>
   <polygon class="fil10" points="762.17,1213.62 1319.95,1213.62 1319.95,1209.66 762.17,1209.66 "/>
   <polygon class="fil10" points="1489.12,1354.07 2128.12,1354.07 2128.12,1349.46 1489.12,1349.46 "/>
   <polygon class="fil10" points="1517.5,1406.38 2113.44,1406.38 2113.44,1401.77 1517.5,1401.77 "/>
   <polygon class="fil10" points="1570.34,1469.47 2163.35,1469.47 2163.35,1464.85 1570.34,1464.85 "/>
   <polygon class="fil10" points="1517.5,1511.78 2075.28,1511.78 2075.28,1507.16 1517.5,1507.16 "/>
   <g>
    <path class="fil9" d="M1777.4 564.28l-347.13 0c13.77,38.04 13.52,72.75 0,104.32l347.13 0c32,-0.18 32.68,-103.87 0,-104.32z"/>
    <path class="fil12" d="M1423 564.28l0 -7.5 710.36 0c33.09,0.03 31.96,119.41 0,119.31l-710.36 0 0 -7.5 352.99 0c33.87,-0.18 34.58,-103.87 0,-104.32l-352.99 0z"/>
    <path class="fil14" d="M2130.63 603.99l-288.14 0c3.1,11.63 3.24,23.27 0,34.9l288.14 0c4.62,-10.98 4.25,-22.66 0,-34.9z"/>
    <polygon class="fil10" points="1458.32,590.74 1761.2,590.74 1761.2,588.86 1458.32,588.86 "/>
    <polygon class="fil10" points="1471.77,612.03 1754.24,612.03 1754.24,610.15 1471.77,610.15 "/>
    <polygon class="fil10" points="1496.82,637.7 1777.89,637.7 1777.89,635.82 1496.82,635.82 "/>
    <polygon class="fil10" points="1471.77,654.92 1736.15,654.92 1736.15,653.04 1471.77,653.04 "/>
   </g>
   <path class="fil9" d="M1777.4 446.94l-347.13 0c13.77,38.04 13.52,72.75 0,104.32l347.13 0c32,-0.18 32.68,-103.87 0,-104.32z"/>
   <path class="fil11" d="M1423 446.94l0 -7.5 710.36 0c33.09,0.03 31.96,119.41 0,119.31l-710.36 0 0 -7.5 352.99 0c33.87,-0.18 34.58,-103.87 0,-104.32l-352.99 0z"/>
   <path class="fil15" d="M2130.63 486.64l-288.14 0c3.1,11.63 3.24,23.27 0,34.9l288.14 0c4.62,-10.98 4.25,-22.66 0,-34.9z"/>
   <polygon class="fil10" points="1458.32,473.39 1761.2,473.39 1761.2,471.51 1458.32,471.51 "/>
   <polygon class="fil10" points="1471.77,494.68 1754.24,494.68 1754.24,492.8 1471.77,492.8 "/>
   <polygon class="fil10" points="1496.82,520.36 1777.89,520.36 1777.89,518.48 1496.82,518.48 "/>
   <polygon class="fil10" points="1471.77,537.58 1736.15,537.58 1736.15,535.7 1471.77,535.7 "/>
  </g>
 </g>
</svg>
