<?xml version="1.0" encoding="UTF-8"?>
<!DOCTYPE svg PUBLIC "-//W3C//DTD SVG 1.1//EN" "http://www.w3.org/Graphics/SVG/1.1/DTD/svg11.dtd">
<!-- Creator: CorelDRAW 2017 -->
<svg xmlns="http://www.w3.org/2000/svg" xml:space="preserve" width="55.4935mm" height="76.6095mm" version="1.1" style="shape-rendering:geometricPrecision; text-rendering:geometricPrecision; image-rendering:optimizeQuality; fill-rule:evenodd; clip-rule:evenodd"
viewBox="0 0 245.12 338.39"
 xmlns:xlink="http://www.w3.org/1999/xlink">
 <defs>
  <style type="text/css">
   <![CDATA[
    .fil0 {fill:white;fill-rule:nonzero}
   ]]>
  </style>
 </defs>
 <g id="Layer_x0020_1">
  <metadata id="CorelCorpID_0Corel-Layer"/>
  <g id="_1684644368864">
   <path class="fil0" d="M122.58 61.43c17.85,0 32.39,14.53 32.39,32.38 0,4.24 3.41,7.66 7.64,7.66 4.24,0 7.66,-3.41 7.66,-7.66 0,-26.31 -21.39,-47.7 -47.7,-47.7 -4.23,0 -7.66,3.43 -7.66,7.66 0,4.23 3.43,7.66 7.66,7.66z"/>
   <path class="fil0" d="M166.05 208.22c-3.74,-1.87 -8.38,-0.36 -10.28,3.42 -1.88,3.78 -0.35,8.38 3.43,10.28 22.65,11.32 22.65,48.25 22.65,60.37 0,4.23 3.44,7.66 7.66,7.66 4.23,0 7.66,-3.44 7.66,-7.66 0,-14.48 0,-58.5 -31.12,-74.07z"/>
   <path class="fil0" d="M206.72 292.53c-15.15,8.76 -42.75,13.69 -71.86,14.76l27.78 -33.96 -26.89 -61.61 22.23 -30.57c1.45,-0.6 2.87,-1.29 4.29,-1.95l7.03 5.99c26.63,22.57 40.01,33.91 45.22,99.73 0,1.55 -2.41,4.48 -7.8,7.6zm-168.26 0.02c-5.39,-3.14 -7.81,-6.07 -7.86,-6.41 5.26,-67.04 18.63,-78.37 45.28,-100.95l6.84 -5.82c1.3,0.59 2.59,1.22 3.92,1.78l22.23 30.57 -26.89 61.61 27.77 33.92c-28.88,-1.12 -56.2,-6.02 -71.28,-14.71zm147.3 -198.44c0,34.98 -28.45,63.45 -63.45,63.45 -34.98,0 -63.45,-28.47 -63.45,-63.45 0,-34.98 28.47,-63.45 63.45,-63.45 35,0 63.45,28.47 63.45,63.45zm3.36 67.69l-0.8 -0.67c17.33,-17.07 28.09,-40.77 28.09,-67.02 0,-51.98 -42.12,-94.1 -94.1,-94.1 -51.97,0 -94.1,42.12 -94.1,94.1 0,26.37 10.88,50.18 28.36,67.26l-0.5 0.43c-31.78,26.94 -50.04,45.88 -56.06,123.13 0,9.5 4.01,23.11 23.14,34.14 22.31,12.89 60.88,19.32 99.46,19.32 38.57,0 77.15,-6.44 99.44,-19.32 19.11,-11.05 23.12,-24.65 23.08,-35.33 -5.98,-76.06 -24.23,-95 -56,-121.94z"/>
  </g>
 </g>
</svg>
