<?xml version="1.0" encoding="UTF-8"?>
<!DOCTYPE svg PUBLIC "-//W3C//DTD SVG 1.1//EN" "http://www.w3.org/Graphics/SVG/1.1/DTD/svg11.dtd">
<!-- Creator: CorelDRAW 2017 -->
<svg xmlns="http://www.w3.org/2000/svg" xml:space="preserve" width="55.3425mm" height="44.3225mm" version="1.1" style="shape-rendering:geometricPrecision; text-rendering:geometricPrecision; image-rendering:optimizeQuality; fill-rule:evenodd; clip-rule:evenodd"
viewBox="0 0 86.7 69.44"
 xmlns:xlink="http://www.w3.org/1999/xlink">
 <defs>
  <style type="text/css">
   <![CDATA[
    .str6 {stroke:#F4CAAE;stroke-width:0.53;stroke-linecap:round;stroke-linejoin:round;stroke-miterlimit:10}
    .str12 {stroke:white;stroke-width:0.53;stroke-linecap:round;stroke-linejoin:round;stroke-miterlimit:10}
    .str2 {stroke:#F4CAAE;stroke-width:0.53;stroke-linecap:round;stroke-linejoin:round;stroke-miterlimit:10}
    .str8 {stroke:white;stroke-width:0.53;stroke-linecap:round;stroke-linejoin:round;stroke-miterlimit:10}
    .str3 {stroke:#F4CAAE;stroke-width:0.53;stroke-linecap:round;stroke-linejoin:round;stroke-miterlimit:10}
    .str9 {stroke:white;stroke-width:0.53;stroke-linecap:round;stroke-linejoin:round;stroke-miterlimit:10}
    .str1 {stroke:#4A5051;stroke-width:0.53;stroke-linecap:round;stroke-linejoin:round;stroke-miterlimit:10}
    .str7 {stroke:#B1DAFB;stroke-width:0.53;stroke-linecap:round;stroke-linejoin:round;stroke-miterlimit:10}
    .str0 {stroke:#F4CAAE;stroke-width:0.53;stroke-linecap:round;stroke-linejoin:round;stroke-miterlimit:10}
    .str5 {stroke:#F4CAAE;stroke-width:0.27;stroke-linecap:round;stroke-linejoin:round;stroke-miterlimit:10}
    .str11 {stroke:white;stroke-width:0.27;stroke-linecap:round;stroke-linejoin:round;stroke-miterlimit:10}
    .str4 {stroke:#F4CAAE;stroke-width:0.4;stroke-linecap:round;stroke-linejoin:round;stroke-miterlimit:10}
    .str10 {stroke:white;stroke-width:0.4;stroke-linecap:round;stroke-linejoin:round;stroke-miterlimit:10}
    .fil6 {fill:none;fill-rule:nonzero}
    .fil0 {fill:#232946}
    .fil10 {fill:#323096}
    .fil1 {fill:#FCEFE9}
    .fil11 {fill:white}
    .fil2 {fill:#FEFEFE;fill-rule:nonzero}
    .fil4 {fill:#F3F4F4;fill-rule:nonzero}
    .fil5 {fill:#9FD4C5;fill-rule:nonzero}
    .fil7 {fill:#4A5051;fill-rule:nonzero}
    .fil3 {fill:#232946;fill-rule:nonzero}
    .fil12 {fill:#323096;fill-rule:nonzero}
    .fil9 {fill:#424E87;fill-rule:nonzero}
    .fil14 {fill:#B1DAFB;fill-rule:nonzero}
    .fil8 {fill:#F4CAAE;fill-rule:nonzero}
    .fil13 {fill:white;fill-rule:nonzero}
   ]]>
  </style>
 </defs>
 <g id="Layer_x0020_1">
  <metadata id="CorelCorpID_0Corel-Layer"/>
  <path class="fil0" d="M49.92 65.58c-16.74,-4.1 -40.13,15.65 -49.32,-7.97 -4.13,-14.51 14.12,-40.85 22.54,-48.78 44.6,-41.95 102.68,80.44 26.78,56.75z"/>
  <path class="fil1" d="M49.48 63.35c-15.78,-3.81 -37.84,14.54 -46.5,-7.4 -3.89,-13.48 13.31,-37.95 21.25,-45.31 42.05,-38.96 96.81,74.72 25.25,52.71z"/>
  <path class="fil2" d="M76.3 52.07l-63.64 0 0 0.8c0,2.14 1.74,3.88 3.88,3.88l55.89 0c2.14,0 3.88,-1.74 3.88,-3.88l0 -0.8z"/>
  <path class="fil3 str0" d="M76.3 52.07l-63.64 0 0 0.8c0,2.14 1.74,3.88 3.88,3.88l55.89 0c2.14,0 3.88,-1.74 3.88,-3.88l0 -0.8z"/>
  <polygon class="fil4" points="37.75,54.41 51.21,54.41 51.21,52.07 37.75,52.07 "/>
  <polygon class="fil3 str0" points="37.75,54.41 51.21,54.41 51.21,52.07 37.75,52.07 "/>
  <path class="fil2" d="M67.75 22.12l-46.55 0c-1.51,0 -2.73,1.22 -2.73,2.73l0 27.22 52.01 0 0 -27.22c0,-1.51 -1.22,-2.73 -2.73,-2.73z"/>
  <path class="fil3 str0" d="M67.75 22.12l-46.55 0c-1.51,0 -2.73,1.22 -2.73,2.73l0 27.22 52.01 0 0 -27.22c0,-1.51 -1.22,-2.73 -2.73,-2.73z"/>
  <polygon class="fil5" points="21.15,49.4 67.81,49.4 67.81,24.8 21.15,24.8 "/>
  <polygon class="fil6 str1" points="21.15,49.4 67.81,49.4 67.81,24.8 21.15,24.8 "/>
  <polygon class="fil5" points="21.15,49.4 67.81,49.4 67.81,24.8 21.15,24.8 "/>
  <polygon class="fil3 str0" points="21.15,49.4 67.81,49.4 67.81,24.8 21.15,24.8 "/>
  <path class="fil7" d="M44.01 23.46c0,-0.26 0.21,-0.47 0.47,-0.47 0.26,0 0.47,0.21 0.47,0.47 0,0.26 -0.21,0.47 -0.47,0.47 -0.26,0 -0.47,-0.21 -0.47,-0.47z"/>
  <g>
   <path class="fil8" d="M44.04 23.46c0,-0.24 0.2,-0.44 0.44,-0.44 0.24,0 0.44,0.2 0.44,0.44 0,0.24 -0.2,0.44 -0.44,0.44 -0.24,0 -0.44,-0.2 -0.44,-0.44z"/>
   <path id="1" class="fil8" d="M44.48 22.77l0 0.5 0 0 -0.01 0 -0.01 0 -0.01 0 -0.01 0 -0.01 0 -0.01 0 -0.01 0 -0.01 0 -0.01 0 -0.01 0 -0.01 0 -0.01 0 -0.01 0.01 -0.01 0.01 -0.01 0.01 -0.01 0.01 -0.01 0.01 -0.01 0.01 -0.01 0.01 -0.01 0.01 -0 0.01 -0 0.01 -0 0.01 -0 0.01 -0 0.01 -0 0.01 -0 0.01 -0 0.01 -0 0.01 -0 0.01 -0 0.01 -0 0.01 -0.5 0 0 -0.03 0 -0.03 0 -0.04 0.01 -0.03 0.01 -0.03 0.01 -0.03 0.01 -0.03 0.01 -0.03 0.01 -0.03 0.01 -0.03 0.02 -0.03 0.02 -0.03 0.02 -0.03 0.02 -0.03 0.02 -0.02 0.02 -0.02 0.02 -0.02 0.02 -0.02 0.03 -0.02 0.03 -0.02 0.03 -0.02 0.03 -0.02 0.03 -0.01 0.03 -0.01 0.03 -0.01 0.03 -0.01 0.03 -0.01 0.03 -0.01 0.03 -0.01 0.04 -0 0.03 -0 0.03 -0 0 0zm0 0c0.14,0 0.25,0.11 0.25,0.25 0,0.14 -0.11,0.25 -0.25,0.25l0 -0.5zm0.69 0.69l-0.5 0 0 0 -0 -0.01 -0 -0.01 -0 -0.01 -0 -0.01 -0 -0.01 -0 -0.01 -0 -0.01 -0 -0.01 -0 -0.01 -0 -0.01 -0 -0.01 -0 -0.01 -0.01 -0.01 -0.01 -0.01 -0.01 -0.01 -0.01 -0.01 -0.01 -0.01 -0.01 -0.01 -0.01 -0.01 -0.01 -0 -0.01 -0 -0.01 -0 -0.01 -0 -0.01 -0 -0.01 -0 -0.01 -0 -0.01 -0 -0.01 -0 -0.01 -0 -0.01 -0 -0.01 -0 -0.01 -0 0 -0.5 0.03 0 0.03 0 0.04 0 0.03 0.01 0.03 0.01 0.03 0.01 0.03 0.01 0.03 0.01 0.03 0.01 0.03 0.02 0.03 0.02 0.03 0.02 0.03 0.02 0.03 0.02 0.02 0.02 0.02 0.02 0.02 0.02 0.02 0.02 0.02 0.03 0.02 0.03 0.02 0.03 0.02 0.03 0.01 0.03 0.01 0.03 0.01 0.03 0.01 0.03 0.01 0.03 0.01 0.03 0.01 0.03 0 0.04 0 0.03 0 0.03 0 0zm0 0c0,0.14 -0.11,0.25 -0.25,0.25 -0.14,0 -0.25,-0.11 -0.25,-0.25l0.5 0zm-0.69 0.69l0 -0.5 0 0 0.01 -0 0.01 -0 0.01 -0 0.01 -0 0.01 -0 0.01 -0 0.01 -0 0.01 -0 0.01 -0 0.01 -0 0.01 -0 0.01 -0 0.01 -0.01 0.01 -0.01 0.01 -0.01 0.01 -0.01 0.01 -0.01 0.01 -0.01 0.01 -0.01 0.01 -0.01 0.01 -0.01 0 -0.01 0 -0.01 0 -0.01 0 -0.01 0 -0.01 0 -0.01 0 -0.01 0 -0.01 0 -0.01 0 -0.01 0 -0.01 0.5 0 -0 0.03 -0 0.03 -0 0.04 -0.01 0.03 -0.01 0.03 -0.01 0.03 -0.01 0.03 -0.01 0.03 -0.01 0.03 -0.02 0.03 -0.02 0.03 -0.02 0.03 -0.02 0.03 -0.02 0.03 -0.02 0.03 -0.02 0.02 -0.02 0.02 -0.03 0.02 -0.03 0.02 -0.03 0.02 -0.03 0.02 -0.03 0.02 -0.03 0.02 -0.03 0.01 -0.03 0.01 -0.03 0.01 -0.03 0.01 -0.03 0.01 -0.03 0.01 -0.04 0 -0.03 0 -0.03 0 0 0zm0 0c-0.14,0 -0.25,-0.11 -0.25,-0.25 0,-0.14 0.11,-0.25 0.25,-0.25l0 0.5zm-0.69 -0.69l0.5 0 0 0 0 0.01 0 0.01 0 0.01 0 0.01 0 0.01 0 0.01 0 0.01 0 0.01 0 0.01 0 0.01 0 0.01 0.01 0.01 0 0.01 0.01 0.01 0.01 0.01 0.01 0.01 0.01 0.01 0.01 0.01 0.01 0.01 0.01 0.01 0.01 0 0.01 0 0.01 0 0.01 0 0.01 0 0.01 0 0.01 0 0.01 0 0.01 0 0.01 0 0.01 0 0.01 0 0 0.5 -0.03 -0 -0.03 -0 -0.04 -0 -0.03 -0.01 -0.03 -0.01 -0.03 -0.01 -0.03 -0.01 -0.03 -0.01 -0.03 -0.01 -0.03 -0.01 -0.03 -0.02 -0.03 -0.02 -0.03 -0.02 -0.03 -0.02 -0.02 -0.02 -0.02 -0.02 -0.02 -0.02 -0.02 -0.02 -0.02 -0.03 -0.02 -0.03 -0.02 -0.03 -0.02 -0.03 -0.02 -0.03 -0.01 -0.03 -0.01 -0.03 -0.01 -0.03 -0.01 -0.03 -0.01 -0.03 -0.01 -0.03 -0 -0.04 -0 -0.03 -0 -0.03 0 0zm0 0c0,-0.14 0.11,-0.25 0.25,-0.25 0.14,0 0.25,0.11 0.25,0.25l-0.5 0z"/>
  </g>
  <path class="fil8" d="M39.85 34.76c0.09,-0.25 0.27,-0.4 0.53,-0.46 0.55,0.19 0.86,0.73 0.86,0.73 0,0 -0.21,-2.22 0.29,-3.99 0.21,-0.39 0.47,-0.77 0.81,-1.11 0.84,-0.84 1.98,-1.27 3.4,-1.27 1.42,0 2.56,0.43 3.4,1.27 0.33,0.33 0.59,0.7 0.79,1.09 0.51,1.77 0.3,4.01 0.3,4.01 0,0 0.32,-0.54 0.87,-0.73 0.27,0.06 0.45,0.21 0.54,0.46 0.31,0.85 -0.39,2.48 -0.85,2.96 -0.51,0.53 -0.77,0.59 -0.83,0.6l-0.29 -0.08 -0.05 0.33c-0,0 -0.07,0.44 -0.26,1.04 -0.66,2.04 -2.52,3.13 -3.62,3.13 -1.1,0 -2.97,-1.09 -3.62,-3.13 -0.2,-0.64 -0.26,-1.04 -0.26,-1.04l-0.05 -0.33 -0.29 0.08c-0.05,-0.01 -0.32,-0.07 -0.83,-0.6 -0.46,-0.49 -1.16,-2.11 -0.85,-2.96zm1.47 4.12c0.04,0.2 0.11,0.51 0.24,0.91 0.7,2.19 2.72,3.55 4.18,3.55 1.47,0 3.48,-1.36 4.18,-3.54 0.12,-0.39 0.2,-0.71 0.24,-0.91 0.24,-0.07 0.59,-0.27 1.05,-0.75 0.56,-0.59 1.38,-2.44 0.98,-3.57 -0.11,-0.31 -0.31,-0.54 -0.57,-0.69 -0.06,-0.99 -0.35,-3.63 -1.86,-4.14 -0.07,-0.07 -0.13,-0.15 -0.2,-0.22 -0.95,-0.96 -2.24,-1.44 -3.83,-1.44 -1.58,0 -2.87,0.49 -3.83,1.44 -0.07,0.07 -0.14,0.14 -0.2,0.22 -1.52,0.5 -1.81,3.16 -1.87,4.14 -0.26,0.15 -0.45,0.38 -0.56,0.69 -0.41,1.13 0.41,2.98 0.98,3.57 0.46,0.48 0.81,0.68 1.05,0.75z"/>
  <path class="fil8" d="M42.14 35.33c0,-0.2 0.16,-0.36 0.36,-0.36l1.91 0c0.2,0 0.36,0.16 0.36,0.36l0 0.68c0,0.2 -0.16,0.36 -0.36,0.36l-1.91 0c-0.2,0 -0.36,-0.16 -0.36,-0.36l0 -0.68zm4.57 0c0,-0.2 0.16,-0.36 0.36,-0.36l1.91 0c0.2,0 0.36,0.16 0.36,0.36l0 0.68c0,0.2 -0.16,0.36 -0.36,0.36l-1.91 0c-0.2,0 -0.36,-0.16 -0.36,-0.36l0 -0.68zm-4.21 1.48l1.91 0c0.44,0 0.8,-0.36 0.8,-0.8l0 -0.68c0,-0.02 -0,-0.04 -0.01,-0.06l1.08 0c-0,0.02 -0.01,0.04 -0.01,0.06l0 0.68c0,0.44 0.36,0.8 0.8,0.8l1.91 0c0.44,0 0.8,-0.36 0.8,-0.8l0 -0.68c0,-0.44 -0.36,-0.8 -0.8,-0.8l-1.91 0c-0.31,0 -0.58,0.18 -0.71,0.45l-1.23 0c-0.13,-0.26 -0.4,-0.45 -0.71,-0.45l-1.91 0c-0.44,0 -0.8,0.36 -0.8,0.8l0 0.68c0,0.44 0.36,0.8 0.8,0.8z"/>
  <path class="fil8" d="M45.2 44.02c-0.32,0 -0.58,0.27 -0.58,0.61l0 1.21c0,0.33 0.26,0.61 0.58,0.61l1.08 0c0.32,0 0.58,-0.27 0.58,-0.61l0 -1.21c0,-0.33 -0.26,-0.61 -0.58,-0.61l-1.08 0z"/>
  <polygon class="fil8" points="44.34,48.1 41.6,43.67 40.3,44.19 43.58,48.91 44.84,48.91 44.34,48.1 "/>
  <path class="fil8" d="M37.58 45.06c-0.24,0.13 -1.72,3.25 -1.72,3.25l0 0.82 7.34 0 -3.44 -4.96c-1.01,0.4 -2.05,0.83 -2.17,0.89z"/>
  <polygon class="fil8" points="49.87,43.67 46.64,48.91 47.89,48.91 51.17,44.19 "/>
  <path class="fil8" d="M53.92 45.06c-0.12,-0.06 -1.18,-0.49 -2.19,-0.9l-3.45 4.97 7.37 0 0 -0.82c0,0 -1.49,-3.12 -1.72,-3.25z"/>
  <path class="fil8" d="M46.65 46.79c-0.1,0.06 -0.21,0.09 -0.33,0.09l-1.16 0c-0.13,0 -0.25,-0.04 -0.35,-0.11l-0.28 0.79 0.98 1.58 0.47 0 0.96 -1.55 -0.28 -0.8z"/>
  <line class="fil6 str2" x1="23.64" y1="39.92" x2="36.44" y2= "39.92" />
  <line class="fil6 str2" x1="23.64" y1="41.35" x2="36.44" y2= "41.35" />
  <line class="fil6 str2" x1="23.64" y1="42.78" x2="36.44" y2= "42.78" />
  <line class="fil6 str3" x1="56.78" y1="31.79" x2="63.02" y2= "31.79" />
  <line class="fil6 str3" x1="56.78" y1="33" x2="63.02" y2= "33" />
  <line class="fil6 str3" x1="56.78" y1="34.22" x2="63.02" y2= "34.22" />
  <line class="fil6 str3" x1="56.78" y1="35.44" x2="63.02" y2= "35.44" />
  <path class="fil9 str4" d="M25.35 37.06c0,-0.79 0.64,-1.42 1.42,-1.42 0.79,0 1.42,0.64 1.42,1.42 0,0.79 -0.64,1.42 -1.42,1.42 -0.79,0 -1.42,-0.64 -1.42,-1.42z"/>
  <path class="fil9 str4" d="M33.03 37.06c0,-0.52 0.42,-0.94 0.94,-0.94 0.52,0 0.94,0.42 0.94,0.94 0,0.52 -0.42,0.94 -0.94,0.94 -0.52,0 -0.94,-0.42 -0.94,-0.94z"/>
  <polygon class="fil9 str4" points="29.34,38.36 30.69,35.97 32.06,38.36 "/>
  <path class="fil9 str5" d="M57.83 44.27c0,-0.53 0.43,-0.95 0.95,-0.95 0.53,0 0.95,0.43 0.95,0.95 0,0.53 -0.43,0.95 -0.95,0.95 -0.53,0 -0.95,-0.43 -0.95,-0.95z"/>
  <path class="fil9 str5" d="M62.97 44.27c0,-0.35 0.28,-0.63 0.63,-0.63 0.35,0 0.63,0.28 0.63,0.63 0,0.35 -0.28,0.63 -0.63,0.63 -0.35,0 -0.63,-0.28 -0.63,-0.63z"/>
  <polygon class="fil9 str5" points="60.5,45.15 61.4,43.55 62.32,45.15 "/>
  <line class="fil6 str6" x1="57.91" y1="46.11" x2="64.15" y2= "46.11" />
  <line class="fil6 str6" x1="57.91" y1="47.32" x2="64.15" y2= "47.32" />
  <path class="fil10" d="M49.92 65.58c-16.74,-4.1 -40.13,15.65 -49.32,-7.97 -4.13,-14.51 14.12,-40.85 22.54,-48.78 44.6,-41.95 102.68,80.44 26.78,56.75z"/>
  <path class="fil11" d="M49.48 63.35c-15.78,-3.81 -37.84,14.54 -46.5,-7.4 -3.89,-13.48 13.31,-37.95 21.25,-45.31 42.05,-38.96 96.81,74.72 25.25,52.71z"/>
  <path class="fil2" d="M76.3 52.07l-63.64 0 0 0.8c0,2.14 1.74,3.88 3.88,3.88l55.89 0c2.14,0 3.88,-1.74 3.88,-3.88l0 -0.8z"/>
  <path class="fil12 str7" d="M76.3 52.07l-63.64 0 0 0.8c0,2.14 1.74,3.88 3.88,3.88l55.89 0c2.14,0 3.88,-1.74 3.88,-3.88l0 -0.8z"/>
  <polygon class="fil4" points="37.75,54.41 51.21,54.41 51.21,52.07 37.75,52.07 "/>
  <polygon class="fil12 str7" points="37.75,54.41 51.21,54.41 51.21,52.07 37.75,52.07 "/>
  <path class="fil2" d="M67.75 22.12l-46.55 0c-1.51,0 -2.73,1.22 -2.73,2.73l0 27.22 52.01 0 0 -27.22c0,-1.51 -1.22,-2.73 -2.73,-2.73z"/>
  <path class="fil12 str7" d="M67.75 22.12l-46.55 0c-1.51,0 -2.73,1.22 -2.73,2.73l0 27.22 52.01 0 0 -27.22c0,-1.51 -1.22,-2.73 -2.73,-2.73z"/>
  <polygon class="fil5" points="21.15,49.4 67.81,49.4 67.81,24.8 21.15,24.8 "/>
  <polygon class="fil6 str1" points="21.15,49.4 67.81,49.4 67.81,24.8 21.15,24.8 "/>
  <polygon class="fil5" points="21.15,49.4 67.81,49.4 67.81,24.8 21.15,24.8 "/>
  <polygon class="fil12 str7" points="21.15,49.4 67.81,49.4 67.81,24.8 21.15,24.8 "/>
  <path class="fil7" d="M44.01 23.46c0,-0.26 0.21,-0.47 0.47,-0.47 0.26,0 0.47,0.21 0.47,0.47 0,0.26 -0.21,0.47 -0.47,0.47 -0.26,0 -0.47,-0.21 -0.47,-0.47z"/>
  <g>
   <path class="fil13" d="M44.04 23.46c0,-0.24 0.2,-0.44 0.44,-0.44 0.24,0 0.44,0.2 0.44,0.44 0,0.24 -0.2,0.44 -0.44,0.44 -0.24,0 -0.44,-0.2 -0.44,-0.44z"/>
   <path id="1" class="fil13" d="M44.48 22.77l0 0.5 0 0 -0.01 0 -0.01 0 -0.01 0 -0.01 0 -0.01 0 -0.01 0 -0.01 0 -0.01 0 -0.01 0 -0.01 0 -0.01 0 -0.01 0 -0.01 0.01 -0.01 0.01 -0.01 0.01 -0.01 0.01 -0.01 0.01 -0.01 0.01 -0.01 0.01 -0.01 0.01 -0 0.01 -0 0.01 -0 0.01 -0 0.01 -0 0.01 -0 0.01 -0 0.01 -0 0.01 -0 0.01 -0 0.01 -0 0.01 -0 0.01 -0.5 0 0 -0.03 0 -0.03 0 -0.04 0.01 -0.03 0.01 -0.03 0.01 -0.03 0.01 -0.03 0.01 -0.03 0.01 -0.03 0.01 -0.03 0.02 -0.03 0.02 -0.03 0.02 -0.03 0.02 -0.03 0.02 -0.02 0.02 -0.02 0.02 -0.02 0.02 -0.02 0.03 -0.02 0.03 -0.02 0.03 -0.02 0.03 -0.02 0.03 -0.01 0.03 -0.01 0.03 -0.01 0.03 -0.01 0.03 -0.01 0.03 -0.01 0.03 -0.01 0.04 -0 0.03 -0 0.03 -0 0 0zm0 0c0.14,0 0.25,0.11 0.25,0.25 0,0.14 -0.11,0.25 -0.25,0.25l0 -0.5zm0.69 0.69l-0.5 0 0 0 -0 -0.01 -0 -0.01 -0 -0.01 -0 -0.01 -0 -0.01 -0 -0.01 -0 -0.01 -0 -0.01 -0 -0.01 -0 -0.01 -0 -0.01 -0 -0.01 -0.01 -0.01 -0.01 -0.01 -0.01 -0.01 -0.01 -0.01 -0.01 -0.01 -0.01 -0.01 -0.01 -0.01 -0.01 -0 -0.01 -0 -0.01 -0 -0.01 -0 -0.01 -0 -0.01 -0 -0.01 -0 -0.01 -0 -0.01 -0 -0.01 -0 -0.01 -0 -0.01 -0 -0.01 -0 0 -0.5 0.03 0 0.03 0 0.04 0 0.03 0.01 0.03 0.01 0.03 0.01 0.03 0.01 0.03 0.01 0.03 0.01 0.03 0.02 0.03 0.02 0.03 0.02 0.03 0.02 0.03 0.02 0.02 0.02 0.02 0.02 0.02 0.02 0.02 0.02 0.02 0.03 0.02 0.03 0.02 0.03 0.02 0.03 0.01 0.03 0.01 0.03 0.01 0.03 0.01 0.03 0.01 0.03 0.01 0.03 0.01 0.03 0 0.04 0 0.03 0 0.03 0 0zm0 0c0,0.14 -0.11,0.25 -0.25,0.25 -0.14,0 -0.25,-0.11 -0.25,-0.25l0.5 0zm-0.69 0.69l0 -0.5 0 0 0.01 -0 0.01 -0 0.01 -0 0.01 -0 0.01 -0 0.01 -0 0.01 -0 0.01 -0 0.01 -0 0.01 -0 0.01 -0 0.01 -0 0.01 -0.01 0.01 -0.01 0.01 -0.01 0.01 -0.01 0.01 -0.01 0.01 -0.01 0.01 -0.01 0.01 -0.01 0.01 -0.01 0 -0.01 0 -0.01 0 -0.01 0 -0.01 0 -0.01 0 -0.01 0 -0.01 0 -0.01 0 -0.01 0 -0.01 0 -0.01 0.5 0 -0 0.03 -0 0.03 -0 0.04 -0.01 0.03 -0.01 0.03 -0.01 0.03 -0.01 0.03 -0.01 0.03 -0.01 0.03 -0.02 0.03 -0.02 0.03 -0.02 0.03 -0.02 0.03 -0.02 0.03 -0.02 0.03 -0.02 0.02 -0.02 0.02 -0.03 0.02 -0.03 0.02 -0.03 0.02 -0.03 0.02 -0.03 0.02 -0.03 0.02 -0.03 0.01 -0.03 0.01 -0.03 0.01 -0.03 0.01 -0.03 0.01 -0.03 0.01 -0.04 0 -0.03 0 -0.03 0 0 0zm0 0c-0.14,0 -0.25,-0.11 -0.25,-0.25 0,-0.14 0.11,-0.25 0.25,-0.25l0 0.5zm-0.69 -0.69l0.5 0 0 0 0 0.01 0 0.01 0 0.01 0 0.01 0 0.01 0 0.01 0 0.01 0 0.01 0 0.01 0 0.01 0 0.01 0.01 0.01 0 0.01 0.01 0.01 0.01 0.01 0.01 0.01 0.01 0.01 0.01 0.01 0.01 0.01 0.01 0.01 0.01 0 0.01 0 0.01 0 0.01 0 0.01 0 0.01 0 0.01 0 0.01 0 0.01 0 0.01 0 0.01 0 0.01 0 0 0.5 -0.03 -0 -0.03 -0 -0.04 -0 -0.03 -0.01 -0.03 -0.01 -0.03 -0.01 -0.03 -0.01 -0.03 -0.01 -0.03 -0.01 -0.03 -0.01 -0.03 -0.02 -0.03 -0.02 -0.03 -0.02 -0.03 -0.02 -0.02 -0.02 -0.02 -0.02 -0.02 -0.02 -0.02 -0.02 -0.02 -0.03 -0.02 -0.03 -0.02 -0.03 -0.02 -0.03 -0.02 -0.03 -0.01 -0.03 -0.01 -0.03 -0.01 -0.03 -0.01 -0.03 -0.01 -0.03 -0.01 -0.03 -0 -0.04 -0 -0.03 -0 -0.03 0 0zm0 0c0,-0.14 0.11,-0.25 0.25,-0.25 0.14,0 0.25,0.11 0.25,0.25l-0.5 0z"/>
  </g>
  <path class="fil13" d="M39.85 34.76c0.09,-0.25 0.27,-0.4 0.53,-0.46 0.55,0.19 0.86,0.73 0.86,0.73 0,0 -0.21,-2.22 0.29,-3.99 0.21,-0.39 0.47,-0.77 0.81,-1.11 0.84,-0.84 1.98,-1.27 3.4,-1.27 1.42,0 2.56,0.43 3.4,1.27 0.33,0.33 0.59,0.7 0.79,1.09 0.51,1.77 0.3,4.01 0.3,4.01 0,0 0.32,-0.54 0.87,-0.73 0.27,0.06 0.45,0.21 0.54,0.46 0.31,0.85 -0.39,2.48 -0.85,2.96 -0.51,0.53 -0.77,0.59 -0.83,0.6l-0.29 -0.08 -0.05 0.33c-0,0 -0.07,0.44 -0.26,1.04 -0.66,2.04 -2.52,3.13 -3.62,3.13 -1.1,0 -2.97,-1.09 -3.62,-3.13 -0.2,-0.64 -0.26,-1.04 -0.26,-1.04l-0.05 -0.33 -0.29 0.08c-0.05,-0.01 -0.32,-0.07 -0.83,-0.6 -0.46,-0.49 -1.16,-2.11 -0.85,-2.96zm1.47 4.12c0.04,0.2 0.11,0.51 0.24,0.91 0.7,2.19 2.72,3.55 4.18,3.55 1.47,0 3.48,-1.36 4.18,-3.54 0.12,-0.39 0.2,-0.71 0.24,-0.91 0.24,-0.07 0.59,-0.27 1.05,-0.75 0.56,-0.59 1.38,-2.44 0.98,-3.57 -0.11,-0.31 -0.31,-0.54 -0.57,-0.69 -0.06,-0.99 -0.35,-3.63 -1.86,-4.14 -0.07,-0.07 -0.13,-0.15 -0.2,-0.22 -0.95,-0.96 -2.24,-1.44 -3.83,-1.44 -1.58,0 -2.87,0.49 -3.83,1.44 -0.07,0.07 -0.14,0.14 -0.2,0.22 -1.52,0.5 -1.81,3.16 -1.87,4.14 -0.26,0.15 -0.45,0.38 -0.56,0.69 -0.41,1.13 0.41,2.98 0.98,3.57 0.46,0.48 0.81,0.68 1.05,0.75z"/>
  <path class="fil13" d="M42.14 35.33c0,-0.2 0.16,-0.36 0.36,-0.36l1.91 0c0.2,0 0.36,0.16 0.36,0.36l0 0.68c0,0.2 -0.16,0.36 -0.36,0.36l-1.91 0c-0.2,0 -0.36,-0.16 -0.36,-0.36l0 -0.68zm4.57 0c0,-0.2 0.16,-0.36 0.36,-0.36l1.91 0c0.2,0 0.36,0.16 0.36,0.36l0 0.68c0,0.2 -0.16,0.36 -0.36,0.36l-1.91 0c-0.2,0 -0.36,-0.16 -0.36,-0.36l0 -0.68zm-4.21 1.48l1.91 0c0.44,0 0.8,-0.36 0.8,-0.8l0 -0.68c0,-0.02 -0,-0.04 -0.01,-0.06l1.08 0c-0,0.02 -0.01,0.04 -0.01,0.06l0 0.68c0,0.44 0.36,0.8 0.8,0.8l1.91 0c0.44,0 0.8,-0.36 0.8,-0.8l0 -0.68c0,-0.44 -0.36,-0.8 -0.8,-0.8l-1.91 0c-0.31,0 -0.58,0.18 -0.71,0.45l-1.23 0c-0.13,-0.26 -0.4,-0.45 -0.71,-0.45l-1.91 0c-0.44,0 -0.8,0.36 -0.8,0.8l0 0.68c0,0.44 0.36,0.8 0.8,0.8z"/>
  <path class="fil13" d="M45.2 44.02c-0.32,0 -0.58,0.27 -0.58,0.61l0 1.21c0,0.33 0.26,0.61 0.58,0.61l1.08 0c0.32,0 0.58,-0.27 0.58,-0.61l0 -1.21c0,-0.33 -0.26,-0.61 -0.58,-0.61l-1.08 0z"/>
  <polygon class="fil13" points="44.34,48.1 41.6,43.67 40.3,44.19 43.58,48.91 44.84,48.91 44.34,48.1 "/>
  <path class="fil13" d="M37.58 45.06c-0.24,0.13 -1.72,3.25 -1.72,3.25l0 0.82 7.34 0 -3.44 -4.96c-1.01,0.4 -2.05,0.83 -2.17,0.89z"/>
  <polygon class="fil13" points="49.87,43.67 46.64,48.91 47.89,48.91 51.17,44.19 "/>
  <path class="fil13" d="M53.92 45.06c-0.12,-0.06 -1.18,-0.49 -2.19,-0.9l-3.45 4.97 7.37 0 0 -0.82c0,0 -1.49,-3.12 -1.72,-3.25z"/>
  <path class="fil13" d="M46.65 46.79c-0.1,0.06 -0.21,0.09 -0.33,0.09l-1.16 0c-0.13,0 -0.25,-0.04 -0.35,-0.11l-0.28 0.79 0.98 1.58 0.47 0 0.96 -1.55 -0.28 -0.8z"/>
  <line class="fil6 str8" x1="23.64" y1="39.92" x2="36.44" y2= "39.92" />
  <line class="fil6 str8" x1="23.64" y1="41.35" x2="36.44" y2= "41.35" />
  <line class="fil6 str8" x1="23.64" y1="42.78" x2="36.44" y2= "42.78" />
  <line class="fil6 str9" x1="56.78" y1="31.79" x2="63.02" y2= "31.79" />
  <line class="fil6 str9" x1="56.78" y1="33" x2="63.02" y2= "33" />
  <line class="fil6 str9" x1="56.78" y1="34.22" x2="63.02" y2= "34.22" />
  <line class="fil6 str9" x1="56.78" y1="35.44" x2="63.02" y2= "35.44" />
  <path class="fil14 str10" d="M25.35 37.06c0,-0.79 0.64,-1.42 1.42,-1.42 0.79,0 1.42,0.64 1.42,1.42 0,0.79 -0.64,1.42 -1.42,1.42 -0.79,0 -1.42,-0.64 -1.42,-1.42z"/>
  <path class="fil14 str10" d="M33.03 37.06c0,-0.52 0.42,-0.94 0.94,-0.94 0.52,0 0.94,0.42 0.94,0.94 0,0.52 -0.42,0.94 -0.94,0.94 -0.52,0 -0.94,-0.42 -0.94,-0.94z"/>
  <polygon class="fil14 str10" points="29.34,38.36 30.69,35.97 32.06,38.36 "/>
  <path class="fil14 str11" d="M57.83 44.27c0,-0.53 0.43,-0.95 0.95,-0.95 0.53,0 0.95,0.43 0.95,0.95 0,0.53 -0.43,0.95 -0.95,0.95 -0.53,0 -0.95,-0.43 -0.95,-0.95z"/>
  <path class="fil14 str11" d="M62.97 44.27c0,-0.35 0.28,-0.63 0.63,-0.63 0.35,0 0.63,0.28 0.63,0.63 0,0.35 -0.28,0.63 -0.63,0.63 -0.35,0 -0.63,-0.28 -0.63,-0.63z"/>
  <polygon class="fil14 str11" points="60.5,45.15 61.4,43.55 62.32,45.15 "/>
  <line class="fil6 str12" x1="57.91" y1="46.11" x2="64.15" y2= "46.11" />
  <line class="fil6 str12" x1="57.91" y1="47.32" x2="64.15" y2= "47.32" />
 </g>
</svg>
