<?xml version="1.0" encoding="UTF-8"?>
<!DOCTYPE svg PUBLIC "-//W3C//DTD SVG 1.1//EN" "http://www.w3.org/Graphics/SVG/1.1/DTD/svg11.dtd">
<!-- Creator: CorelDRAW 2017 -->
<svg xmlns="http://www.w3.org/2000/svg" xml:space="preserve" width="55.3425mm" height="44.3225mm" version="1.1" style="shape-rendering:geometricPrecision; text-rendering:geometricPrecision; image-rendering:optimizeQuality; fill-rule:evenodd; clip-rule:evenodd"
viewBox="0 0 83.62 66.97"
 xmlns:xlink="http://www.w3.org/1999/xlink">
 <defs>
  <style type="text/css">
   <![CDATA[
    .fil0 {fill:#232946}
    .fil5 {fill:#323096}
    .fil7 {fill:#AEB8FF}
    .fil2 {fill:#F4CAAE}
    .fil3 {fill:#F5BA93}
    .fil6 {fill:#F8F9FB}
    .fil1 {fill:#FCEFE9}
    .fil8 {fill:white}
    .fil4 {fill:#F4CAAE;fill-rule:nonzero}
    .fil9 {fill:white;fill-rule:nonzero}
   ]]>
  </style>
 </defs>
 <g id="Layer_x0020_1">
  <metadata id="CorelCorpID_0Corel-Layer"/>
  <path class="fil0" d="M48.14 63.24c-16.14,-3.96 -38.7,15.09 -47.56,-7.68 -3.98,-14 13.61,-39.4 21.74,-47.04 43.01,-40.45 99.03,77.58 25.83,54.72z"/>
  <path class="fil1" d="M47.72 61.09c-15.22,-3.68 -36.49,14.02 -44.84,-7.14 -3.75,-13 12.84,-36.6 20.5,-43.69 40.55,-37.57 93.36,72.06 24.35,50.83z"/>
  <path class="fil2" d="M65.31 20.92l-46.43 0 0 33.23 18.14 0c0.27,2.45 2.55,4.23 5.37,4.22 1.62,-0.01 3.84,-1.26 4.57,-4.22l18.35 0 0 -33.23z"/>
  <path class="fil0" d="M64 22.33l-43.82 0 0 30.53 17.97 0c0.02,4.8 6.59,5.58 7.78,0l18.07 0 0 -30.53z"/>
  <path class="fil2" d="M62.06 51.01l-39.93 0 0 -33.99c4.6,0 15.98,-1.79 18.91,2.13 0,0 1.12,1.71 2.42,0.01 2.95,-3.76 14.22,-2.14 18.6,-2.14l0 33.99z"/>
  <path class="fil0" d="M60.93 49.7l-37.68 0 0 -31.23c4.34,0 15.03,-1.57 17.8,2.03 0,0 1.14,1.56 2.37,0 2.79,-3.46 13.38,-2.03 17.51,-2.03l0 31.23z"/>
  <rect class="fil2" x="41.49" y="20.92" width="1.48" height="15.43"/>
  <rect class="fil2" x="41.49" y="42.16" width="1.48" height="8.53"/>
  <polygon class="fil2" points="45.61,30.94 47.41,30.94 47.41,29.05 48.86,29.05 48.86,30.94 50.21,30.94 50.21,27.06 51.66,27.06 51.66,30.94 53.15,30.94 53.15,24.87 54.6,24.87 54.6,30.94 56.01,30.94 56.01,22.27 57.46,22.27 57.46,30.94 58.71,30.94 58.71,32.39 57.46,32.39 56.01,32.39 51.66,32.39 50.21,32.39 45.61,32.39 "/>
  <rect class="fil2" x="45.61" y="34.52" width="13.11" height="1.45"/>
  <rect class="fil3" x="45.61" y="37.57" width="5.8" height="1.45"/>
  <rect class="fil3" x="53.06" y="37.57" width="5.8" height="1.45"/>
  <rect class="fil3" x="45.61" y="40.9" width="13.11" height="1.45"/>
  <rect class="fil3" x="45.61" y="43.95" width="5.8" height="1.45"/>
  <rect class="fil3" x="53.06" y="43.95" width="5.8" height="1.45"/>
  <path class="fil4" d="M32.09 41.93c-0.19,0 -0.36,-0.05 -0.51,-0.14 -0.25,-0.15 -0.44,-0.43 -0.54,-0.8 -0.07,-0.26 -0.08,-0.48 -0.08,-0.49 -0,-0.09 0.04,-0.17 0.11,-0.22 0.07,-0.05 0.16,-0.06 0.24,-0.03 0,0 0.41,0.15 0.85,0.28 0.26,0.07 0.45,0.12 0.6,0.14 -0.17,-0.06 -0.38,-0.13 -0.6,-0.19 -0.41,-0.12 -0.82,-0.25 -1.16,-0.42 -0.2,-0.1 -0.35,-0.19 -0.45,-0.3 -0.19,-0.19 -0.22,-0.38 -0.21,-0.5 0,-0 0,-0 0,-0.01 0.01,-0.1 0.06,-0.19 0.14,-0.24 0.22,-0.14 0.55,-0.05 1.53,0.27 0.35,0.12 0.72,0.23 1.03,0.31 0.07,0.02 0.13,0.03 0.18,0.04 -0.03,-0.01 -0.07,-0.03 -0.11,-0.04 -0.27,-0.11 -0.6,-0.21 -0.95,-0.32 -0.42,-0.13 -0.86,-0.27 -1.2,-0.42 -0.33,-0.14 -0.7,-0.35 -0.68,-0.69 0,-0.13 0.06,-0.23 0.16,-0.3 0.16,-0.12 0.42,-0.12 0.87,-0.01 0.32,0.08 0.72,0.2 1.1,0.33 0.35,0.11 0.71,0.23 1,0.3 0.14,0.04 0.25,0.06 0.32,0.07 -0.05,-0.03 -0.11,-0.06 -0.2,-0.09 -0.23,-0.09 -0.53,-0.18 -0.86,-0.27 -0.65,-0.19 -1.38,-0.4 -1.87,-0.73 -0.3,-0.2 -0.48,-0.43 -0.58,-0.71 -0.09,-0.24 -0.11,-0.5 -0.12,-0.78 -0.03,-0.48 -0.06,-1.08 -0.52,-1.92 -0.62,-0.78 -1.04,-1.58 -1.25,-2.38 -0.2,-0.77 -0.2,-1.52 -0,-2.22 0.18,-0.65 0.52,-1.22 1.01,-1.71 0.49,-0.49 1.09,-0.86 1.8,-1.12 0,-0 0,-0 0,-0 0.31,-0.11 0.69,-0.18 1.08,-0.21 0.45,-0.03 0.91,0.01 1.35,0.1 1.1,0.24 2.02,0.85 2.65,1.76 0,0 0,0 0,0 0.38,0.56 0.63,1.12 0.75,1.68 0.11,0.52 0.1,1.05 -0.02,1.57 -0.21,0.89 -0.75,1.76 -1.66,2.67 -0.01,0.02 -0.17,0.19 -0.37,0.56 -0.19,0.36 -0.46,0.97 -0.64,1.88 -0.01,0.05 -0.1,0.45 -0.41,0.68 -0.32,0.25 -0.8,0.29 -1.27,0.1 -0.04,-0.02 -0.16,-0.06 -0.28,-0.16 -0.19,-0.16 -0.3,-0.38 -0.3,-0.64 -0,-0 -0,-0 -0,-0 -0,-0.02 -0.03,-1.95 -0.03,-2.71 0,-0.21 -0.3,-0.45 -0.56,-0.66 -0.15,-0.12 -0.31,-0.25 -0.43,-0.38 -0.13,-0.15 -0.2,-0.34 -0.19,-0.54 0,-0.18 0.07,-0.35 0.18,-0.46 0,-0 0.01,-0.01 0.01,-0.01 0.21,-0.19 0.41,-0.17 0.54,-0.13 0.13,0.05 0.23,0.14 0.32,0.23 0.02,0.02 0.04,0.04 0.07,0.06 0.02,-0.05 0.03,-0.11 0.04,-0.15 0.04,-0.14 0.08,-0.3 0.17,-0.43 0.13,-0.19 0.33,-0.27 0.56,-0.25 0.21,0.02 0.38,0.12 0.48,0.3 0.07,0.13 0.1,0.27 0.12,0.39 0,0.01 0,0.02 0.01,0.03 0.04,-0.04 0.08,-0.08 0.11,-0.11 0.08,-0.09 0.16,-0.18 0.26,-0.24 0.2,-0.14 0.37,-0.11 0.48,-0.06 0,0 0,0 0,0 0.21,0.09 0.34,0.26 0.38,0.47 0.09,0.52 -0.39,1.17 -0.59,1.35 -0.41,0.42 -1.06,0.55 -1.08,0.55 -0.14,0.03 -0.28,-0.07 -0.31,-0.21 -0.03,-0.14 0.07,-0.28 0.21,-0.31l0 0c0.01,-0 0.51,-0.1 0.81,-0.41 0,-0 0,-0 0.01,-0.01 0.17,-0.16 0.48,-0.65 0.43,-0.89 -0.01,-0.03 -0.02,-0.05 -0.05,-0.07 -0.05,0.03 -0.13,0.12 -0.17,0.17 -0.14,0.15 -0.32,0.34 -0.56,0.34 -0.02,0 -0.04,-0 -0.06,-0 -0.09,-0.01 -0.24,-0.06 -0.33,-0.26 -0.04,-0.09 -0.05,-0.18 -0.07,-0.27 -0.05,-0.26 -0.07,-0.26 -0.13,-0.26 -0.06,-0.01 -0.07,0.01 -0.09,0.03 -0.04,0.06 -0.07,0.17 -0.09,0.26 -0.03,0.09 -0.05,0.19 -0.09,0.28 -0.07,0.14 -0.17,0.23 -0.29,0.27 -0.09,0.03 -0.23,0.04 -0.39,-0.05 -0.08,-0.05 -0.15,-0.11 -0.21,-0.17 -0.03,-0.03 -0.09,-0.08 -0.12,-0.1 -0,0 -0.01,0.01 -0.01,0.01 -0.02,0.04 -0.05,0.17 0.04,0.27 0.09,0.1 0.22,0.21 0.37,0.32 0.35,0.29 0.75,0.61 0.75,1.07 0,0.75 0.03,2.63 0.03,2.7 0,0.1 0.04,0.19 0.12,0.25 0.06,0.05 0.11,0.07 0.11,0.07 0.01,0 0.02,0.01 0.02,0.01 0.29,0.12 0.58,0.11 0.75,-0.02 0,-0 0.01,-0.01 0.01,-0.01 0.13,-0.1 0.2,-0.29 0.21,-0.36 0,-0 0,-0 0,-0 0.39,-1.9 1.12,-2.67 1.15,-2.7 0,-0 0,-0 0,-0 1.81,-1.82 2.09,-3.49 0.88,-5.26 -1.24,-1.78 -3.41,-1.84 -4.48,-1.46 -1.26,0.45 -2.17,1.36 -2.49,2.48 -0.36,1.29 0.05,2.76 1.17,4.15 0.01,0.01 0.02,0.02 0.03,0.04 0.52,0.95 0.56,1.65 0.59,2.16 0.03,0.52 0.05,0.79 0.48,1.09 0.42,0.29 1.11,0.49 1.72,0.66 0.79,0.23 1.36,0.39 1.53,0.74 0.06,0.13 0.06,0.27 0.01,0.4 -0.05,0.11 -0.16,0.24 -0.43,0.25 -0.12,0 -0.28,-0.01 -0.48,-0.06 -0.34,-0.07 -0.78,-0.21 -1.2,-0.35 -0.35,-0.11 -0.7,-0.23 -1,-0.3 -0.07,-0.02 -0.13,-0.03 -0.18,-0.04 0.06,0.03 0.12,0.06 0.2,0.09 0.3,0.12 0.67,0.24 1.04,0.35 0.43,0.13 0.83,0.26 1.14,0.4 0.18,0.08 0.32,0.16 0.41,0.24 0.21,0.18 0.21,0.37 0.18,0.47 -0.03,0.11 -0.1,0.2 -0.2,0.25 -0.33,0.18 -0.98,-0.01 -2.01,-0.35 -0.25,-0.08 -0.49,-0.16 -0.69,-0.22 0.02,0.01 0.04,0.02 0.07,0.03 0.3,0.14 0.7,0.27 1.08,0.39 0.32,0.1 0.62,0.19 0.84,0.29 0.14,0.06 0.24,0.12 0.31,0.18 0.17,0.15 0.18,0.31 0.17,0.39 -0.02,0.13 -0.09,0.23 -0.2,0.3 -0.08,0.04 -0.19,0.09 -0.38,0.09 -0.21,0 -0.53,-0.05 -1.01,-0.18 -0.18,-0.05 -0.35,-0.11 -0.5,-0.15 0.05,0.18 0.14,0.37 0.29,0.46 0.18,0.11 0.45,0.08 0.8,-0.1 0.13,-0.06 0.29,-0.01 0.35,0.12 0.06,0.13 0.01,0.29 -0.12,0.35 -0.29,0.14 -0.55,0.22 -0.79,0.22z"/>
  <rect class="fil2" transform="matrix(1.45042E-14 0.335991 -0.776925 1.2624E-14 32.7656 21.5858)" width="10.69" height="1.1" rx="0.55" ry="0.55"/>
  <rect class="fil2" transform="matrix(-0.213762 0.259222 -0.599408 -0.494289 37.9216 23.8641)" width="10.69" height="1.1" rx="0.55" ry="0.55"/>
  <rect class="fil2" transform="matrix(0.213762 0.259222 0.599408 -0.494289 26.901 23.8641)" width="10.69" height="1.1" rx="0.55" ry="0.55"/>
  <rect class="fil2" x="25.78" y="44" width="5.8" height="1.45"/>
  <rect class="fil2" x="33.23" y="44" width="5.8" height="1.45"/>
  <path class="fil5" d="M48.14 63.24c-16.14,-3.96 -38.7,15.09 -47.56,-7.68 -3.98,-14 13.61,-39.4 21.74,-47.04 43.01,-40.45 99.03,77.58 25.83,54.72z"/>
  <path class="fil6" d="M47.72 61.09c-15.22,-3.68 -36.49,14.02 -44.84,-7.14 -3.75,-13 12.84,-36.6 20.5,-43.69 40.55,-37.57 93.36,72.06 24.35,50.83z"/>
  <path class="fil7" d="M65.31 20.92l-46.43 0 0 33.23 18.14 0c0.27,2.45 2.55,4.23 5.37,4.22 1.62,-0.01 3.84,-1.26 4.57,-4.22l18.35 0 0 -33.23z"/>
  <path class="fil5" d="M64 22.33l-43.82 0 0 30.53 17.97 0c0.02,4.8 6.59,5.58 7.78,0l18.07 0 0 -30.53z"/>
  <path class="fil7" d="M62.06 51.01l-39.93 0 0 -33.99c4.6,0 15.98,-1.79 18.91,2.13 0,0 1.12,1.71 2.42,0.01 2.95,-3.76 14.22,-2.14 18.6,-2.14l0 33.99z"/>
  <path class="fil5" d="M60.93 49.7l-37.68 0 0 -31.23c4.34,0 15.03,-1.57 17.8,2.03 0,0 1.14,1.56 2.37,0 2.79,-3.46 13.38,-2.03 17.51,-2.03l0 31.23z"/>
  <rect class="fil7" x="41.49" y="20.92" width="1.48" height="15.43"/>
  <rect class="fil7" x="41.49" y="42.16" width="1.48" height="8.53"/>
  <polygon class="fil8" points="45.61,30.94 47.41,30.94 47.41,29.05 48.86,29.05 48.86,30.94 50.21,30.94 50.21,27.06 51.66,27.06 51.66,30.94 53.15,30.94 53.15,24.87 54.6,24.87 54.6,30.94 56.01,30.94 56.01,22.27 57.46,22.27 57.46,30.94 58.71,30.94 58.71,32.39 57.46,32.39 56.01,32.39 51.66,32.39 50.21,32.39 45.61,32.39 "/>
  <rect class="fil8" x="45.61" y="34.52" width="13.11" height="1.45"/>
  <rect class="fil8" x="45.61" y="37.57" width="5.8" height="1.45"/>
  <rect class="fil8" x="53.06" y="37.57" width="5.8" height="1.45"/>
  <rect class="fil8" x="45.61" y="40.9" width="13.11" height="1.45"/>
  <rect class="fil8" x="45.61" y="43.95" width="5.8" height="1.45"/>
  <rect class="fil8" x="53.06" y="43.95" width="5.8" height="1.45"/>
  <path class="fil9" d="M32.09 41.93c-0.19,0 -0.36,-0.05 -0.51,-0.14 -0.25,-0.15 -0.44,-0.43 -0.54,-0.8 -0.07,-0.26 -0.08,-0.48 -0.08,-0.49 -0,-0.09 0.04,-0.17 0.11,-0.22 0.07,-0.05 0.16,-0.06 0.24,-0.03 0,0 0.41,0.15 0.85,0.28 0.26,0.07 0.45,0.12 0.6,0.14 -0.17,-0.06 -0.38,-0.13 -0.6,-0.19 -0.41,-0.12 -0.82,-0.25 -1.16,-0.42 -0.2,-0.1 -0.35,-0.19 -0.45,-0.3 -0.19,-0.19 -0.22,-0.38 -0.21,-0.5 0,-0 0,-0 0,-0.01 0.01,-0.1 0.06,-0.19 0.14,-0.24 0.22,-0.14 0.55,-0.05 1.53,0.27 0.35,0.12 0.72,0.23 1.03,0.31 0.07,0.02 0.13,0.03 0.18,0.04 -0.03,-0.01 -0.07,-0.03 -0.11,-0.04 -0.27,-0.11 -0.6,-0.21 -0.95,-0.32 -0.42,-0.13 -0.86,-0.27 -1.2,-0.42 -0.33,-0.14 -0.7,-0.35 -0.68,-0.69 0,-0.13 0.06,-0.23 0.16,-0.3 0.16,-0.12 0.42,-0.12 0.87,-0.01 0.32,0.08 0.72,0.2 1.1,0.33 0.35,0.11 0.71,0.23 1,0.3 0.14,0.04 0.25,0.06 0.32,0.07 -0.05,-0.03 -0.11,-0.06 -0.2,-0.09 -0.23,-0.09 -0.53,-0.18 -0.86,-0.27 -0.65,-0.19 -1.38,-0.4 -1.87,-0.73 -0.3,-0.2 -0.48,-0.43 -0.58,-0.71 -0.09,-0.24 -0.11,-0.5 -0.12,-0.78 -0.03,-0.48 -0.06,-1.08 -0.52,-1.92 -0.62,-0.78 -1.04,-1.58 -1.25,-2.38 -0.2,-0.77 -0.2,-1.52 -0,-2.22 0.18,-0.65 0.52,-1.22 1.01,-1.71 0.49,-0.49 1.09,-0.86 1.8,-1.12 0,-0 0,-0 0,-0 0.31,-0.11 0.69,-0.18 1.08,-0.21 0.45,-0.03 0.91,0.01 1.35,0.1 1.1,0.24 2.02,0.85 2.65,1.76 0,0 0,0 0,0 0.38,0.56 0.63,1.12 0.75,1.68 0.11,0.52 0.1,1.05 -0.02,1.57 -0.21,0.89 -0.75,1.76 -1.66,2.67 -0.01,0.02 -0.17,0.19 -0.37,0.56 -0.19,0.36 -0.46,0.97 -0.64,1.88 -0.01,0.05 -0.1,0.45 -0.41,0.68 -0.32,0.25 -0.8,0.29 -1.27,0.1 -0.04,-0.02 -0.16,-0.06 -0.28,-0.16 -0.19,-0.16 -0.3,-0.38 -0.3,-0.64 -0,-0 -0,-0 -0,-0 -0,-0.02 -0.03,-1.95 -0.03,-2.71 0,-0.21 -0.3,-0.45 -0.56,-0.66 -0.15,-0.12 -0.31,-0.25 -0.43,-0.38 -0.13,-0.15 -0.2,-0.34 -0.19,-0.54 0,-0.18 0.07,-0.35 0.18,-0.46 0,-0 0.01,-0.01 0.01,-0.01 0.21,-0.19 0.41,-0.17 0.54,-0.13 0.13,0.05 0.23,0.14 0.32,0.23 0.02,0.02 0.04,0.04 0.07,0.06 0.02,-0.05 0.03,-0.11 0.04,-0.15 0.04,-0.14 0.08,-0.3 0.17,-0.43 0.13,-0.19 0.33,-0.27 0.56,-0.25 0.21,0.02 0.38,0.12 0.48,0.3 0.07,0.13 0.1,0.27 0.12,0.39 0,0.01 0,0.02 0.01,0.03 0.04,-0.04 0.08,-0.08 0.11,-0.11 0.08,-0.09 0.16,-0.18 0.26,-0.24 0.2,-0.14 0.37,-0.11 0.48,-0.06 0,0 0,0 0,0 0.21,0.09 0.34,0.26 0.38,0.47 0.09,0.52 -0.39,1.17 -0.59,1.35 -0.41,0.42 -1.06,0.55 -1.08,0.55 -0.14,0.03 -0.28,-0.07 -0.31,-0.21 -0.03,-0.14 0.07,-0.28 0.21,-0.31l0 0c0.01,-0 0.51,-0.1 0.81,-0.41 0,-0 0,-0 0.01,-0.01 0.17,-0.16 0.48,-0.65 0.43,-0.89 -0.01,-0.03 -0.02,-0.05 -0.05,-0.07 -0.05,0.03 -0.13,0.12 -0.17,0.17 -0.14,0.15 -0.32,0.34 -0.56,0.34 -0.02,0 -0.04,-0 -0.06,-0 -0.09,-0.01 -0.24,-0.06 -0.33,-0.26 -0.04,-0.09 -0.05,-0.18 -0.07,-0.27 -0.05,-0.26 -0.07,-0.26 -0.13,-0.26 -0.06,-0.01 -0.07,0.01 -0.09,0.03 -0.04,0.06 -0.07,0.17 -0.09,0.26 -0.03,0.09 -0.05,0.19 -0.09,0.28 -0.07,0.14 -0.17,0.23 -0.29,0.27 -0.09,0.03 -0.23,0.04 -0.39,-0.05 -0.08,-0.05 -0.15,-0.11 -0.21,-0.17 -0.03,-0.03 -0.09,-0.08 -0.12,-0.1 -0,0 -0.01,0.01 -0.01,0.01 -0.02,0.04 -0.05,0.17 0.04,0.27 0.09,0.1 0.22,0.21 0.37,0.32 0.35,0.29 0.75,0.61 0.75,1.07 0,0.75 0.03,2.63 0.03,2.7 0,0.1 0.04,0.19 0.12,0.25 0.06,0.05 0.11,0.07 0.11,0.07 0.01,0 0.02,0.01 0.02,0.01 0.29,0.12 0.58,0.11 0.75,-0.02 0,-0 0.01,-0.01 0.01,-0.01 0.13,-0.1 0.2,-0.29 0.21,-0.36 0,-0 0,-0 0,-0 0.39,-1.9 1.12,-2.67 1.15,-2.7 0,-0 0,-0 0,-0 1.81,-1.82 2.09,-3.49 0.88,-5.26 -1.24,-1.78 -3.41,-1.84 -4.48,-1.46 -1.26,0.45 -2.17,1.36 -2.49,2.48 -0.36,1.29 0.05,2.76 1.17,4.15 0.01,0.01 0.02,0.02 0.03,0.04 0.52,0.95 0.56,1.65 0.59,2.16 0.03,0.52 0.05,0.79 0.48,1.09 0.42,0.29 1.11,0.49 1.72,0.66 0.79,0.23 1.36,0.39 1.53,0.74 0.06,0.13 0.06,0.27 0.01,0.4 -0.05,0.11 -0.16,0.24 -0.43,0.25 -0.12,0 -0.28,-0.01 -0.48,-0.06 -0.34,-0.07 -0.78,-0.21 -1.2,-0.35 -0.35,-0.11 -0.7,-0.23 -1,-0.3 -0.07,-0.02 -0.13,-0.03 -0.18,-0.04 0.06,0.03 0.12,0.06 0.2,0.09 0.3,0.12 0.67,0.24 1.04,0.35 0.43,0.13 0.83,0.26 1.14,0.4 0.18,0.08 0.32,0.16 0.41,0.24 0.21,0.18 0.21,0.37 0.18,0.47 -0.03,0.11 -0.1,0.2 -0.2,0.25 -0.33,0.18 -0.98,-0.01 -2.01,-0.35 -0.25,-0.08 -0.49,-0.16 -0.69,-0.22 0.02,0.01 0.04,0.02 0.07,0.03 0.3,0.14 0.7,0.27 1.08,0.39 0.32,0.1 0.62,0.19 0.84,0.29 0.14,0.06 0.24,0.12 0.31,0.18 0.17,0.15 0.18,0.31 0.17,0.39 -0.02,0.13 -0.09,0.23 -0.2,0.3 -0.08,0.04 -0.19,0.09 -0.38,0.09 -0.21,0 -0.53,-0.05 -1.01,-0.18 -0.18,-0.05 -0.35,-0.11 -0.5,-0.15 0.05,0.18 0.14,0.37 0.29,0.46 0.18,0.11 0.45,0.08 0.8,-0.1 0.13,-0.06 0.29,-0.01 0.35,0.12 0.06,0.13 0.01,0.29 -0.12,0.35 -0.29,0.14 -0.55,0.22 -0.79,0.22z"/>
  <rect class="fil8" transform="matrix(1.45042E-14 0.335991 -0.776925 1.2624E-14 32.7656 21.5858)" width="10.69" height="1.1" rx="0.55" ry="0.55"/>
  <rect class="fil8" transform="matrix(-0.213762 0.259222 -0.599408 -0.494289 37.9216 23.8641)" width="10.69" height="1.1" rx="0.55" ry="0.55"/>
  <rect class="fil8" transform="matrix(0.213762 0.259222 0.599408 -0.494289 26.901 23.8641)" width="10.69" height="1.1" rx="0.55" ry="0.55"/>
  <rect class="fil8" x="25.78" y="44" width="5.8" height="1.45"/>
  <rect class="fil8" x="33.23" y="44" width="5.8" height="1.45"/>
 </g>
</svg>
