<?xml version="1.0" encoding="UTF-8"?>
<!DOCTYPE svg PUBLIC "-//W3C//DTD SVG 1.1//EN" "http://www.w3.org/Graphics/SVG/1.1/DTD/svg11.dtd">
<!-- Creator: CorelDRAW 2017 -->
<svg xmlns="http://www.w3.org/2000/svg" xml:space="preserve" width="55.3425mm" height="44.3225mm" version="1.1" style="shape-rendering:geometricPrecision; text-rendering:geometricPrecision; image-rendering:optimizeQuality; fill-rule:evenodd; clip-rule:evenodd"
viewBox="0 0 212.56 170.24"
 xmlns:xlink="http://www.w3.org/1999/xlink">
 <defs>
  <style type="text/css">
   <![CDATA[
    .str1 {stroke:#4A5051;stroke-width:1.31;stroke-linecap:round;stroke-linejoin:round;stroke-miterlimit:10}
    .str0 {stroke:#F4CAAE;stroke-width:1.31;stroke-linecap:round;stroke-linejoin:round;stroke-miterlimit:10}
    .str6 {stroke:#F4CAAE;stroke-width:1.31;stroke-linecap:round;stroke-linejoin:round;stroke-miterlimit:10}
    .str3 {stroke:#F4CAAE;stroke-width:1.31;stroke-linecap:round;stroke-linejoin:round;stroke-miterlimit:10}
    .str2 {stroke:#F4CAAE;stroke-width:1.31;stroke-linecap:round;stroke-linejoin:round;stroke-miterlimit:10}
    .str5 {stroke:#F4CAAE;stroke-width:0.66;stroke-linecap:round;stroke-linejoin:round;stroke-miterlimit:10}
    .str4 {stroke:#F4CAAE;stroke-width:0.98;stroke-linecap:round;stroke-linejoin:round;stroke-miterlimit:10}
    .fil6 {fill:none;fill-rule:nonzero}
    .fil0 {fill:#232946}
    .fil1 {fill:#FCEFE9}
    .fil2 {fill:#FEFEFE;fill-rule:nonzero}
    .fil4 {fill:#F3F4F4;fill-rule:nonzero}
    .fil5 {fill:#9FD4C5;fill-rule:nonzero}
    .fil7 {fill:#4A5051;fill-rule:nonzero}
    .fil3 {fill:#232946;fill-rule:nonzero}
    .fil9 {fill:#424E87;fill-rule:nonzero}
    .fil8 {fill:#F4CAAE;fill-rule:nonzero}
   ]]>
  </style>
 </defs>
 <g id="Layer_x0020_1">
  <metadata id="CorelCorpID_0Corel-Layer"/>
  <path class="fil0" d="M122.39 160.77c-41.03,-10.06 -98.39,38.37 -120.92,-19.53 -10.12,-35.58 34.61,-100.16 55.26,-119.58 109.35,-102.83 251.74,197.22 65.65,139.12z"/>
  <path class="fil1" d="M121.3 155.31c-38.69,-9.35 -92.76,35.64 -114,-18.14 -9.54,-33.05 32.63,-93.03 52.1,-111.08 103.09,-95.52 237.34,183.19 61.9,129.22z"/>
  <path class="fil2" d="M187.05 127.66l-156.02 0 0 1.97c0,5.25 4.26,9.51 9.51,9.51l137.01 0c5.25,0 9.51,-4.26 9.51,-9.51l0 -1.97z"/>
  <path class="fil3 str0" d="M187.05 127.66l-156.02 0 0 1.97c0,5.25 4.26,9.51 9.51,9.51l137.01 0c5.25,0 9.51,-4.26 9.51,-9.51l0 -1.97z"/>
  <polygon class="fil4" points="92.55,133.39 125.54,133.39 125.54,127.66 92.55,127.66 "/>
  <polygon class="fil3 str0" points="92.55,133.39 125.54,133.39 125.54,127.66 92.55,127.66 "/>
  <path class="fil2" d="M166.1 54.23l-114.12 0c-3.7,0 -6.69,3 -6.69,6.69l0 66.73 127.5 0 0 -66.73c0,-3.7 -3,-6.69 -6.69,-6.69z"/>
  <path class="fil3 str0" d="M166.1 54.23l-114.12 0c-3.7,0 -6.69,3 -6.69,6.69l0 66.73 127.5 0 0 -66.73c0,-3.7 -3,-6.69 -6.69,-6.69z"/>
  <polygon class="fil5" points="51.85,121.1 166.24,121.1 166.24,60.79 51.85,60.79 "/>
  <polygon class="fil6 str1" points="51.85,121.1 166.24,121.1 166.24,60.79 51.85,60.79 "/>
  <polygon class="fil5" points="51.85,121.1 166.24,121.1 166.24,60.79 51.85,60.79 "/>
  <polygon class="fil3 str0" points="51.85,121.1 166.24,121.1 166.24,60.79 51.85,60.79 "/>
  <path class="fil7" d="M107.9 57.51c0,-0.63 0.51,-1.15 1.15,-1.15 0.63,0 1.15,0.51 1.15,1.15 0,0.63 -0.51,1.15 -1.15,1.15 -0.63,0 -1.15,-0.51 -1.15,-1.15z"/>
  <g>
   <path class="fil8" d="M107.97 57.51c0,-0.59 0.48,-1.08 1.08,-1.08 0.59,0 1.08,0.48 1.08,1.08 0,0.59 -0.48,1.08 -1.08,1.08 -0.59,0 -1.08,-0.48 -1.08,-1.08z"/>
   <path id="1" class="fil8" d="M109.04 55.82l0 1.23 0 0 -0.03 0 -0.02 0 -0.02 0 -0.02 0 -0.02 0 -0.02 0.01 -0.02 0.01 -0.02 0.01 -0.02 0.01 -0.02 0.01 -0.02 0.01 -0.02 0.01 -0.02 0.01 -0.02 0.01 -0.02 0.02 -0.02 0.01 -0.01 0.02 -0.02 0.02 -0.01 0.02 -0.01 0.02 -0.01 0.02 -0.01 0.02 -0.01 0.02 -0.01 0.02 -0.01 0.02 -0.01 0.02 -0.01 0.02 -0 0.02 -0 0.02 -0 0.02 -0 0.02 -0 0.03 -1.23 0 0 -0.09 0.01 -0.09 0.01 -0.09 0.01 -0.08 0.02 -0.08 0.02 -0.08 0.03 -0.08 0.03 -0.08 0.03 -0.08 0.04 -0.07 0.04 -0.07 0.04 -0.07 0.05 -0.07 0.05 -0.06 0.05 -0.06 0.06 -0.06 0.06 -0.06 0.06 -0.05 0.06 -0.05 0.07 -0.05 0.07 -0.04 0.07 -0.04 0.07 -0.04 0.08 -0.03 0.08 -0.03 0.08 -0.03 0.08 -0.02 0.08 -0.02 0.08 -0.01 0.09 -0.01 0.09 -0.01 0.09 -0 0 0zm0 0c0.34,0 0.61,0.28 0.61,0.61 0,0.34 -0.28,0.61 -0.61,0.61l0 -1.23zm1.69 1.69l-1.23 0 0 0 -0 -0.03 -0 -0.02 -0 -0.02 -0 -0.02 -0 -0.02 -0.01 -0.02 -0.01 -0.02 -0.01 -0.02 -0.01 -0.02 -0.01 -0.02 -0.01 -0.02 -0.01 -0.02 -0.01 -0.02 -0.01 -0.02 -0.01 -0.02 -0.02 -0.02 -0.01 -0.01 -0.02 -0.02 -0.02 -0.01 -0.02 -0.01 -0.02 -0.01 -0.02 -0.01 -0.02 -0.01 -0.02 -0.01 -0.02 -0.01 -0.02 -0.01 -0.02 -0.01 -0.02 -0 -0.02 -0 -0.02 -0 -0.02 -0 -0.03 -0 0 -1.23 0.09 0 0.09 0.01 0.09 0.01 0.08 0.01 0.08 0.02 0.08 0.02 0.08 0.03 0.08 0.03 0.08 0.03 0.07 0.04 0.07 0.04 0.07 0.04 0.07 0.05 0.06 0.05 0.06 0.05 0.06 0.06 0.06 0.06 0.05 0.06 0.05 0.06 0.05 0.06 0.04 0.07 0.04 0.07 0.04 0.07 0.03 0.08 0.03 0.08 0.03 0.08 0.02 0.08 0.02 0.08 0.01 0.08 0.01 0.09 0.01 0.09 0 0.09 0 0zm0 0c0,0.34 -0.28,0.61 -0.61,0.61 -0.34,0 -0.61,-0.28 -0.61,-0.61l1.23 0zm-1.69 1.69l0 -1.23 0 0 0.03 -0 0.02 -0 0.02 -0 0.02 -0 0.02 -0 0.02 -0.01 0.02 -0.01 0.02 -0.01 0.02 -0.01 0.02 -0.01 0.02 -0.01 0.02 -0.01 0.02 -0.01 0.02 -0.01 0.02 -0.01 0.02 -0.02 0.02 -0.02 0.01 -0.02 0.01 -0.02 0.01 -0.02 0.01 -0.02 0.01 -0.02 0.01 -0.02 0.01 -0.02 0.01 -0.02 0.01 -0.02 0.01 -0.02 0.01 -0.02 0 -0.02 0 -0.02 0 -0.02 0 -0.03 1.23 0 -0 0.09 -0.01 0.09 -0.01 0.09 -0.01 0.08 -0.02 0.08 -0.02 0.08 -0.03 0.08 -0.03 0.08 -0.03 0.08 -0.04 0.07 -0.04 0.07 -0.04 0.07 -0.05 0.07 -0.05 0.06 -0.05 0.06 -0.06 0.06 -0.06 0.06 -0.06 0.05 -0.06 0.05 -0.07 0.05 -0.07 0.04 -0.07 0.04 -0.07 0.04 -0.08 0.03 -0.08 0.03 -0.08 0.03 -0.08 0.02 -0.08 0.02 -0.08 0.01 -0.09 0.01 -0.09 0.01 -0.09 0 0 0zm0 0c-0.34,0 -0.61,-0.28 -0.61,-0.61 0,-0.34 0.28,-0.61 0.61,-0.61l0 1.23zm-1.69 -1.69l1.23 0 0 0 0 0.03 0 0.02 0 0.02 0 0.02 0.01 0.02 0.01 0.02 0.01 0.02 0.01 0.02 0.01 0.02 0.01 0.02 0.01 0.02 0.01 0.02 0.01 0.02 0.01 0.02 0.02 0.02 0.01 0.01 0.02 0.02 0.02 0.01 0.02 0.01 0.02 0.01 0.02 0.01 0.02 0.01 0.02 0.01 0.02 0.01 0.02 0.01 0.02 0.01 0.02 0.01 0.02 0 0.02 0 0.02 0 0.02 0 0.03 0 0 1.23 -0.09 -0 -0.09 -0.01 -0.09 -0.01 -0.08 -0.01 -0.08 -0.02 -0.08 -0.02 -0.08 -0.03 -0.08 -0.03 -0.08 -0.03 -0.07 -0.04 -0.07 -0.04 -0.07 -0.04 -0.06 -0.05 -0.06 -0.05 -0.06 -0.05 -0.06 -0.06 -0.06 -0.06 -0.05 -0.06 -0.05 -0.06 -0.05 -0.07 -0.04 -0.07 -0.04 -0.07 -0.04 -0.07 -0.03 -0.08 -0.03 -0.08 -0.03 -0.08 -0.02 -0.08 -0.02 -0.08 -0.01 -0.08 -0.01 -0.09 -0.01 -0.09 -0 -0.09 0 0zm0 0c0,-0.34 0.28,-0.61 0.61,-0.61 0.34,0 0.61,0.28 0.61,0.61l-1.23 0z"/>
  </g>
  <path class="fil8" d="M97.68 85.23c0.22,-0.62 0.65,-0.98 1.31,-1.13 1.34,0.46 2.12,1.78 2.12,1.78 0,0 -0.52,-5.45 0.71,-9.77 0.51,-0.96 1.15,-1.89 1.97,-2.72 2.06,-2.06 4.86,-3.1 8.35,-3.1 3.48,0 6.29,1.04 8.34,3.1 0.81,0.81 1.44,1.73 1.94,2.66 1.26,4.34 0.73,9.83 0.73,9.83 0,0 0.77,-1.33 2.12,-1.78 0.66,0.16 1.09,0.51 1.32,1.14 0.75,2.09 -0.94,6.07 -2.08,7.26 -1.24,1.3 -1.9,1.45 -2.03,1.47l-0.71 -0.19 -0.12 0.8c-0,0.01 -0.17,1.08 -0.64,2.56 -1.61,5.01 -6.19,7.68 -8.87,7.68 -2.69,0 -7.27,-2.67 -8.87,-7.68 -0.5,-1.56 -0.64,-2.54 -0.64,-2.55l-0.12 -0.81 -0.72 0.19c-0.13,-0.02 -0.79,-0.17 -2.03,-1.47 -1.14,-1.19 -2.83,-5.17 -2.08,-7.26zm3.6 10.11c0.1,0.48 0.28,1.25 0.59,2.24 1.71,5.37 6.66,8.69 10.26,8.69 3.59,0 8.54,-3.32 10.26,-8.69 0.31,-0.95 0.49,-1.75 0.59,-2.24 0.6,-0.17 1.45,-0.66 2.58,-1.84 1.38,-1.45 3.39,-5.99 2.4,-8.76 -0.27,-0.76 -0.75,-1.32 -1.39,-1.69 -0.14,-2.43 -0.86,-8.89 -4.55,-10.14 -0.16,-0.18 -0.32,-0.36 -0.5,-0.54 -2.34,-2.35 -5.5,-3.54 -9.38,-3.54 -3.89,0 -7.04,1.19 -9.38,3.54 -0.17,0.17 -0.33,0.35 -0.49,0.53 -3.72,1.24 -4.44,7.74 -4.57,10.16 -0.63,0.37 -1.11,0.93 -1.38,1.68 -1,2.77 1.01,7.31 2.4,8.76 1.13,1.18 1.98,1.67 2.58,1.84z"/>
  <path class="fil8" d="M103.32 86.62c0,-0.49 0.4,-0.89 0.89,-0.89l4.69 0c0.49,0 0.89,0.4 0.89,0.89l0 1.66c0,0.49 -0.4,0.89 -0.89,0.89l-4.69 0c-0.49,0 -0.89,-0.4 -0.89,-0.89l0 -1.66zm11.21 0c0,-0.49 0.4,-0.89 0.89,-0.89l4.69 0c0.49,0 0.89,0.4 0.89,0.89l0 1.66c0,0.49 -0.4,0.89 -0.89,0.89l-4.69 0c-0.49,0 -0.89,-0.4 -0.89,-0.89l0 -1.66zm-10.32 3.62l4.69 0c1.08,0 1.96,-0.88 1.96,-1.96l0 -1.66c0,-0.05 -0.01,-0.1 -0.01,-0.15l2.64 0c-0,0.05 -0.01,0.1 -0.01,0.15l0 1.66c0,1.08 0.88,1.96 1.96,1.96l4.69 0c1.08,0 1.96,-0.88 1.96,-1.96l0 -1.66c0,-1.08 -0.88,-1.96 -1.96,-1.96l-4.69 0c-0.77,0 -1.43,0.45 -1.75,1.1l-3.02 0c-0.32,-0.65 -0.98,-1.1 -1.75,-1.1l-4.69 0c-1.08,0 -1.96,0.88 -1.96,1.96l0 1.66c0,1.08 0.88,1.96 1.96,1.96z"/>
  <path class="fil8" d="M110.8 107.91c-0.78,0 -1.42,0.67 -1.42,1.49l0 2.96c0,0.82 0.64,1.49 1.42,1.49l2.66 0c0.78,0 1.42,-0.67 1.42,-1.49l0 -2.96c0,-0.82 -0.64,-1.49 -1.42,-1.49l-2.66 0z"/>
  <polygon class="fil8" points="108.7,117.93 101.99,107.06 98.81,108.33 106.84,119.9 109.92,119.9 108.7,117.93 "/>
  <path class="fil8" d="M92.12 110.48c-0.58,0.31 -4.23,7.96 -4.23,7.96l0 2 17.99 0 -8.44 -12.15c-2.47,0.99 -5.03,2.03 -5.33,2.19z"/>
  <polygon class="fil8" points="122.27,107.06 114.34,119.9 117.42,119.9 125.45,108.33 "/>
  <path class="fil8" d="M132.2 110.48c-0.29,-0.16 -2.89,-1.21 -5.38,-2.21l-8.46 12.17 18.06 0 0 -2c0,0 -3.65,-7.65 -4.23,-7.96z"/>
  <path class="fil8" d="M114.36 114.7c-0.23,0.14 -0.51,0.23 -0.81,0.23l-2.85 0c-0.32,0 -0.62,-0.1 -0.86,-0.27l-0.68 1.94 2.39 3.88 1.14 0 2.35 -3.8 -0.69 -1.97z"/>
  <line class="fil6 str2" x1="57.97" y1="97.87" x2="89.33" y2= "97.87" />
  <line class="fil6 str2" x1="57.97" y1="101.37" x2="89.33" y2= "101.37" />
  <line class="fil6 str2" x1="57.97" y1="104.87" x2="89.33" y2= "104.87" />
  <line class="fil6 str3" x1="139.2" y1="77.93" x2="154.51" y2= "77.93" />
  <line class="fil6 str3" x1="139.2" y1="80.91" x2="154.51" y2= "80.91" />
  <line class="fil6 str3" x1="139.2" y1="83.9" x2="154.51" y2= "83.9" />
  <line class="fil6 str3" x1="139.2" y1="86.88" x2="154.51" y2= "86.88" />
  <path class="fil9 str4" d="M62.15 90.85c0,-1.93 1.56,-3.49 3.49,-3.49 1.93,0 3.49,1.56 3.49,3.49 0,1.92 -1.56,3.49 -3.49,3.49 -1.92,0 -3.49,-1.56 -3.49,-3.49z"/>
  <path class="fil9 str4" d="M80.97 90.85c0,-1.27 1.03,-2.3 2.3,-2.3 1.27,0 2.3,1.03 2.3,2.3 0,1.27 -1.03,2.3 -2.3,2.3 -1.27,0 -2.3,-1.03 -2.3,-2.3z"/>
  <polygon class="fil9 str4" points="71.94,94.05 75.25,88.2 78.59,94.05 "/>
  <path class="fil9 str5" d="M141.77 108.54c0,-1.29 1.04,-2.33 2.33,-2.33 1.29,0 2.33,1.04 2.33,2.33 0,1.29 -1.04,2.33 -2.33,2.33 -1.29,0 -2.33,-1.04 -2.33,-2.33z"/>
  <path class="fil9 str5" d="M154.37 108.54c0,-0.85 0.69,-1.54 1.54,-1.54 0.85,0 1.54,0.69 1.54,1.54 0,0.85 -0.69,1.54 -1.54,1.54 -0.85,0 -1.54,-0.69 -1.54,-1.54z"/>
  <polygon class="fil9 str5" points="148.33,110.68 150.54,106.76 152.77,110.68 "/>
  <line class="fil6 str6" x1="141.97" y1="113.03" x2="157.28" y2= "113.03" />
  <line class="fil6 str6" x1="141.97" y1="116.02" x2="157.28" y2= "116.02" />
  <path class="fil0" d="M122.39 160.77c-41.03,-10.06 -98.39,38.37 -120.92,-19.53 -10.12,-35.58 34.61,-100.16 55.26,-119.58 109.35,-102.83 251.74,197.22 65.65,139.12z"/>
  <path class="fil1" d="M121.3 155.31c-38.69,-9.35 -92.76,35.64 -114,-18.14 -9.54,-33.05 32.63,-93.03 52.1,-111.08 103.09,-95.52 237.34,183.19 61.9,129.22z"/>
  <path class="fil2" d="M187.05 127.66l-156.02 0 0 1.97c0,5.25 4.26,9.51 9.51,9.51l137.01 0c5.25,0 9.51,-4.26 9.51,-9.51l0 -1.97z"/>
  <path class="fil3 str0" d="M187.05 127.66l-156.02 0 0 1.97c0,5.25 4.26,9.51 9.51,9.51l137.01 0c5.25,0 9.51,-4.26 9.51,-9.51l0 -1.97z"/>
  <polygon class="fil4" points="92.55,133.39 125.54,133.39 125.54,127.66 92.55,127.66 "/>
  <polygon class="fil3 str0" points="92.55,133.39 125.54,133.39 125.54,127.66 92.55,127.66 "/>
  <path class="fil2" d="M166.1 54.23l-114.12 0c-3.7,0 -6.69,3 -6.69,6.69l0 66.73 127.5 0 0 -66.73c0,-3.7 -3,-6.69 -6.69,-6.69z"/>
  <path class="fil3 str0" d="M166.1 54.23l-114.12 0c-3.7,0 -6.69,3 -6.69,6.69l0 66.73 127.5 0 0 -66.73c0,-3.7 -3,-6.69 -6.69,-6.69z"/>
  <polygon class="fil5" points="51.85,121.1 166.24,121.1 166.24,60.79 51.85,60.79 "/>
  <polygon class="fil6 str1" points="51.85,121.1 166.24,121.1 166.24,60.79 51.85,60.79 "/>
  <polygon class="fil5" points="51.85,121.1 166.24,121.1 166.24,60.79 51.85,60.79 "/>
  <polygon class="fil3 str0" points="51.85,121.1 166.24,121.1 166.24,60.79 51.85,60.79 "/>
  <path class="fil7" d="M107.9 57.51c0,-0.63 0.51,-1.15 1.15,-1.15 0.63,0 1.15,0.51 1.15,1.15 0,0.63 -0.51,1.15 -1.15,1.15 -0.63,0 -1.15,-0.51 -1.15,-1.15z"/>
  <g>
   <path class="fil8" d="M107.97 57.51c0,-0.59 0.48,-1.08 1.08,-1.08 0.59,0 1.08,0.48 1.08,1.08 0,0.59 -0.48,1.08 -1.08,1.08 -0.59,0 -1.08,-0.48 -1.08,-1.08z"/>
   <path id="1" class="fil8" d="M109.04 55.82l0 1.23 0 0 -0.03 0 -0.02 0 -0.02 0 -0.02 0 -0.02 0 -0.02 0.01 -0.02 0.01 -0.02 0.01 -0.02 0.01 -0.02 0.01 -0.02 0.01 -0.02 0.01 -0.02 0.01 -0.02 0.01 -0.02 0.02 -0.02 0.01 -0.01 0.02 -0.02 0.02 -0.01 0.02 -0.01 0.02 -0.01 0.02 -0.01 0.02 -0.01 0.02 -0.01 0.02 -0.01 0.02 -0.01 0.02 -0.01 0.02 -0 0.02 -0 0.02 -0 0.02 -0 0.02 -0 0.03 -1.23 0 0 -0.09 0.01 -0.09 0.01 -0.09 0.01 -0.08 0.02 -0.08 0.02 -0.08 0.03 -0.08 0.03 -0.08 0.03 -0.08 0.04 -0.07 0.04 -0.07 0.04 -0.07 0.05 -0.07 0.05 -0.06 0.05 -0.06 0.06 -0.06 0.06 -0.06 0.06 -0.05 0.06 -0.05 0.07 -0.05 0.07 -0.04 0.07 -0.04 0.07 -0.04 0.08 -0.03 0.08 -0.03 0.08 -0.03 0.08 -0.02 0.08 -0.02 0.08 -0.01 0.09 -0.01 0.09 -0.01 0.09 -0 0 0zm0 0c0.34,0 0.61,0.28 0.61,0.61 0,0.34 -0.28,0.61 -0.61,0.61l0 -1.23zm1.69 1.69l-1.23 0 0 0 -0 -0.03 -0 -0.02 -0 -0.02 -0 -0.02 -0 -0.02 -0.01 -0.02 -0.01 -0.02 -0.01 -0.02 -0.01 -0.02 -0.01 -0.02 -0.01 -0.02 -0.01 -0.02 -0.01 -0.02 -0.01 -0.02 -0.01 -0.02 -0.02 -0.02 -0.01 -0.01 -0.02 -0.02 -0.02 -0.01 -0.02 -0.01 -0.02 -0.01 -0.02 -0.01 -0.02 -0.01 -0.02 -0.01 -0.02 -0.01 -0.02 -0.01 -0.02 -0.01 -0.02 -0 -0.02 -0 -0.02 -0 -0.02 -0 -0.03 -0 0 -1.23 0.09 0 0.09 0.01 0.09 0.01 0.08 0.01 0.08 0.02 0.08 0.02 0.08 0.03 0.08 0.03 0.08 0.03 0.07 0.04 0.07 0.04 0.07 0.04 0.07 0.05 0.06 0.05 0.06 0.05 0.06 0.06 0.06 0.06 0.05 0.06 0.05 0.06 0.05 0.06 0.04 0.07 0.04 0.07 0.04 0.07 0.03 0.08 0.03 0.08 0.03 0.08 0.02 0.08 0.02 0.08 0.01 0.08 0.01 0.09 0.01 0.09 0 0.09 0 0zm0 0c0,0.34 -0.28,0.61 -0.61,0.61 -0.34,0 -0.61,-0.28 -0.61,-0.61l1.23 0zm-1.69 1.69l0 -1.23 0 0 0.03 -0 0.02 -0 0.02 -0 0.02 -0 0.02 -0 0.02 -0.01 0.02 -0.01 0.02 -0.01 0.02 -0.01 0.02 -0.01 0.02 -0.01 0.02 -0.01 0.02 -0.01 0.02 -0.01 0.02 -0.01 0.02 -0.02 0.02 -0.02 0.01 -0.02 0.01 -0.02 0.01 -0.02 0.01 -0.02 0.01 -0.02 0.01 -0.02 0.01 -0.02 0.01 -0.02 0.01 -0.02 0.01 -0.02 0.01 -0.02 0 -0.02 0 -0.02 0 -0.02 0 -0.03 1.23 0 -0 0.09 -0.01 0.09 -0.01 0.09 -0.01 0.08 -0.02 0.08 -0.02 0.08 -0.03 0.08 -0.03 0.08 -0.03 0.08 -0.04 0.07 -0.04 0.07 -0.04 0.07 -0.05 0.07 -0.05 0.06 -0.05 0.06 -0.06 0.06 -0.06 0.06 -0.06 0.05 -0.06 0.05 -0.07 0.05 -0.07 0.04 -0.07 0.04 -0.07 0.04 -0.08 0.03 -0.08 0.03 -0.08 0.03 -0.08 0.02 -0.08 0.02 -0.08 0.01 -0.09 0.01 -0.09 0.01 -0.09 0 0 0zm0 0c-0.34,0 -0.61,-0.28 -0.61,-0.61 0,-0.34 0.28,-0.61 0.61,-0.61l0 1.23zm-1.69 -1.69l1.23 0 0 0 0 0.03 0 0.02 0 0.02 0 0.02 0.01 0.02 0.01 0.02 0.01 0.02 0.01 0.02 0.01 0.02 0.01 0.02 0.01 0.02 0.01 0.02 0.01 0.02 0.01 0.02 0.02 0.02 0.01 0.01 0.02 0.02 0.02 0.01 0.02 0.01 0.02 0.01 0.02 0.01 0.02 0.01 0.02 0.01 0.02 0.01 0.02 0.01 0.02 0.01 0.02 0.01 0.02 0 0.02 0 0.02 0 0.02 0 0.03 0 0 1.23 -0.09 -0 -0.09 -0.01 -0.09 -0.01 -0.08 -0.01 -0.08 -0.02 -0.08 -0.02 -0.08 -0.03 -0.08 -0.03 -0.08 -0.03 -0.07 -0.04 -0.07 -0.04 -0.07 -0.04 -0.06 -0.05 -0.06 -0.05 -0.06 -0.05 -0.06 -0.06 -0.06 -0.06 -0.05 -0.06 -0.05 -0.06 -0.05 -0.07 -0.04 -0.07 -0.04 -0.07 -0.04 -0.07 -0.03 -0.08 -0.03 -0.08 -0.03 -0.08 -0.02 -0.08 -0.02 -0.08 -0.01 -0.08 -0.01 -0.09 -0.01 -0.09 -0 -0.09 0 0zm0 0c0,-0.34 0.28,-0.61 0.61,-0.61 0.34,0 0.61,0.28 0.61,0.61l-1.23 0z"/>
  </g>
  <path class="fil8" d="M97.68 85.23c0.22,-0.62 0.65,-0.98 1.31,-1.13 1.34,0.46 2.12,1.78 2.12,1.78 0,0 -0.52,-5.45 0.71,-9.77 0.51,-0.96 1.15,-1.89 1.97,-2.72 2.06,-2.06 4.86,-3.1 8.35,-3.1 3.48,0 6.29,1.04 8.34,3.1 0.81,0.81 1.44,1.73 1.94,2.66 1.26,4.34 0.73,9.83 0.73,9.83 0,0 0.77,-1.33 2.12,-1.78 0.66,0.16 1.09,0.51 1.32,1.14 0.75,2.09 -0.94,6.07 -2.08,7.26 -1.24,1.3 -1.9,1.45 -2.03,1.47l-0.71 -0.19 -0.12 0.8c-0,0.01 -0.17,1.08 -0.64,2.56 -1.61,5.01 -6.19,7.68 -8.87,7.68 -2.69,0 -7.27,-2.67 -8.87,-7.68 -0.5,-1.56 -0.64,-2.54 -0.64,-2.55l-0.12 -0.81 -0.72 0.19c-0.13,-0.02 -0.79,-0.17 -2.03,-1.47 -1.14,-1.19 -2.83,-5.17 -2.08,-7.26zm3.6 10.11c0.1,0.48 0.28,1.25 0.59,2.24 1.71,5.37 6.66,8.69 10.26,8.69 3.59,0 8.54,-3.32 10.26,-8.69 0.31,-0.95 0.49,-1.75 0.59,-2.24 0.6,-0.17 1.45,-0.66 2.58,-1.84 1.38,-1.45 3.39,-5.99 2.4,-8.76 -0.27,-0.76 -0.75,-1.32 -1.39,-1.69 -0.14,-2.43 -0.86,-8.89 -4.55,-10.14 -0.16,-0.18 -0.32,-0.36 -0.5,-0.54 -2.34,-2.35 -5.5,-3.54 -9.38,-3.54 -3.89,0 -7.04,1.19 -9.38,3.54 -0.17,0.17 -0.33,0.35 -0.49,0.53 -3.72,1.24 -4.44,7.74 -4.57,10.16 -0.63,0.37 -1.11,0.93 -1.38,1.68 -1,2.77 1.01,7.31 2.4,8.76 1.13,1.18 1.98,1.67 2.58,1.84z"/>
  <path class="fil8" d="M103.32 86.62c0,-0.49 0.4,-0.89 0.89,-0.89l4.69 0c0.49,0 0.89,0.4 0.89,0.89l0 1.66c0,0.49 -0.4,0.89 -0.89,0.89l-4.69 0c-0.49,0 -0.89,-0.4 -0.89,-0.89l0 -1.66zm11.21 0c0,-0.49 0.4,-0.89 0.89,-0.89l4.69 0c0.49,0 0.89,0.4 0.89,0.89l0 1.66c0,0.49 -0.4,0.89 -0.89,0.89l-4.69 0c-0.49,0 -0.89,-0.4 -0.89,-0.89l0 -1.66zm-10.32 3.62l4.69 0c1.08,0 1.96,-0.88 1.96,-1.96l0 -1.66c0,-0.05 -0.01,-0.1 -0.01,-0.15l2.64 0c-0,0.05 -0.01,0.1 -0.01,0.15l0 1.66c0,1.08 0.88,1.96 1.96,1.96l4.69 0c1.08,0 1.96,-0.88 1.96,-1.96l0 -1.66c0,-1.08 -0.88,-1.96 -1.96,-1.96l-4.69 0c-0.77,0 -1.43,0.45 -1.75,1.1l-3.02 0c-0.32,-0.65 -0.98,-1.1 -1.75,-1.1l-4.69 0c-1.08,0 -1.96,0.88 -1.96,1.96l0 1.66c0,1.08 0.88,1.96 1.96,1.96z"/>
  <path class="fil8" d="M110.8 107.91c-0.78,0 -1.42,0.67 -1.42,1.49l0 2.96c0,0.82 0.64,1.49 1.42,1.49l2.66 0c0.78,0 1.42,-0.67 1.42,-1.49l0 -2.96c0,-0.82 -0.64,-1.49 -1.42,-1.49l-2.66 0z"/>
  <polygon class="fil8" points="108.7,117.93 101.99,107.06 98.81,108.33 106.84,119.9 109.92,119.9 108.7,117.93 "/>
  <path class="fil8" d="M92.12 110.48c-0.58,0.31 -4.23,7.96 -4.23,7.96l0 2 17.99 0 -8.44 -12.15c-2.47,0.99 -5.03,2.03 -5.33,2.19z"/>
  <polygon class="fil8" points="122.27,107.06 114.34,119.9 117.42,119.9 125.45,108.33 "/>
  <path class="fil8" d="M132.2 110.48c-0.29,-0.16 -2.89,-1.21 -5.38,-2.21l-8.46 12.17 18.06 0 0 -2c0,0 -3.65,-7.65 -4.23,-7.96z"/>
  <path class="fil8" d="M114.36 114.7c-0.23,0.14 -0.51,0.23 -0.81,0.23l-2.85 0c-0.32,0 -0.62,-0.1 -0.86,-0.27l-0.68 1.94 2.39 3.88 1.14 0 2.35 -3.8 -0.69 -1.97z"/>
  <line class="fil6 str2" x1="57.97" y1="97.87" x2="89.33" y2= "97.87" />
  <line class="fil6 str2" x1="57.97" y1="101.37" x2="89.33" y2= "101.37" />
  <line class="fil6 str2" x1="57.97" y1="104.87" x2="89.33" y2= "104.87" />
  <line class="fil6 str3" x1="139.2" y1="77.93" x2="154.51" y2= "77.93" />
  <line class="fil6 str3" x1="139.2" y1="80.91" x2="154.51" y2= "80.91" />
  <line class="fil6 str3" x1="139.2" y1="83.9" x2="154.51" y2= "83.9" />
  <line class="fil6 str3" x1="139.2" y1="86.88" x2="154.51" y2= "86.88" />
  <path class="fil9 str4" d="M62.15 90.85c0,-1.93 1.56,-3.49 3.49,-3.49 1.93,0 3.49,1.56 3.49,3.49 0,1.92 -1.56,3.49 -3.49,3.49 -1.92,0 -3.49,-1.56 -3.49,-3.49z"/>
  <path class="fil9 str4" d="M80.97 90.85c0,-1.27 1.03,-2.3 2.3,-2.3 1.27,0 2.3,1.03 2.3,2.3 0,1.27 -1.03,2.3 -2.3,2.3 -1.27,0 -2.3,-1.03 -2.3,-2.3z"/>
  <polygon class="fil9 str4" points="71.94,94.05 75.25,88.2 78.59,94.05 "/>
  <path class="fil9 str5" d="M141.77 108.54c0,-1.29 1.04,-2.33 2.33,-2.33 1.29,0 2.33,1.04 2.33,2.33 0,1.29 -1.04,2.33 -2.33,2.33 -1.29,0 -2.33,-1.04 -2.33,-2.33z"/>
  <path class="fil9 str5" d="M154.37 108.54c0,-0.85 0.69,-1.54 1.54,-1.54 0.85,0 1.54,0.69 1.54,1.54 0,0.85 -0.69,1.54 -1.54,1.54 -0.85,0 -1.54,-0.69 -1.54,-1.54z"/>
  <polygon class="fil9 str5" points="148.33,110.68 150.54,106.76 152.77,110.68 "/>
  <line class="fil6 str6" x1="141.97" y1="113.03" x2="157.28" y2= "113.03" />
  <line class="fil6 str6" x1="141.97" y1="116.02" x2="157.28" y2= "116.02" />
 </g>
</svg>
