<?xml version="1.0" encoding="UTF-8"?>
<!DOCTYPE svg PUBLIC "-//W3C//DTD SVG 1.1//EN" "http://www.w3.org/Graphics/SVG/1.1/DTD/svg11.dtd">
<!-- Creator: CorelDRAW 2017 -->
<svg xmlns="http://www.w3.org/2000/svg" xml:space="preserve" width="55.3425mm" height="44.3225mm" version="1.1" style="shape-rendering:geometricPrecision; text-rendering:geometricPrecision; image-rendering:optimizeQuality; fill-rule:evenodd; clip-rule:evenodd"
viewBox="0 0 176.77 141.57"
 xmlns:xlink="http://www.w3.org/1999/xlink">
 <defs>
  <style type="text/css">
   <![CDATA[
    .fil0 {fill:#232946}
    .fil2 {fill:#F4CAAE}
    .fil3 {fill:#F5BA93}
    .fil1 {fill:#FCEFE9}
    .fil4 {fill:#F4CAAE;fill-rule:nonzero}
   ]]>
  </style>
 </defs>
 <g id="Layer_x0020_1">
  <metadata id="CorelCorpID_0Corel-Layer"/>
  <path class="fil0" d="M101.78 133.69c-34.12,-8.37 -81.82,31.91 -100.55,-16.24 -8.42,-29.59 28.78,-83.29 45.96,-99.44 90.93,-85.51 209.34,164 54.6,115.69z"/>
  <path class="fil1" d="M100.87 129.15c-32.17,-7.77 -77.14,29.64 -94.8,-15.09 -7.93,-27.48 27.13,-77.36 43.33,-92.37 85.73,-79.43 197.37,152.33 51.47,107.46z"/>
  <path class="fil2" d="M138.06 44.22l-98.16 0 0 70.25 38.35 0c0.56,5.19 5.4,8.94 11.35,8.91 3.42,-0.02 8.11,-2.67 9.66,-8.91l38.8 0 0 -70.25z"/>
  <path class="fil0" d="M135.3 47.22l-92.64 0 0 64.55 37.99 0c0.03,10.15 13.94,11.79 16.44,0l38.21 0 0 -64.55z"/>
  <path class="fil2" d="M131.19 107.83l-84.41 0 0 -71.86c9.72,0 33.78,-3.78 39.97,4.5 0,0 2.37,3.62 5.13,0.03 6.25,-7.96 30.06,-4.53 39.32,-4.53l0 71.86z"/>
  <path class="fil0" d="M128.81 105.06l-79.67 0 0 -66.03c9.17,0 31.78,-3.32 37.62,4.29 0,0 2.41,3.3 5.02,0 5.89,-7.31 28.29,-4.29 37.02,-4.29l0 66.03z"/>
  <rect class="fil2" x="87.72" y="44.22" width="3.12" height="32.63"/>
  <rect class="fil2" x="87.72" y="89.12" width="3.12" height="18.03"/>
  <polygon class="fil2" points="96.41,65.41 100.22,65.41 100.22,61.42 103.29,61.42 103.29,65.41 106.15,65.41 106.15,57.2 109.22,57.2 109.22,65.41 112.36,65.41 112.36,52.58 115.43,52.58 115.43,65.41 118.4,65.41 118.4,47.08 121.47,47.08 121.47,65.41 124.12,65.41 124.12,68.48 121.47,68.48 118.4,68.48 109.22,68.48 106.15,68.48 96.41,68.48 "/>
  <rect class="fil2" x="96.41" y="72.98" width="27.71" height="3.07"/>
  <rect class="fil3" x="96.41" y="79.42" width="12.27" height="3.07"/>
  <rect class="fil3" x="112.16" y="79.42" width="12.27" height="3.07"/>
  <rect class="fil3" x="96.41" y="86.47" width="27.71" height="3.07"/>
  <rect class="fil3" x="96.41" y="92.92" width="12.27" height="3.07"/>
  <rect class="fil3" x="112.16" y="92.92" width="12.27" height="3.07"/>
  <path class="fil4" d="M67.85 88.65c-0.4,0 -0.76,-0.1 -1.09,-0.29 -0.53,-0.32 -0.92,-0.91 -1.13,-1.69 -0.15,-0.55 -0.16,-1.02 -0.16,-1.04 -0,-0.18 0.08,-0.36 0.23,-0.46 0.15,-0.11 0.34,-0.13 0.52,-0.06 0.01,0 0.86,0.33 1.81,0.59 0.55,0.16 0.96,0.25 1.27,0.3 -0.37,-0.13 -0.8,-0.27 -1.27,-0.41 -0.86,-0.26 -1.74,-0.54 -2.45,-0.88 -0.42,-0.2 -0.73,-0.41 -0.96,-0.64 -0.4,-0.4 -0.46,-0.8 -0.44,-1.07 0,-0 0,-0.01 0,-0.01 0.02,-0.21 0.13,-0.39 0.31,-0.51 0.46,-0.3 1.17,-0.11 3.24,0.57 0.75,0.24 1.52,0.5 2.18,0.66 0.15,0.04 0.27,0.07 0.39,0.09 -0.07,-0.03 -0.14,-0.06 -0.23,-0.09 -0.56,-0.22 -1.26,-0.44 -2,-0.68 -0.9,-0.28 -1.82,-0.57 -2.53,-0.88 -0.69,-0.3 -1.48,-0.74 -1.45,-1.47 0.01,-0.26 0.13,-0.49 0.35,-0.64 0.35,-0.24 0.88,-0.25 1.83,-0.02 0.68,0.16 1.52,0.43 2.32,0.69 0.73,0.24 1.49,0.48 2.11,0.63 0.3,0.07 0.52,0.12 0.68,0.14 -0.1,-0.06 -0.24,-0.12 -0.43,-0.19 -0.49,-0.19 -1.13,-0.38 -1.81,-0.57 -1.37,-0.39 -2.92,-0.84 -3.96,-1.55 -0.62,-0.43 -1.02,-0.9 -1.23,-1.49 -0.19,-0.52 -0.22,-1.07 -0.26,-1.65 -0.06,-1.02 -0.13,-2.28 -1.09,-4.05 -1.31,-1.64 -2.2,-3.33 -2.64,-5.03 -0.42,-1.63 -0.43,-3.21 -0.01,-4.7 0.38,-1.36 1.1,-2.58 2.14,-3.62 1.03,-1.03 2.31,-1.83 3.81,-2.37 0,-0 0,-0 0,-0 0.66,-0.24 1.45,-0.39 2.29,-0.44 0.96,-0.06 1.92,0.01 2.84,0.21 2.33,0.51 4.27,1.79 5.61,3.73 0,0 0,0 0,0 0.8,1.18 1.34,2.37 1.58,3.55 0.23,1.1 0.21,2.22 -0.05,3.32 -0.45,1.88 -1.6,3.73 -3.51,5.65 -0.03,0.03 -0.36,0.4 -0.78,1.19 -0.4,0.76 -0.96,2.06 -1.36,3.98 -0.02,0.12 -0.21,0.94 -0.88,1.44 -0.68,0.54 -1.7,0.61 -2.68,0.2 -0.09,-0.03 -0.34,-0.13 -0.59,-0.35 -0.41,-0.34 -0.63,-0.81 -0.64,-1.35 -0,-0 -0,-0 -0,-0.01 -0,-0.04 -0.07,-4.12 -0.07,-5.73 0,-0.44 -0.63,-0.94 -1.18,-1.39 -0.32,-0.26 -0.65,-0.53 -0.9,-0.81 -0.27,-0.31 -0.42,-0.71 -0.41,-1.13 0.01,-0.38 0.15,-0.74 0.37,-0.97 0.01,-0.01 0.02,-0.02 0.02,-0.02 0.45,-0.4 0.86,-0.36 1.14,-0.27 0.28,0.1 0.49,0.3 0.67,0.48 0.04,0.04 0.09,0.09 0.14,0.13 0.03,-0.1 0.07,-0.23 0.09,-0.32 0.08,-0.29 0.17,-0.63 0.36,-0.91 0.28,-0.39 0.69,-0.57 1.19,-0.53 0.45,0.04 0.8,0.26 1.01,0.64 0.15,0.27 0.21,0.58 0.25,0.83 0,0.02 0.01,0.05 0.01,0.07 0.08,-0.08 0.17,-0.17 0.23,-0.24 0.17,-0.18 0.35,-0.37 0.55,-0.52 0.42,-0.29 0.78,-0.23 1,-0.14 0,0 0,0 0,0 0.44,0.19 0.73,0.55 0.81,1 0.19,1.09 -0.83,2.46 -1.24,2.86 -0.87,0.9 -2.23,1.16 -2.29,1.17 -0.3,0.06 -0.59,-0.14 -0.65,-0.44 -0.06,-0.3 0.14,-0.59 0.44,-0.65l0 0c0.01,-0 1.08,-0.22 1.71,-0.86 0.01,-0.01 0.01,-0.01 0.02,-0.02 0.37,-0.35 1.01,-1.38 0.92,-1.87 -0.01,-0.06 -0.03,-0.11 -0.1,-0.15 -0.1,0.07 -0.27,0.25 -0.37,0.36 -0.3,0.33 -0.67,0.73 -1.18,0.73 -0.04,0 -0.08,-0 -0.12,-0.01 -0.18,-0.02 -0.51,-0.12 -0.7,-0.54 -0.08,-0.18 -0.11,-0.38 -0.15,-0.57 -0.1,-0.54 -0.15,-0.55 -0.28,-0.56 -0.13,-0.01 -0.15,0.02 -0.18,0.06 -0.08,0.12 -0.15,0.35 -0.2,0.56 -0.05,0.2 -0.11,0.41 -0.2,0.59 -0.14,0.3 -0.35,0.49 -0.62,0.57 -0.19,0.06 -0.49,0.09 -0.82,-0.11 -0.17,-0.1 -0.31,-0.24 -0.44,-0.36 -0.07,-0.07 -0.18,-0.18 -0.25,-0.22 -0.01,0 -0.02,0.01 -0.03,0.02 -0.05,0.08 -0.11,0.37 0.08,0.58 0.19,0.21 0.47,0.44 0.77,0.68 0.75,0.6 1.59,1.29 1.59,2.25 0,1.58 0.06,5.57 0.07,5.71 0.01,0.22 0.09,0.39 0.25,0.53 0.12,0.1 0.24,0.15 0.24,0.15 0.02,0.01 0.03,0.01 0.05,0.02 0.61,0.26 1.23,0.24 1.59,-0.05 0.01,-0.01 0.01,-0.01 0.02,-0.02 0.28,-0.21 0.42,-0.62 0.45,-0.76 0,-0 0,-0 0,-0.01 0.83,-4.02 2.37,-5.64 2.43,-5.71 0,-0 0,-0 0.01,-0.01 3.82,-3.85 4.41,-7.38 1.86,-11.12 -2.63,-3.77 -7.2,-3.89 -9.47,-3.09 -2.67,0.96 -4.59,2.87 -5.26,5.24 -0.77,2.72 0.12,5.83 2.48,8.77 0.02,0.03 0.04,0.05 0.05,0.08 1.1,2.01 1.19,3.49 1.25,4.56 0.06,1.11 0.1,1.66 1.01,2.29 0.89,0.61 2.35,1.03 3.64,1.4 1.67,0.48 2.88,0.83 3.24,1.57 0.13,0.27 0.13,0.56 0.01,0.85 -0.1,0.23 -0.34,0.51 -0.92,0.54 -0.26,0.01 -0.59,-0.03 -1.01,-0.12 -0.72,-0.16 -1.64,-0.45 -2.53,-0.74 -0.73,-0.23 -1.49,-0.48 -2.1,-0.63 -0.14,-0.04 -0.27,-0.06 -0.38,-0.09 0.12,0.06 0.26,0.12 0.42,0.19 0.62,0.25 1.42,0.51 2.2,0.75 0.9,0.28 1.76,0.55 2.41,0.84 0.38,0.17 0.67,0.33 0.86,0.5 0.45,0.39 0.44,0.78 0.39,0.99 -0.06,0.23 -0.21,0.42 -0.42,0.54 -0.7,0.39 -2.07,-0.03 -4.25,-0.74 -0.53,-0.17 -1.03,-0.34 -1.46,-0.46 0.04,0.02 0.09,0.05 0.14,0.07 0.63,0.31 1.47,0.56 2.29,0.82 0.67,0.21 1.3,0.4 1.78,0.61 0.29,0.13 0.5,0.25 0.66,0.39 0.36,0.31 0.37,0.65 0.35,0.82 -0.04,0.27 -0.19,0.49 -0.43,0.63 -0.16,0.09 -0.39,0.18 -0.81,0.18 -0.45,0 -1.11,-0.1 -2.13,-0.38 -0.38,-0.11 -0.75,-0.22 -1.05,-0.32 0.11,0.38 0.31,0.78 0.62,0.97 0.38,0.23 0.95,0.16 1.68,-0.21 0.27,-0.14 0.61,-0.03 0.74,0.25 0.14,0.27 0.03,0.61 -0.25,0.74 -0.61,0.31 -1.17,0.46 -1.67,0.46z"/>
  <rect class="fil2" transform="matrix(1.45042E-14 0.335991 -0.776925 1.2624E-14 69.2669 45.6328)" width="22.61" height="2.32" rx="1.16" ry="1.16"/>
  <rect class="fil2" transform="matrix(-0.213762 0.259222 -0.599408 -0.494289 80.1669 50.4491)" width="22.61" height="2.32" rx="1.16" ry="1.16"/>
  <rect class="fil2" transform="matrix(0.213762 0.259222 0.599408 -0.494289 56.8691 50.4491)" width="22.61" height="2.32" rx="1.16" ry="1.16"/>
  <rect class="fil2" x="54.5" y="93.01" width="12.27" height="3.07"/>
  <rect class="fil2" x="70.24" y="93.01" width="12.27" height="3.07"/>
 </g>
</svg>
