<?xml version="1.0" encoding="UTF-8"?>
<!DOCTYPE svg PUBLIC "-//W3C//DTD SVG 1.1//EN" "http://www.w3.org/Graphics/SVG/1.1/DTD/svg11.dtd">
<!-- Creator: CorelDRAW 2017 -->
<svg xmlns="http://www.w3.org/2000/svg" xml:space="preserve" width="27.9216mm" height="24.9259mm" version="1.1" style="shape-rendering:geometricPrecision; text-rendering:geometricPrecision; image-rendering:optimizeQuality; fill-rule:evenodd; clip-rule:evenodd"
viewBox="0 0 34.88 31.14"
 xmlns:xlink="http://www.w3.org/1999/xlink">
 <defs>
  <style type="text/css">
   <![CDATA[
    .str0 {stroke:white;stroke-width:0.1;stroke-miterlimit:22.9256}
    .fil0 {fill:#B0AEAE;fill-rule:nonzero}
    .fil1 {fill:white;fill-rule:nonzero}
   ]]>
  </style>
 </defs>
 <g id="Layer_x0020_1">
  <metadata id="CorelCorpID_0Corel-Layer"/>
  <path class="fil0" d="M0.29 4.05l4.41 0 0 2.31c0,0.8 0.66,1.45 1.45,1.45 0.8,0 1.45,-0.65 1.45,-1.45l0 -2.31 19.67 0 0 2.31c0,0.8 0.66,1.45 1.45,1.45 0.8,0 1.45,-0.65 1.45,-1.45l0 -2.31 4.41 0 0 26.81 -34.31 0 0 -26.81z"/>
  <path class="fil0" d="M0.57 30.57l33.74 0 0 -26.24 -3.84 0 0 2.02c0,0.96 -0.78,1.74 -1.74,1.74 -0.96,0 -1.74,-0.78 -1.74,-1.74l0 -2.02 -19.1 0 0 2.02c0,0.96 -0.78,1.74 -1.74,1.74 -0.96,0 -1.74,-0.78 -1.74,-1.74l0 -2.02 -3.84 0 0 26.24zm34.02 0.57l-34.31 0c-0.16,0 -0.29,-0.13 -0.29,-0.29l0 -26.81c0,-0.16 0.13,-0.29 0.29,-0.29l4.41 0c0.16,0 0.29,0.13 0.29,0.29l0 2.31c0,0.64 0.52,1.16 1.17,1.16 0.64,0 1.17,-0.52 1.17,-1.16l0 -2.31c0,-0.16 0.13,-0.29 0.29,-0.29l19.67 0c0.16,0 0.29,0.13 0.29,0.29l0 2.31c0,0.64 0.52,1.16 1.17,1.16 0.64,0 1.17,-0.52 1.17,-1.16l0 -2.31c0,-0.16 0.13,-0.29 0.29,-0.29l4.41 0c0.16,0 0.29,0.13 0.29,0.29l0 26.81c0,0.16 -0.13,0.29 -0.29,0.29z"/>
  <polygon class="fil1" points="34.88,11.56 -0,11.56 -0,9.45 34.88,9.45 "/>
  <path class="fil0" d="M6.15 0.29l0 0c0.8,0 1.45,0.66 1.45,1.46l0 4.61c0,0.8 -0.66,1.45 -1.45,1.45 -0.8,0 -1.45,-0.65 -1.45,-1.45l0 -4.61c0,-0.8 0.66,-1.46 1.45,-1.46z"/>
  <path class="fil0" d="M6.15 0.57c-0.64,0 -1.17,0.52 -1.17,1.17l0 4.61c0,0.64 0.52,1.16 1.17,1.16 0.64,0 1.17,-0.52 1.17,-1.16l0 -4.61c0,-0.64 -0.52,-1.17 -1.17,-1.17zm0 7.52c-0.96,0 -1.74,-0.78 -1.74,-1.74l0 -4.61c0,-0.96 0.78,-1.74 1.74,-1.74 0.96,0 1.74,0.78 1.74,1.74l0 4.61c0,0.96 -0.78,1.74 -1.74,1.74z"/>
  <path class="fil0" d="M28.73 0.29l0 0c0.8,0 1.45,0.66 1.45,1.46l0 4.61c0,0.8 -0.66,1.45 -1.45,1.45 -0.8,0 -1.45,-0.65 -1.45,-1.45l0 -4.61c0,-0.8 0.66,-1.46 1.45,-1.46z"/>
  <path class="fil0" d="M28.73 0.57c-0.64,0 -1.17,0.52 -1.17,1.17l0 4.61c0,0.64 0.52,1.16 1.17,1.16 0.64,0 1.17,-0.52 1.17,-1.16l0 -4.61c0,-0.64 -0.52,-1.17 -1.17,-1.17zm0 7.52c-0.96,0 -1.74,-0.78 -1.74,-1.74l0 -4.61c0,-0.96 0.78,-1.74 1.74,-1.74 0.96,0 1.74,0.78 1.74,1.74l0 4.61c0,0.96 -0.78,1.74 -1.74,1.74z"/>
  <polygon class="fil1 str0" points="5.53,16.56 8.43,16.56 8.43,13.8 5.53,13.8 "/>
  <path class="fil1" d="M5.82 16.28l2.33 0 0 -2.19 -2.33 0 0 2.19zm2.61 0.57l-2.9 0c-0.16,0 -0.29,-0.13 -0.29,-0.29l0 -2.76c0,-0.16 0.13,-0.29 0.29,-0.29l2.9 0c0.16,0 0.29,0.13 0.29,0.29l0 2.76c0,0.16 -0.13,0.29 -0.29,0.29z"/>
  <polygon class="fil1" points="15.99,16.56 18.89,16.56 18.89,13.8 15.99,13.8 "/>
  <path class="fil1 str0" d="M16.28 16.28l2.33 0 0 -2.19 -2.33 0 0 2.19zm2.61 0.57l-2.9 0c-0.16,0 -0.29,-0.13 -0.29,-0.29l0 -2.76c0,-0.16 0.13,-0.29 0.29,-0.29l2.9 0c0.16,0 0.29,0.13 0.29,0.29l0 2.76c0,0.16 -0.13,0.29 -0.29,0.29z"/>
  <polygon class="fil1" points="26.44,16.56 29.34,16.56 29.34,13.8 26.44,13.8 "/>
  <path class="fil1 str0" d="M26.73 16.28l2.33 0 0 -2.19 -2.33 0 0 2.19zm2.61 0.57l-2.9 0c-0.16,0 -0.29,-0.13 -0.29,-0.29l0 -2.76c0,-0.16 0.13,-0.29 0.29,-0.29l2.9 0c0.16,0 0.29,0.13 0.29,0.29l0 2.76c0,0.16 -0.13,0.29 -0.29,0.29z"/>
  <polygon class="fil1 str0" points="5.53,22.63 8.43,22.63 8.43,19.86 5.53,19.86 "/>
  <path class="fil1" d="M5.82 22.34l2.33 0 0 -2.2 -2.33 0 0 2.2zm2.61 0.57l-2.9 0c-0.16,0 -0.29,-0.13 -0.29,-0.29l0 -2.77c0,-0.16 0.13,-0.29 0.29,-0.29l2.9 0c0.16,0 0.29,0.13 0.29,0.29l0 2.77c0,0.16 -0.13,0.29 -0.29,0.29z"/>
  <polygon class="fil1" points="15.99,22.63 18.89,22.63 18.89,19.86 15.99,19.86 "/>
  <path class="fil1" d="M16.28 22.34l2.33 0 0 -2.2 -2.33 0 0 2.2zm2.61 0.57l-2.9 0c-0.16,0 -0.29,-0.13 -0.29,-0.29l0 -2.77c0,-0.16 0.13,-0.29 0.29,-0.29l2.9 0c0.16,0 0.29,0.13 0.29,0.29l0 2.77c0,0.16 -0.13,0.29 -0.29,0.29z"/>
  <polygon class="fil1 str0" points="26.44,22.63 29.34,22.63 29.34,19.86 26.44,19.86 "/>
  <path class="fil1" d="M26.73 22.34l2.33 0 0 -2.2 -2.33 0 0 2.2zm2.61 0.57l-2.9 0c-0.16,0 -0.29,-0.13 -0.29,-0.29l0 -2.77c0,-0.16 0.13,-0.29 0.29,-0.29l2.9 0c0.16,0 0.29,0.13 0.29,0.29l0 2.77c0,0.16 -0.13,0.29 -0.29,0.29z"/>
  <polygon class="fil1 str0" points="5.53,28.69 8.43,28.69 8.43,25.93 5.53,25.93 "/>
  <path class="fil1" d="M5.82 28.41l2.33 0 0 -2.19 -2.33 0 0 2.19zm2.61 0.57l-2.9 0c-0.16,0 -0.29,-0.13 -0.29,-0.29l0 -2.77c0,-0.16 0.13,-0.29 0.29,-0.29l2.9 0c0.16,0 0.29,0.13 0.29,0.29l0 2.77c0,0.16 -0.13,0.29 -0.29,0.29z"/>
  <polygon class="fil1 str0" points="15.99,28.69 18.89,28.69 18.89,25.93 15.99,25.93 "/>
  <path class="fil1" d="M16.28 28.41l2.33 0 0 -2.19 -2.33 0 0 2.19zm2.61 0.57l-2.9 0c-0.16,0 -0.29,-0.13 -0.29,-0.29l0 -2.77c0,-0.16 0.13,-0.29 0.29,-0.29l2.9 0c0.16,0 0.29,0.13 0.29,0.29l0 2.77c0,0.16 -0.13,0.29 -0.29,0.29z"/>
  <polygon class="fil1 str0" points="26.44,28.69 29.34,28.69 29.34,25.93 26.44,25.93 "/>
  <path class="fil1" d="M26.73 28.41l2.33 0 0 -2.19 -2.33 0 0 2.19zm2.61 0.57l-2.9 0c-0.16,0 -0.29,-0.13 -0.29,-0.29l0 -2.77c0,-0.16 0.13,-0.29 0.29,-0.29l2.9 0c0.16,0 0.29,0.13 0.29,0.29l0 2.77c0,0.16 -0.13,0.29 -0.29,0.29z"/>
 </g>
</svg>
