<?xml version="1.0" encoding="UTF-8"?>
<!DOCTYPE svg PUBLIC "-//W3C//DTD SVG 1.1//EN" "http://www.w3.org/Graphics/SVG/1.1/DTD/svg11.dtd">
<!-- Creator: CorelDRAW 2017 -->
<svg xmlns="http://www.w3.org/2000/svg" xml:space="preserve" width="78.2638mm" height="65.78mm" version="1.1" style="shape-rendering:geometricPrecision; text-rendering:geometricPrecision; image-rendering:optimizeQuality; fill-rule:evenodd; clip-rule:evenodd"
viewBox="0 0 586.86 493.25"
 xmlns:xlink="http://www.w3.org/1999/xlink">
 <defs>
  <style type="text/css">
   <![CDATA[
    .fil0 {fill:#C9C9C9;fill-rule:nonzero}
   ]]>
  </style>
 </defs>
 <g id="Layer_x0020_1">
  <metadata id="CorelCorpID_0Corel-Layer"/>
  <g id="_1600127651056">
   <path class="fil0" d="M9.64 483.6l567.57 0 0 -424.75 -567.57 0 0 424.75zm572.39 9.65l-577.21 0c-2.66,0 -4.82,-2.16 -4.82,-4.83l0 -434.39c0,-2.67 2.16,-4.83 4.82,-4.83l577.21 0c2.66,0 4.82,2.16 4.82,4.83l0 434.39c0,2.67 -2.16,4.83 -4.82,4.83z"/>
   <path class="fil0" d="M56.71 97.9c-2.66,0 -4.82,-2.16 -4.82,-4.83 0,-2.66 2.16,-4.82 4.82,-4.82 13.13,0 23.81,-10.72 23.81,-23.9l0 -30.8c0,-13.17 -10.68,-23.9 -23.81,-23.9 -13.17,0 -23.86,10.73 -23.86,23.9l0 17.19c0,2.67 -2.16,4.83 -4.82,4.83 -2.66,0 -4.82,-2.16 -4.82,-4.83l0 -17.19c0,-18.49 15.01,-33.55 33.47,-33.55 18.48,0 33.49,15.05 33.49,33.55l0 30.8c0,18.49 -15.01,33.55 -33.46,33.55zm78.88 0c-2.66,0 -4.82,-2.16 -4.82,-4.83 0,-2.66 2.16,-4.82 4.82,-4.82 13.14,0 23.83,-10.72 23.83,-23.9l0 -30.8c0,-13.17 -10.69,-23.9 -23.83,-23.9 -13.16,0 -23.86,10.73 -23.86,23.9l0 17.19c0,2.67 -2.16,4.83 -4.82,4.83 -2.66,0 -4.82,-2.16 -4.82,-4.83l0 -17.19c0,-18.49 15.04,-33.55 33.51,-33.55 18.46,0 33.47,15.05 33.47,33.55l0 30.8c0,18.49 -15.01,33.55 -33.47,33.55zm78.95 0c-2.67,0 -4.83,-2.16 -4.83,-4.83 0,-2.66 2.16,-4.82 4.83,-4.82 13.13,0 23.82,-10.72 23.82,-23.9l0 -30.8c0,-13.17 -10.69,-23.9 -23.82,-23.9 -13.18,0 -23.86,10.73 -23.86,23.9l0 17.19c0,2.67 -2.16,4.83 -4.82,4.83 -2.66,0 -4.82,-2.16 -4.82,-4.83l0 -17.19c0,-18.49 15.01,-33.55 33.46,-33.55 18.49,0 33.52,15.05 33.52,33.55l0 30.8c0,18.49 -15.02,33.55 -33.47,33.55zm78.88 0c-2.67,0 -4.83,-2.16 -4.83,-4.83 0,-2.66 2.16,-4.82 4.83,-4.82 13.16,0 23.86,-10.72 23.86,-23.9l0 -30.8c0,-13.17 -10.7,-23.9 -23.86,-23.9 -13.16,0 -23.86,10.73 -23.86,23.9l0 17.19c0,2.67 -2.16,4.83 -4.83,4.83 -2.66,0 -4.82,-2.16 -4.82,-4.83l0 -17.19c0,-18.49 15.03,-33.55 33.51,-33.55 18.48,0 33.51,15.05 33.51,33.55l0 30.8c0,18.49 -15.03,33.55 -33.51,33.55zm78.94 0c-2.66,0 -4.82,-2.16 -4.82,-4.83 0,-2.66 2.16,-4.82 4.82,-4.82 13.14,0 23.83,-10.72 23.83,-23.9l0 -30.8c0,-13.17 -10.68,-23.9 -23.83,-23.9 -13.16,0 -23.86,10.73 -23.86,23.9l0 17.19c0,2.67 -2.16,4.83 -4.82,4.83 -2.66,0 -4.82,-2.16 -4.82,-4.83l0 -17.19c0,-18.49 15.03,-33.55 33.51,-33.55 18.46,0 33.48,15.05 33.48,33.55l0 30.8c0,18.49 -15.02,33.55 -33.48,33.55zm78.94 0c-2.67,0 -4.83,-2.16 -4.83,-4.83 0,-2.66 2.16,-4.82 4.83,-4.82 13.12,0 23.81,-10.72 23.81,-23.9l0 -30.8c0,-13.17 -10.68,-23.9 -23.81,-23.9 -13.17,0 -23.86,10.73 -23.86,23.9l0 17.19c0,2.67 -2.16,4.83 -4.82,4.83 -2.67,0 -4.83,-2.16 -4.83,-4.83l0 -17.19c0,-18.49 15.02,-33.55 33.47,-33.55 18.49,0 33.5,15.05 33.5,33.55l0 30.8c0,18.49 -15.02,33.55 -33.46,33.55zm78.88 0c-2.67,0 -4.83,-2.16 -4.83,-4.83 0,-2.66 2.16,-4.82 4.83,-4.82 13.16,0 23.86,-10.72 23.86,-23.9l0 -30.8c0,-13.17 -10.7,-23.9 -23.86,-23.9 -13.16,0 -23.86,10.73 -23.86,23.9l0 17.19c0,2.67 -2.16,4.83 -4.83,4.83 -2.66,0 -4.82,-2.16 -4.82,-4.83l0 -17.19c0,-18.49 15.03,-33.55 33.51,-33.55 18.48,0 33.51,15.05 33.51,33.55l0 30.8c0,18.49 -15.03,33.55 -33.51,33.55z"/>
   <path class="fil0" d="M582.03 156.47l-577.21 0c-2.66,0 -4.82,-2.16 -4.82,-4.82 0,-2.66 2.16,-4.82 4.82,-4.82l577.21 0c2.66,0 4.82,2.16 4.82,4.82 0,2.66 -2.16,4.82 -4.82,4.82z"/>
   <path class="fil0" d="M370.53 424.14l147.38 0 0 -150.55 -147.38 0 0 150.55zm152.21 9.65l-157.03 0c-2.67,0 -4.83,-2.16 -4.83,-4.82l0 -160.2c0,-2.66 2.16,-4.82 4.83,-4.82l157.03 0c2.66,0 4.82,2.16 4.82,4.82l0 160.2c0,2.66 -2.16,4.82 -4.82,4.82z"/>
   <path class="fil0" d="M444.4 396.99c-2.75,0 -5.53,-0.24 -8.29,-0.72 -12.63,-2.14 -23.67,-9.1 -31.1,-19.59 -7.43,-10.5 -10.33,-23.24 -8.14,-35.9 4.48,-26.12 29.47,-43.72 55.53,-39.3 2.63,0.45 4.39,2.94 3.95,5.56 -0.45,2.62 -2.92,4.4 -5.56,3.94 -20.89,-3.56 -40.84,10.54 -44.41,31.43 -1.74,10.12 0.57,20.3 6.51,28.7 5.93,8.38 14.76,13.95 24.87,15.66 10.1,1.77 20.31,-0.53 28.68,-6.47 8.4,-5.93 13.99,-14.79 15.73,-24.95 0.44,-2.63 2.9,-4.43 5.56,-3.94 2.63,0.45 4.39,2.94 3.94,5.56 -2.17,12.7 -9.15,23.79 -19.67,31.21 -8.2,5.79 -17.77,8.81 -27.59,8.81z"/>
   <path class="fil0" d="M444.26 359.93c-1.28,0 -2.55,-0.5 -3.5,-1.51l-16.05 -16.88c-1.83,-1.93 -1.75,-4.98 0.18,-6.82 1.92,-1.83 4.99,-1.76 6.82,0.18l12.94 13.62 47.79 -39.61c2.04,-1.69 5.09,-1.43 6.79,0.63 1.7,2.05 1.42,5.1 -0.63,6.79l-51.25 42.48c-0.9,0.74 -2,1.11 -3.08,1.11z"/>
   <path class="fil0" d="M57.98 225.94l34.39 0 0 -34.44 -34.39 0 0 34.44zm39.21 9.64l-44.04 0c-2.66,0 -4.82,-2.16 -4.82,-4.82l0 -44.08c0,-2.67 2.16,-4.83 4.82,-4.83l44.04 0c2.66,0 4.82,2.16 4.82,4.83l0 44.08c0,2.66 -2.16,4.82 -4.82,4.82z"/>
   <path class="fil0" d="M130.06 225.94l34.41 0 0 -34.44 -34.41 0 0 34.44zm39.24 9.64l-44.06 0c-2.66,0 -4.82,-2.16 -4.82,-4.82l0 -44.08c0,-2.67 2.16,-4.83 4.82,-4.83l44.06 0c2.66,0 4.82,2.16 4.82,4.83l0 44.08c0,2.66 -2.16,4.82 -4.82,4.82z"/>
   <path class="fil0" d="M202.15 225.94l34.41 0 0 -34.44 -34.41 0 0 34.44zm39.23 9.64l-44.06 0c-2.66,0 -4.82,-2.16 -4.82,-4.82l0 -44.08c0,-2.67 2.16,-4.83 4.82,-4.83l44.06 0c2.66,0 4.82,2.16 4.82,4.83l0 44.08c0,2.66 -2.16,4.82 -4.82,4.82z"/>
   <path class="fil0" d="M274.25 225.94l34.4 0 0 -34.44 -34.4 0 0 34.44zm39.23 9.64l-44.06 0c-2.66,0 -4.82,-2.16 -4.82,-4.82l0 -44.08c0,-2.67 2.16,-4.83 4.82,-4.83l44.06 0c2.66,0 4.82,2.16 4.82,4.83l0 44.08c0,2.66 -2.16,4.82 -4.82,4.82z"/>
   <path class="fil0" d="M57.98 300.44l34.39 0 0 -34.43 -34.39 0 0 34.43zm39.21 9.64l-44.04 0c-2.66,0 -4.82,-2.16 -4.82,-4.82l0 -44.07c0,-2.67 2.16,-4.83 4.82,-4.83l44.04 0c2.66,0 4.82,2.16 4.82,4.83l0 44.07c0,2.66 -2.16,4.82 -4.82,4.82z"/>
   <path class="fil0" d="M130.06 300.44l34.41 0 0 -34.43 -34.41 0 0 34.43zm39.24 9.64l-44.06 0c-2.66,0 -4.82,-2.16 -4.82,-4.82l0 -44.07c0,-2.67 2.16,-4.83 4.82,-4.83l44.06 0c2.66,0 4.82,2.16 4.82,4.83l0 44.07c0,2.66 -2.16,4.82 -4.82,4.82z"/>
   <path class="fil0" d="M202.15 300.44l34.41 0 0 -34.43 -34.41 0 0 34.43zm39.23 9.64l-44.06 0c-2.66,0 -4.82,-2.16 -4.82,-4.82l0 -44.07c0,-2.67 2.16,-4.83 4.82,-4.83l44.06 0c2.66,0 4.82,2.16 4.82,4.83l0 44.07c0,2.66 -2.16,4.82 -4.82,4.82z"/>
   <path class="fil0" d="M274.25 300.44l34.4 0 0 -34.43 -34.4 0 0 34.43zm39.23 9.64l-44.06 0c-2.66,0 -4.82,-2.16 -4.82,-4.82l0 -44.07c0,-2.67 2.16,-4.83 4.82,-4.83l44.06 0c2.66,0 4.82,2.16 4.82,4.83l0 44.07c0,2.66 -2.16,4.82 -4.82,4.82z"/>
   <path class="fil0" d="M57.98 374.93l34.39 0 0 -34.43 -34.39 0 0 34.43zm39.21 9.64l-44.04 0c-2.66,0 -4.82,-2.16 -4.82,-4.82l0 -44.08c0,-2.67 2.16,-4.83 4.82,-4.83l44.04 0c2.66,0 4.82,2.16 4.82,4.83l0 44.08c0,2.66 -2.16,4.82 -4.82,4.82z"/>
   <path class="fil0" d="M130.06 374.93l34.41 0 0 -34.43 -34.41 0 0 34.43zm39.24 9.64l-44.06 0c-2.66,0 -4.82,-2.16 -4.82,-4.82l0 -44.08c0,-2.67 2.16,-4.83 4.82,-4.83l44.06 0c2.66,0 4.82,2.16 4.82,4.83l0 44.08c0,2.66 -2.16,4.82 -4.82,4.82z"/>
   <path class="fil0" d="M202.15 374.93l34.41 0 0 -34.43 -34.41 0 0 34.43zm39.23 9.64l-44.06 0c-2.66,0 -4.82,-2.16 -4.82,-4.82l0 -44.08c0,-2.67 2.16,-4.83 4.82,-4.83l44.06 0c2.66,0 4.82,2.16 4.82,4.83l0 44.08c0,2.66 -2.16,4.82 -4.82,4.82z"/>
   <path class="fil0" d="M274.25 374.93l34.4 0 0 -34.43 -34.4 0 0 34.43zm39.23 9.64l-44.06 0c-2.66,0 -4.82,-2.16 -4.82,-4.82l0 -44.08c0,-2.67 2.16,-4.83 4.82,-4.83l44.06 0c2.66,0 4.82,2.16 4.82,4.83l0 44.08c0,2.66 -2.16,4.82 -4.82,4.82z"/>
   <path class="fil0" d="M57.98 449.43l34.39 0 0 -34.36 -34.39 0 0 34.36zm39.21 9.64l-44.04 0c-2.66,0 -4.82,-2.16 -4.82,-4.82l0 -44.01c0,-2.66 2.16,-4.82 4.82,-4.82l44.04 0c2.66,0 4.82,2.16 4.82,4.82l0 44.01c0,2.66 -2.16,4.82 -4.82,4.82z"/>
   <path class="fil0" d="M130.06 449.43l34.41 0 0 -34.36 -34.41 0 0 34.36zm39.24 9.64l-44.06 0c-2.66,0 -4.82,-2.16 -4.82,-4.82l0 -44.01c0,-2.66 2.16,-4.82 4.82,-4.82l44.06 0c2.66,0 4.82,2.16 4.82,4.82l0 44.01c0,2.66 -2.16,4.82 -4.82,4.82z"/>
   <path class="fil0" d="M202.15 449.43l34.41 0 0 -34.36 -34.41 0 0 34.36zm39.23 9.64l-44.06 0c-2.66,0 -4.82,-2.16 -4.82,-4.82l0 -44.01c0,-2.66 2.16,-4.82 4.82,-4.82l44.06 0c2.66,0 4.82,2.16 4.82,4.82l0 44.01c0,2.66 -2.16,4.82 -4.82,4.82z"/>
   <path class="fil0" d="M274.25 449.43l34.4 0 0 -34.36 -34.4 0 0 34.36zm39.23 9.64l-44.06 0c-2.66,0 -4.82,-2.16 -4.82,-4.82l0 -44.01c0,-2.66 2.16,-4.82 4.82,-4.82l44.06 0c2.66,0 4.82,2.16 4.82,4.82l0 44.01c0,2.66 -2.16,4.82 -4.82,4.82z"/>
  </g>
 </g>
</svg>
