<?xml version="1.0" encoding="UTF-8"?>
<!DOCTYPE svg PUBLIC "-//W3C//DTD SVG 1.1//EN" "http://www.w3.org/Graphics/SVG/1.1/DTD/svg11.dtd">
<!-- Creator: CorelDRAW 2017 -->
<svg xmlns="http://www.w3.org/2000/svg" xml:space="preserve" width="79.6396mm" height="90.0369mm" version="1.1" style="shape-rendering:geometricPrecision; text-rendering:geometricPrecision; image-rendering:optimizeQuality; fill-rule:evenodd; clip-rule:evenodd"
viewBox="0 0 342.65 387.39"
 xmlns:xlink="http://www.w3.org/1999/xlink">
 <defs>
  <style type="text/css">
   <![CDATA[
    .fil2 {fill:#AEDEF7;fill-rule:nonzero}
    .fil0 {fill:#232946;fill-rule:nonzero}
    .fil1 {fill:#F4CAAE;fill-rule:nonzero}
   ]]>
  </style>
 </defs>
 <g id="Layer_x0020_1">
  <metadata id="CorelCorpID_0Corel-Layer"/>
  <path class="fil0" d="M61.74 13.89c-15.15,0 -27.48,12.33 -27.48,27.47l0 304.64c0,15.15 12.33,27.48 27.48,27.48l239.54 0c15.15,0 27.48,-12.33 27.48,-27.48l0 -304.64c0,-15.14 -12.32,-27.47 -27.48,-27.47l-239.54 0zm239.54 373.49l-239.54 0c-22.82,0 -41.38,-18.56 -41.38,-41.38l0 -304.64c0,-22.81 18.56,-41.37 41.38,-41.37l239.54 0c22.82,0 41.38,18.56 41.38,41.37l0 304.64c0,22.82 -18.56,41.38 -41.38,41.38z"/>
  <path class="fil1" d="M87.77 6.95l0 373.5 -26.04 0c-19.01,0 -34.43,-15.42 -34.43,-34.43l0 -304.64c0,-19.01 15.41,-34.42 34.43,-34.42l26.04 0z"/>
  <path class="fil0" d="M61.74 13.89c-15.15,0 -27.48,12.33 -27.48,27.47l0 304.64c0,15.15 12.33,27.48 27.48,27.48l19.09 0 0 -359.6 -19.09 0zm26.04 373.49l-26.04 0c-22.82,0 -41.38,-18.56 -41.38,-41.38l0 -304.64c0,-22.81 18.56,-41.37 41.38,-41.37l26.04 0c3.84,0 6.95,3.1 6.95,6.95l0 373.5c0,3.83 -3.11,6.95 -6.95,6.95z"/>
  <polygon class="fil2" points="48.3,64.57 6.95,64.57 "/>
  <path class="fil0" d="M48.3 71.52l-41.36 0c-3.84,0 -6.95,-3.11 -6.95,-6.95 0,-3.84 3.11,-6.95 6.95,-6.95l41.36 0c3.84,0 6.95,3.1 6.95,6.95 0,3.83 -3.11,6.95 -6.95,6.95z"/>
  <polygon class="fil2" points="48.3,116.21 6.95,116.21 "/>
  <path class="fil0" d="M48.3 123.16l-41.36 0c-3.84,0 -6.95,-3.11 -6.95,-6.95 0,-3.83 3.11,-6.95 6.95,-6.95l41.36 0c3.84,0 6.95,3.11 6.95,6.95 0,3.84 -3.11,6.95 -6.95,6.95z"/>
  <polygon class="fil2" points="48.3,167.87 6.95,167.87 "/>
  <path class="fil0" d="M48.3 174.81l-41.36 0c-3.84,0 -6.95,-3.11 -6.95,-6.95 0,-3.84 3.11,-6.95 6.95,-6.95l41.36 0c3.84,0 6.95,3.11 6.95,6.95 0,3.83 -3.11,6.95 -6.95,6.95z"/>
  <polygon class="fil2" points="48.3,219.52 6.95,219.52 "/>
  <path class="fil0" d="M48.3 226.47l-41.36 0c-3.84,0 -6.95,-3.12 -6.95,-6.95 0,-3.84 3.11,-6.95 6.95,-6.95l41.36 0c3.84,0 6.95,3.11 6.95,6.95 0,3.83 -3.11,6.95 -6.95,6.95z"/>
  <polygon class="fil2" points="48.3,271.16 6.95,271.16 "/>
  <path class="fil0" d="M48.3 278.11l-41.36 0c-3.84,0 -6.95,-3.11 -6.95,-6.95 0,-3.83 3.11,-6.95 6.95,-6.95l41.36 0c3.84,0 6.95,3.11 6.95,6.95 0,3.84 -3.11,6.95 -6.95,6.95z"/>
  <polygon class="fil2" points="48.3,322.82 6.95,322.82 "/>
  <path class="fil0" d="M48.3 329.77l-41.36 0c-3.84,0 -6.95,-3.11 -6.95,-6.95 0,-3.84 3.11,-6.95 6.95,-6.95l41.36 0c3.84,0 6.95,3.11 6.95,6.95 0,3.83 -3.11,6.95 -6.95,6.95z"/>
  <path class="fil1" d="M278.69 74.63l-145.94 0c-3.17,0 -5.75,-2.2 -5.75,-4.93 0,-2.71 2.57,-4.92 5.75,-4.92l145.94 0c3.17,0 5.75,2.2 5.75,4.92 0,2.73 -2.58,4.93 -5.75,4.93z"/>
  <path class="fil1" d="M202.85 114.41l-72.97 0c-1.59,0 -2.87,-2.2 -2.87,-4.93 0,-2.71 1.29,-4.92 2.87,-4.92l72.97 0c1.59,0 2.88,2.2 2.88,4.92 0,2.73 -1.29,4.93 -2.88,4.93z"/>
  <path class="fil1" d="M278.69 160.24l-145.94 0c-3.17,0 -5.75,-2.2 -5.75,-4.93 0,-2.71 2.57,-4.92 5.75,-4.92l145.94 0c3.17,0 5.75,2.2 5.75,4.92 0,2.73 -2.58,4.93 -5.75,4.93z"/>
  <path class="fil1" d="M202.85 200.02l-72.97 0c-1.59,0 -2.87,-2.2 -2.87,-4.93 0,-2.71 1.29,-4.92 2.87,-4.92l72.97 0c1.59,0 2.88,2.2 2.88,4.92 0,2.73 -1.29,4.93 -2.88,4.93z"/>
  <path class="fil1" d="M278.69 321.39l-145.94 0c-3.17,0 -5.75,-2.2 -5.75,-4.93 0,-2.71 2.57,-4.92 5.75,-4.92l145.94 0c3.17,0 5.75,2.2 5.75,4.92 0,2.73 -2.58,4.93 -5.75,4.93z"/>
  <path class="fil1" d="M278.69 241.29l-145.94 0c-3.17,0 -5.75,-2.2 -5.75,-4.93 0,-2.71 2.57,-4.92 5.75,-4.92l145.94 0c3.17,0 5.75,2.2 5.75,4.92 0,2.73 -2.58,4.93 -5.75,4.93z"/>
  <path class="fil1" d="M202.85 281.07l-72.97 0c-1.59,0 -2.87,-2.2 -2.87,-4.93 0,-2.71 1.29,-4.92 2.87,-4.92l72.97 0c1.59,0 2.88,2.2 2.88,4.92 0,2.73 -1.29,4.93 -2.88,4.93z"/>
 </g>
</svg>
