<?xml version="1.0" encoding="UTF-8"?>
<!DOCTYPE svg PUBLIC "-//W3C//DTD SVG 1.1//EN" "http://www.w3.org/Graphics/SVG/1.1/DTD/svg11.dtd">
<!-- Creator: CorelDRAW 2017 -->
<svg xmlns="http://www.w3.org/2000/svg" xml:space="preserve" width="23.9382mm" height="23.0744mm" version="1.1" style="shape-rendering:geometricPrecision; text-rendering:geometricPrecision; image-rendering:optimizeQuality; fill-rule:evenodd; clip-rule:evenodd"
viewBox="0 0 44.03 42.44"
 xmlns:xlink="http://www.w3.org/1999/xlink">
 <defs>
  <style type="text/css">
   <![CDATA[
    .fil1 {fill:#F4CAAE}
    .fil0 {fill:#232946;fill-rule:nonzero}
   ]]>
  </style>
 </defs>
 <g id="Layer_x0020_1">
  <metadata id="CorelCorpID_0Corel-Layer"/>
  <path class="fil0" d="M3.95 2.28l11.68 0.36 -10.95 10.55 -0.73 -10.91zm11.81 19.4l12.48 0 0 8.7 -12.48 0 0 -8.7zm-8.93 1.4l0 17.75c0.01,0.67 0.45,1.09 0.81,1.3 0.37,0.21 0.78,0.31 1.21,0.31 9.67,0 16.66,0 26.34,0 0.44,0 0.84,-0.1 1.21,-0.31 0.36,-0.2 0.79,-0.63 0.81,-1.3l0 -17.75 -15.19 -13.81 -15.18 13.81zm36.28 -4.89l-19.18 -17.45c-1.08,-0.99 -2.75,-0.99 -3.83,0l-19.18 17.45c-1.16,1.05 -1.23,2.85 -0.18,4 0.56,0.6 1.34,0.92 2.1,0.92 0.69,0 1.38,-0.24 1.92,-0.74l17.24 -15.7 17.25 15.7c1.16,1.05 2.96,0.98 4.01,-0.18 1.06,-1.16 0.99,-2.95 -0.17,-4z"/>
  <rect class="fil1" x="15.48" y="20.85" width="12.94" height="10.71"/>
  <polygon class="fil1" points="3.84,2.18 4.58,13.3 15.74,2.55 "/>
 </g>
</svg>
