<?xml version="1.0" encoding="UTF-8"?>
<!DOCTYPE svg PUBLIC "-//W3C//DTD SVG 1.1//EN" "http://www.w3.org/Graphics/SVG/1.1/DTD/svg11.dtd">
<!-- Creator: CorelDRAW 2017 -->
<svg xmlns="http://www.w3.org/2000/svg" xml:space="preserve" width="63.844mm" height="78.7933mm" version="1.1" style="shape-rendering:geometricPrecision; text-rendering:geometricPrecision; image-rendering:optimizeQuality; fill-rule:evenodd; clip-rule:evenodd"
viewBox="0 0 66 82"
 xmlns:xlink="http://www.w3.org/1999/xlink">
 <defs>
  <style type="text/css">
   <![CDATA[
    .fil1 {fill:#323096;fill-rule:nonzero}
    .fil0 {fill:#DDF0FF;fill-rule:nonzero}
   ]]>
  </style>
 </defs>
 <g id="Layer_x0020_1">
  <metadata id="CorelCorpID_0Corel-Layer"/>
  <g id="_3135912075088">
   <path class="fil0" d="M36 63l0 -6c2,-1 3,-3 3,-5 0,-4 -5,-8 -10,-5 0,0 -1,1 -1,1 -2,4 -1,7 2,9l0 6 6 0z"/>
   <path class="fil1" d="M7 82l52 0c3,0 6,-2 7,-5l-66 0c1,3 4,5 7,5z"/>
   <path class="fil0" d="M0 74c0,1 0,1 0,2l66 0c0,-1 0,-1 0,-2l0 -1 -66 0 0 1z"/>
   <path class="fil1" d="M46 33l-27 0 0 -10c0,-4 2,-7 5,-9 10,-6 20,0 22,9l0 10zm-10 25l0 6 -6 0 0 -6c-3,-2 -4,-5 -2,-9 0,0 1,-1 1,-1 5,-3 10,0 10,5 0,2 -1,4 -3,5zm21 -34c0,-17 -18,-30 -36,-21 -7,4 -11,11 -11,19l0 10 -5 0c-3,0 -5,2 -5,5l0 36 66 0 0 -36c0,-3 -2,-5 -5,-5l-5 0 0 -9 0 0z"/>
  </g>
 </g>
</svg>
