<?xml version="1.0" encoding="UTF-8"?>
<!DOCTYPE svg PUBLIC "-//W3C//DTD SVG 1.1//EN" "http://www.w3.org/Graphics/SVG/1.1/DTD/svg11.dtd">
<!-- Creator: CorelDRAW 2017 -->
<svg xmlns="http://www.w3.org/2000/svg" xml:space="preserve" width="79.6396mm" height="90.0369mm" version="1.1" style="shape-rendering:geometricPrecision; text-rendering:geometricPrecision; image-rendering:optimizeQuality; fill-rule:evenodd; clip-rule:evenodd"
viewBox="0 0 449.1 507.73"
 xmlns:xlink="http://www.w3.org/1999/xlink">
 <defs>
  <style type="text/css">
   <![CDATA[
    .fil2 {fill:#AEDEF7;fill-rule:nonzero}
    .fil0 {fill:#232946;fill-rule:nonzero}
    .fil4 {fill:#232946;fill-rule:nonzero}
    .fil1 {fill:#F4CAAE;fill-rule:nonzero}
    .fil3 {fill:#F4CAAE;fill-rule:nonzero}
   ]]>
  </style>
 </defs>
 <g id="Layer_x0020_1">
  <metadata id="CorelCorpID_0Corel-Layer"/>
  <path class="fil0" d="M80.91 18.21c-19.86,0 -36.01,16.16 -36.01,36.01l0 399.28c0,19.86 16.16,36.02 36.01,36.02l313.95 0c19.86,0 36.01,-16.16 36.01,-36.02l0 -399.28c0,-19.85 -16.15,-36.01 -36.01,-36.01l-313.95 0zm313.95 489.52l-313.95 0c-29.9,0 -54.23,-24.32 -54.23,-54.23l0 -399.28c0,-29.9 24.33,-54.22 54.23,-54.22l313.95 0c29.9,0 54.23,24.32 54.23,54.22l0 399.28c0,29.91 -24.33,54.23 -54.23,54.23z"/>
  <path class="fil1" d="M115.04 9.1l0 489.52 -34.13 0c-24.92,0 -45.12,-20.21 -45.12,-45.13l0 -399.28c0,-24.91 20.2,-45.11 45.12,-45.11l34.13 0z"/>
  <path class="fil0" d="M80.91 18.21c-19.86,0 -36.01,16.16 -36.01,36.01l0 399.28c0,19.86 16.16,36.02 36.01,36.02l25.02 0 0 -471.31 -25.02 0zm34.13 489.52l-34.13 0c-29.9,0 -54.23,-24.32 -54.23,-54.23l0 -399.28c0,-29.9 24.33,-54.22 54.23,-54.22l34.13 0c5.03,0 9.1,4.07 9.1,9.1l0 489.52c0,5.02 -4.07,9.1 -9.1,9.1z"/>
  <polygon class="fil2" points="63.31,84.63 9.1,84.63 "/>
  <path class="fil0" d="M63.31 93.73l-54.2 0c-5.03,0 -9.1,-4.08 -9.1,-9.1 0,-5.04 4.08,-9.1 9.1,-9.1l54.2 0c5.03,0 9.11,4.07 9.11,9.1 0,5.02 -4.08,9.1 -9.11,9.1z"/>
  <polygon class="fil2" points="63.31,152.31 9.1,152.31 "/>
  <path class="fil0" d="M63.31 161.42l-54.2 0c-5.03,0 -9.1,-4.07 -9.1,-9.1 0,-5.02 4.08,-9.1 9.1,-9.1l54.2 0c5.03,0 9.11,4.08 9.11,9.1 0,5.03 -4.08,9.1 -9.11,9.1z"/>
  <polygon class="fil2" points="63.31,220.01 9.1,220.01 "/>
  <path class="fil0" d="M63.31 229.12l-54.2 0c-5.03,0 -9.1,-4.08 -9.1,-9.1 0,-5.03 4.08,-9.1 9.1,-9.1l54.2 0c5.03,0 9.11,4.07 9.11,9.1 0,5.02 -4.08,9.1 -9.11,9.1z"/>
  <polygon class="fil2" points="63.31,287.71 9.1,287.71 "/>
  <path class="fil0" d="M63.31 296.82l-54.2 0c-5.03,0 -9.1,-4.08 -9.1,-9.11 0,-5.03 4.08,-9.12 9.1,-9.12l54.2 0c5.03,0 9.11,4.08 9.11,9.12 0,5.02 -4.08,9.11 -9.11,9.11z"/>
  <polygon class="fil2" points="63.31,355.4 9.1,355.4 "/>
  <path class="fil0" d="M63.31 364.51l-54.2 0c-5.03,0 -9.1,-4.07 -9.1,-9.11 0,-5.02 4.08,-9.11 9.1,-9.11l54.2 0c5.03,0 9.11,4.08 9.11,9.11 0,5.04 -4.08,9.11 -9.11,9.11z"/>
  <polygon class="fil2" points="63.31,423.1 9.1,423.1 "/>
  <path class="fil0" d="M63.31 432.21l-54.2 0c-5.03,0 -9.1,-4.08 -9.1,-9.1 0,-5.04 4.08,-9.11 9.1,-9.11l54.2 0c5.03,0 9.11,4.07 9.11,9.11 0,5.02 -4.08,9.1 -9.11,9.1z"/>
  <g id="_1600202812720">
   <path class="fil3" d="M272.36 179.31c12.03,0 21.83,9.79 21.83,21.82 0,2.86 2.3,5.16 5.15,5.16 2.86,0 5.16,-2.3 5.16,-5.16 0,-17.73 -14.41,-32.14 -32.14,-32.14 -2.85,0 -5.16,2.31 -5.16,5.16 0,2.85 2.31,5.16 5.16,5.16z"/>
   <path class="fil3" d="M301.65 278.21c-2.52,-1.26 -5.64,-0.25 -6.93,2.3 -1.27,2.55 -0.24,5.65 2.31,6.93 15.26,7.63 15.26,32.51 15.26,40.68 0,2.85 2.31,5.16 5.16,5.16 2.85,0 5.16,-2.31 5.16,-5.16 0,-9.76 0,-39.42 -20.97,-49.91z"/>
   <path class="fil4" d="M329.05 335.01c-10.21,5.91 -28.8,9.22 -48.42,9.94l18.72 -22.88 -18.12 -41.51 14.98 -20.6c0.98,-0.4 1.93,-0.87 2.89,-1.31l4.74 4.04c17.94,15.21 26.95,22.85 30.47,67.2 0,1.04 -1.62,3.02 -5.26,5.12zm-113.37 0.01c-3.63,-2.12 -5.26,-4.09 -5.29,-4.32 3.54,-45.17 12.55,-52.8 30.5,-68.01l4.61 -3.92c0.88,0.4 1.74,0.83 2.64,1.2l14.98 20.6 -18.12 41.51 18.71 22.86c-19.46,-0.75 -37.87,-4.06 -48.03,-9.91zm99.24 -133.7c0,23.57 -19.17,42.75 -42.75,42.75 -23.57,0 -42.75,-19.18 -42.75,-42.75 0,-23.57 19.18,-42.75 42.75,-42.75 23.58,0 42.75,19.18 42.75,42.75zm2.26 45.61l-0.54 -0.45c11.68,-11.5 18.93,-27.47 18.93,-45.15 0,-35.02 -28.38,-63.4 -63.4,-63.4 -35.02,0 -63.4,28.38 -63.4,63.4 0,17.77 7.33,33.81 19.11,45.32l-0.34 0.29c-21.41,18.15 -33.72,30.91 -37.77,82.96 0,6.4 2.7,15.57 15.59,23 15.03,8.68 41.02,13.02 67.01,13.02 25.98,0 51.98,-4.34 67,-13.02 12.87,-7.44 15.58,-16.61 15.55,-23.81 -4.03,-51.25 -16.32,-64.01 -37.73,-82.16z"/>
  </g>
 </g>
</svg>
