<?xml version="1.0" encoding="UTF-8"?>
<!DOCTYPE svg PUBLIC "-//W3C//DTD SVG 1.1//EN" "http://www.w3.org/Graphics/SVG/1.1/DTD/svg11.dtd">
<!-- Creator: CorelDRAW 2017 -->
<svg xmlns="http://www.w3.org/2000/svg" xml:space="preserve" width="91.2682mm" height="85.812mm" version="1.1" style="shape-rendering:geometricPrecision; text-rendering:geometricPrecision; image-rendering:optimizeQuality; fill-rule:evenodd; clip-rule:evenodd"
viewBox="0 0 814.18 765.51"
 xmlns:xlink="http://www.w3.org/1999/xlink">
 <defs>
  <style type="text/css">
   <![CDATA[
    .fil0 {fill:white;fill-rule:nonzero}
   ]]>
  </style>
 </defs>
 <g id="Layer_x0020_1">
  <metadata id="CorelCorpID_0Corel-Layer"/>
  <g id="_1600197750592">
   <path class="fil0" d="M203.58 510.67c-55.5,0 -110.99,-8.29 -139.72,-24.88 -8.96,-5.19 -12.98,-10.05 -13.05,-10.61 8.73,-111.32 30.94,-130.16 75.19,-167.64l11.35 -9.67c20.03,9.32 42.25,14.66 65.75,14.66 9.06,0 17.28,-0.94 25.91,-2.44l0 -52.24c-8.47,2.26 -16.72,3.79 -25.91,3.79 -58.09,0 -105.37,-47.28 -105.37,-105.37 0,-58.09 47.27,-105.37 105.37,-105.37 58.12,0 105.37,47.27 105.37,105.37 0,8.91 -1.05,15.5 -3.13,23.77l51.88 0c1.27,-8.01 2.13,-15.42 2.13,-23.77 0,-86.31 -69.97,-156.26 -156.26,-156.26 -86.31,0 -156.26,69.95 -156.26,156.26 0,43.82 18.07,83.34 47.1,111.71l-0.84 0.74c-52.78,44.71 -83.11,76.15 -93.1,204.45 0,15.77 6.66,38.37 38.42,56.69 36.11,20.87 102.76,31.33 165.15,31.86l0.02 -51.05z"/>
   <path class="fil0" d="M203.56 102.01c29.67,0 53.79,24.12 53.79,53.77 0,7.05 5.71,12.72 12.72,12.72 7.05,0 12.72,-5.68 12.72,-12.72 0,-43.69 -35.55,-79.21 -79.23,-79.21 -7.03,0 -12.72,5.71 -12.72,12.72 0,7.03 5.7,12.72 12.72,12.72z"/>
   <path class="fil0" d="M507.56 180.01c-1.75,-7.64 -2.7,-15.57 -2.7,-23.75 0,-58.09 47.28,-105.37 105.37,-105.37 58.11,0 105.37,47.27 105.37,105.37 0,58.09 -47.25,105.37 -105.37,105.37 -8.63,0 -17.02,-1.05 -25.04,-3l0.05 51.8c8.12,1.33 16.47,2.08 24.99,2.08 23.77,0 46.18,-5.45 66.36,-14.93l11.68 9.95c44.23,37.48 66.44,56.31 75.09,165.62 0,2.58 -4,7.43 -12.95,12.62 -28.73,16.57 -84.2,24.86 -139.72,24.86l0 51.07c62.34,-0.56 129.14,-11.04 165.17,-31.86 31.73,-18.34 38.39,-40.94 38.32,-58.68 -9.93,-126.31 -40.23,-157.76 -93,-202.47l-1.35 -1.15c28.8,-28.35 46.67,-67.72 46.67,-111.3 0,-86.31 -69.95,-156.26 -156.26,-156.26 -86.29,0 -156.26,69.95 -156.26,156.26 0,8.09 0.69,16.01 1.88,23.77l51.7 -0.02z"/>
   <path class="fil0" d="M689.9 155.78c0,-43.69 -35.52,-79.21 -79.21,-79.21 -7.02,0 -12.72,5.71 -12.72,12.72 0,7.03 5.71,12.72 12.72,12.72 29.65,0 53.77,24.12 53.77,53.77 0,7.05 5.71,12.72 12.72,12.72 7.05,0 12.72,-5.68 12.72,-12.72z"/>
   <path class="fil0" d="M671.51 368.56c37.61,18.8 37.61,80.1 37.61,100.22 0,7.03 5.7,12.72 12.72,12.72 7.02,0 12.72,-5.7 12.72,-12.72 0,-24.04 0,-97.15 -51.67,-123 -6.29,-3.1 -13.92,-0.58 -17.08,5.7 -3.13,6.29 -0.58,13.92 5.71,17.08z"/>
   <path class="fil0" d="M407.13 305.58c29.64,0 53.79,24.13 53.79,53.77 0,7.05 5.67,12.72 12.7,12.72 7.05,0 12.72,-5.67 12.72,-12.72 0,-43.7 -35.52,-79.21 -79.21,-79.21 -7.03,0 -12.72,5.7 -12.72,12.72 0,7.03 5.7,12.72 12.72,12.72z"/>
   <path class="fil0" d="M479.31 549.34c-6.2,-3.1 -13.91,-0.61 -17.07,5.68 -3.13,6.28 -0.58,13.92 5.7,17.07 37.61,18.8 37.61,80.13 37.61,100.26 0,7.02 5.71,12.72 12.72,12.72 7.03,0 12.72,-5.71 12.72,-12.72 0,-24.05 0,-97.15 -51.68,-123.01z"/>
   <path class="fil0" d="M546.85 689.35c-25.17,14.56 -70.99,22.73 -119.34,24.51l46.13 -56.39 -44.66 -102.31 36.92 -50.76c2.42,-1 4.76,-2.14 7.13,-3.23l11.68 9.95c44.22,37.49 66.44,56.31 75.09,165.62 0,2.57 -4,7.44 -12.95,12.62zm-279.42 0.03c-8.95,-5.22 -12.98,-10.08 -13.05,-10.64 8.73,-111.32 30.94,-130.15 75.19,-167.64l11.35 -9.66c2.16,0.99 4.3,2.03 6.51,2.95l36.92 50.76 -44.66 102.31 46.11 56.33c-47.97,-1.85 -93.34,-10 -118.38,-24.42zm244.61 -329.54c0,58.09 -47.25,105.37 -105.37,105.37 -58.09,0 -105.37,-47.28 -105.37,-105.37 0,-58.09 47.28,-105.37 105.37,-105.37 58.12,0 105.37,47.28 105.37,105.37zm5.58 112.41l-1.33 -1.12c28.78,-28.35 46.65,-67.71 46.65,-111.3 0,-86.32 -69.95,-156.27 -156.27,-156.27 -86.31,0 -156.26,69.95 -156.26,156.27 0,43.79 18.07,83.33 47.1,111.7l-0.84 0.71c-52.78,44.73 -83.11,76.18 -93.1,204.48 0,15.78 6.66,38.37 38.42,56.69 37.05,21.4 101.1,32.09 165.17,32.09 64.04,0 128.12,-10.69 165.14,-32.09 31.73,-18.34 38.39,-40.94 38.32,-58.68 -9.93,-126.31 -40.23,-157.76 -93,-202.5z"/>
  </g>
 </g>
</svg>
