<?xml version="1.0" encoding="UTF-8"?>
<!DOCTYPE svg PUBLIC "-//W3C//DTD SVG 1.1//EN" "http://www.w3.org/Graphics/SVG/1.1/DTD/svg11.dtd">
<!-- Creator: CorelDRAW 2017 -->
<svg xmlns="http://www.w3.org/2000/svg" xml:space="preserve" width="203.009mm" height="116.382mm" version="1.1" style="shape-rendering:geometricPrecision; text-rendering:geometricPrecision; image-rendering:optimizeQuality; fill-rule:evenodd; clip-rule:evenodd"
viewBox="0 0 3782.78 2168.62"
 xmlns:xlink="http://www.w3.org/1999/xlink">
 <defs>
  <style type="text/css">
   <![CDATA[
    .fil9 {fill:#DCDDDD}
    .fil11 {fill:#00824E}
    .fil10 {fill:#00AC67}
    .fil13 {fill:#232946}
    .fil12 {fill:white}
    .fil1 {fill:#005289;fill-rule:nonzero}
    .fil4 {fill:#005289;fill-rule:nonzero}
    .fil2 {fill:#012F59;fill-rule:nonzero}
    .fil5 {fill:#232946;fill-rule:nonzero}
    .fil0 {fill:#3B72AA;fill-rule:nonzero}
    .fil3 {fill:#3B72AA;fill-rule:nonzero}
    .fil6 {fill:#F9BC60;fill-rule:nonzero}
    .fil8 {fill:white;fill-rule:nonzero}
    .fil7 {fill:#012F59;fill-rule:nonzero;fill-opacity:0.200000}
   ]]>
  </style>
 </defs>
 <g id="Layer_x0020_1">
  <metadata id="CorelCorpID_0Corel-Layer"/>
  <g id="_1883836640912">
   <path class="fil0" d="M1004.97 934.9c-49.56,-58.09 -157.18,-193.6 -220.17,-342.99 -90.39,-214.4 -197.98,-203.94 -224.31,-132.53 -68.09,184.68 233.93,413.67 359.87,499.34l84.61 -23.81z"/>
   <g>
    <path class="fil1" d="M975.18 943.28c-87.21,-76.26 -159.18,-164.14 -207.62,-230.01 -64.78,-88.08 -102.62,-156.88 -103,-157.58 -1.35,-2.47 -4.46,-3.38 -6.93,-2.01 -2.48,1.35 -3.39,4.45 -2.03,6.93 0.37,0.69 38.47,69.98 103.62,158.58 47.85,65.09 118.54,151.53 204.24,227.39l11.72 -3.3z"/>
   </g>
  </g>
  <g id="_1883808273024">
   <path class="fil1" d="M997.15 861.25c-21.11,-51.44 -60.4,-158.84 -69.91,-265.98 -14.2,-160.09 -87.17,-175.91 -119.55,-134.5 -88.95,113.72 86.06,348.39 142.26,418.19l47.2 -17.71z"/>
   <g>
    <g>
     <g>
      <path class="fil2" d="M979.18 867.99c-41.73,-68.98 -70.8,-142.61 -88.89,-196.53 -24.02,-71.6 -34.38,-124.84 -34.49,-125.37 -0.37,-1.91 -2.22,-3.16 -4.13,-2.79 -1.91,0.36 -3.17,2.21 -2.8,4.13 0.1,0.53 10.54,54.15 34.68,126.17 18.11,54.02 47.18,127.69 88.9,196.92l6.72 -2.52z"/>
     </g>
    </g>
   </g>
  </g>
  <g id="_1883840500528">
   <g>
    <g>
     <path class="fil1" d="M1538.84 901.95l-98.99 0 -100.36 -65.38c-24.69,-38.79 -46.29,-81.17 -42.24,-105.84 8.87,-54.06 63.15,-111.87 20.7,-153.12 -42.45,-41.26 -83.45,-111.21 -16.41,-175.78 67.05,-64.58 40.54,-224.28 40.54,-224.28 0,0 93.02,77.08 78.26,198.29 -14.76,121.21 17.95,113.75 80.88,172.36 62.93,58.62 106.02,84.58 41.2,210.87 -24.22,47.19 -19.46,98.32 -3.59,142.87z"/>
    </g>
   </g>
   <g>
    <g>
     <g>
      <path class="fil2" d="M1427.91 728.29c-19.54,37.73 -26.62,93.14 -18.92,148.21 0.27,1.94 0.57,3.92 0.89,5.93l9.22 6c-0.83,-4.49 -1.54,-8.86 -2.12,-13.04 -7.36,-52.68 -0.43,-107.62 18.08,-143.4 29.49,-56.94 11.91,-120.3 -57.02,-205.42 -40.02,-49.4 -15.71,-121.71 -15.45,-122.43 0.72,-2.1 -0.39,-4.4 -2.49,-5.12 -2.11,-0.73 -4.4,0.38 -5.13,2.48 -1.09,3.13 -26.06,77.22 16.8,130.14 66.64,82.28 83.96,142.93 56.14,196.65z"/>
     </g>
    </g>
   </g>
  </g>
  <g id="_1883954446352">
   <g>
    <path class="fil0" d="M1166.1 901.95c-11.6,-9.64 -24.69,-18.35 -39.46,-25.88 -188.18,-95.92 -158.81,-164.78 -133.94,-290.29 24.87,-125.52 70.84,-145.01 -52.53,-278.39 -123.37,-133.38 -78.28,-307.39 -78.28,-307.39 0,0 107.11,215.77 244.24,235.28 137.13,19.51 148.58,139.61 133.29,226.36 -15.28,86.74 100.55,109.22 158.33,166.71 41.8,41.59 44.59,192.99 42.94,273.6l-274.6 0z"/>
   </g>
   <g>
    <g>
     <path class="fil1" d="M1376.5 901.95c-36.99,-67.75 -91.74,-125.72 -143.91,-152.08 -85.17,-43.02 -119.14,-134.76 -110.1,-297.49 5.25,-94.45 -87.03,-160.52 -87.98,-161.16 -2.7,-1.9 -3.36,-5.64 -1.46,-8.34 1.91,-2.72 5.65,-3.38 8.35,-1.48 4.03,2.83 98.69,70.47 93.07,171.64 -8.74,157.3 23.18,245.56 103.53,286.15 56.44,28.51 113.23,89.19 151.9,162.33 0.08,0.14 0.15,0.29 0.23,0.43l-13.62 0z"/>
    </g>
   </g>
  </g>
  <g id="_1883954446608">
   <path class="fil3" d="M533.67 1870.82c-155.93,-46.92 -270.21,-173.22 -338.64,-270.92 -74.27,-106.06 -112.03,-202.25 -112.4,-203.21l-6.61 3.06c0.39,0.96 38.41,97.87 113.17,204.66 69.08,98.66 184.54,226.26 342.39,273.76l2.09 -7.34z"/>
   <path class="fil3" d="M86.61 1360.75c15.38,25.35 19.44,54.9 13.43,81.05 -24.61,-4.55 -48.09,-20.41 -63.48,-45.77 -15.36,-25.35 -19.46,-54.9 -13.43,-81.05 24.61,4.55 48.09,20.43 63.47,45.77z"/>
   <path class="fil3" d="M77.21 1461.49c27.15,8.92 47.87,28.66 58.58,52.6 -22.14,13.16 -50.06,16.92 -77.21,7.99 -27.13,-8.91 -47.85,-28.65 -58.58,-52.59 22.14,-13.16 50.08,-16.92 77.21,-8z"/>
   <path class="fil3" d="M96.06 1551.92c28.25,-5.34 55.32,1.98 75.2,17.84 -14.35,22.34 -37.93,39.21 -66.17,44.54 -28.25,5.33 -55.32,-1.98 -75.18,-17.85 14.33,-22.33 37.91,-39.2 66.15,-44.52z"/>
   <path class="fil3" d="M154.83 1636.28c28.23,-5.34 55.3,1.98 75.18,17.84 -14.35,22.34 -37.91,39.21 -66.15,44.53 -28.25,5.33 -55.32,-1.98 -75.2,-17.85 14.35,-22.33 37.91,-39.2 66.17,-44.52z"/>
   <path class="fil3" d="M142.92 1500.44c0,-27.67 10.15,-53.22 26.2,-71.16 16.03,15.58 26.16,39.63 26.16,67.3 -0.02,27.67 -10.17,53.22 -26.2,71.16 -16.03,-15.58 -26.18,-39.63 -26.16,-67.3z"/>
   <path class="fil3" d="M204.22 1587.73c-0.39,-27.66 9.37,-53.39 25.16,-71.63 16.25,15.26 26.74,39.11 27.15,66.78 0.39,27.66 -9.37,53.39 -25.16,71.63 -16.25,-15.27 -26.74,-39.12 -27.15,-66.78z"/>
   <path class="fil3" d="M251.75 1721.5c10.53,-6.32 22.46,-7.17 32.77,-3.38 -2.46,11.44 -9.4,21.92 -19.93,28.25 -10.53,6.32 -22.48,7.16 -32.77,3.37 2.45,-11.44 9.4,-21.91 19.93,-28.23z"/>
  </g>
  <path class="fil4" d="M818.03 1982.45c0,0 143.27,-521.06 100.44,-574.61 -59.18,-73.99 -114.26,166.28 -118.72,145.68 -42.41,-194.51 -49.65,-442.41 -198.79,-471.72 -84.76,-16.66 15.87,184.56 8.44,238.26 -7.41,53.72 -157.04,-128.2 -248.28,-223.77 -91.21,-95.57 -140.56,-37.28 -84.13,81.7 54.57,115.04 236.14,243.27 197.89,257.25 -38.27,13.98 -265.67,-137.83 -295.19,-75.55 -36.2,76.36 307.33,188.38 274.41,205.02 -32.91,16.65 -196.96,-43.79 -193.65,15.24 3.29,59.03 225.43,61.42 221.1,87.26 -7.02,41.85 -151.95,-56.2 -159.6,1.75 -7.83,59.27 192.23,52.56 187.83,98.82 -2.54,26.58 -14.49,1.58 -21.55,38.32 -16.15,83.8 215.08,175.65 215.08,175.65l114.71 0.67z"/>
  <path class="fil4" d="M879.41 1979.3c0,0 -122.06,-195.86 -181.94,-233.6 -63.82,-40.21 -17.05,77.2 -17.05,77.2 0,0 -128.82,-159.87 -166.17,-128.7 -37.38,31.17 -4.81,68.84 -4.81,68.84 0,0 -117.86,-37.59 -140.06,5.49 -34.13,66.2 159.92,125.69 159.92,125.69 0,0 -83.77,-2.61 -69.3,42.85 21.86,68.57 419.4,42.24 419.4,42.24z"/>
  <path class="fil3" d="M369.38 1768.51c22.2,-43.08 140.06,-5.49 140.06,-5.49 0,0 -32.57,-37.67 4.81,-68.84 37.36,-31.17 141.03,66.58 141.03,66.58 0,0 -9.44,-79.05 68.69,-7.96 55.78,50.76 155.44,226.49 155.44,226.49l-510.03 -210.78z"/>
  <g id="_1883954449968">
   <path class="fil3" d="M895.86 1810.94c-120.71,-72.3 -189.74,-202.29 -226.41,-298.62 -39.79,-104.57 -51.1,-193.15 -51.22,-194.04l-6.17 1.17c0.1,0.88 11.49,90.13 51.52,195.4 37.01,97.29 106.76,228.61 228.97,301.8l3.31 -5.71z"/>
   <path class="fil3" d="M629.19 1289.03c7.51,24.49 4.67,50.12 -5.88,70.75 -19.68,-9.02 -35.98,-27.28 -43.51,-51.77 -7.53,-24.48 -4.69,-50.12 5.88,-70.76 19.66,9.02 35.98,27.29 43.51,51.78z"/>
   <path class="fil3" d="M599.99 1371.45c20.86,13.21 34.05,34.12 37.97,56.46 -21.33,6.34 -45.51,3.58 -66.38,-9.63 -20.86,-13.2 -34.03,-34.12 -37.97,-56.46 21.33,-6.34 45.53,-3.58 66.38,9.64z"/>
   <path class="fil3" d="M596.66 1451.2c24.8,1.5 45.94,13.36 59.23,30.86 -16.74,15.67 -40.06,24.82 -64.85,23.32 -24.8,-1.51 -45.92,-13.36 -59.21,-30.87 16.72,-15.67 40.04,-24.82 64.84,-23.31z"/>
   <path class="fil3" d="M628.05 1534.31c24.8,1.5 45.94,13.36 59.23,30.86 -16.74,15.67 -40.06,24.83 -64.85,23.32 -24.8,-1.51 -45.94,-13.36 -59.23,-30.86 16.74,-15.68 40.06,-24.83 64.85,-23.32z"/>
   <path class="fil3" d="M646.8 1417.97c5.87,-23.18 19.76,-42.44 37.01,-54.07 10.13,16.44 13.54,38.74 7.67,61.93 -5.87,23.18 -19.76,42.44 -36.99,54.07 -10.13,-16.44 -13.56,-38.74 -7.69,-61.93z"/>
   <path class="fil3" d="M679.71 1504.08c5.52,-23.27 19.16,-42.75 36.22,-54.7 10.39,16.23 14.14,38.43 8.63,61.7 -5.52,23.25 -19.16,42.75 -36.22,54.7 -10.39,-16.23 -14.14,-38.44 -8.63,-61.7z"/>
   <path class="fil3" d="M691.24 1626.21c10.17,-3.07 20.33,-1.25 28.17,4.09 -4.46,9.07 -12.5,16.39 -22.67,19.45 -10.17,3.07 -20.33,1.25 -28.19,-4.1 4.48,-9.06 12.52,-16.38 22.69,-19.44z"/>
  </g>
  <g id="_1883954452592">
   <path class="fil3" d="M3249.11 1874.54c155.93,-46.92 270.21,-173.22 338.64,-270.92 74.27,-106.06 112.03,-202.25 112.4,-203.21l6.61 3.06c-0.39,0.96 -38.41,97.87 -113.17,204.66 -69.08,98.66 -184.54,226.26 -342.39,273.76l-2.09 -7.34z"/>
   <path class="fil3" d="M3696.18 1364.48c-15.38,25.35 -19.44,54.9 -13.43,81.05 24.61,-4.55 48.09,-20.41 63.48,-45.77 15.36,-25.35 19.46,-54.9 13.43,-81.05 -24.61,4.55 -48.09,20.43 -63.47,45.77z"/>
   <path class="fil3" d="M3705.57 1465.22c-27.15,8.92 -47.87,28.66 -58.58,52.6 22.14,13.16 50.06,16.92 77.21,7.99 27.13,-8.91 47.85,-28.65 58.58,-52.59 -22.14,-13.16 -50.08,-16.92 -77.21,-8z"/>
   <path class="fil3" d="M3686.72 1555.65c-28.25,-5.34 -55.32,1.98 -75.2,17.84 14.35,22.34 37.93,39.21 66.17,44.54 28.25,5.33 55.32,-1.98 75.18,-17.85 -14.33,-22.33 -37.91,-39.2 -66.15,-44.52z"/>
   <path class="fil3" d="M3627.95 1640.01c-28.23,-5.34 -55.3,1.98 -75.18,17.84 14.35,22.34 37.91,39.21 66.15,44.53 28.25,5.33 55.32,-1.98 75.2,-17.85 -14.35,-22.33 -37.91,-39.2 -66.17,-44.52z"/>
   <path class="fil3" d="M3639.86 1504.17c0,-27.67 -10.15,-53.22 -26.2,-71.16 -16.03,15.58 -26.16,39.63 -26.16,67.3 0.02,27.67 10.17,53.22 26.2,71.16 16.03,-15.58 26.18,-39.63 26.16,-67.3z"/>
   <path class="fil3" d="M3578.56 1591.46c0.39,-27.66 -9.37,-53.39 -25.16,-71.63 -16.25,15.26 -26.74,39.11 -27.15,66.78 -0.39,27.66 9.37,53.39 25.16,71.63 16.25,-15.27 26.74,-39.12 27.15,-66.78z"/>
   <path class="fil3" d="M3531.04 1725.22c-10.53,-6.32 -22.46,-7.17 -32.77,-3.38 2.46,11.44 9.4,21.92 19.93,28.25 10.53,6.32 22.48,7.16 32.77,3.37 -2.45,-11.44 -9.4,-21.91 -19.93,-28.23z"/>
  </g>
  <path class="fil4" d="M2964.76 1986.18c0,0 -143.27,-521.06 -100.44,-574.61 59.18,-73.99 114.26,166.28 118.72,145.68 42.41,-194.51 49.65,-442.41 198.79,-471.72 84.76,-16.66 -15.87,184.56 -8.44,238.26 7.41,53.72 157.04,-128.2 248.28,-223.77 91.21,-95.57 140.56,-37.28 84.13,81.7 -54.57,115.04 -236.14,243.27 -197.89,257.25 38.27,13.98 265.67,-137.83 295.19,-75.55 36.2,76.36 -307.33,188.38 -274.41,205.02 32.91,16.65 196.96,-43.79 193.65,15.24 -3.29,59.03 -225.43,61.42 -221.1,87.26 7.02,41.85 151.95,-56.2 159.6,1.75 7.83,59.27 -192.23,52.56 -187.83,98.82 2.54,26.58 14.49,1.58 21.55,38.32 16.15,83.8 -215.08,175.65 -215.08,175.65l-114.71 0.67z"/>
  <path class="fil4" d="M2903.37 1983.02c0,0 122.06,-195.86 181.94,-233.6 63.82,-40.21 17.05,77.2 17.05,77.2 0,0 128.82,-159.87 166.17,-128.7 37.38,31.17 4.81,68.84 4.81,68.84 0,0 117.86,-37.59 140.06,5.49 34.13,66.2 -159.92,125.69 -159.92,125.69 0,0 83.77,-2.61 69.3,42.85 -21.86,68.57 -419.4,42.24 -419.4,42.24z"/>
  <path class="fil3" d="M3413.4 1772.24c-22.2,-43.08 -140.06,-5.49 -140.06,-5.49 0,0 32.57,-37.67 -4.81,-68.84 -37.36,-31.17 -141.03,66.58 -141.03,66.58 0,0 9.44,-79.05 -68.69,-7.96 -55.78,50.76 -155.44,226.49 -155.44,226.49l510.03 -210.78z"/>
  <g id="_1883954455664">
   <path class="fil3" d="M2886.93 1814.67c120.71,-72.3 189.74,-202.29 226.41,-298.62 39.79,-104.57 51.1,-193.15 51.22,-194.04l6.17 1.17c-0.1,0.88 -11.49,90.13 -51.52,195.4 -37.01,97.29 -106.76,228.61 -228.97,301.8l-3.31 -5.71z"/>
   <path class="fil3" d="M3153.6 1292.75c-7.51,24.49 -4.67,50.12 5.88,70.75 19.68,-9.02 35.98,-27.28 43.51,-51.77 7.53,-24.48 4.69,-50.12 -5.88,-70.76 -19.66,9.02 -35.98,27.29 -43.51,51.78z"/>
   <path class="fil3" d="M3182.8 1375.18c-20.86,13.21 -34.05,34.12 -37.97,56.46 21.33,6.34 45.51,3.58 66.38,-9.63 20.86,-13.2 34.03,-34.12 37.97,-56.46 -21.33,-6.34 -45.53,-3.58 -66.38,9.64z"/>
   <path class="fil3" d="M3186.13 1454.93c-24.8,1.5 -45.94,13.36 -59.23,30.86 16.74,15.67 40.06,24.82 64.85,23.32 24.8,-1.51 45.92,-13.36 59.21,-30.87 -16.72,-15.67 -40.04,-24.82 -64.84,-23.31z"/>
   <path class="fil3" d="M3154.73 1538.03c-24.8,1.5 -45.94,13.36 -59.23,30.86 16.74,15.67 40.06,24.83 64.85,23.32 24.8,-1.51 45.94,-13.36 59.23,-30.86 -16.74,-15.68 -40.06,-24.83 -64.85,-23.32z"/>
   <path class="fil3" d="M3135.98 1421.7c-5.87,-23.18 -19.76,-42.44 -37.01,-54.07 -10.13,16.44 -13.54,38.74 -7.67,61.93 5.87,23.18 19.76,42.44 36.99,54.07 10.13,-16.44 13.56,-38.74 7.69,-61.93z"/>
   <path class="fil3" d="M3103.07 1507.81c-5.52,-23.27 -19.16,-42.75 -36.22,-54.7 -10.39,16.23 -14.14,38.43 -8.63,61.7 5.52,23.25 19.16,42.75 36.22,54.7 10.39,-16.23 14.14,-38.44 8.63,-61.7z"/>
   <path class="fil3" d="M3091.54 1629.93c-10.17,-3.07 -20.33,-1.25 -28.17,4.09 4.46,9.07 12.5,16.39 22.67,19.45 10.17,3.07 20.33,1.25 28.19,-4.1 -4.48,-9.06 -12.52,-16.38 -22.69,-19.44z"/>
  </g>
  <g id="_1883954457232">
   <path class="fil5" d="M3004.6 757.58l0 1189.21c0,49.03 -39.74,88.77 -88.77,88.77l-2026.69 0c-49.03,0 -88.77,-39.74 -88.77,-88.77l0 -1189.21c0,-49.03 39.74,-88.77 88.77,-88.77l2026.69 0c49.03,0 88.77,39.74 88.77,88.77z"/>
  </g>
  <path class="fil6" d="M2906.68 818.04l0 1068.29c0,31.44 -25.47,56.93 -56.91,56.93l-1894.57 0c-13.28,0 -25.49,-4.55 -35.18,-12.18 -2.56,-2.02 -4.96,-4.27 -7.15,-6.71 -9.09,-10.06 -14.59,-23.42 -14.59,-38.04l0 -1068.29c0,-31.44 25.51,-56.93 56.93,-56.93l1894.57 0c10.52,0 20.34,2.84 28.79,7.82 7.94,4.67 14.66,11.21 19.52,19.01 5.46,8.73 8.6,19.05 8.6,30.09z"/>
  <g id="_1883954458800">
   <path class="fil5" d="M3210.49 1988.04l0 7.6c0,37.83 -12.13,72.81 -32.73,101.26 -31.41,43.45 -82.53,71.72 -140.26,71.72l-2270.06 0c-57.72,0 -108.84,-28.27 -140.26,-71.72 -20.6,-28.45 -32.73,-63.43 -32.73,-101.26l0 -7.6 2616.03 0z"/>
  </g>
  <g id="_1883954458352">
   <path class="fil2" d="M1609.28 1988.04l0 1.74c0,13.7 9.17,24.8 20.49,24.8l534.05 0c11.31,0 20.48,-11.1 20.48,-24.8l0 -1.74 -575.02 0z"/>
  </g>
  <g id="_1883954461040">
   <g>
    <path class="fil7" d="M2906.68 818.03l0 63.03 -2008.39 0 0 -63.03c0,-12.13 3.78,-23.35 10.26,-32.57 10.27,-14.73 27.34,-24.35 46.66,-24.35l1894.56 0c19.32,0 36.4,9.63 46.64,24.35 6.48,9.22 10.27,20.44 10.27,32.57z"/>
   </g>
   <g>
    <path class="fil8" d="M2421.51 840.09l-1065.18 0c-2.73,0 -4.96,-2.23 -4.96,-4.96l0 -21.95c0,-2.73 2.23,-4.96 4.96,-4.96l1065.18 0c2.73,0 4.96,2.23 4.96,4.96l0 21.95c0,2.73 -2.23,4.96 -4.96,4.96z"/>
   </g>
   <g>
    <path class="fil2" d="M1094.65 824.16l0 11.81c0,3.39 -3.67,5.51 -6.6,3.81l-10.23 -5.91 -10.23 -5.9c-2.93,-1.69 -2.93,-5.93 0,-7.62l10.23 -5.9 10.23 -5.91c2.93,-1.69 6.6,0.42 6.6,3.81l0 11.81z"/>
   </g>
   <g>
    <path class="fil2" d="M1147.87 824.16l0 11.81c0,3.39 3.67,5.51 6.6,3.81l10.23 -5.91 10.23 -5.9c2.93,-1.69 2.93,-5.93 0,-7.62l-10.23 -5.9 -10.23 -5.91c-2.93,-1.69 -6.6,0.42 -6.6,3.81l0 11.81z"/>
   </g>
  </g>
  <g id="_1883954459024">
   <path class="fil7" d="M2896.41 785.46l-1987.87 0c10.27,-14.73 27.34,-24.35 46.66,-24.35l1894.56 0c19.32,0 36.4,9.63 46.64,24.35z"/>
  </g>
  <rect class="fil9" x="1283.92" y="1497.77" width="1250" height="149.93" rx="77.36" ry="74.97"/>
  <g id="_1883954461904">
   <g>
    <polygon class="fil10" points="2040.9,353.44 2566.15,574.68 2373.51,1047.25 2119.16,1647.7 1908.75,1647.7 1320.76,1409.96 1700.02,503.95 "/>
    <polygon class="fil11" points="1700.02,503.95 1933.3,608.55 2040.9,353.44 "/>
   </g>
   <g>
    <polygon class="fil12" points="1745.16,809.09 1783.92,798.56 1805.37,858.76 1934.79,799.31 1955.86,841.45 1789.56,907.67 "/>
    <polygon class="fil13" points="1994.23,881.33 1981.44,913.69 2219.23,1021.3 2236.54,985.93 "/>
    <polygon class="fil13" points="1958.05,957.71 1949.08,980.4 2115.82,1055.85 2127.96,1031.06 "/>
    <polygon class="fil12" points="1600.68,1144.71 1639.44,1134.17 1660.89,1194.37 1790.31,1134.93 1811.38,1177.07 1645.08,1243.29 "/>
    <polygon class="fil13" points="1849.75,1216.95 1836.96,1249.31 2074.75,1356.91 2092.06,1321.55 "/>
    <polygon class="fil13" points="1813.57,1293.33 1804.61,1316.02 1971.34,1391.47 1983.48,1366.67 "/>
   </g>
  </g>
  <polygon class="fil9" points="2446.83,1397.71 2508.46,1361.96 2555.91,1450.71 2594.74,1430.98 2546.67,1345.32 2615.69,1310.19 2444.37,1178.93 "/>
  <polygon class="fil13" points="2368.56,1398.57 2430.19,1362.83 2477.64,1451.58 2516.47,1431.85 2468.4,1346.19 2537.42,1311.06 2366.1,1179.8 "/>
  <g id="_1883954463472">
   <g>
    <polygon class="fil10" points="2040.9,353.44 2566.15,574.68 2373.51,1047.25 2119.16,1647.7 1908.75,1647.7 1320.76,1409.96 1700.02,503.95 "/>
    <polygon class="fil11" points="1700.02,503.95 1933.3,608.55 2040.9,353.44 "/>
   </g>
   <g>
    <polygon class="fil12" points="1745.16,809.09 1783.92,798.56 1805.37,858.76 1934.79,799.31 1955.86,841.45 1789.56,907.67 "/>
    <polygon class="fil13" points="1994.23,881.33 1981.44,913.69 2219.23,1021.3 2236.54,985.93 "/>
    <polygon class="fil13" points="1958.05,957.71 1949.08,980.4 2115.82,1055.85 2127.96,1031.06 "/>
    <polygon class="fil12" points="1600.68,1144.71 1639.44,1134.17 1660.89,1194.37 1790.31,1134.93 1811.38,1177.07 1645.08,1243.29 "/>
    <polygon class="fil13" points="1849.75,1216.95 1836.96,1249.31 2074.75,1356.91 2092.06,1321.55 "/>
    <polygon class="fil13" points="1813.57,1293.33 1804.61,1316.02 1971.34,1391.47 1983.48,1366.67 "/>
   </g>
  </g>
 </g>
</svg>
