<?xml version="1.0" encoding="UTF-8"?>
<!DOCTYPE svg PUBLIC "-//W3C//DTD SVG 1.1//EN" "http://www.w3.org/Graphics/SVG/1.1/DTD/svg11.dtd">
<!-- Creator: CorelDRAW 2017 -->
<svg xmlns="http://www.w3.org/2000/svg" xml:space="preserve" width="66.9868mm" height="66.9868mm" version="1.1" style="shape-rendering:geometricPrecision; text-rendering:geometricPrecision; image-rendering:optimizeQuality; fill-rule:evenodd; clip-rule:evenodd"
viewBox="0 0 276.42 276.42"
 xmlns:xlink="http://www.w3.org/1999/xlink">
 <defs>
  <style type="text/css">
   <![CDATA[
    .fil0 {fill:#B0AEAE}
    .fil2 {fill:white}
    .fil1 {fill:white;fill-rule:nonzero}
   ]]>
  </style>
 </defs>
 <g id="Layer_x0020_1">
  <metadata id="CorelCorpID_0Corel-Layer"/>
  <circle class="fil0" cx="138.21" cy="138.21" r="138.21"/>
  <g id="_1600130664448">
   <path class="fil1" d="M135.37 60.04c-4.72,0 -8.55,3.71 -8.55,8.3l0 74.69c0,2.15 0.85,4.2 2.39,5.76l59.4 59.8c3.27,3.31 8.68,3.4 12.09,0.22 3.4,-3.18 3.5,-8.44 0.22,-11.73l-57 -57.4 0 -71.34c0,-4.58 -3.83,-8.3 -8.55,-8.3z"/>
   <path class="fil2" d="M275.88 138.27c-0.32,0.09 -0.65,0.14 -1,0.14l-27.64 0c-2,0 -3.64,-1.64 -3.64,-3.64l0 0c0,-2 1.64,-3.64 3.64,-3.64l27.64 0c0.26,0 0.52,0.03 0.77,0.08 0.11,2.16 0.2,4.64 0.23,7.05z"/>
   <path class="fil2" d="M31.33 134.77l0 0c0,2 -1.64,3.64 -3.64,3.64l-27.22 0c0.05,-2.44 0.17,-5.05 0.28,-7.28l26.93 0c2,0 3.64,1.64 3.64,3.64z"/>
   <path class="fil2" d="M135 32.43l0 0c-2,0 -3.64,-1.64 -3.64,-3.64l0 -27.64c0,-0.15 0.01,-0.3 0.03,-0.45 1.55,-0.06 4.46,-0.16 7.19,-0.17 0.04,0.2 0.05,0.41 0.05,0.62l0 27.64c0,2 -1.64,3.64 -3.64,3.64z"/>
   <path class="fil2" d="M131.36 275.7l0 -27.23c0,-2 1.64,-3.64 3.64,-3.64l0 0c2,0 3.64,1.64 3.64,3.64l0 27.44c-2.58,-0.01 -5.16,-0.11 -7.28,-0.21z"/>
   <path class="fil2" d="M242.1 47.77l-19.93 14.99c-1.6,1.2 -3.89,0.88 -5.09,-0.72l0 0c-1.2,-1.6 -0.88,-3.89 0.72,-5.09l19.34 -14.54c1.55,1.58 3.27,3.4 4.97,5.37z"/>
   <path class="fil2" d="M56.49 208.14l0 0c1.2,1.6 0.88,3.89 -0.72,5.09l-20.97 15.77c-1.54,-1.8 -3.26,-3.92 -4.63,-5.62l21.22 -15.96c1.6,-1.2 3.89,-0.88 5.09,0.72z"/>
   <path class="fil2" d="M217.08 208.14l0 0c-1.2,1.6 -0.88,3.89 0.72,5.09l22.09 16.61c0.22,0.17 0.46,0.3 0.7,0.41 1.65,-1.84 3.21,-3.71 4.52,-5.33 -0.22,-0.34 -0.5,-0.64 -0.84,-0.9l-22.09 -16.61c-1.6,-1.2 -3.89,-0.88 -5.09,0.72z"/>
   <path class="fil2" d="M61.69 65.56l0 0c1.2,-1.6 0.88,-3.89 -0.72,-5.09l-22.09 -16.61c-0.22,-0.17 -0.46,-0.3 -0.7,-0.41 -1.65,1.84 -3.21,3.71 -4.52,5.33 0.22,0.34 0.5,0.64 0.84,0.9l22.09 16.61c1.6,1.2 3.89,0.88 5.09,-0.72z"/>
  </g>
 </g>
</svg>
