<?xml version="1.0" encoding="UTF-8"?>
<!DOCTYPE svg PUBLIC "-//W3C//DTD SVG 1.1//EN" "http://www.w3.org/Graphics/SVG/1.1/DTD/svg11.dtd">
<!-- Creator: CorelDRAW 2017 -->
<svg xmlns="http://www.w3.org/2000/svg" xml:space="preserve" width="87.7213mm" height="87.718mm" version="1.1" style="shape-rendering:geometricPrecision; text-rendering:geometricPrecision; image-rendering:optimizeQuality; fill-rule:evenodd; clip-rule:evenodd"
viewBox="0 0 480.16 480.14"
 xmlns:xlink="http://www.w3.org/1999/xlink">
 <defs>
  <style type="text/css">
   <![CDATA[
    .fil2 {fill:#232946}
    .fil0 {fill:#232946;fill-rule:nonzero}
    .fil1 {fill:#F4CAAE;fill-rule:nonzero}
   ]]>
  </style>
 </defs>
 <g id="Layer_x0020_1">
  <metadata id="CorelCorpID_0Corel-Layer"/>
  <path class="fil0" d="M456.44 240.07c0,119.5 -96.87,216.37 -216.37,216.37 -119.5,0 -216.37,-96.87 -216.37,-216.37 0,-119.5 96.87,-216.37 216.37,-216.37 119.5,0 216.37,96.87 216.37,216.37zm-456.44 0c0,132.59 107.49,240.07 240.07,240.07 132.6,0 240.09,-107.48 240.09,-240.07 0,-132.59 -107.49,-240.07 -240.09,-240.07 -132.58,0 -240.07,107.48 -240.07,240.07z"/>
  <path class="fil1" d="M422.71 240.07c0,100.7 -81.93,182.64 -182.64,182.64 -100.7,0 -182.63,-81.93 -182.63,-182.64 0,-100.7 81.93,-182.64 182.63,-182.64 100.72,0 182.64,81.93 182.64,182.64zm-399.01 0c0,119.5 96.87,216.37 216.37,216.37 119.5,0 216.37,-96.87 216.37,-216.37 0,-119.5 -96.87,-216.37 -216.37,-216.37 -119.5,0 -216.37,96.87 -216.37,216.37z"/>
  <path class="fil0" d="M236.31 136.38c-6.26,0 -11.34,4.92 -11.34,11l0 99.07c0,2.85 1.13,5.57 3.17,7.64l78.79 79.32c4.34,4.38 11.52,4.51 16.04,0.3 4.51,-4.22 4.65,-11.19 0.3,-15.56l-75.62 -76.14 0 -94.62c0,-6.08 -5.08,-11 -11.35,-11z"/>
  <path class="fil2" d="M422.69 240.14c-0.42,0.12 -0.87,0.19 -1.33,0.19l-36.67 0c-2.65,0 -4.83,-2.17 -4.83,-4.83l0 0c0,-2.65 2.17,-4.83 4.83,-4.83l36.67 0c0.35,0 0.69,0.04 1.02,0.11 0.14,2.87 0.27,6.15 0.31,9.35z"/>
  <path class="fil2" d="M98.3 235.5l0 0c0,2.65 -2.17,4.83 -4.83,4.83l-36.1 0c0.07,-3.23 0.22,-6.7 0.38,-9.65l35.73 0c2.65,0 4.83,2.17 4.83,4.83z"/>
  <path class="fil2" d="M235.82 99.76l0 0c-2.65,0 -4.83,-2.17 -4.83,-4.83l0 -36.67c0,-0.2 0.01,-0.4 0.04,-0.6 2.06,-0.08 5.91,-0.21 9.54,-0.23 0.05,0.27 0.07,0.54 0.07,0.82l0 36.67c0,2.65 -2.17,4.83 -4.83,4.83z"/>
  <path class="fil2" d="M230.99 422.45l0 -36.12c0,-2.65 2.17,-4.83 4.83,-4.83l0 0c2.65,0 4.83,2.17 4.83,4.83l0 36.4c-3.42,-0.02 -6.84,-0.14 -9.65,-0.28z"/>
  <path class="fil2" d="M377.89 120.1l-26.44 19.88c-2.12,1.6 -5.16,1.16 -6.76,-0.96l0 0c-1.6,-2.12 -1.16,-5.16 0.96,-6.76l25.65 -19.29c2.06,2.1 4.34,4.51 6.59,7.12z"/>
  <path class="fil2" d="M131.68 332.83l0 0c1.6,2.12 1.16,5.16 -0.96,6.76l-27.81 20.92c-2.04,-2.38 -4.33,-5.2 -6.14,-7.46l28.15 -21.17c2.12,-1.6 5.16,-1.16 6.76,0.96z"/>
  <path class="fil2" d="M344.69 332.83l0 0c-1.6,2.12 -1.16,5.16 0.96,6.76l29.3 22.04c0.3,0.22 0.61,0.4 0.93,0.55 2.19,-2.44 4.26,-4.92 5.99,-7.07 -0.3,-0.45 -0.67,-0.85 -1.12,-1.19l-29.3 -22.04c-2.12,-1.6 -5.16,-1.16 -6.76,0.96z"/>
  <path class="fil2" d="M138.58 143.7l0 0c1.6,-2.12 1.16,-5.16 -0.96,-6.76l-29.3 -22.04c-0.3,-0.22 -0.61,-0.4 -0.93,-0.55 -2.19,2.44 -4.26,4.92 -5.99,7.07 0.3,0.45 0.67,0.85 1.12,1.19l29.3 22.04c2.12,1.6 5.16,1.16 6.76,-0.96z"/>
 </g>
</svg>
